<?xml version="1.0" standalone="no"?>
<!DOCTYPE svg PUBLIC "-//W3C//DTD SVG 1.1//EN" "http://www.w3.org/Graphics/SVG/1.1/DTD/svg11.dtd" >
<svg xmlns="http://www.w3.org/2000/svg">
<metadata></metadata>
<defs>
<font id="good_headline_procond_medium" horiz-adv-x="466" >
<font-face units-per-em="2048" ascent="1796" descent="-252" />
<missing-glyph horiz-adv-x="337" />
<glyph horiz-adv-x="0" />
<glyph horiz-adv-x="0" />
<glyph horiz-adv-x="682" />
<glyph unicode="&#xd;" horiz-adv-x="337" />
<glyph unicode=" "  horiz-adv-x="337" />
<glyph unicode="&#x09;" horiz-adv-x="337" />
<glyph unicode="&#xa0;" horiz-adv-x="337" />
<glyph unicode="!" horiz-adv-x="372" d="M94 1339h182v-565l-18 -381h-145l-19 375v571zM115 0v184h168v-184h-168z" />
<glyph unicode="&#x22;" horiz-adv-x="561" d="M317 1237v248h160v-248l-43 -217h-80zM78 1237v248h160v-248l-43 -217h-80z" />
<glyph unicode="#" horiz-adv-x="817" d="M55 823v133h156l27 383h131l-27 -383h166l27 383h131l-27 -383h125v-133h-129l-19 -303h148v-131h-150l-26 -389h-131l26 389h-168l-26 -389h-129l26 389h-131v131h133l19 303h-152zM338 823l-21 -303h168l21 303h-168z" />
<glyph unicode="$" horiz-adv-x="755" d="M354 1511h109l2 -165q88 -25 145.5 -99t83.5 -182l-127 -43q-35 133 -116 164l-23 -422q50 -35 80 -58t71 -64.5t64 -80.5t40 -96t17 -121q0 -152 -74 -247.5t-200 -110.5l-23 -166h-110l-4 172q-199 45 -246 303l137 45q28 -142 123 -182l25 446q-39 27 -57.5 40.5 t-53.5 42.5t-53 49.5t-43 54t-37 65.5t-21.5 74.5t-9.5 89.5q0 139 74.5 231t204.5 105zM543 317q0 67 -31.5 119t-89.5 99l-2 -385q123 18 123 167zM215 1038q0 -63 30.5 -110.5t88.5 -93.5v360q-119 -20 -119 -156z" />
<glyph unicode="%" horiz-adv-x="1030" d="M496 1231v-119q0 -131 -55 -200.5t-162 -69.5q-108 0 -164 69.5t-56 200.5v119q0 133 56 203.5t164 70.5q107 0 162 -70.5t55 -203.5zM195 1231v-119q0 -78 19.5 -109.5t64.5 -31.5q42 0 61.5 31.5t19.5 109.5v119q0 76 -19.5 108.5t-61.5 32.5q-45 0 -64.5 -32 t-19.5 -109zM80 2l717 1481h147l-719 -1481h-145zM977 362v-118q0 -131 -55 -201t-162 -70q-108 0 -163.5 69.5t-55.5 201.5v118q0 132 55.5 203.5t163.5 71.5q106 0 161.5 -71.5t55.5 -203.5zM676 362v-118q0 -78 20 -110t64 -32q42 0 62 32.5t20 109.5v118q0 76 -20 109 t-62 33q-44 0 -64 -32.5t-20 -109.5z" />
<glyph unicode="&#x26;" horiz-adv-x="931" d="M705 1106l-130 -68q-58 160 -153 160q-100 0 -100 -123q0 -87 40 -153l259 -441q28 140 28 299v37h250v-149h-111q-9 -204 -65 -361q85 -124 209 -153l-25 -168q-158 20 -270 149q-112 -151 -283 -151q-144 0 -231.5 96.5t-87.5 296.5q0 131 51.5 243t142.5 185 q-84 137 -84 264q0 124 70 205.5t199 81.5q108 0 177 -60.5t114 -189.5zM379 141q101 0 172 127l-234 394q-47 -56 -71.5 -132t-24.5 -151q0 -238 158 -238z" />
<glyph unicode="'" horiz-adv-x="305" d="M74 1237v248h159v-248l-43 -217h-79z" />
<glyph unicode="(" horiz-adv-x="460" d="M111 455v356q0 327 81.5 465.5t264.5 138.5h24v-139h-24q-63 0 -103.5 -40t-65 -145t-24.5 -280v-356q0 -175 24.5 -280.5t65 -146t103.5 -40.5h24v-140h-24q-122 0 -197 59.5t-112 193t-37 354.5z" />
<glyph unicode=")" horiz-adv-x="460" d="M354 811v-356q0 -327 -82.5 -467t-263.5 -140h-24v140h24q47 0 80.5 23t59 75.5t38.5 144.5t13 224v356q0 175 -24 280t-64 145t-103 40h-24v139h24q121 0 196 -58.5t112.5 -192t37.5 -353.5z" />
<glyph unicode="*" horiz-adv-x="583" d="M242 1430l-17 192h119l-16 -192l168 77l39 -123l-183 -43l123 -143l-96 -76l-96 164l-93 -162l-98 76l123 141l-180 43l37 123z" />
<glyph unicode="+" horiz-adv-x="776" d="M315 211v348h-233v152h233v348h144v-348h237v-152h-237v-348h-144z" />
<glyph unicode="," horiz-adv-x="370" d="M100 0v184h168v-135q0 -110 -35.5 -165.5t-128.5 -65.5l-10 88q46 9 61 28t15 66h-70z" />
<glyph unicode="-" horiz-adv-x="460" d="M43 516v174h377v-174h-377z" />
<glyph unicode="." horiz-adv-x="368" d="M100 0v184h168v-184h-168z" />
<glyph unicode="/" horiz-adv-x="489" d="M4 0l324 1339h147l-323 -1339h-148z" />
<glyph unicode="0" horiz-adv-x="829" d="M756 946v-557q0 -194 -87 -300.5t-253 -106.5q-167 0 -253.5 106.5t-86.5 300.5v557q0 196 86.5 304t253.5 108q165 0 252.5 -108t87.5 -304zM260 946v-557q0 -127 37.5 -182t118.5 -55q80 0 117.5 55t37.5 182v557q0 124 -38 180t-117 56q-80 0 -118 -55.5t-38 -180.5z " />
<glyph unicode="1" horiz-adv-x="579" d="M305 1343h150v-1343h-199v975h-211v143h92q46 0 73 7.5t47.5 32t31 68t16.5 117.5z" />
<glyph unicode="2" horiz-adv-x="786" d="M406 1358q157 0 237 -92.5t80 -243.5q0 -86 -22 -163t-58 -135.5t-80.5 -112t-91 -104t-87 -100.5t-71 -111.5t-41.5 -127.5h457v-168h-653l-4 94q2 87 29 169t68 147.5t90 127.5t97.5 120t88.5 113.5t65 118.5t25 126q0 170 -142 170q-66 0 -112 -54t-64 -159l-147 45 q28 154 113.5 247t222.5 93z" />
<glyph unicode="3" horiz-adv-x="780" d="M272 612v156h78q80 0 121 49.5t41 163.5q0 112 -34.5 158.5t-104.5 46.5q-66 0 -108.5 -46t-63.5 -145l-146 47q30 148 116.5 232t215.5 84q158 0 238 -95.5t80 -256.5q0 -243 -154 -308q86 -25 129 -98.5t43 -206.5q0 -411 -342 -411q-272 0 -334 288l141 47 q47 -170 183 -170q83 0 120 60.5t37 193.5q0 121 -43 166t-131 45h-82z" />
<glyph unicode="4" horiz-adv-x="798" d="M668 0h-172v248h-478v131l463 960h187v-931h123l-13 -160h-110v-248zM209 408h287l10 682z" />
<glyph unicode="5" horiz-adv-x="786" d="M203 610l-121 56l43 673h571l-12 -180h-408l-20 -362q87 51 184 51q149 0 222 -100.5t73 -311.5q0 -233 -87 -343.5t-263 -110.5q-126 0 -211 72.5t-113 217.5l148 45q19 -87 63.5 -128.5t104.5 -41.5q89 0 127.5 66.5t38.5 222.5q0 134 -41.5 189t-132.5 55 q-47 0 -92.5 -19.5t-73.5 -50.5z" />
<glyph unicode="6" horiz-adv-x="800" d="M422 1358q119 0 197 -73.5t108 -219.5l-137 -51q-23 93 -61.5 132.5t-98.5 39.5q-170 0 -170 -252v-164q78 72 197 72q149 0 220 -98.5t71 -297.5q0 -464 -338 -464q-161 0 -247.5 106t-86.5 301v526q0 198 93 320.5t253 122.5zM416 674q-65 0 -108.5 -29.5t-47.5 -79.5 v-194q0 -111 41 -164t111 -53q78 0 114.5 66t36.5 222q0 123 -34.5 177.5t-112.5 54.5z" />
<glyph unicode="7" horiz-adv-x="731" d="M332 0h-205l387 1161h-491v178h688v-153z" />
<glyph unicode="8" horiz-adv-x="811" d="M406 -18q-176 0 -262.5 93.5t-86.5 317.5q0 249 152 316q-129 69 -129 297q0 352 326 352q325 0 325 -352q0 -226 -129 -297q152 -68 152 -316q0 -115 -22.5 -195t-68.5 -127t-108.5 -68t-148.5 -21zM565 401q0 126 -39 174t-120 48q-82 0 -122 -48.5t-40 -173.5 q0 -146 38 -200t124 -54t122.5 53t36.5 201zM406 1194q-80 0 -114 -43.5t-34 -161.5q0 -123 34 -169t114 -46q81 0 114 45.5t33 169.5q0 118 -33 161.5t-114 43.5z" />
<glyph unicode="9" horiz-adv-x="802" d="M199 319q27 -91 69 -129t111 -38q164 0 164 210v246q-73 -67 -187 -67q-301 0 -301 393q0 212 89 318t259 106q156 0 241 -103.5t85 -275.5v-606q0 -182 -91.5 -285.5t-250.5 -103.5q-255 0 -319 272zM391 700q59 0 105.5 32.5t46.5 88.5v164q0 103 -35.5 152t-110.5 49 q-78 0 -116.5 -58t-38.5 -188q0 -92 18.5 -146t49.5 -74t81 -20z" />
<glyph unicode=":" horiz-adv-x="368" d="M100 795v184h168v-184h-168zM100 0v184h168v-184h-168z" />
<glyph unicode=";" horiz-adv-x="368" d="M100 795v184h168v-184h-168zM100 0v184h168v-135q0 -110 -35.5 -165.5t-128.5 -65.5l-10 88q46 9 61 28t15 66h-70z" />
<glyph unicode="&#x3c;" horiz-adv-x="776" d="M657 887l-329 -246l329 -244v-207l-571 441v20l571 445v-209z" />
<glyph unicode="=" horiz-adv-x="776" d="M678 686h-580v154h580v-154zM678 399h-580v156h580v-156z" />
<glyph unicode="&#x3e;" horiz-adv-x="776" d="M119 397l330 244l-328 246v209l569 -445v-20l-571 -441v207z" />
<glyph unicode="?" horiz-adv-x="745" d="M29 1044q34 144 124 229t226 85q80 0 141.5 -25.5t98 -70.5t55 -102t18.5 -124q0 -141 -67.5 -265.5t-188.5 -201.5l-14 -178h-135l-13 268q234 134 234 363q0 168 -139 168q-146 0 -191 -189zM279 0v184h167v-184h-167z" />
<glyph unicode="@" horiz-adv-x="1157" d="M844 852h-37l-31 -436q-2 -10 -2 -31q0 -48 18 -69t54 -21q37 0 60.5 20t39 77.5t15.5 156.5v217q0 198 -92 299.5t-275 101.5q-189 0 -292 -117.5t-103 -316.5v-315q0 -227 107.5 -339t299.5 -112q121 0 204 36.5t151 113.5l94 -70q-171 -205 -451 -205 q-258 0 -397 146.5t-139 429.5v317q0 162 59 287t180 199.5t287 74.5q239 0 366 -144.5t127 -385.5v-215q0 -198 -65 -293.5t-180 -95.5t-164 82q-73 -88 -189 -88q-92 0 -140 68.5t-48 197.5q0 263 99 407t280 144h170zM631 387l31 444h-15q-91 0 -140.5 -100t-49.5 -305 q0 -74 16.5 -102.5t50.5 -28.5q72 0 107 92z" />
<glyph unicode="A" horiz-adv-x="903" d="M283 322l-66 -322h-201l320 1339h231l322 -1339h-205l-68 322h-333zM449 1139l-136 -662h273z" />
<glyph unicode="B" horiz-adv-x="868" d="M768 993q0 -119 -35.5 -189t-114.5 -102q195 -58 195 -317q0 -196 -78 -290.5t-266 -94.5h-363v1339h322q173 0 256.5 -91t83.5 -255zM301 610v-436h162q82 0 116.5 48t34.5 175q0 121 -35 167t-116 46h-162zM301 1161v-395h137q81 0 112.5 48.5t31.5 156.5 q0 105 -33.5 147.5t-112.5 42.5h-135z" />
<glyph unicode="C" horiz-adv-x="790" d="M424 1358q127 0 213.5 -82t110.5 -215l-152 -49q-30 170 -158 170q-164 0 -164 -236v-573q0 -103 41 -162t121 -59q69 0 106.5 40.5t55.5 141.5l152 -47q-26 -158 -107.5 -231.5t-222.5 -73.5q-159 0 -251.5 106.5t-92.5 284.5v573q0 192 93.5 302t254.5 110z" />
<glyph unicode="D" horiz-adv-x="923" d="M106 1339h367q179 0 278 -110t99 -307v-506q0 -196 -99 -306t-278 -110h-367v1339zM649 913q0 130 -43 189t-133 59h-168v-987h168q91 0 133.5 57.5t42.5 188.5v493z" />
<glyph unicode="E" horiz-adv-x="772" d="M106 1339h607v-182h-408v-385h318v-160h-318v-432h426v-180h-625v1339z" />
<glyph unicode="F" horiz-adv-x="761" d="M106 1339h611v-182h-412v-399h357v-170h-357v-588h-199v1339z" />
<glyph unicode="G" horiz-adv-x="884" d="M455 1360q137 0 229.5 -79t120.5 -220l-152 -49q-27 91 -72 131.5t-112 40.5q-99 0 -147 -66t-48 -200v-515q0 -241 191 -241q57 0 97 23t71 81v256h-133v144h307v-666h-164v84q-89 -102 -231 -102q-157 0 -246.5 107t-89.5 312v519q0 204 95.5 322t283.5 118z" />
<glyph unicode="H" horiz-adv-x="931" d="M106 1339h199v-559h322v559h198v-1339h-198v598h-322v-598h-199v1339z" />
<glyph unicode="I" horiz-adv-x="450" d="M125 1339h203v-1339h-203v1339z" />
<glyph unicode="J" horiz-adv-x="503" d="M199 1339h200v-899q0 -221 -98 -334t-287 -116l-16 164q104 0 152.5 65.5t48.5 214.5v905z" />
<glyph unicode="K" horiz-adv-x="886" d="M879 0h-222l-264 594l-92 -160v-434h-195v1339h195v-663l328 663h223l-328 -596z" />
<glyph unicode="L" horiz-adv-x="718" d="M106 1339h193v-1155h389v-184h-582v1339z" />
<glyph unicode="M" horiz-adv-x="1191" d="M903 1339h184v-1339h-180v864l-266 -639h-90l-264 639v-864h-181v1339h185l305 -819z" />
<glyph unicode="N" horiz-adv-x="931" d="M106 1339h150l395 -845v845h174v-1339h-135l-407 872v-872h-177v1339z" />
<glyph unicode="O" horiz-adv-x="890" d="M446 1358q181 0 277 -108.5t96 -305.5v-551q0 -196 -96 -303.5t-277 -107.5t-275.5 107.5t-94.5 303.5v551q0 197 94.5 305.5t275.5 108.5zM618 393v551q0 125 -41 181.5t-131 56.5q-89 0 -130.5 -56.5t-41.5 -181.5v-551q0 -127 41 -183t131 -56q89 0 130.5 56.5 t41.5 182.5z" />
<glyph unicode="P" horiz-adv-x="843" d="M469 1339q160 0 245 -107.5t85 -311.5q0 -198 -83 -306t-237 -108h-174v-506h-199v1339h363zM305 1163v-493h158q72 0 104.5 57.5t32.5 190.5q0 135 -32 190t-105 55h-158z" />
<glyph unicode="Q" horiz-adv-x="890" d="M446 1358q181 0 277 -108.5t96 -305.5v-536q0 -145 -78 -246h140v-162h-435q-181 0 -275.5 106t-94.5 302v536q0 197 94.5 305.5t275.5 108.5zM618 408v536q0 125 -41 181.5t-131 56.5q-89 0 -130.5 -56.5t-41.5 -181.5v-536q0 -127 41 -183.5t131 -56.5q89 0 130.5 57 t41.5 183z" />
<glyph unicode="R" horiz-adv-x="862" d="M629 0l-205 565h-119v-565h-199v1339h347q329 0 329 -374q0 -290 -180 -353l240 -612h-213zM305 1163v-436h135q81 0 113.5 51t32.5 170q0 121 -33 168t-111 47h-137z" />
<glyph unicode="S" horiz-adv-x="749" d="M373 1358q256 0 336 -277l-144 -59q-43 166 -178 166q-139 0 -139 -162q0 -54 25.5 -99.5t66.5 -80.5t90.5 -69t99.5 -74t91 -86t66.5 -115t25.5 -152q0 -176 -90 -272t-246 -96q-130 0 -224 82t-120 229l155 49q22 -98 71.5 -144t115.5 -46q75 0 111 42t36 130 q0 60 -26 110t-68 87t-92.5 72.5t-100.5 75t-92 85.5t-68 113t-26 149q0 150 87.5 246t236.5 96z" />
<glyph unicode="T" horiz-adv-x="729" d="M18 1339h693v-184h-246v-1155h-201v1155h-246v184z" />
<glyph unicode="U" horiz-adv-x="925" d="M637 1339h199v-954q0 -195 -96 -299t-275 -104q-180 0 -276.5 102t-96.5 293v962h201v-962q0 -209 172 -209q86 0 129 49t43 160v962z" />
<glyph unicode="V" horiz-adv-x="890" d="M881 1339l-330 -1339h-211l-330 1339h215l221 -1073l218 1073h217z" />
<glyph unicode="W" horiz-adv-x="1372" d="M1341 1339l-256 -1339h-221l-176 965l-180 -965h-219l-256 1339h200l170 -1065l191 1065h186l189 -1067l174 1067h198z" />
<glyph unicode="X" horiz-adv-x="870" d="M25 0l282 682l-274 657h215l190 -532l189 532h211l-275 -665l285 -674h-215l-201 545l-196 -545h-211z" />
<glyph unicode="Y" horiz-adv-x="851" d="M848 1339l-322 -915v-424h-198v424l-322 915h219l203 -696l203 696h217z" />
<glyph unicode="Z" horiz-adv-x="782" d="M723 180v-180h-672v123l457 1034h-430v182h647v-125l-455 -1034h453z" />
<glyph unicode="[" horiz-adv-x="454" d="M125 -152v1569h352v-143h-188v-1282h188v-144h-352z" />
<glyph unicode="\" horiz-adv-x="532" d="M109 1526l419 -1700h-147l-420 1700h148z" />
<glyph unicode="]" horiz-adv-x="456" d="M332 1417v-1569h-352v144h188v1282h-188v143h352z" />
<glyph unicode="^" horiz-adv-x="763" d="M82 1075l235 459h136l231 -459h-149l-148 307h-4l-152 -307h-149z" />
<glyph unicode="_" horiz-adv-x="661" d="M0 -100h662v-140h-662v140z" />
<glyph unicode="`" horiz-adv-x="446" d="M8 1339h209l94 -229h-137z" />
<glyph unicode="a" horiz-adv-x="765" d="M209 756l-127 57q41 115 116 181.5t187 66.5q141 0 209 -87t68 -239v-540q0 -72 61 -72h22v-121q-44 -14 -88 -14q-102 0 -153 82q-80 -86 -207 -86q-110 0 -176 77.5t-66 206.5q0 152 88.5 243t278.5 91h51v135q0 89 -27.5 127.5t-85.5 38.5q-100 0 -151 -147zM342 125 q81 0 131 74v264h-51q-99 0 -142.5 -45t-43.5 -133q0 -160 106 -160z" />
<glyph unicode="b" horiz-adv-x="827" d="M489 -14q-138 0 -215 96l-10 -82h-162v1339h187v-370q81 90 211 90q124 0 192 -91.5t68 -262.5v-369q0 -169 -70 -259.5t-201 -90.5zM289 813v-584q52 -84 147 -84q68 0 101.5 46t33.5 145v364q0 191 -133 191q-93 0 -149 -78z" />
<glyph unicode="c" horiz-adv-x="708" d="M676 805l-139 -47q-35 141 -140 141q-141 0 -141 -190v-377q0 -193 141 -193q53 0 87.5 35t54.5 113l141 -45q-31 -125 -106.5 -192.5t-192.5 -67.5q-150 0 -230.5 97t-80.5 245v391q0 151 80.5 247.5t230.5 96.5q110 0 187 -67t108 -187z" />
<glyph unicode="d" horiz-adv-x="829" d="M338 1055q121 0 201 -80v364h188v-1339h-164l-10 82q-81 -100 -223 -100q-124 0 -192 91.5t-68 262.5v366q0 170 69.5 261.5t198.5 91.5zM539 223v590q-57 78 -146 78q-137 0 -137 -193v-364q0 -191 133 -191q92 0 150 80z" />
<glyph unicode="e" horiz-adv-x="757" d="M698 500h-442v-168q0 -193 152 -193q59 0 93.5 36.5t59.5 125.5l141 -45q-32 -140 -108 -207t-205 -67q-152 0 -235.5 95.5t-83.5 248.5v391q0 151 83 246.5t236 95.5q147 0 228 -97.5t81 -252.5v-209zM256 725v-100h272v100q0 180 -135 180q-70 0 -103.5 -44.5 t-33.5 -135.5z" />
<glyph unicode="f" horiz-adv-x="522" d="M498 995v-149h-187v-846h-188v846h-98v149h98v27q0 155 85.5 236.5t274.5 87.5l11 -140q-107 -6 -149 -47t-42 -137v-27h195z" />
<glyph unicode="g" horiz-adv-x="784" d="M393 418q-70 0 -129 16q-47 -27 -47 -65q0 -56 92 -56h164q149 0 215 -60.5t66 -176.5q0 -146 -94.5 -224.5t-264.5 -78.5q-160 0 -237.5 61t-77.5 166q0 108 70 178q-41 23 -65 63t-24 87q0 101 109 161q-78 75 -78 246q0 169 72.5 246.5t228.5 77.5q106 0 174 -35 q76 47 101 111l90 -39q-15 -105 -94 -174q34 -69 34 -187q0 -163 -73.5 -240t-231.5 -77zM270 731q0 -104 26.5 -140t96.5 -36q73 0 100 36t27 140q0 106 -28 143t-99 37q-70 0 -96.5 -37t-26.5 -143zM461 147h-174q-45 -37 -45 -120q0 -61 39.5 -89t121.5 -28q105 0 144 35 t39 102q0 57 -26 78.5t-99 21.5z" />
<glyph unicode="h" horiz-adv-x="839" d="M289 811v-811h-187v1339h187v-370q78 90 211 90q125 0 192.5 -91t67.5 -263v-705h-189v700q0 100 -33 145.5t-100 45.5q-95 0 -149 -80z" />
<glyph unicode="i" horiz-adv-x="405" d="M109 999h188v-999h-188v999zM117 1339h170v-200h-170v200z" />
<glyph unicode="j" horiz-adv-x="382" d="M117 1339h170v-200h-170v200zM-20 -225l-15 155q75 11 110.5 63.5t35.5 164.5v841h188v-837q0 -363 -319 -387z" />
<glyph unicode="k" horiz-adv-x="833" d="M102 1339h187v-809l307 510h199l-279 -450l305 -590h-207l-221 455l-104 -136v-319h-187v1339z" />
<glyph unicode="l" horiz-adv-x="415" d="M113 1339h188v-1339h-188v1339z" />
<glyph unicode="m" horiz-adv-x="1230" d="M717 702v-702h-189v702q0 103 -28.5 146t-83.5 43q-45 0 -79 -29t-52 -78v-784h-189v1040h164v-100q77 119 211 119q141 0 199 -133q81 133 227 133q252 0 252 -354v-705h-188v702q0 97 -29 143t-90 46q-125 0 -125 -189z" />
<glyph unicode="n" horiz-adv-x="835" d="M285 811v-811h-189v1040h164l8 -84q83 103 224 103q127 0 194.5 -90.5t67.5 -263.5v-705h-189v700q0 99 -32.5 145t-98.5 46q-94 0 -149 -80z" />
<glyph unicode="o" horiz-adv-x="798" d="M729 715v-393q0 -152 -86 -246t-244 -94q-159 0 -244 93.5t-85 246.5v393q0 154 85 249t244 95t244.5 -94.5t85.5 -249.5zM256 709v-379q0 -193 143 -193q142 0 142 193v379q0 192 -142 192q-73 0 -108 -47.5t-35 -144.5z" />
<glyph unicode="p" horiz-adv-x="823" d="M483 -14q-124 0 -198 77v-280h-189v1257h164l8 -84q83 103 226 103q125 0 192.5 -92t67.5 -262v-369q0 -169 -70 -259.5t-201 -90.5zM285 813v-590q53 -80 145 -80q135 0 135 193v364q0 99 -31.5 145t-99.5 46q-96 0 -149 -78z" />
<glyph unicode="q" horiz-adv-x="823" d="M348 1059q136 0 215 -111l10 92h154v-1257h-188v291q-79 -94 -211 -94q-122 0 -190 90.5t-68 251.5v395q0 164 74.5 253t203.5 89zM539 256v551q-56 84 -142 84q-68 0 -104.5 -46.5t-36.5 -139.5v-375q0 -187 137 -187q51 0 88.5 31t57.5 82z" />
<glyph unicode="r" horiz-adv-x="591" d="M567 1032l-20 -186q-32 22 -80 22q-158 0 -182 -258v-610h-189v1040h160l10 -159q67 176 207 176q53 0 94 -25z" />
<glyph unicode="s" horiz-adv-x="681" d="M633 821l-125 -49q-19 75 -57 106t-93 31q-112 0 -112 -121q0 -41 21.5 -74.5t56.5 -57.5t76.5 -47.5t83.5 -52t77 -63.5t56.5 -89.5t21.5 -122.5q0 -131 -80.5 -215t-206.5 -84q-227 0 -297 241l129 58q22 -79 66 -116.5t96 -37.5q115 0 115 137q0 45 -22 81t-57 61.5 t-77.5 49.5t-85 52t-77.5 62t-57 87t-22 119q0 123 77 203t212 80q106 0 177.5 -61t103.5 -177z" />
<glyph unicode="t" horiz-adv-x="557" d="M512 999v-153h-195v-586q0 -62 27.5 -93.5t77.5 -31.5q35 0 74 17l20 -123q-72 -45 -162 -45q-116 0 -170.5 70.5t-54.5 211.5v570l-106 26v133l116 9l47 225h131v-230h195z" />
<glyph unicode="u" horiz-adv-x="835" d="M551 225v815h188v-1040h-164l-10 80q-82 -98 -223 -98q-124 0 -192 91.5t-68 262.5v704h186v-706q0 -189 133 -189q92 0 150 80z" />
<glyph unicode="v" horiz-adv-x="813" d="M795 1040l-283 -1040h-215l-279 1040h207l181 -854l182 854h207z" />
<glyph unicode="w" horiz-adv-x="1202" d="M748 0l-148 772l-145 -772h-207l-223 1040h194l137 -827l158 827h174l156 -831l139 831h195l-224 -1040h-206z" />
<glyph unicode="x" horiz-adv-x="811" d="M25 0l251 537l-239 503h207l166 -399l159 399h207l-241 -514l251 -526h-206l-179 420l-170 -420h-206z" />
<glyph unicode="y" horiz-adv-x="819" d="M799 1040l-289 -966q-47 -156 -122 -222.5t-206 -72.5l-14 143q71 9 109 43t63 113l6 20l-326 942h207l209 -718l170 718h193z" />
<glyph unicode="z" horiz-adv-x="688" d="M629 162v-162h-576v115l365 762h-346v163h563v-110l-369 -768h363z" />
<glyph unicode="{" horiz-adv-x="473" d="M31 582v102q137 12 137 104q0 30 -28.5 145t-28.5 197q0 145 86.5 216t263.5 71h28v-141h-28q-100 0 -144.5 -47.5t-44.5 -145.5q0 -70 27 -174.5t27 -136.5q0 -105 -127 -139q127 -34 127 -139q0 -31 -27 -135t-27 -175q0 -98 43.5 -146t143.5 -48h28v-142h-28 q-348 0 -348 291q0 82 28.5 195t28.5 143q0 44 -35.5 71.5t-101.5 33.5z" />
<glyph unicode="|" horiz-adv-x="468" d="M147 -307v1972h177v-1972h-177z" />
<glyph unicode="}" horiz-adv-x="473" d="M440 696v-102q-65 -6 -100 -33.5t-35 -71.5q0 -29 28.5 -142t28.5 -195q0 -291 -348 -291h-28v141h28q99 0 143 48.5t44 146.5q0 70 -27 173.5t-27 135.5q0 106 123 139q-123 33 -123 139q0 30 27 136t27 176q0 97 -44.5 144.5t-142.5 47.5h-28v139h28q348 0 348 -284 q0 -82 -28.5 -197.5t-28.5 -144.5q0 -92 135 -105z" />
<glyph unicode="~" horiz-adv-x="843" d="M221 1235h-139q9 153 62.5 223t150.5 70q44 0 79.5 -16.5t58 -40t41 -47t38 -40t41.5 -16.5q32 0 49 30.5t23 110.5h139q-10 -153 -63.5 -222.5t-149.5 -69.5q-44 0 -79.5 16.5t-58 39.5t-41 46.5t-38 40t-41.5 16.5q-32 0 -49 -30.5t-23 -110.5z" />
<glyph unicode="&#xa1;" horiz-adv-x="405" d="M297 -193h-191v635l19 418h154l18 -414v-639zM307 1292v-235h-213v235h213z" />
<glyph unicode="&#xa2;" horiz-adv-x="708" d="M676 805l-139 -47q-35 133 -140 133q-141 0 -141 -199v-344q0 -112 35.5 -161.5t105.5 -49.5q54 0 88 35t54 115l141 -45q-54 -212 -223 -252l-25 -187h-115l-4 185q-119 23 -181 118t-62 236v358q0 143 63 238t184 115l29 217h115l4 -223q78 -23 132 -85t79 -157z" />
<glyph unicode="&#xa3;" horiz-adv-x="870" d="M82 602l-19 141h101q-21 147 -21 218q0 187 84 292t240 105q123 0 203.5 -75t103.5 -208l-143 -47q-18 84 -57 121t-99 37q-75 0 -110 -61t-35 -185q0 -80 12 -197h326l-17 -141h-297q3 -33 8 -83.5t8.5 -86.5t4.5 -61q39 -18 74.5 -55.5t57.5 -71t50.5 -59t56.5 -25.5 q42 0 65 43.5t36 156.5l141 -36q-20 -182 -76 -262t-153 -80q-39 0 -72.5 13.5t-62 42.5t-46 51.5t-44.5 64t-37 55.5q-34 -227 -195 -227q-71 0 -112.5 46t-41.5 130q0 91 55 152.5t150 74.5l-37 217h-102zM182 119q25 0 39 34t15 123q-46 -8 -66 -38.5t-20 -69.5 q0 -24 9.5 -36.5t22.5 -12.5z" />
<glyph unicode="&#xa4;" horiz-adv-x="817" d="M207 694q0 59 29 109l-68 74l68 75l69 -75q44 30 103 30q52 0 104 -30l74 79l67 -73l-73 -80q28 -51 28 -109q0 -61 -28 -112l69 -74l-67 -76l-72 76q-45 -31 -102 -31q-53 0 -103 29l-72 -80l-67 76l70 78q-29 53 -29 114zM315 692q0 -45 27 -73.5t66 -28.5 q40 0 67 28.5t27 73.5t-27 73t-67 28q-39 0 -66 -28t-27 -73z" />
<glyph unicode="&#xa5;" horiz-adv-x="878" d="M725 272h-180v-272h-199v272h-190v136h190v79h-190v134h153l-278 718h219l194 -634l197 634h219l-280 -718h145v-134h-180v-79h180v-136z" />
<glyph unicode="&#xa6;" horiz-adv-x="468" d="M147 813v852h177v-852h-177zM147 -307v852h177v-852h-177z" />
<glyph unicode="&#xa7;" horiz-adv-x="727" d="M86 -63l150 32q17 -71 49 -103t82 -32q58 0 84 37t26 96q0 45 -23.5 88.5t-61 82t-83 79t-91 86t-83 95t-61 114t-23.5 135.5q0 99 40.5 173.5t111.5 113.5q-115 136 -115 268q0 131 71 217t212 86q115 0 190 -71.5t98 -200.5l-149 -31q-17 70 -48 101.5t-81 31.5 q-111 0 -111 -133q0 -45 23.5 -88.5t61 -82t83 -78.5t91 -85.5t83 -95t61 -114.5t23.5 -136q0 -98 -42 -172t-113 -114q116 -133 116 -267q0 -133 -70.5 -219t-211.5 -86q-115 0 -190.5 72t-98.5 201zM530 502q0 63 -41 125.5t-178 193.5q-96 -48 -96 -153q0 -62 41 -127.5 t176 -192.5q98 48 98 154z" />
<glyph unicode="&#xa8;" horiz-adv-x="446" d="M39 1339h133v-200h-133v200zM276 1339h132v-200h-132v200z" />
<glyph unicode="&#xa9;" horiz-adv-x="1234" d="M621 1274q124 0 201 -74.5t96 -206.5l-136 -37q-15 90 -49.5 130t-95.5 40q-76 0 -114 -53.5t-38 -154.5v-359q0 -97 37.5 -152t110.5 -55q65 0 99.5 41t51.5 144l136 -35q-21 -156 -95 -225.5t-207 -69.5q-146 0 -230.5 96.5t-84.5 253.5v361q0 164 84.5 260t233.5 96z M1151 911v-344q0 -127 -35 -235t-101 -189t-168.5 -126.5t-230.5 -45.5q-169 0 -291.5 79.5t-182.5 213t-60 303.5v344q0 171 60 304.5t182.5 212.5t291.5 79q128 0 230.5 -45.5t168.5 -126t101 -188.5t35 -236zM1026 567v344q0 216 -107.5 344.5t-304.5 128.5 q-194 0 -299.5 -128.5t-105.5 -344.5v-344q0 -216 106.5 -344.5t300.5 -128.5q196 0 303 128.5t107 344.5z" />
<glyph unicode="&#xaa;" horiz-adv-x="552" d="M152 1341l-95 43q27 71 82.5 113.5t128.5 42.5q98 0 146.5 -55.5t48.5 -147.5v-309q0 -39 33 -39h20v-92h-70q-62 0 -94 47q-59 -53 -147 -53q-77 0 -123.5 47.5t-46.5 124.5q0 92 60 147.5t196 55.5h37v73q0 45 -17.5 66.5t-58.5 21.5q-33 0 -60 -22.5t-40 -63.5z M238 991q55 0 90 41v135h-37q-67 0 -96 -24.5t-29 -71.5q0 -80 72 -80z" />
<glyph unicode="&#xab;" horiz-adv-x="546" d="M518 825l-158 -290l158 -291h-129l-156 291l156 290h129zM311 825l-157 -290l157 -291h-129l-155 291l155 290h129z" />
<glyph unicode="&#xac;" horiz-adv-x="776" d="M551 289v268h-469v154h614v-422h-145z" />
<glyph unicode="&#xad;" horiz-adv-x="460" d="M43 516v174h377v-174h-377z" />
<glyph unicode="&#xae;" horiz-adv-x="491" d="M463 1374v-121q0 -98 -57 -162.5t-160 -64.5q-104 0 -160.5 64t-56.5 163v121q0 98 56 159.5t161 61.5q104 0 160.5 -61.5t56.5 -159.5zM84 1374v-121q0 -172 160 -172q164 0 164 172v121q0 170 -164 170q-160 0 -160 -170zM297 1151l-53 131h-31v-131h-72v334h113 q108 0 108 -99q0 -72 -53 -90l66 -145h-78zM213 1427v-92h39q21 0 29 10.5t8 36.5q0 25 -8 35t-31 10h-37z" />
<glyph unicode="&#xaf;" horiz-adv-x="446" d="M432 1294v-125h-416v125h416z" />
<glyph unicode="&#xb0;" horiz-adv-x="468" d="M31 1384q0 88 59.5 150.5t145.5 62.5q85 0 144.5 -62.5t59.5 -150.5q0 -89 -59.5 -151t-144.5 -62q-86 0 -145.5 62t-59.5 151zM139 1384q0 -49 27.5 -78.5t69.5 -29.5q41 0 69.5 30t28.5 78q0 46 -28.5 76.5t-69.5 30.5q-42 0 -69.5 -30t-27.5 -77z" />
<glyph unicode="&#xb1;" horiz-adv-x="776" d="M313 295v299h-233v154h233v311h146v-311h237v-154h-237v-299h-146zM696 82h-616v154h616v-154z" />
<glyph unicode="&#xb2;" d="M238 1632q89 0 133.5 -48t44.5 -124q0 -56 -22.5 -104t-55.5 -82t-67 -64.5t-62 -66.5t-35 -72h244v-100h-369l-2 53q2 58 28 111t62 92.5t72 75.5t61 75.5t25 77.5q0 74 -68 74q-69 0 -90 -100l-94 30q18 78 67.5 125t127.5 47z" />
<glyph unicode="&#xb3;" d="M164 1260v92h45q40 0 59 21t19 71q0 88 -66 88q-67 0 -90 -86l-90 31q18 72 67 113.5t123 41.5q90 0 134.5 -48t44.5 -126q0 -116 -78 -145v-4q88 -25 88 -148q0 -100 -50.5 -149t-142.5 -49q-151 0 -190 145l90 33q23 -80 94 -80q74 0 74 108q0 52 -20 71.5t-64 19.5 h-47z" />
<glyph unicode="&#xb4;" horiz-adv-x="446" d="M186 1339h209l-159 -229h-136z" />
<glyph unicode="&#xb5;" horiz-adv-x="849" d="M96 354v686h189v-684q0 -99 33.5 -144.5t101.5 -45.5q92 0 145 78v796h189v-1040h-164l-8 84h-4q-60 -78 -154 -78q-102 0 -150 86h-4q16 -276 33 -405l-188 -17q-19 323 -19 684z" />
<glyph unicode="&#xb6;" horiz-adv-x="1032" d="M293 1530h743v-176h-170v-1682h-184v1682h-211v-1682h-178v1338q-131 0 -200.5 69.5t-69.5 190.5q0 113 70 186.5t200 73.5z" />
<glyph unicode="&#xb7;" horiz-adv-x="395" d="M76 659q0 56 35 96t86 40t88 -40.5t37 -95.5q0 -57 -37 -96t-88 -39t-86 39t-35 96z" />
<glyph unicode="&#xb8;" horiz-adv-x="446" d="M170 12h109l-50 -229h-161z" />
<glyph unicode="&#xb9;" horiz-adv-x="374" d="M188 1626h99v-655h-127v456h-113v86h47q50 0 67.5 21t26.5 92z" />
<glyph unicode="&#xba;" horiz-adv-x="524" d="M487 1315v-201q0 -99 -58.5 -162t-168.5 -63q-108 0 -166.5 63.5t-58.5 161.5v201q0 97 58.5 161t166.5 64q112 0 169.5 -63t57.5 -162zM170 1307v-189q0 -127 90 -127q94 0 94 127v189q0 120 -94 120q-90 0 -90 -120z" />
<glyph unicode="&#xbb;" horiz-adv-x="546" d="M233 244l158 291l-158 290h129l156 -290l-156 -291h-129zM27 244l157 291l-157 290h129l155 -290l-155 -291h-129z" />
<glyph unicode="&#xbc;" horiz-adv-x="999" d="M252 1487h98v-656h-127v457h-112v86h47q50 0 67.5 21t26.5 92zM231 0h-125l658 1485h125zM891 0h-107v119h-258v80l246 454h119v-438h63l-8 -96h-55v-119zM645 215h139l9 299h-5z" />
<glyph unicode="&#xbd;" horiz-adv-x="999" d="M252 1487h98v-656h-127v457h-112v86h47q50 0 67.5 21t26.5 92zM231 0h-125l658 1485h125zM770 662q89 0 133.5 -48.5t44.5 -124.5q0 -47 -16 -89t-40.5 -71t-54 -59t-56 -54t-47.5 -54.5t-27 -61.5h243v-100h-368l-2 53q2 58 28 111t62 92.5t71.5 75.5t60.5 75.5t25 77.5 t-15.5 56t-51.5 18q-69 0 -90 -100l-95 30q18 78 67.5 125.5t127.5 47.5z" />
<glyph unicode="&#xbe;" horiz-adv-x="999" d="M166 1120v92h45q39 0 58.5 21.5t19.5 71.5q0 88 -66 88q-67 0 -90 -86l-90 30q18 72 67.5 114t122.5 42q90 0 134.5 -48t44.5 -126q0 -116 -78 -145v-5q88 -25 88 -147q0 -100 -50.5 -149.5t-142.5 -49.5q-151 0 -190 146l90 32q23 -79 94 -79q74 0 74 108q0 52 -20 71 t-64 19h-47zM231 0h-125l658 1485h125zM874 0h-106v119h-258v80l246 454h118v-438h64l-8 -96h-56v-119zM629 215h139l8 299h-4z" />
<glyph unicode="&#xbf;" horiz-adv-x="806" d="M776 129q-37 -158 -133 -250t-244 -92q-115 0 -192.5 48t-111.5 125t-34 177q0 155 74 293t205 225l14 207h144l12 -301q-256 -152 -256 -409q0 -191 156 -191q160 0 211 211zM532 1292v-235h-213v235h213z" />
<glyph unicode="&#xc0;" horiz-adv-x="903" d="M283 322l-66 -322h-201l320 1339h231l322 -1339h-205l-68 322h-333zM449 1139l-136 -662h273zM209 1552h233l103 -157h-162z" />
<glyph unicode="&#xc1;" horiz-adv-x="903" d="M283 322l-66 -322h-201l320 1339h231l322 -1339h-205l-68 322h-333zM449 1139l-136 -662h273zM483 1554h226l-179 -159h-151z" />
<glyph unicode="&#xc2;" horiz-adv-x="903" d="M383 1395h-154l144 159h155l144 -159h-152l-69 82zM283 322l-66 -322h-201l320 1339h231l322 -1339h-205l-68 322h-333zM449 1139l-136 -662h273z" />
<glyph unicode="&#xc3;" horiz-adv-x="903" d="M592 1559l90 -11q-13 -77 -44.5 -116t-96.5 -39q-36 0 -68 16.5t-56 33.5t-42 17q-20 0 -30.5 -14t-18.5 -47l-93 8q13 79 45.5 118.5t98.5 39.5q37 0 69 -17.5t55.5 -35t41.5 -17.5q21 0 31 14t18 50zM283 322l-66 -322h-201l320 1339h231l322 -1339h-205l-68 322h-333z M449 1139l-136 -662h273z" />
<glyph unicode="&#xc4;" horiz-adv-x="903" d="M279 1554h131v-159h-131v159zM492 1554h131v-159h-131v159zM283 322l-66 -322h-201l320 1339h231l322 -1339h-205l-68 322h-333zM449 1139l-136 -662h273z" />
<glyph unicode="&#xc5;" horiz-adv-x="903" d="M283 322l-66 -322h-201l318 1329q-37 34 -37 92q0 61 43 100.5t111 39.5t111.5 -39.5t43.5 -100.5q0 -55 -37 -92l320 -1329h-205l-68 322h-333zM449 1139l-136 -662h273zM399 1421q0 -24 13.5 -39.5t38.5 -15.5q24 0 38.5 15.5t14.5 39.5q0 25 -14.5 41.5t-38.5 16.5 q-25 0 -38.5 -16t-13.5 -42z" />
<glyph unicode="&#xc6;" horiz-adv-x="1257" d="M330 328l-109 -328h-203l471 1339h711v-182h-412l31 -385h318v-160h-306l35 -432h348v-180h-536l-25 328h-323zM596 1122l-213 -639h260z" />
<glyph unicode="&#xc7;" horiz-adv-x="790" d="M424 1358q127 0 213.5 -82t110.5 -215l-152 -49q-30 170 -158 170q-164 0 -164 -236v-573q0 -103 41 -162t121 -59q69 0 106.5 40.5t55.5 141.5l152 -47q-45 -276 -271 -301l-43 -203h-162l91 203q-135 17 -212 121t-77 266v573q0 192 93.5 302t254.5 110z" />
<glyph unicode="&#xc8;" horiz-adv-x="772" d="M106 1339h607v-182h-408v-385h318v-160h-318v-432h426v-180h-625v1339zM201 1552h233l103 -157h-162z" />
<glyph unicode="&#xc9;" horiz-adv-x="772" d="M106 1339h607v-182h-408v-385h318v-160h-318v-432h426v-180h-625v1339zM420 1554h225l-178 -159h-152z" />
<glyph unicode="&#xca;" horiz-adv-x="772" d="M106 1339h607v-182h-408v-385h318v-160h-318v-432h426v-180h-625v1339zM346 1395h-153l143 159h156l143 -159h-152l-69 82z" />
<glyph unicode="&#xcb;" horiz-adv-x="772" d="M106 1339h607v-182h-408v-385h318v-160h-318v-432h426v-180h-625v1339zM246 1554h131v-159h-131v159zM459 1554h131v-159h-131v159z" />
<glyph unicode="&#xcc;" horiz-adv-x="450" d="M125 1339h203v-1339h-203v1339zM-16 1552h233l102 -157h-161z" />
<glyph unicode="&#xcd;" horiz-adv-x="450" d="M125 1339h203v-1339h-203v1339zM250 1554h225l-178 -159h-152z" />
<glyph unicode="&#xce;" horiz-adv-x="450" d="M125 1339h203v-1339h-203v1339zM162 1395h-154l144 159h155l144 -159h-152l-70 82z" />
<glyph unicode="&#xcf;" horiz-adv-x="450" d="M125 1339h203v-1339h-203v1339zM55 1554h131v-159h-131v159zM268 1554h131v-159h-131v159z" />
<glyph unicode="&#xd0;" horiz-adv-x="940" d="M123 1339h366q179 0 278 -110t99 -307v-506q0 -196 -99 -306t-278 -110h-366v643h-98v127h98v569zM666 913q0 130 -43 189t-134 59h-167v-391h129v-127h-129v-469h167q91 0 134 57.5t43 188.5v493z" />
<glyph unicode="&#xd1;" horiz-adv-x="931" d="M106 1339h150l395 -845v845h174v-1339h-135l-407 872v-872h-177v1339zM608 1559l90 -11q-13 -77 -44.5 -116t-96.5 -39q-36 0 -68 16.5t-56 33.5t-42 17q-20 0 -30.5 -14t-18.5 -47l-92 8q13 79 45 118.5t98 39.5q37 0 69 -17.5t55.5 -35t41.5 -17.5q21 0 31 14t18 50z " />
<glyph unicode="&#xd2;" horiz-adv-x="890" d="M446 1358q181 0 277 -108.5t96 -305.5v-551q0 -196 -96 -303.5t-277 -107.5t-275.5 107.5t-94.5 303.5v551q0 197 94.5 305.5t275.5 108.5zM618 393v551q0 125 -41 181.5t-131 56.5q-89 0 -130.5 -56.5t-41.5 -181.5v-551q0 -127 41 -183t131 -56q89 0 130.5 56.5 t41.5 182.5zM217 1552h234l102 -157h-162z" />
<glyph unicode="&#xd3;" horiz-adv-x="890" d="M446 1358q181 0 277 -108.5t96 -305.5v-551q0 -196 -96 -303.5t-277 -107.5t-275.5 107.5t-94.5 303.5v551q0 197 94.5 305.5t275.5 108.5zM618 393v551q0 125 -41 181.5t-131 56.5q-89 0 -130.5 -56.5t-41.5 -181.5v-551q0 -127 41 -183t131 -56q89 0 130.5 56.5 t41.5 182.5zM461 1554h225l-178 -159h-152z" />
<glyph unicode="&#xd4;" horiz-adv-x="890" d="M446 1358q181 0 277 -108.5t96 -305.5v-551q0 -196 -96 -303.5t-277 -107.5t-275.5 107.5t-94.5 303.5v551q0 197 94.5 305.5t275.5 108.5zM618 393v551q0 125 -41 181.5t-131 56.5q-89 0 -130.5 -56.5t-41.5 -181.5v-551q0 -127 41 -183t131 -56q89 0 130.5 56.5 t41.5 182.5zM381 1395h-154l144 159h155l144 -159h-152l-69 82z" />
<glyph unicode="&#xd5;" horiz-adv-x="890" d="M446 1358q181 0 277 -108.5t96 -305.5v-551q0 -196 -96 -303.5t-277 -107.5t-275.5 107.5t-94.5 303.5v551q0 197 94.5 305.5t275.5 108.5zM618 393v551q0 125 -41 181.5t-131 56.5q-89 0 -130.5 -56.5t-41.5 -181.5v-551q0 -127 41 -183t131 -56q89 0 130.5 56.5 t41.5 182.5zM616 1559l91 -11q-13 -77 -45 -116t-97 -39q-36 0 -68 16.5t-56 33.5t-42 17q-20 0 -30.5 -14t-18.5 -47l-92 8q13 79 45 118.5t98 39.5q37 0 69 -17.5t55.5 -35t41.5 -17.5q21 0 31 14t18 50z" />
<glyph unicode="&#xd6;" horiz-adv-x="890" d="M446 1358q181 0 277 -108.5t96 -305.5v-551q0 -196 -96 -303.5t-277 -107.5t-275.5 107.5t-94.5 303.5v551q0 197 94.5 305.5t275.5 108.5zM618 393v551q0 125 -41 181.5t-131 56.5q-89 0 -130.5 -56.5t-41.5 -181.5v-551q0 -127 41 -183t131 -56q89 0 130.5 56.5 t41.5 182.5zM274 1554h132v-159h-132v159zM487 1554h131v-159h-131v159z" />
<glyph unicode="&#xd7;" horiz-adv-x="776" d="M586 311l-199 215l-197 -215l-102 109l199 215l-197 215l98 108l199 -215l199 215l98 -108l-197 -215l199 -215z" />
<glyph unicode="&#xd8;" horiz-adv-x="819" d="M438 1358q185 0 281 -113l55 96l68 -51l-72 -125q41 -93 41 -221v-551q0 -196 -95.5 -303.5t-277.5 -107.5q-188 0 -282 114l-50 -88l-67 51l67 119q-38 83 -38 215v551q0 197 94.5 305.5t275.5 108.5zM610 393v494l-338 -588q13 -75 54.5 -110t111.5 -35q90 0 131 56 t41 183zM266 944v-487l336 585q-29 140 -162 140q-89 0 -131.5 -57t-42.5 -181z" />
<glyph unicode="&#xd9;" horiz-adv-x="925" d="M637 1339h199v-954q0 -195 -96 -299t-275 -104q-180 0 -276.5 102t-96.5 293v962h201v-962q0 -209 172 -209q86 0 129 49t43 160v962zM250 1552h233l103 -157h-162z" />
<glyph unicode="&#xda;" horiz-adv-x="925" d="M637 1339h199v-954q0 -195 -96 -299t-275 -104q-180 0 -276.5 102t-96.5 293v962h201v-962q0 -209 172 -209q86 0 129 49t43 160v962zM471 1554h225l-178 -159h-151z" />
<glyph unicode="&#xdb;" horiz-adv-x="925" d="M637 1339h199v-954q0 -195 -96 -299t-275 -104q-180 0 -276.5 102t-96.5 293v962h201v-962q0 -209 172 -209q86 0 129 49t43 160v962zM399 1395h-153l143 159h156l143 -159h-151l-70 82z" />
<glyph unicode="&#xdc;" horiz-adv-x="925" d="M637 1339h199v-954q0 -195 -96 -299t-275 -104q-180 0 -276.5 102t-96.5 293v962h201v-962q0 -209 172 -209q86 0 129 49t43 160v962zM293 1554h131v-159h-131v159zM506 1554h131v-159h-131v159z" />
<glyph unicode="&#xdd;" horiz-adv-x="851" d="M848 1339l-322 -915v-424h-198v424l-322 915h219l203 -696l203 696h217zM442 1554h226l-179 -159h-151z" />
<glyph unicode="&#xde;" horiz-adv-x="843" d="M469 1108q160 0 245 -108.5t85 -311.5q0 -199 -82.5 -306.5t-237.5 -107.5h-174v-274h-199v1339h199v-231h164zM305 932v-494h158q72 0 104.5 57.5t32.5 190.5q0 135 -32 190.5t-105 55.5h-158z" />
<glyph unicode="&#xdf;" horiz-adv-x="845" d="M397 754q0 160 133 235q7 35 7 68q0 64 -26 101.5t-75 37.5q-145 0 -145 -274v-922h-189v922q0 204 84.5 316t241.5 112q131 0 200.5 -88t69.5 -230q0 -83 -20 -147q-54 -18 -75 -46.5t-21 -72.5q0 -41 24 -78.5t58 -70.5t67.5 -71.5t57.5 -99t24 -135.5 q0 -159 -75.5 -245t-209.5 -86q-124 0 -200 67l32 141q57 -51 134 -51q133 0 133 178q0 44 -17 83t-42.5 66t-55.5 59.5t-55.5 62t-42.5 73.5t-17 95z" />
<glyph unicode="&#xe0;" horiz-adv-x="765" d="M209 756l-127 57q41 115 116 181.5t187 66.5q141 0 209 -87t68 -239v-540q0 -72 61 -72h22v-121q-44 -14 -88 -14q-102 0 -153 82q-80 -86 -207 -86q-110 0 -176 77.5t-66 206.5q0 152 88.5 243t278.5 91h51v135q0 89 -27.5 127.5t-85.5 38.5q-100 0 -151 -147zM342 125 q81 0 131 74v264h-51q-99 0 -142.5 -45t-43.5 -133q0 -160 106 -160zM195 1339h208l95 -229h-138z" />
<glyph unicode="&#xe1;" horiz-adv-x="765" d="M209 756l-127 57q41 115 116 181.5t187 66.5q141 0 209 -87t68 -239v-540q0 -72 61 -72h22v-121q-44 -14 -88 -14q-102 0 -153 82q-80 -86 -207 -86q-110 0 -176 77.5t-66 206.5q0 152 88.5 243t278.5 91h51v135q0 89 -27.5 127.5t-85.5 38.5q-100 0 -151 -147zM342 125 q81 0 131 74v264h-51q-99 0 -142.5 -45t-43.5 -133q0 -160 106 -160zM385 1339h209l-160 -229h-135z" />
<glyph unicode="&#xe2;" horiz-adv-x="765" d="M209 756l-127 57q41 115 116 181.5t187 66.5q141 0 209 -87t68 -239v-540q0 -72 61 -72h22v-121q-44 -14 -88 -14q-102 0 -153 82q-80 -86 -207 -86q-110 0 -176 77.5t-66 206.5q0 152 88.5 243t278.5 91h51v135q0 89 -27.5 127.5t-85.5 38.5q-100 0 -151 -147zM342 125 q81 0 131 74v264h-51q-99 0 -142.5 -45t-43.5 -133q0 -160 106 -160zM317 1110h-141l146 229h131l147 -229h-141l-72 127z" />
<glyph unicode="&#xe3;" horiz-adv-x="765" d="M209 756l-127 57q41 115 116 181.5t187 66.5q141 0 209 -87t68 -239v-540q0 -72 61 -72h22v-121q-44 -14 -88 -14q-102 0 -153 82q-80 -86 -207 -86q-110 0 -176 77.5t-66 206.5q0 152 88.5 243t278.5 91h51v135q0 89 -27.5 127.5t-85.5 38.5q-100 0 -151 -147zM342 125 q81 0 131 74v264h-51q-99 0 -142.5 -45t-43.5 -133q0 -160 106 -160zM535 1341l94 -10q-13 -114 -47 -169.5t-103 -55.5q-34 0 -64 21t-47 45.5t-36 45.5t-33 21q-22 0 -33 -25.5t-20 -97.5l-94 12q13 117 46 171.5t103 54.5q28 0 53 -14t42 -34t31.5 -39.5t28.5 -33.5 t27 -14q20 0 31.5 26t20.5 96z" />
<glyph unicode="&#xe4;" horiz-adv-x="765" d="M209 756l-127 57q41 115 116 181.5t187 66.5q141 0 209 -87t68 -239v-540q0 -72 61 -72h22v-121q-44 -14 -88 -14q-102 0 -153 82q-80 -86 -207 -86q-110 0 -176 77.5t-66 206.5q0 152 88.5 243t278.5 91h51v135q0 89 -27.5 127.5t-85.5 38.5q-100 0 -151 -147zM342 125 q81 0 131 74v264h-51q-99 0 -142.5 -45t-43.5 -133q0 -160 106 -160zM205 1339h133v-200h-133v200zM442 1339h131v-200h-131v200z" />
<glyph unicode="&#xe5;" horiz-adv-x="765" d="M209 756l-127 57q37 106 104 171t164 75q-53 11 -85 49t-32 94q0 67 44 107.5t112 40.5t112 -40.5t44 -107.5q0 -56 -32 -94t-85 -49q119 -13 176.5 -99t57.5 -225v-540q0 -72 61 -72h22v-121q-44 -14 -88 -14q-102 0 -153 82q-80 -86 -207 -86q-110 0 -176 77.5 t-66 206.5q0 152 88.5 243t278.5 91h51v135q0 89 -27.5 127.5t-85.5 38.5q-100 0 -151 -147zM342 125q81 0 131 74v264h-51q-99 0 -142.5 -45t-43.5 -133q0 -160 106 -160zM338 1202q0 -59 51 -59q26 0 39.5 16t13.5 43t-14 44.5t-39 17.5t-38 -17t-13 -45z" />
<glyph unicode="&#xe6;" horiz-adv-x="1175" d="M1116 483h-428v-166q0 -184 139 -184q62 0 100.5 42t59.5 128l133 -47q-37 -134 -111.5 -204t-197.5 -70q-167 0 -238 133q-81 -133 -264 -133q-117 0 -185.5 78.5t-68.5 207.5q0 73 21 133t65.5 107t120.5 73.5t178 26.5h58v140q0 79 -31 114t-92 35q-52 0 -91 -37.5 t-59 -111.5l-135 57q33 115 112 185.5t183 70.5q147 0 215 -105q78 105 221 105q138 0 216.5 -99.5t78.5 -248.5v-230zM350 129q48 0 89 25t59 75v240h-60q-200 0 -200 -188q0 -152 112 -152zM688 725v-117h256v119q0 178 -129 178q-67 0 -97 -43t-30 -137z" />
<glyph unicode="&#xe7;" horiz-adv-x="708" d="M676 805l-139 -47q-35 141 -140 141q-141 0 -141 -190v-377q0 -193 141 -193q53 0 87.5 35t54.5 113l141 -45q-56 -224 -238 -254l-43 -205h-163l92 203q-125 17 -191.5 110.5t-66.5 227.5v391q0 151 80.5 247.5t230.5 96.5q110 0 187 -67t108 -187z" />
<glyph unicode="&#xe8;" horiz-adv-x="757" d="M698 500h-442v-168q0 -193 152 -193q59 0 93.5 36.5t59.5 125.5l141 -45q-32 -140 -108 -207t-205 -67q-152 0 -235.5 95.5t-83.5 248.5v391q0 151 83 246.5t236 95.5q147 0 228 -97.5t81 -252.5v-209zM256 725v-100h272v100q0 180 -135 180q-70 0 -103.5 -44.5 t-33.5 -135.5zM186 1339h209l94 -229h-137z" />
<glyph unicode="&#xe9;" horiz-adv-x="757" d="M698 500h-442v-168q0 -193 152 -193q59 0 93.5 36.5t59.5 125.5l141 -45q-32 -140 -108 -207t-205 -67q-152 0 -235.5 95.5t-83.5 248.5v391q0 151 83 246.5t236 95.5q147 0 228 -97.5t81 -252.5v-209zM256 725v-100h272v100q0 180 -135 180q-70 0 -103.5 -44.5 t-33.5 -135.5zM399 1339h209l-159 -229h-136z" />
<glyph unicode="&#xea;" horiz-adv-x="757" d="M698 500h-442v-168q0 -193 152 -193q59 0 93.5 36.5t59.5 125.5l141 -45q-32 -140 -108 -207t-205 -67q-152 0 -235.5 95.5t-83.5 248.5v391q0 151 83 246.5t236 95.5q147 0 228 -97.5t81 -252.5v-209zM256 725v-100h272v100q0 180 -135 180q-70 0 -103.5 -44.5 t-33.5 -135.5zM322 1110h-142l146 229h131l147 -229h-141l-72 127z" />
<glyph unicode="&#xeb;" horiz-adv-x="757" d="M698 500h-442v-168q0 -193 152 -193q59 0 93.5 36.5t59.5 125.5l141 -45q-32 -140 -108 -207t-205 -67q-152 0 -235.5 95.5t-83.5 248.5v391q0 151 83 246.5t236 95.5q147 0 228 -97.5t81 -252.5v-209zM256 725v-100h272v100q0 180 -135 180q-70 0 -103.5 -44.5 t-33.5 -135.5zM205 1339h133v-200h-133v200zM442 1339h131v-200h-131v200z" />
<glyph unicode="&#xec;" horiz-adv-x="405" d="M109 999h188v-999h-188v999zM-23 1339h209l95 -229h-138z" />
<glyph unicode="&#xed;" horiz-adv-x="405" d="M109 999h188v-999h-188v999zM221 1339h209l-160 -229h-135z" />
<glyph unicode="&#xee;" horiz-adv-x="405" d="M109 999h188v-999h-188v999zM131 1110h-141l145 229h131l148 -229h-142l-71 127z" />
<glyph unicode="&#xef;" horiz-adv-x="405" d="M109 999h188v-999h-188v999zM18 1339h134v-200h-134v200zM256 1339h131v-200h-131v200z" />
<glyph unicode="&#xf0;" horiz-adv-x="800" d="M733 322q0 -153 -85 -245.5t-245 -92.5q-159 0 -245 90.5t-86 244.5v310q0 153 75.5 243.5t214.5 90.5q122 0 197 -72q-9 83 -37.5 139.5t-83.5 97.5l-78 -118l-77 49l73 112q-64 26 -141 43l33 140q103 -17 192 -54l66 101l80 -49l-64 -97q211 -143 211 -471v-462z M260 313q0 -178 143 -178q142 0 142 178v310q0 182 -144 182q-141 0 -141 -182v-310z" />
<glyph unicode="&#xf1;" horiz-adv-x="835" d="M285 811v-811h-189v1040h164l8 -84q83 103 224 103q127 0 194.5 -90.5t67.5 -263.5v-705h-189v700q0 99 -32.5 145t-98.5 46q-94 0 -149 -80zM571 1341l95 -10q-13 -114 -47 -169.5t-103 -55.5q-34 0 -64 21t-47 45.5t-36 45.5t-33 21q-22 0 -33 -25.5t-20 -97.5l-95 12 q12 117 46 171.5t104 54.5q28 0 53 -14t42 -34t31.5 -39.5t28.5 -33.5t27 -14q20 0 31 26t20 96z" />
<glyph unicode="&#xf2;" horiz-adv-x="798" d="M729 715v-393q0 -152 -86 -246t-244 -94q-159 0 -244 93.5t-85 246.5v393q0 154 85 249t244 95t244.5 -94.5t85.5 -249.5zM256 709v-379q0 -193 143 -193q142 0 142 193v379q0 192 -142 192q-73 0 -108 -47.5t-35 -144.5zM178 1339h209l94 -229h-137z" />
<glyph unicode="&#xf3;" horiz-adv-x="798" d="M729 715v-393q0 -152 -86 -246t-244 -94q-159 0 -244 93.5t-85 246.5v393q0 154 85 249t244 95t244.5 -94.5t85.5 -249.5zM256 709v-379q0 -193 143 -193q142 0 142 193v379q0 192 -142 192q-73 0 -108 -47.5t-35 -144.5zM416 1339h209l-160 -229h-135z" />
<glyph unicode="&#xf4;" horiz-adv-x="798" d="M729 715v-393q0 -152 -86 -246t-244 -94q-159 0 -244 93.5t-85 246.5v393q0 154 85 249t244 95t244.5 -94.5t85.5 -249.5zM256 709v-379q0 -193 143 -193q142 0 142 193v379q0 192 -142 192q-73 0 -108 -47.5t-35 -144.5zM328 1110h-142l146 229h131l147 -229h-141 l-72 127z" />
<glyph unicode="&#xf5;" horiz-adv-x="798" d="M729 715v-393q0 -152 -86 -246t-244 -94q-159 0 -244 93.5t-85 246.5v393q0 154 85 249t244 95t244.5 -94.5t85.5 -249.5zM256 709v-379q0 -193 143 -193q142 0 142 193v379q0 192 -142 192q-73 0 -108 -47.5t-35 -144.5zM547 1341l94 -10q-13 -115 -46.5 -170 t-102.5 -55q-34 0 -64 21t-47.5 45.5t-36.5 45.5t-33 21q-22 0 -33 -25.5t-20 -97.5l-94 12q13 117 46 171.5t103 54.5q35 0 65 -21t47.5 -46.5t36.5 -46.5t34 -21q20 0 31 26t20 96z" />
<glyph unicode="&#xf6;" horiz-adv-x="798" d="M729 715v-393q0 -152 -86 -246t-244 -94q-159 0 -244 93.5t-85 246.5v393q0 154 85 249t244 95t244.5 -94.5t85.5 -249.5zM256 709v-379q0 -193 143 -193q142 0 142 193v379q0 192 -142 192q-73 0 -108 -47.5t-35 -144.5zM213 1339h133v-200h-133v200zM451 1339h131v-200 h-131v200z" />
<glyph unicode="&#xf7;" horiz-adv-x="776" d="M696 557h-614v154h614v-154zM279 954q0 48 31 82.5t75 34.5q43 0 75 -35t32 -82t-32 -79.5t-75 -32.5q-44 0 -75 32.5t-31 79.5zM279 324q0 46 31 80t75 34q43 0 75 -34t32 -80q0 -47 -32 -81t-75 -34q-44 0 -75 34t-31 81z" />
<glyph unicode="&#xf8;" horiz-adv-x="798" d="M729 715v-393q0 -152 -86 -246t-244 -94q-157 0 -243 92l-41 -62l-70 54l57 88q-32 68 -32 168v393q0 154 85 249t244 95q153 0 242 -92l45 69l74 -51l-66 -98q35 -78 35 -172zM399 137q142 0 142 193v323l-275 -413q26 -103 133 -103zM256 709v-324l274 416 q-26 100 -131 100q-73 0 -108 -47.5t-35 -144.5z" />
<glyph unicode="&#xf9;" horiz-adv-x="835" d="M551 225v815h188v-1040h-164l-10 80q-82 -98 -223 -98q-124 0 -192 91.5t-68 262.5v704h186v-706q0 -189 133 -189q92 0 150 80zM201 1339h209l94 -229h-137z" />
<glyph unicode="&#xfa;" horiz-adv-x="835" d="M551 225v815h188v-1040h-164l-10 80q-82 -98 -223 -98q-124 0 -192 91.5t-68 262.5v704h186v-706q0 -189 133 -189q92 0 150 80zM432 1339h209l-160 -229h-135z" />
<glyph unicode="&#xfb;" horiz-adv-x="835" d="M551 225v815h188v-1040h-164l-10 80q-82 -98 -223 -98q-124 0 -192 91.5t-68 262.5v704h186v-706q0 -189 133 -189q92 0 150 80zM348 1110h-141l145 229h131l148 -229h-142l-71 127z" />
<glyph unicode="&#xfc;" horiz-adv-x="835" d="M551 225v815h188v-1040h-164l-10 80q-82 -98 -223 -98q-124 0 -192 91.5t-68 262.5v704h186v-706q0 -189 133 -189q92 0 150 80zM233 1339h134v-200h-134v200zM471 1339h131v-200h-131v200z" />
<glyph unicode="&#xfd;" horiz-adv-x="819" d="M799 1040l-289 -966q-47 -156 -122 -222.5t-206 -72.5l-14 143q71 9 109 43t63 113l6 20l-326 942h207l209 -718l170 718h193zM442 1339h209l-159 -229h-136z" />
<glyph unicode="&#xfe;" horiz-adv-x="823" d="M483 -14q-124 0 -198 77v-280h-189v1556h189v-376q75 96 209 96q125 0 192.5 -92t67.5 -262v-369q0 -169 -70 -259.5t-201 -90.5zM285 813v-590q53 -80 145 -80q135 0 135 193v364q0 99 -31.5 145t-99.5 46q-96 0 -149 -78z" />
<glyph unicode="&#xff;" horiz-adv-x="819" d="M799 1040l-289 -966q-47 -156 -122 -222.5t-206 -72.5l-14 143q71 9 109 43t63 113l6 20l-326 942h207l209 -718l170 718h193zM246 1339h133v-200h-133v200zM483 1339h131v-200h-131v200z" />
<glyph unicode="&#x152;" horiz-adv-x="1286" d="M618 1339h605v-182h-404v-385h318v-160h-318v-432h424v-180h-625v82q-74 -100 -221 -100t-234 109.5t-87 301.5v551q0 193 87 303.5t234 110.5q145 0 221 -103v84zM618 393v551q0 126 -41.5 182t-130.5 56q-90 0 -131 -56t-41 -182v-551q0 -128 41 -183.5t131 -55.5 q89 0 130.5 56t41.5 183z" />
<glyph unicode="&#x153;" horiz-adv-x="1222" d="M1163 487h-436v-170q0 -184 143 -184q65 0 104 42t60 128l133 -47q-72 -274 -309 -274q-152 0 -229 114q-78 -114 -244 -114q-149 0 -232 96.5t-83 240.5v400q0 94 34 170.5t106.5 124t172.5 47.5q170 0 250 -121q82 121 239 121q134 0 212.5 -100t78.5 -248v-226z M537 709q0 194 -140 194q-70 0 -104.5 -46t-34.5 -148v-379q0 -201 137 -201q142 0 142 201v379zM727 725v-111h264v113q0 178 -131 178q-69 0 -101 -43.5t-32 -136.5z" />
<glyph unicode="&#x178;" horiz-adv-x="851" d="M848 1339l-322 -915v-424h-198v424l-322 915h219l203 -696l203 696h217zM256 1554h131v-159h-131v159zM469 1554h131v-159h-131v159z" />
<glyph unicode="&#x17f;" horiz-adv-x="485" d="M526 1343l11 -143q-99 -6 -140 -56.5t-41 -152.5v-991h-188v846h-143v149h143v2q0 157 87 248.5t271 97.5z" />
<glyph unicode="&#x2c6;" horiz-adv-x="446" d="M154 1110h-142l146 229h131l147 -229h-141l-72 127z" />
<glyph unicode="&#x2dc;" horiz-adv-x="446" d="M369 1341l94 -10q-13 -114 -47 -169.5t-103 -55.5q-34 0 -64 21t-47 45.5t-36 45.5t-33 21q-22 0 -33 -25.5t-20 -97.5l-94 12q13 117 46 171.5t103 54.5q28 0 53 -14t42 -34t31.5 -39.5t28.5 -33.5t27 -14q20 0 31.5 26t20.5 96z" />
<glyph unicode="&#x2000;" horiz-adv-x="863" />
<glyph unicode="&#x2001;" horiz-adv-x="1726" />
<glyph unicode="&#x2002;" horiz-adv-x="863" />
<glyph unicode="&#x2003;" horiz-adv-x="1726" />
<glyph unicode="&#x2004;" horiz-adv-x="575" />
<glyph unicode="&#x2005;" horiz-adv-x="431" />
<glyph unicode="&#x2006;" horiz-adv-x="287" />
<glyph unicode="&#x2007;" horiz-adv-x="287" />
<glyph unicode="&#x2008;" horiz-adv-x="215" />
<glyph unicode="&#x2009;" horiz-adv-x="345" />
<glyph unicode="&#x200a;" horiz-adv-x="95" />
<glyph unicode="&#x2010;" horiz-adv-x="460" d="M43 516v174h377v-174h-377z" />
<glyph unicode="&#x2011;" horiz-adv-x="460" d="M43 516v174h377v-174h-377z" />
<glyph unicode="&#x2012;" horiz-adv-x="460" d="M43 516v174h377v-174h-377z" />
<glyph unicode="&#x2013;" horiz-adv-x="698" d="M41 537v151h616v-151h-616z" />
<glyph unicode="&#x2014;" horiz-adv-x="1003" d="M41 535v153h922v-153h-922z" />
<glyph unicode="&#x2018;" horiz-adv-x="258" d="M215 1237v-172h-164v129q0 153 103 236l49 -48q-56 -56 -58 -131z" />
<glyph unicode="&#x2019;" horiz-adv-x="258" d="M45 1167v172h164v-129q0 -152 -103 -235l-49 45q56 59 58 131z" />
<glyph unicode="&#x201a;" horiz-adv-x="258" d="M45 14v172h164v-129q0 -152 -103 -235l-49 45q56 59 58 131z" />
<glyph unicode="&#x201c;" d="M422 1237v-172h-164v129q0 154 102 236l50 -48q-56 -56 -58 -131zM215 1237v-172h-164v129q0 153 103 236l49 -48q-56 -56 -58 -131z" />
<glyph unicode="&#x201d;" d="M252 1167v172h164v-129q0 -152 -103 -235l-49 45q56 59 58 131zM45 1167v172h164v-129q0 -152 -103 -235l-49 45q56 59 58 131z" />
<glyph unicode="&#x201e;" d="M252 14v172h164v-129q0 -152 -103 -235l-49 45q56 59 58 131zM45 14v172h164v-129q0 -152 -103 -235l-49 45q56 59 58 131z" />
<glyph unicode="&#x2022;" horiz-adv-x="458" d="M31 637q0 95 57.5 161t140.5 66q85 0 143 -66t58 -161t-58 -160t-143 -65q-83 0 -140.5 65t-57.5 160z" />
<glyph unicode="&#x2026;" horiz-adv-x="917" d="M100 0v184h168v-184h-168zM373 0v184h168v-184h-168zM649 0v184h168v-184h-168z" />
<glyph unicode="&#x202f;" horiz-adv-x="345" />
<glyph unicode="&#x2039;" horiz-adv-x="339" d="M311 825l-157 -290l157 -291h-129l-155 291l155 290h129z" />
<glyph unicode="&#x203a;" horiz-adv-x="339" d="M27 244l157 291l-157 290h129l155 -290l-155 -291h-129z" />
<glyph unicode="&#x2044;" horiz-adv-x="479" d="M16 0h-125l658 1485h125z" />
<glyph unicode="&#x205f;" horiz-adv-x="431" />
<glyph unicode="&#x2070;" d="M426 1417v-239q0 -101 -50 -158t-143 -57q-94 0 -143 57t-49 158v239q0 101 49 158t143 57q93 0 143 -57t50 -158zM160 1415v-237q0 -62 17 -87.5t56 -25.5t56.5 25.5t17.5 87.5v237q0 58 -17.5 83.5t-56.5 25.5q-38 0 -55.5 -25.5t-17.5 -83.5z" />
<glyph unicode="&#x2074;" d="M389 971h-106v119h-258v79l245 455h119v-438h64l-9 -96h-55v-119zM143 1186h140l8 299h-4z" />
<glyph unicode="&#x2075;" d="M133 1257l-78 37l23 330h323l-6 -104h-221l-10 -156h4q39 22 90 22q164 0 164 -200q0 -223 -197 -223q-72 0 -120.5 37t-65.5 110l90 29q26 -78 88 -78q44 0 63 29t19 96q0 55 -20.5 78.5t-65.5 23.5t-80 -31z" />
<glyph unicode="&#x2076;" d="M244 1632q64 0 109 -36t63 -107l-84 -35q-22 76 -82 76q-90 0 -90 -117v-63h4q34 34 102 34q160 0 160 -194q0 -227 -193 -227q-92 0 -140 57.5t-48 163.5v219q0 101 54.5 165t144.5 64zM238 1286q-31 0 -54 -14t-24 -35v-68q0 -104 78 -104q39 0 57 28t18 95 q0 52 -17.5 75t-57.5 23z" />
<glyph unicode="&#x2077;" horiz-adv-x="434" d="M209 971h-133l207 547h-254v106h379v-94z" />
<glyph unicode="&#x2078;" d="M233 963q-97 0 -146.5 47.5t-49.5 154.5q0 118 82 148v4q-68 33 -68 141q0 174 182 174q183 0 183 -174q0 -107 -70 -141v-4q82 -30 82 -148q0 -107 -49 -154.5t-146 -47.5zM311 1169q0 54 -19 74.5t-59 20.5q-42 0 -59.5 -20t-17.5 -75q0 -64 17.5 -87t59.5 -23t60 22.5 t18 87.5zM233 1536q-39 0 -55 -18.5t-16 -71.5q0 -54 16 -74t55 -20t55.5 20t16.5 74q0 52 -16 71t-56 19z" />
<glyph unicode="&#x2079;" d="M45 1100l80 41q15 -42 36.5 -60t57.5 -18q86 0 86 102v97h-4q-41 -33 -100 -33q-72 0 -117 47.5t-45 144.5q0 104 50.5 157.5t146.5 53.5q90 0 137 -54.5t47 -147.5v-261q0 -97 -52 -151.5t-143 -54.5q-140 0 -180 137zM227 1323q28 0 51.5 14.5t26.5 38.5v66 q0 49 -17.5 70.5t-54.5 21.5q-42 0 -60.5 -23.5t-18.5 -80.5q0 -60 18 -83.5t55 -23.5z" />
<glyph unicode="&#x207a;" horiz-adv-x="405" d="M160 1090v151h-115v86h115v150h84v-150h116v-86h-116v-151h-84z" />
<glyph unicode="&#x207c;" horiz-adv-x="405" d="M342 1305h-287v86h287v-86zM342 1161h-287v86h287v-86z" />
<glyph unicode="&#x207d;" horiz-adv-x="253" d="M53 1135v305q0 149 45 215.5t144 66.5h22v-80h-22q-92 0 -92 -202v-305q0 -203 92 -203h22v-80h-22q-99 0 -144 67t-45 216z" />
<glyph unicode="&#x207e;" horiz-adv-x="253" d="M201 1440v-305q0 -149 -44.5 -216t-142.5 -67h-22v80h22q90 0 90 203v305q0 202 -90 202h-22v80h22q98 0 142.5 -66.5t44.5 -215.5z" />
<glyph unicode="&#x207f;" horiz-adv-x="479" d="M61 971v516h105l4 -49h4q47 57 117 57q66 0 99.5 -46t33.5 -120v-358h-115v352q0 74 -57 74q-48 0 -74 -47v-379h-117z" />
<glyph unicode="&#x2080;" d="M426 207v-240q0 -101 -50 -158t-143 -57q-94 0 -143 57t-49 158v240q0 101 49 158t143 57q93 0 143 -57t50 -158zM160 205v-238q0 -62 17 -87t56 -25t56.5 25t17.5 87v238q0 58 -17.5 83t-56.5 25t-56 -25t-17 -83z" />
<glyph unicode="&#x2081;" horiz-adv-x="374" d="M188 416h99v-656h-127v457h-113v86h47q50 0 67.5 21t26.5 92z" />
<glyph unicode="&#x2082;" d="M238 422q89 0 133.5 -48t44.5 -124q0 -56 -22.5 -104t-55.5 -82t-67 -64.5t-62 -66.5t-35 -72h244v-101h-369l-2 54q2 58 28 111t62 92.5t72 75.5t61 75.5t25 77.5q0 37 -16 55t-52 18q-69 0 -90 -100l-94 31q18 78 67.5 125t127.5 47z" />
<glyph unicode="&#x2083;" d="M164 49v92h45q40 0 59 21t19 71q0 89 -66 89q-67 0 -90 -86l-90 30q18 72 67.5 114t122.5 42q90 0 134.5 -48t44.5 -126q0 -117 -78 -146v-4q88 -25 88 -147q0 -100 -50.5 -149.5t-142.5 -49.5q-151 0 -190 146l90 32q23 -80 94 -80q74 0 74 109q0 52 -20 71t-64 19h-47z " />
<glyph unicode="&#x2084;" d="M389 -240h-106v119h-258v80l245 455h119v-439h64l-9 -96h-55v-119zM143 -25h140l8 299h-4z" />
<glyph unicode="&#x2085;" d="M133 47l-78 37l23 330h323l-6 -105h-221l-10 -155h4q39 22 90 22q164 0 164 -201q0 -223 -197 -223q-72 0 -120.5 37.5t-65.5 110.5l90 28q26 -78 88 -78q44 0 63 29t19 96q0 55 -20.5 79t-65.5 24t-80 -31z" />
<glyph unicode="&#x2086;" d="M244 422q64 0 109 -36t63 -107l-84 -35q-22 75 -82 75q-90 0 -90 -116v-64h4q35 35 102 35q160 0 160 -194q0 -228 -193 -228q-92 0 -140 57.5t-48 163.5v220q0 101 54.5 165t144.5 64zM238 76q-31 0 -54 -14t-24 -35v-68q0 -104 78 -104q39 0 57 27.5t18 94.5 q0 52 -17.5 75.5t-57.5 23.5z" />
<glyph unicode="&#x2087;" horiz-adv-x="434" d="M209 -240h-133l207 547h-254v107h379v-95z" />
<glyph unicode="&#x2088;" d="M233 -248q-97 0 -146.5 48t-49.5 155q0 117 82 147v4q-68 33 -68 142q0 174 182 174q183 0 183 -174q0 -108 -70 -142v-4q82 -30 82 -147q0 -107 -49 -155t-146 -48zM311 -41q0 54 -19 74t-59 20q-42 0 -59.5 -19.5t-17.5 -74.5q0 -64 18 -87.5t59 -23.5q42 0 60 23 t18 88zM233 326q-39 0 -55 -18.5t-16 -71.5q0 -54 16 -74.5t55 -20.5t55.5 20.5t16.5 74.5q0 52 -16 71t-56 19z" />
<glyph unicode="&#x2089;" d="M45 -111l80 41q15 -42 36.5 -59.5t57.5 -17.5q86 0 86 102v96h-4q-41 -33 -100 -33q-72 0 -117 47.5t-45 145.5q0 104 50.5 157.5t146.5 53.5q90 0 137 -54.5t47 -148.5v-260q0 -97 -52 -152t-143 -55q-140 0 -180 137zM227 113q28 0 51.5 14.5t26.5 38.5v65 q0 49 -17.5 71t-54.5 22q-42 0 -60.5 -23.5t-18.5 -81.5q0 -60 18 -83t55 -23z" />
<glyph unicode="&#x208a;" horiz-adv-x="405" d="M160 -121v152h-115v86h115v149h84v-149h116v-86h-116v-152h-84z" />
<glyph unicode="&#x208c;" horiz-adv-x="405" d="M342 94h-287v86h287v-86zM342 -49h-287v86h287v-86z" />
<glyph unicode="&#x208d;" horiz-adv-x="253" d="M53 -76v305q0 149 45 216t144 67h22v-80h-22q-92 0 -92 -203v-305q0 -203 92 -203h22v-79h-22q-99 0 -144 66.5t-45 215.5z" />
<glyph unicode="&#x208e;" horiz-adv-x="253" d="M201 229v-305q0 -149 -44.5 -215.5t-142.5 -66.5h-22v79h22q90 0 90 203v305q0 203 -90 203h-22v80h22q98 0 142.5 -67t44.5 -216z" />
<glyph unicode="&#x20ac;" horiz-adv-x="841" d="M457 1358q125 0 211.5 -82t111.5 -215l-151 -49q-31 159 -160 159q-81 0 -121.5 -58t-40.5 -167v-102h340l-20 -115h-320v-70h305l-18 -112h-287v-174q0 -101 41 -159t121 -58q68 0 105.5 40t54.5 138l153 -47q-27 -159 -108 -232t-221 -73q-160 0 -253.5 106.5 t-93.5 284.5v174h-81v112h81v70h-81v115h81v102q0 192 94 302t257 110z" />
<glyph unicode="&#x2122;" horiz-adv-x="966" d="M803 1485h110v-656h-106v392h-4l-109 -293h-53l-109 293h-4v-392h-108v656h110l136 -383h4zM20 1485h347v-107h-115v-549h-119v549h-113v107z" />
<glyph unicode="&#xfb01;" horiz-adv-x="874" d="M483 1346l11 -146q-107 -6 -152 -49t-45 -135v-21h471v-995h-188v846h-269v-846h-188v846h-98v149h98v21q0 155 85.5 239t274.5 91zM594 1339h166v-211h-166v211z" />
<glyph unicode="&#xfb02;" horiz-adv-x="892" d="M481 995v-149h-170v-846h-188v846h-98v149h98v25q0 161 88 240t291 79h276v-1339h-188v1200h-78q-116 -2 -162.5 -42.5t-46.5 -141.5v-21h178z" />
<glyph unicode="&#xfb03;" horiz-adv-x="1331" d="M940 1346l10 -146q-107 -6 -151.5 -49t-44.5 -135v-21h471v-995h-189v846h-268v-846h-188v846h-269v-846h-188v846h-98v149h98v27q0 155 85.5 236.5t274.5 87.5l11 -140q-107 -6 -149 -47t-42 -137v-27h277v21q0 155 85.5 239t274.5 91zM1051 1339h166v-211h-166v211z " />
<glyph unicode="&#xfb04;" horiz-adv-x="1347" d="M938 995v-149h-170v-846h-188v846h-269v-846h-188v846h-98v149h98v27q0 155 85.5 236.5t274.5 87.5l11 -140q-107 -6 -149 -47t-42 -137v-27h277v25q0 161 87.5 240t290.5 79h275v-1339h-189v1200h-75q-116 -2 -162.5 -42.5t-46.5 -141.5v-21h178z" />
<glyph horiz-adv-x="405" d="M109 999h188v-999h-188v999zM117 1339h170v-200h-170v200z" />
<glyph horiz-adv-x="487" d="M35 160v78h88l14 184h82l-14 -184h94l14 184h82l-14 -184h72v-78h-72l-10 -137h82v-78h-84l-15 -185h-82l15 185h-94l-15 -185h-82l15 185h-76v78h78l10 137h-88zM205 160l-10 -137h94l8 137h-92z" />
<glyph horiz-adv-x="452" d="M211 516h70l2 -104q97 -26 131 -138l-80 -28q-19 55 -60 71l-12 -180q35 -17 57 -31t47.5 -37.5t38.5 -55.5t13 -72q0 -79 -44.5 -129.5t-119.5 -59.5l-12 -90h-68l-2 94q-112 21 -147 152l84 31q17 -62 69 -84l12 190q-36 17 -59 31t-49 37.5t-38.5 56t-12.5 74.5 q0 73 45.5 121.5t122.5 54.5zM319 -78q0 48 -61 88h-4v-162q65 9 65 74zM135 256q0 -44 58 -84h4l2 154q-64 -12 -64 -70z" />
<glyph horiz-adv-x="249" d="M59 -236v146h131v-117q0 -95 -29.5 -145.5t-97.5 -57.5l-8 64q34 8 48 31.5t14 78.5h-58z" />
<glyph horiz-adv-x="249" d="M59 -240v150h131v-150h-131z" />
<glyph horiz-adv-x="479" d="M61 -240v516h105l4 -49h4q48 58 117 58q66 0 99.5 -46t33.5 -120v-359h-115v353q0 73 -57 73q-48 0 -74 -47v-379h-117z" />
<glyph horiz-adv-x="430" d="M412 270l-84 -28q-19 82 -84 82q-42 0 -63 -27.5t-21 -91.5v-238q0 -125 82 -125q66 0 86 90l86 -28q-31 -127 -135 -148l-13 -94h-71l-5 94q-74 13 -110.5 68.5t-36.5 140.5v244q0 86 39.5 142.5t114.5 68.5l16 96h72l2 -102q94 -25 125 -144z" />
<glyph horiz-adv-x="505" d="M47 53l-10 82h57q-10 58 -10 92q0 95 49 150t139 55q74 0 123.5 -39.5t63.5 -105.5l-90 -33q-20 74 -88 74q-80 0 -80 -115q0 -31 6 -78h180l-10 -82h-160q5 -29 10 -98q24 -12 63.5 -53t65.5 -41q24 0 37 19.5t19 68.5l88 -25q-23 -174 -135 -174q-42 0 -71 22.5 t-75 82.5h-4q-10 -53 -40.5 -79t-74.5 -26q-42 0 -66 25.5t-24 70.5q0 47 31.5 79t87.5 38l-20 90h-62zM111 -170q23 0 26 70q-41 -5 -41 -47q0 -23 15 -23z" />
<glyph horiz-adv-x="354" d="M61 102q0 35 15 62l-37 41l41 45l39 -43q26 16 57 16q34 0 60 -16l43 45l38 -45l-41 -45q17 -27 17 -60q0 -32 -17 -63l39 -41l-41 -45l-41 41q-22 -14 -57 -14q-31 0 -57 16l-41 -45l-41 43l41 45q-17 31 -17 63zM129 100q0 -23 13.5 -37t35.5 -14q21 0 34 14t13 37 q0 24 -13 39t-34 15q-22 0 -35.5 -14.5t-13.5 -39.5z" />
<glyph horiz-adv-x="532" d="M434 -119h-100v-121h-129v121h-107v78h107v35h-107v78h82l-166 350h146l106 -303h4l107 303h145l-166 -350h78v-78h-100v-35h100v-78z" />
<glyph horiz-adv-x="495" d="M266 430q73 0 126.5 -42t68.5 -107l-94 -33q-18 71 -91 71q-44 0 -67 -28.5t-23 -81.5v-31h199l-12 -61h-187v-33h181l-13 -61h-168v-60q0 -52 24 -80t69 -28q36 0 57 19t31 63l94 -33q-35 -154 -195 -154q-97 0 -154 58t-57 155v60h-43v61h43v33h-43v61h43v31 q0 104 57 162.5t154 58.5z" />
<glyph horiz-adv-x="487" d="M35 1370v78h88l14 184h82l-14 -184h94l14 184h82l-14 -184h72v-78h-72l-10 -137h82v-78h-84l-15 -184h-82l15 184h-94l-15 -184h-82l15 184h-76v78h78l10 137h-88zM205 1370l-10 -137h94l8 137h-92z" />
<glyph horiz-adv-x="452" d="M211 1726h70l2 -104q97 -26 131 -137l-80 -29q-19 56 -60 72l-12 -180q35 -17 57 -31.5t47.5 -38t38.5 -55.5t13 -72q0 -79 -44 -129t-120 -59l-12 -91h-68l-2 93q-112 24 -147 153l84 31q17 -62 69 -84l12 190q-36 17 -59 31t-49 37.5t-38.5 56t-12.5 74.5 q0 73 45.5 121.5t122.5 54.5zM319 1133q0 48 -61 88h-4v-162q65 9 65 74zM135 1466q0 -44 58 -84h4l2 154q-64 -12 -64 -70z" />
<glyph horiz-adv-x="249" d="M59 975v145h131v-116q0 -95 -29.5 -145.5t-97.5 -57.5l-8 63q34 8 48 32t14 79h-58z" />
<glyph horiz-adv-x="249" d="M59 971v149h131v-149h-131z" />
<glyph horiz-adv-x="430" d="M412 1481l-84 -29q-19 82 -84 82q-42 0 -63 -27.5t-21 -91.5v-237q0 -125 82 -125q66 0 86 90l86 -29q-31 -126 -135 -147l-13 -95h-71l-5 95q-74 13 -110.5 68.5t-36.5 140.5v243q0 86 39.5 142.5t114.5 68.5l16 96h72l2 -102q94 -25 125 -143z" />
<glyph horiz-adv-x="505" d="M47 1264l-10 82h57q-10 58 -10 92q0 95 49 149.5t139 54.5q74 0 123.5 -39.5t63.5 -105.5l-90 -33q-20 74 -88 74q-80 0 -80 -115q0 -31 6 -77h180l-10 -82h-160q4 -28 10 -99q24 -12 63.5 -53t65.5 -41q24 0 37 19.5t19 68.5l88 -24q-23 -174 -135 -174q-43 0 -66 17.5 t-80 86.5h-4q-20 -104 -115 -104q-42 0 -66 25.5t-24 70.5q0 47 31.5 79t87.5 38l-20 90h-62zM111 1040q23 0 26 70q-41 -5 -41 -47q0 -23 15 -23z" />
<glyph horiz-adv-x="354" d="M61 1313q0 34 15 61l-37 41l41 45l39 -43q27 17 57 17q33 0 60 -17l43 45l38 -45l-41 -45q17 -27 17 -59q0 -33 -17 -64l39 -41l-41 -45l-41 41q-22 -14 -57 -14q-31 0 -57 16l-41 -45l-41 43l41 45q-17 31 -17 64zM129 1311q0 -23 13.5 -37t35.5 -14q21 0 34 14t13 37 q0 24 -13 38.5t-34 14.5q-22 0 -35.5 -14.5t-13.5 -38.5z" />
<glyph horiz-adv-x="532" d="M434 1092h-100v-121h-129v121h-107v77h107v35h-107v78h82l-166 350h146l106 -303h4l107 303h145l-166 -350h78v-78h-100v-35h100v-77z" />
<glyph horiz-adv-x="495" d="M266 1640q73 0 126.5 -42t68.5 -107l-94 -33q-18 72 -91 72q-44 0 -67 -29t-23 -82v-30h199l-12 -62h-187v-33h181l-13 -61h-168v-59q0 -52 24 -80.5t69 -28.5q36 0 57 19t31 63l94 -33q-35 -153 -195 -153q-97 0 -154 58t-57 155v59h-43v61h43v33h-43v62h43v30 q0 104 57 162.5t154 58.5z" />
<glyph horiz-adv-x="487" d="M35 1231v78h88l14 184h82l-14 -184h94l14 184h82l-14 -184h72v-78h-72l-10 -137h82v-78h-84l-15 -185h-82l15 185h-94l-15 -185h-82l15 185h-76v78h78l10 137h-88zM205 1231l-10 -137h94l8 137h-92z" />
<glyph horiz-adv-x="452" d="M211 1587h70l2 -104q97 -26 131 -137l-80 -29q-19 56 -60 72l-12 -181q35 -17 57 -31t47.5 -37.5t38.5 -55.5t13 -72q0 -79 -44.5 -129.5t-119.5 -59.5l-12 -90h-68l-2 92q-112 24 -147 154l84 31q17 -62 69 -84l12 190q-36 17 -59 31t-49 37.5t-38.5 56t-12.5 74.5 q0 73 45.5 121.5t122.5 54.5zM319 993q0 48 -61 88h-4v-161q65 9 65 73zM135 1327q0 -44 58 -84h4l2 154q-64 -12 -64 -70z" />
<glyph horiz-adv-x="253" d="M53 995v305q0 149 45 216t144 67h22v-80h-22q-92 0 -92 -203v-305q0 -202 92 -202h22v-80h-22q-99 0 -144 66.5t-45 215.5z" />
<glyph horiz-adv-x="253" d="M201 1300v-305q0 -149 -44.5 -215.5t-142.5 -66.5h-22v80h22q90 0 90 202v305q0 203 -90 203h-22v80h22q98 0 142.5 -67t44.5 -216z" />
<glyph horiz-adv-x="405" d="M160 950v152h-115v86h115v149h84v-149h116v-86h-116v-152h-84z" />
<glyph horiz-adv-x="249" d="M59 836v145h131v-117q0 -94 -29.5 -144.5t-97.5 -57.5l-8 63q34 8 48 32t14 79h-58z" />
<glyph horiz-adv-x="249" d="M59 831v150h131v-150h-131z" />
<glyph d="M426 1278v-240q0 -101 -50 -158t-143 -57q-94 0 -143 57t-49 158v240q0 101 49 158t143 57q93 0 143 -57t50 -158zM160 1276v-238q0 -62 17 -87t56 -25t56.5 25t17.5 87v238q0 58 -17.5 83t-56.5 25t-56 -25t-17 -83z" />
<glyph horiz-adv-x="374" d="M188 1487h99v-656h-127v457h-113v86h47q50 0 67.5 21t26.5 92z" />
<glyph d="M238 1493q89 0 133.5 -48t44.5 -124q0 -56 -22.5 -104t-55.5 -82t-67 -64.5t-62 -66.5t-35 -72h244v-101h-369l-2 54q2 58 28 111t62 92.5t72 75.5t61 75.5t25 77.5q0 74 -68 74q-69 0 -90 -101l-94 31q18 78 67.5 125t127.5 47z" />
<glyph d="M164 1120v92h45q39 0 58.5 21.5t19.5 71.5q0 88 -66 88q-67 0 -90 -86l-90 30q18 72 67.5 114t122.5 42q90 0 134.5 -48t44.5 -126q0 -116 -78 -145v-5q88 -25 88 -147q0 -100 -50.5 -149.5t-142.5 -49.5q-151 0 -190 146l90 32q23 -79 94 -79q74 0 74 108q0 52 -20 71 t-64 19h-47z" />
<glyph d="M389 831h-106v119h-258v80l245 455h119v-438h64l-9 -97h-55v-119zM143 1047h140l8 299h-4z" />
<glyph d="M133 1118l-78 37l23 330h323l-6 -105h-221l-10 -155h4q39 22 90 22q164 0 164 -200q0 -224 -197 -224q-72 0 -120.5 37.5t-65.5 110.5l90 28q26 -77 88 -77q44 0 63 29t19 96q0 55 -20.5 78.5t-65.5 23.5t-80 -31z" />
<glyph d="M244 1493q64 0 109 -36t63 -107l-84 -35q-22 76 -82 76q-90 0 -90 -117v-64h4q35 35 102 35q160 0 160 -194q0 -228 -193 -228q-92 0 -140 57.5t-48 163.5v220q0 101 54.5 165t144.5 64zM238 1147q-31 0 -54 -14t-24 -35v-68q0 -104 78 -104q39 0 57 28t18 95 q0 52 -17.5 75t-57.5 23z" />
<glyph horiz-adv-x="434" d="M209 831h-133l207 547h-254v107h379v-94z" />
<glyph d="M233 823q-97 0 -146.5 48t-49.5 155q0 118 82 148v4q-68 33 -68 141q0 174 182 174q183 0 183 -174q0 -107 -70 -141v-4q82 -30 82 -148q0 -107 -49 -155t-146 -48zM311 1030q0 54 -19 74t-59 20q-42 0 -59.5 -19.5t-17.5 -74.5q0 -64 17.5 -87t59.5 -23t60 22.5t18 87.5 zM233 1397q-39 0 -55 -18.5t-16 -71.5q0 -54 16 -74.5t55 -20.5t55.5 20.5t16.5 74.5q0 52 -16 71t-56 19z" />
<glyph d="M45 961l80 40q15 -42 36.5 -59.5t57.5 -17.5q86 0 86 102v96h-4q-40 -32 -100 -32q-72 0 -117 47t-45 145q0 104 50.5 157.5t146.5 53.5q90 0 137 -54.5t47 -148.5v-260q0 -97 -52 -152t-143 -55q-139 0 -180 138zM227 1184q28 0 51.5 14.5t26.5 38.5v66q0 49 -17.5 70.5 t-54.5 21.5q-42 0 -60.5 -23.5t-18.5 -81.5q0 -60 18 -83t55 -23z" />
<glyph horiz-adv-x="405" d="M342 1165h-287v86h287v-86zM342 1022h-287v86h287v-86z" />
<glyph horiz-adv-x="479" d="M61 831v517h105l4 -50h4q48 58 117 58q66 0 99.5 -46t33.5 -120v-359h-115v353q0 73 -57 73q-48 0 -74 -47v-379h-117z" />
<glyph horiz-adv-x="430" d="M412 1341l-84 -28q-19 82 -84 82q-42 0 -63 -27.5t-21 -91.5v-238q0 -125 82 -125q66 0 86 91l86 -29q-31 -127 -135 -148l-13 -94h-71l-5 94q-74 13 -110.5 68.5t-36.5 140.5v244q0 86 39.5 142.5t114.5 68.5l16 96h72l2 -102q94 -25 125 -144z" />
<glyph horiz-adv-x="505" d="M47 1124l-10 82h57q-10 58 -10 92q0 95 49 150t139 55q74 0 123.5 -39.5t63.5 -105.5l-90 -33q-20 74 -88 74q-80 0 -80 -115q0 -32 6 -78h180l-10 -82h-160q5 -29 10 -98q24 -12 63.5 -53t65.5 -41q24 0 37 19.5t19 68.5l88 -25q-23 -174 -135 -174q-42 0 -70.5 21.5 t-75.5 83.5h-4q-10 -53 -40.5 -79t-74.5 -26q-42 0 -66 26t-24 71q0 47 31.5 78.5t87.5 37.5l-20 90h-62zM111 901q23 0 26 70q-41 -5 -41 -47q0 -23 15 -23z" />
<glyph horiz-adv-x="354" d="M61 1174q0 34 15 61l-37 41l41 45l39 -43q26 16 57 16q34 0 60 -16l43 45l38 -45l-41 -45q17 -27 17 -59q0 -33 -17 -64l39 -41l-41 -45l-41 41q-22 -14 -57 -14q-31 0 -57 16l-41 -45l-41 43l41 45q-17 31 -17 64zM129 1171q0 -23 13.5 -37t35.5 -14q21 0 34 14t13 37 q0 24 -13 39t-34 15q-22 0 -35.5 -14.5t-13.5 -39.5z" />
<glyph horiz-adv-x="532" d="M434 952h-100v-121h-129v121h-107v78h107v35h-107v78h82l-166 350h146l106 -303h4l107 303h145l-166 -350h78v-78h-100v-35h100v-78z" />
<glyph horiz-adv-x="495" d="M266 1501q73 0 126.5 -42t68.5 -107l-94 -33q-18 72 -91 72q-44 0 -67 -29t-23 -82v-31h199l-12 -61h-187v-33h181l-13 -61h-168v-60q0 -52 24 -80t69 -28q36 0 57 19t31 63l94 -33q-35 -154 -195 -154q-97 0 -154 58t-57 155v60h-43v61h43v33h-43v61h43v31 q0 104 57 162.5t154 58.5z" />
<glyph horiz-adv-x="487" d="M35 399v78h88l14 185h82l-14 -185h94l14 185h82l-14 -185h72v-78h-72l-10 -137h82v-78h-84l-15 -184h-82l15 184h-94l-15 -184h-82l15 184h-76v78h78l10 137h-88zM205 399l-10 -137h94l8 137h-92z" />
<glyph horiz-adv-x="452" d="M211 756h70l2 -105q97 -26 131 -137l-80 -29q-19 56 -60 72l-12 -180q35 -17 57 -31.5t47.5 -38t38.5 -55.5t13 -72q0 -79 -44 -129t-120 -59l-12 -90h-68l-2 94q-112 21 -147 151l84 31q17 -62 69 -84l12 191q-29 14 -47.5 24t-42 28t-37 36.5t-23 47t-9.5 62.5 q0 73 45.5 121.5t122.5 54.5zM319 162q0 48 -61 88h-4v-162q65 9 65 74zM135 496q0 -44 58 -84h4l2 153q-64 -12 -64 -69z" />
<glyph horiz-adv-x="253" d="M53 164v305q0 149 45 216t144 67h22v-80h-22q-92 0 -92 -203v-305q0 -203 92 -203h22v-80h-22q-99 0 -144 67t-45 216z" />
<glyph horiz-adv-x="253" d="M201 469v-305q0 -149 -44.5 -216t-142.5 -67h-22v80h22q90 0 90 203v305q0 203 -90 203h-22v80h22q98 0 142.5 -67t44.5 -216z" />
<glyph horiz-adv-x="405" d="M160 119v151h-115v86h115v150h84v-150h116v-86h-116v-151h-84z" />
<glyph horiz-adv-x="249" d="M59 4v146h131v-117q0 -95 -29.5 -145.5t-97.5 -57.5l-8 64q34 8 48 31.5t14 78.5h-58z" />
<glyph horiz-adv-x="249" d="M59 0v150h131v-150h-131z" />
<glyph d="M426 446v-239q0 -101 -50 -158t-143 -57q-94 0 -143 57t-49 158v239q0 102 49 159t143 57q93 0 143 -57.5t50 -158.5zM160 444v-237q0 -62 17 -87.5t56 -25.5t56.5 25.5t17.5 87.5v237q0 58 -17.5 83.5t-56.5 25.5q-38 0 -55.5 -25.5t-17.5 -83.5z" />
<glyph horiz-adv-x="374" d="M188 655h99v-655h-127v457h-113v86h47q50 0 67.5 20.5t26.5 91.5z" />
<glyph d="M238 662q89 0 133.5 -48.5t44.5 -124.5q0 -56 -22.5 -104t-55.5 -82t-67 -64.5t-62 -66.5t-35 -72h244v-100h-369l-2 53q2 58 28 111t62 92.5t72 75.5t61 75.5t25 77.5q0 74 -68 74q-69 0 -90 -100l-94 30q18 78 67.5 125.5t127.5 47.5z" />
<glyph d="M164 289v92h45q40 0 59 21t19 71q0 88 -66 88q-67 0 -90 -86l-90 31q18 72 67.5 114t122.5 42q89 0 134 -48.5t45 -126.5q0 -116 -78 -145v-4q88 -25 88 -148q0 -100 -50.5 -149t-142.5 -49q-151 0 -190 145l90 33q23 -80 94 -80q74 0 74 109q0 52 -20 71t-64 19h-47z " />
<glyph d="M389 0h-106v119h-258v80l245 454h119v-438h64l-9 -96h-55v-119zM143 215h140l8 299h-4z" />
<glyph d="M133 287l-78 37l23 329h323l-6 -104h-221l-10 -156h4q41 23 90 23q164 0 164 -201q0 -223 -197 -223q-72 0 -120.5 37t-65.5 110l90 29q26 -78 88 -78q44 0 63 29t19 96q0 55 -20.5 78.5t-65.5 23.5q-46 0 -80 -30z" />
<glyph d="M244 662q64 0 109 -36.5t63 -107.5l-84 -35q-22 76 -82 76q-90 0 -90 -117v-63h4q35 35 102 35q160 0 160 -195q0 -227 -193 -227q-92 0 -140 57.5t-48 163.5v219q0 101 54.5 165.5t144.5 64.5zM238 315q-31 0 -54 -14t-24 -35v-67q0 -105 78 -105q39 0 57 28t18 95 q0 52 -17.5 75t-57.5 23z" />
<glyph horiz-adv-x="434" d="M209 0h-133l207 547h-254v106h379v-94z" />
<glyph d="M233 -8q-97 0 -146.5 48t-49.5 155q0 117 82 147v4q-68 33 -68 141q0 175 182 175q94 0 138.5 -46.5t44.5 -128.5q0 -107 -70 -141v-4q82 -30 82 -147q0 -107 -49 -155t-146 -48zM311 199q0 54 -19 74t-59 20q-42 0 -59.5 -19.5t-17.5 -74.5q0 -64 18 -87.5t59 -23.5 q42 0 60 23t18 88zM233 565q-39 0 -55 -18.5t-16 -71.5q0 -54 16 -74t55 -20t55.5 20t16.5 74q0 52 -16 71t-56 19z" />
<glyph d="M45 129l80 41q15 -42 36.5 -60t57.5 -18q86 0 86 103v96h-4q-41 -33 -100 -33q-72 0 -117 47.5t-45 145.5q0 104 50.5 157.5t146.5 53.5q90 0 137 -54.5t47 -148.5v-260q0 -97 -52 -152t-143 -55q-140 0 -180 137zM227 352q28 0 51.5 15t26.5 39v65q0 49 -17.5 70.5 t-54.5 21.5q-42 0 -60.5 -23.5t-18.5 -80.5q0 -60 18 -83.5t55 -23.5z" />
<glyph horiz-adv-x="405" d="M342 334h-287v86h287v-86zM342 190h-287v86h287v-86z" />
<glyph horiz-adv-x="479" d="M61 0v516h105l4 -49h4q47 57 117 57q66 0 99.5 -46t33.5 -120v-358h-115v352q0 74 -57 74q-48 0 -74 -47v-379h-117z" />
<glyph horiz-adv-x="430" d="M412 510l-84 -29q-19 82 -84 82q-42 0 -63 -27.5t-21 -91.5v-237q0 -125 82 -125q66 0 86 90l86 -29q-31 -126 -135 -147l-13 -94h-71l-5 94q-74 13 -110.5 68.5t-36.5 140.5v244q0 86 39.5 142t114.5 68l16 97h72l2 -103q94 -25 125 -143z" />
<glyph horiz-adv-x="505" d="M47 293l-10 82h57q-10 58 -10 92q0 95 49 150t139 55q74 0 123.5 -40t63.5 -106l-90 -32q-19 73 -88 73q-80 0 -80 -114q0 -31 6 -78h180l-10 -82h-160q5 -29 10 -98q24 -12 63.5 -53.5t65.5 -41.5q24 0 37 19.5t19 68.5l88 -24q-23 -174 -135 -174q-41 0 -70 21.5 t-76 82.5h-4q-20 -104 -115 -104q-42 0 -66 25.5t-24 70.5q0 47 31.5 79t87.5 38l-20 90h-62zM111 70q23 0 26 69q-41 -5 -41 -47q0 -22 15 -22z" />
<glyph horiz-adv-x="354" d="M61 342q0 34 15 61l-37 41l41 45l39 -43q27 17 57 17q33 0 60 -17l43 46l38 -46l-41 -45q17 -27 17 -59t-17 -63l39 -41l-41 -45l-41 40q-22 -14 -57 -14q-30 0 -57 17l-41 -46l-41 43l41 46q-17 31 -17 63zM129 340q0 -23 13.5 -37t35.5 -14q21 0 34 14t13 37 q0 24 -13 38.5t-34 14.5q-22 0 -35.5 -14.5t-13.5 -38.5z" />
<glyph horiz-adv-x="532" d="M434 121h-100v-121h-129v121h-107v78h107v34h-107v78h82l-166 351h146l106 -304h4l107 304h145l-166 -351h78v-78h-100v-34h100v-78z" />
<glyph horiz-adv-x="495" d="M266 670q73 0 126.5 -42.5t68.5 -107.5l-94 -33q-18 72 -91 72q-44 0 -67 -28.5t-23 -81.5v-31h199l-12 -62h-187v-32h181l-13 -62h-168v-59q0 -52 24 -80.5t69 -28.5q36 0 57 19t31 63l94 -33q-35 -153 -195 -153q-97 0 -154 58t-57 155v59h-43v62h43v32h-43v62h43v31 q0 104 57 162.5t154 58.5z" />
<glyph horiz-adv-x="67" />
<glyph horiz-adv-x="784" d="M43 762v133h145l27 356h135l-26 -356h155l27 356h137l-25 -356h117v-133h-119l-18 -268h137v-134h-139l-27 -360h-139l27 360h-156l-25 -360h-137l27 360h-123v134h127l16 268h-143zM322 762l-15 -268h152l18 268h-155z" />
<glyph horiz-adv-x="784" d="M70 942q0 126 67 211.5t189 103.5l30 238h117l6 -244q170 -45 223 -260l-137 -39q-44 152 -172 152q-69 0 -99 -37t-30 -111q0 -49 24.5 -91t64 -75t87.5 -65.5t95.5 -69.5t87 -79.5t64 -104.5t24.5 -135q0 -139 -65.5 -230t-180.5 -116l-27 -250h-119l-6 248 q-102 15 -163 83.5t-89 202.5l144 41q40 -180 192 -180q61 0 95 45.5t34 122.5q0 53 -25 98t-65.5 79t-89 67t-97 70t-89 80t-65.5 106t-25 139z" />
<glyph horiz-adv-x="784" d="M317 176v342h-229v154h229v342h146v-342h235v-154h-235v-342h-146z" />
<glyph horiz-adv-x="815" d="M750 811v-440q0 -187 -87.5 -288t-254.5 -101q-168 0 -255 101.5t-87 291.5v432q0 190 87.5 292.5t254.5 102.5q168 0 255 -101t87 -290zM254 807v-440q0 -122 37 -175t115 -53q81 0 118 52.5t37 173.5v448q0 125 -37 177t-118 52q-79 0 -115.5 -54t-36.5 -181z" />
<glyph horiz-adv-x="583" d="M287 823h-236v148h107q97 0 132 48t44 193h153v-1212h-200v823z" />
<glyph horiz-adv-x="761" d="M399 1208q150 0 224.5 -81.5t74.5 -223.5q0 -73 -31 -159.5t-92 -185t-125 -186t-157 -202.5v-4h416v-166h-652l-2 117q205 241 330 446.5t125 331.5q0 76 -30.5 110.5t-98.5 34.5q-123 0 -182 -153l-142 55q53 133 134.5 199.5t207.5 66.5z" />
<glyph horiz-adv-x="761" d="M680 895q0 -236 -139 -295v-4q91 -24 130.5 -91t39.5 -188q0 -495 -609 -495l-16 166q162 0 259 39t136 110t39 185q0 112 -45.5 151t-161.5 39h-49v156h43q102 0 143.5 47t41.5 166q0 85 -29.5 122t-95.5 37q-119 0 -187 -153l-141 53q105 268 346 268 q150 0 222.5 -83.5t72.5 -229.5z" />
<glyph horiz-adv-x="772" d="M637 -174h-180v465h-451v143l440 758h191v-746h131l-12 -155h-119v-465zM199 446h260l20 525h-4z" />
<glyph horiz-adv-x="745" d="M649 1014h-403l-19 -338q75 35 170 35q149 0 224 -83.5t75 -269.5q0 -259 -153.5 -397.5t-442.5 -138.5l-16 166q227 0 324.5 87t97.5 269q0 116 -40 159.5t-132 43.5q-96 0 -164 -47l-123 53l43 639h572z" />
<glyph horiz-adv-x="786" d="M643 1227q-339 0 -375 -455h4q68 53 164 53q299 0 299 -393q0 -224 -86 -337t-252 -113q-161 0 -239 114t-78 318v243q0 349 148 542.5t403 193.5zM408 655q-88 0 -142 -63v-174q0 -144 34.5 -206t105.5 -62q72 0 107.5 60.5t35.5 211.5q0 130 -33.5 181.5t-107.5 51.5z " />
<glyph horiz-adv-x="710" d="M303 -164h-201l400 1178h-490v178h682v-156z" />
<glyph horiz-adv-x="784" d="M393 -18q-168 0 -251 83.5t-83 278.5q0 218 150 277v4q-131 67 -131 274q0 145 76.5 227t238.5 82t238 -81.5t76 -227.5q0 -207 -129 -274v-4q149 -59 149 -277q0 -194 -83.5 -278t-250.5 -84zM539 358q0 101 -36.5 143t-109.5 42t-109 -41t-36 -142q0 -119 34 -168 t111 -49q78 0 112 49t34 166zM393 1051q-70 0 -101.5 -41.5t-31.5 -139.5q0 -99 31 -142.5t102 -43.5t102 43.5t31 142.5q0 98 -31.5 139.5t-101.5 41.5z" />
<glyph horiz-adv-x="786" d="M127 -12q185 0 283 116t110 379h-4q-65 -47 -162 -47q-143 0 -223 89.5t-80 281.5q0 199 86 300t252 101q159 0 238.5 -114t79.5 -312v-231q0 -355 -150 -542t-414 -187zM381 596q83 0 139 68v112q0 141 -33 202.5t-108 61.5q-70 0 -106.5 -51.5t-36.5 -175.5 q0 -120 35.5 -168.5t109.5 -48.5z" />
<glyph horiz-adv-x="784" d="M676 838l-346 -248l346 -246v-205l-588 441v20l588 444v-206z" />
<glyph horiz-adv-x="784" d="M680 659h-576v154h576v-154zM680 375h-576v153h576v-153z" />
<glyph horiz-adv-x="784" d="M455 590l-346 248v206h4l583 -442v-20l-581 -443h-4v205z" />
<glyph horiz-adv-x="784" d="M709 997l-154 -49q-20 83 -59 120.5t-99 37.5q-79 0 -113 -55.5t-34 -178.5v-510q0 -122 37 -174.5t114 -52.5q61 0 98.5 38.5t57.5 127.5l152 -45q-53 -231 -242 -268l-27 -248h-116l-7 246q-254 42 -254 389v491q0 168 66 271t199 123l30 235h119l4 -242 q83 -22 141.5 -87.5t86.5 -168.5z" />
<glyph horiz-adv-x="784" d="M684 1001l-139 -45q-14 82 -46.5 116t-82.5 34q-60 0 -88.5 -53.5t-28.5 -169.5q0 -88 12 -193h275l-13 -125h-249q18 -151 18 -229q30 -17 59.5 -50t47.5 -60.5t39.5 -48.5t41.5 -21q35 0 55 38.5t29 137.5l136 -33q-17 -173 -66 -246t-135 -73q-28 0 -53.5 10t-43 22.5 t-37 37.5t-29 40t-28 46.5t-24.5 41.5h-4q-31 -198 -172 -198q-63 0 -99 41t-36 118q0 83 45.5 140.5t126.5 72.5q-3 20 -17 92.5t-22 120.5h-76l-14 125h69q-18 130 -18 197q0 181 74 281t212 100q113 0 185 -71t96 -196zM166 102q43 0 45 146q-72 -18 -72 -103 q0 -43 27 -43z" />
<glyph horiz-adv-x="632" d="M98 645q0 67 31 121l-74 80l72 80l76 -82q54 33 112 33q65 0 115 -35l80 88l72 -78l-80 -88q30 -58 30 -119q0 -65 -30 -123l76 -82l-72 -78l-78 82q-46 -32 -113 -32q-61 0 -110 30l-80 -86l-72 78l78 86q-33 61 -33 125zM213 643q0 -49 30.5 -81t73.5 -32q44 0 74.5 32 t30.5 81q0 50 -30.5 81.5t-74.5 31.5t-74 -31.5t-30 -81.5z" />
<glyph horiz-adv-x="784" d="M670 266h-183v-266h-188v266h-184v123h184v78h-184v123h145l-260 659h203l190 -587h4l185 587h206l-266 -659h148v-123h-183v-78h183v-123z" />
<glyph horiz-adv-x="784" d="M555 250v268h-467v154h610v-422h-143z" />
<glyph horiz-adv-x="784" d="M319 266v291h-231v154h231v303h144v-303h235v-154h-235v-291h-144zM698 51h-610v154h610v-154z" />
<glyph horiz-adv-x="784" d="M569 279l-198 215l-197 -215l-102 108l198 215l-196 215l98 109l199 -215l198 215l99 -109l-197 -215l199 -215z" />
<glyph horiz-adv-x="784" d="M696 520h-608v152h608v-152zM283 915q0 47 31 81t75 34q43 0 75 -34t32 -81t-32 -79.5t-75 -32.5q-44 0 -75 32.5t-31 79.5zM283 285q0 47 31 80.5t75 33.5q43 0 75 -33.5t32 -80.5t-32 -80t-75 -33q-44 0 -75 33t-31 80z" />
<glyph horiz-adv-x="784" d="M717 995l-154 -45q-18 83 -54 119.5t-93 36.5q-73 0 -106.5 -53.5t-33.5 -169.5v-92h267l-15 -111h-252v-68h240l-18 -108h-222v-142q0 -124 34.5 -175.5t107.5 -51.5q58 0 93.5 37.5t53.5 126.5l154 -43q-60 -276 -309 -276q-320 0 -320 393v131h-59v108h59v68h-59v111 h59v83q0 180 80 286t240 106q116 0 197.5 -71.5t109.5 -199.5z" />
<glyph horiz-adv-x="819" d="M55 823v133h156l27 383h131l-27 -383h166l27 383h131l-27 -383h125v-133h-129l-19 -303h148v-131h-150l-26 -389h-131l26 389h-168l-26 -389h-129l26 389h-131v131h133l19 303h-152zM338 823l-21 -303h168l21 303h-168z" />
<glyph horiz-adv-x="819" d="M391 1511h109l2 -165q88 -25 145.5 -99t83.5 -182l-127 -43q-35 132 -117 164l-22 -422q50 -35 80 -58t71 -64.5t64 -80.5t40 -96t17 -121q0 -152 -74 -247.5t-200 -110.5l-23 -166h-110l-4 172q-199 45 -246 303l137 45q28 -142 123 -182l25 446q-39 27 -57.5 40.5 t-53.5 42.5t-53 49.5t-43 54t-37 65.5t-21.5 74.5t-9.5 89.5q0 139 74.5 231t204.5 105zM580 317q0 67 -31.5 119t-89.5 99l-2 -385q123 18 123 167zM252 1038q0 -63 30.5 -110.5t88.5 -93.5v360q-119 -20 -119 -156z" />
<glyph horiz-adv-x="870" d="M362 211v348h-233v152h233v348h144v-348h237v-152h-237v-348h-144z" />
<glyph horiz-adv-x="819" d="M750 946v-557q0 -194 -87 -300.5t-253 -106.5q-167 0 -253.5 106.5t-86.5 300.5v557q0 196 86.5 304t253.5 108q165 0 252.5 -108t87.5 -304zM254 946v-557q0 -127 37.5 -182t118.5 -55q80 0 117.5 55t37.5 182v557q0 124 -38 180t-117 56q-80 0 -118 -55.5t-38 -180.5z " />
<glyph horiz-adv-x="819" d="M133 0v131h211v809h-260v152h133q66 0 98.5 17t51 69.5t26.5 160.5h156v-1208h176v-131h-592z" />
<glyph horiz-adv-x="819" d="M416 1358q157 0 237 -92.5t80 -243.5q0 -86 -22 -163t-58 -135.5t-80 -112t-90.5 -104t-87 -100.5t-71 -111.5t-41.5 -127.5h456v-168h-653l-4 94q2 87 29 169t68 147.5t90 127.5t97.5 120t88.5 113.5t65 118.5t25 126q0 170 -142 170q-66 0 -112 -54t-64 -159l-147 45 q28 154 113.5 247t222.5 93z" />
<glyph horiz-adv-x="819" d="M289 612v156h78q80 0 120.5 49.5t40.5 163.5q0 112 -34.5 158.5t-104.5 46.5q-66 0 -108.5 -46t-63.5 -145l-145 47q30 148 116 232t215 84q158 0 238 -95.5t80 -256.5q0 -243 -154 -308q86 -25 129 -98.5t43 -206.5q0 -411 -342 -411q-272 0 -334 288l142 47 q47 -170 182 -170q83 0 120.5 61t37.5 193q0 121 -43 166t-131 45h-82z" />
<glyph horiz-adv-x="819" d="M672 0h-172v248h-477v131l462 960h187v-931h123l-13 -160h-110v-248zM213 408h287l10 682z" />
<glyph horiz-adv-x="819" d="M221 610l-121 56l43 673h572l-13 -180h-407l-21 -362q87 51 185 51q149 0 222 -100.5t73 -311.5q0 -233 -87.5 -343.5t-263.5 -110.5q-125 0 -210 72.5t-113 217.5l147 45q19 -87 63.5 -128.5t104.5 -41.5q89 0 127.5 66.5t38.5 222.5q0 134 -41.5 189t-132.5 55 q-47 0 -92.5 -19.5t-73.5 -50.5z" />
<glyph horiz-adv-x="819" d="M420 1358q119 0 197 -73.5t108 -219.5l-137 -51q-23 93 -61.5 132.5t-98.5 39.5q-170 0 -170 -252v-164q78 72 197 72q149 0 219.5 -98.5t70.5 -297.5q0 -464 -337 -464q-161 0 -247.5 106t-86.5 301v526q0 198 93 320.5t253 122.5zM414 674q-65 0 -108.5 -29.5 t-47.5 -79.5v-194q0 -111 41 -164t111 -53q78 0 114.5 66t36.5 222q0 123 -34.5 177.5t-112.5 54.5z" />
<glyph horiz-adv-x="819" d="M375 0h-205l387 1161h-491v178h688v-153z" />
<glyph horiz-adv-x="819" d="M408 -18q-176 0 -262.5 93.5t-86.5 317.5q0 249 152 316q-129 69 -129 297q0 352 326 352q325 0 325 -352q0 -226 -129 -297q152 -68 152 -316q0 -115 -22.5 -195t-68.5 -127t-108.5 -68t-148.5 -21zM567 401q0 126 -39 174t-120 48q-82 0 -122 -48.5t-40 -173.5 q0 -146 38 -200t124 -54t122.5 53t36.5 201zM408 1194q-80 0 -114 -43.5t-34 -161.5q0 -123 34 -169t114 -46q81 0 114 45.5t33 169.5q0 118 -33 161.5t-114 43.5z" />
<glyph horiz-adv-x="819" d="M217 319q27 -91 69 -129t111 -38q164 0 164 210v246q-73 -67 -186 -67q-301 0 -301 393q0 212 89 318t259 106q156 0 241 -103.5t85 -275.5v-606q0 -182 -91.5 -285.5t-250.5 -103.5q-256 0 -320 272zM410 700q59 0 105 32.5t46 88.5v164q0 103 -35 152t-110 49 q-79 0 -117.5 -58t-38.5 -188q0 -135 37 -187.5t113 -52.5z" />
<glyph horiz-adv-x="870" d="M705 887l-330 -246l330 -244v-207l-572 441v20l572 445v-209z" />
<glyph horiz-adv-x="870" d="M725 686h-580v154h580v-154zM725 399h-580v156h580v-156z" />
<glyph horiz-adv-x="870" d="M166 397l330 244l-328 246v209l569 -445v-20l-571 -441v207z" />
<glyph horiz-adv-x="819" d="M711 805l-140 -47q-35 133 -139 133q-141 0 -141 -199v-344q0 -112 35.5 -161.5t105.5 -49.5q54 0 87.5 35t53.5 115l142 -45q-54 -212 -223 -252l-25 -187h-115l-4 185q-119 23 -181.5 118t-62.5 236v358q0 143 63.5 238t184.5 115l29 217h115l4 -223q78 -23 132 -85 t79 -157z" />
<glyph horiz-adv-x="819" d="M55 602l-18 141h100q-20 140 -20 218q0 188 84 292.5t239 104.5q124 0 204.5 -75t103.5 -208l-144 -47q-18 84 -56.5 121t-98.5 37q-75 0 -110.5 -61.5t-35.5 -184.5q0 -80 12 -197h326l-16 -141h-297q20 -221 20 -231q32 -15 61.5 -42.5t50 -55.5t40.5 -54t42.5 -42.5 t45.5 -16.5q42 0 64.5 43.5t35.5 156.5l141 -36q-20 -182 -76 -262t-153 -80q-39 0 -72.5 13.5t-62 42.5t-46 51.5t-44.5 64t-37 55.5q-34 -227 -195 -227q-71 0 -112 46t-41 130q0 91 55 152.5t150 74.5l-37 217h-103zM156 119q25 0 38.5 33.5t14.5 123.5q-46 -8 -66 -38.5 t-20 -69.5q0 -24 10 -36.5t23 -12.5z" />
<glyph horiz-adv-x="819" d="M207 694q0 59 29 109l-68 74l68 75l69 -75q44 30 103 30q52 0 104 -30l74 79l67 -73l-73 -80q28 -51 28 -109q0 -61 -28 -112l69 -74l-67 -76l-72 76q-45 -31 -102 -31q-53 0 -103 29l-72 -80l-67 76l70 78q-29 53 -29 114zM315 692q0 -45 27 -73.5t66 -28.5 q40 0 67 28.5t27 73.5t-27 73t-67 28q-39 0 -66 -28t-27 -73z" />
<glyph horiz-adv-x="819" d="M690 272h-180v-272h-199v272h-190v136h190v79h-190v134h153l-278 718h219l195 -634l196 634h219l-280 -718h145v-134h-180v-79h180v-136z" />
<glyph horiz-adv-x="870" d="M598 289v268h-469v154h614v-422h-145z" />
<glyph horiz-adv-x="870" d="M360 295v299h-233v154h233v311h146v-311h237v-154h-237v-299h-146zM743 82h-616v154h616v-154z" />
<glyph horiz-adv-x="870" d="M633 311l-199 215l-196 -215l-103 109l199 215l-197 215l99 108l198 -215l199 215l98 -108l-196 -215l198 -215z" />
<glyph horiz-adv-x="870" d="M743 557h-614v154h614v-154zM326 954q0 48 31 82.5t75 34.5q43 0 75 -35t32 -82t-32 -79.5t-75 -32.5q-44 0 -75 32.5t-31 79.5zM326 324q0 46 31 80t75 34q43 0 75 -34t32 -80q0 -47 -32 -81t-75 -34q-44 0 -75 34t-31 81z" />
<glyph horiz-adv-x="819" d="M463 1358q125 0 211.5 -82t111.5 -215l-151 -49q-31 159 -160 159q-81 0 -121.5 -58t-40.5 -167v-102h340l-20 -115h-320v-70h305l-18 -112h-287v-174q0 -101 41 -159t121 -58q68 0 105.5 40t54.5 138l153 -47q-27 -159 -108 -232t-221 -73q-160 0 -253 106.5t-93 284.5 v174h-82v112h82v70h-82v115h82v102q0 192 93.5 302t256.5 110z" />
<glyph horiz-adv-x="350" d="M86 1192h176v-514l-20 -324h-138l-18 322v516zM72 0v215h204v-215h-204z" />
<glyph horiz-adv-x="884" d="M672 985l-137 -61q-47 137 -136 137q-90 0 -90 -107q0 -73 37 -133l240 -387q26 127 26 268v29h236v-139h-107q-13 -184 -57 -313q80 -110 195 -136l-25 -157q-152 24 -252 135q-105 -137 -266 -137q-132 0 -213.5 86.5t-81.5 265.5q0 117 46.5 214.5t131.5 162.5 q-80 124 -80 237q0 109 67.5 182.5t190.5 73.5q201 0 275 -221zM358 131q93 0 160 113l-217 342q-39 -49 -59.5 -115t-20.5 -131q0 -209 137 -209z" />
<glyph horiz-adv-x="698" d="M651 915q0 -125 -62.5 -235t-176.5 -178l-11 -154h-135l-12 242q217 113 217 311q0 146 -125 146q-131 0 -176 -164l-145 41q34 130 117.5 206t211.5 76q148 0 222.5 -82.5t74.5 -208.5zM231 0v215h205v-215h-205z" />
<glyph horiz-adv-x="440" d="M25 1489h198l82 -221h-137z" />
<glyph horiz-adv-x="839" d="M264 281l-59 -281h-195l301 1192h219l297 -1192h-196l-60 281h-307zM416 997l-121 -569h244l-119 569h-4z" />
<glyph horiz-adv-x="806" d="M715 887q0 -107 -33 -170t-107 -92v-4q183 -46 183 -279q0 -171 -74 -256.5t-246 -85.5h-344v1192h305q159 0 237.5 -81t78.5 -224zM283 541v-381h145q76 0 107.5 41.5t31.5 152.5q0 103 -32.5 145t-104.5 42h-147zM283 1028v-344h123q75 0 104 41t29 137q0 91 -30 128.5 t-103 37.5h-123z" />
<glyph horiz-adv-x="731" d="M391 1208q117 0 198 -73t105 -191l-143 -49q-27 147 -141 147q-152 0 -152 -206v-494q0 -92 38.5 -145.5t111.5 -53.5q61 0 94.5 35.5t50.5 124.5l143 -47q-26 -141 -101.5 -207.5t-205.5 -66.5q-148 0 -234.5 97.5t-86.5 260.5v496q0 173 86 272.5t237 99.5z" />
<glyph horiz-adv-x="858" d="M793 821v-450q0 -174 -92 -272.5t-257 -98.5h-350v1192h350q165 0 257 -98.5t92 -272.5zM600 375v438q0 113 -38 163t-118 50h-157v-862h157q80 0 118 49t38 162z" />
<glyph horiz-adv-x="718" d="M94 1192h572v-168h-379v-334h291v-149h-291v-377h393v-164h-586v1192z" />
<glyph horiz-adv-x="708" d="M94 1192h574v-170h-381v-346h327v-160h-327v-516h-193v1192z" />
<glyph horiz-adv-x="821" d="M424 1208q125 0 212 -71.5t112 -196.5l-146 -51q-47 143 -172 143q-89 0 -130.5 -56t-41.5 -171v-438q0 -107 40.5 -159t125.5 -52q52 0 89.5 18.5t68.5 63.5v227h-121v133h287v-598h-154v74h-4q-78 -90 -209 -90q-146 0 -229.5 98t-83.5 283v442q0 186 89 293.5 t267 107.5z" />
<glyph horiz-adv-x="864" d="M94 1192h193v-494h291v494h192v-1192h-192v526h-291v-526h-193v1192z" />
<glyph horiz-adv-x="419" d="M115 1192h190v-1192h-190v1192z" />
<glyph horiz-adv-x="411" d="M125 1192h190v-1004q0 -199 -95.5 -301.5t-280.5 -107.5l-17 155q105 0 154 59t49 193v1006z" />
<glyph horiz-adv-x="825" d="M815 0h-209l-239 522h-5l-79 -137v-385h-189v1192h189v-580h4l295 580h213l-306 -528z" />
<glyph horiz-adv-x="667" d="M94 1192h189v-1020h356v-172h-545v1192z" />
<glyph horiz-adv-x="1105" d="M834 1192h176v-1192h-172v762h-4l-238 -563h-88l-236 563h-4v-762h-174v1192h178l277 -719h4z" />
<glyph horiz-adv-x="864" d="M94 1192h144l360 -741h4v741h168v-1192h-133l-371 772h-4v-772h-168v1192z" />
<glyph horiz-adv-x="827" d="M762 831v-471q0 -179 -90 -278.5t-258 -99.5q-170 0 -259 99.5t-89 278.5v471q0 179 89 278t259 99q169 0 258.5 -99t89.5 -278zM571 360v471q0 110 -37.5 159.5t-119.5 49.5q-80 0 -118 -50t-38 -159v-471q0 -112 37 -162.5t119 -50.5t119.5 50.5t37.5 162.5z" />
<glyph horiz-adv-x="784" d="M436 1192q149 0 229 -97.5t80 -277.5q0 -178 -77.5 -275.5t-221.5 -97.5h-159v-444h-193v1192h342zM287 1028v-432h145q65 0 94 51.5t29 167.5q0 117 -28.5 165t-94.5 48h-145z" />
<glyph horiz-adv-x="827" d="M762 831v-471q0 -140 -55.5 -232.5t-161.5 -127.5l153 -188l-163 -64l-150 236q-156 7 -237.5 106t-81.5 270v471q0 179 89 278t259 99q169 0 258.5 -99t89.5 -278zM571 360v471q0 110 -37.5 159.5t-119.5 49.5q-80 0 -118 -50t-38 -159v-471q0 -112 37 -162.5t119 -50.5 t119.5 50.5t37.5 162.5z" />
<glyph horiz-adv-x="798" d="M580 0l-187 498h-106v-498h-193v1192h326q309 0 309 -336q0 -256 -166 -315l221 -541h-204zM287 1028v-381h123q72 0 102.5 47t30.5 150t-30 143.5t-101 40.5h-125z" />
<glyph horiz-adv-x="712" d="M358 1210q244 0 314 -254l-142 -49q-17 72 -58 109t-101 37q-123 0 -123 -135q0 -48 23.5 -89.5t61.5 -73.5t83.5 -63.5t91 -68t83.5 -79t61.5 -103.5t23.5 -134q0 -156 -83.5 -241.5t-230.5 -85.5q-122 0 -209 73.5t-110 206.5l152 43q38 -166 170 -166q127 0 127 148 q0 53 -24 98t-62.5 78.5t-84.5 66t-92.5 68t-85 77t-62.5 101.5t-24 133q0 133 81 218t220 85z" />
<glyph horiz-adv-x="679" d="M16 1192h648v-172h-228v-1020h-190v1020h-230v172z" />
<glyph horiz-adv-x="860" d="M588 1192h190v-840q0 -177 -90 -273.5t-256 -96.5q-167 0 -258.5 95t-91.5 267v848h192v-848q0 -190 158 -190q78 0 117 44.5t39 145.5v848z" />
<glyph horiz-adv-x="829" d="M823 1192l-309 -1192h-199l-307 1192h207l199 -936h4l198 936h207z" />
<glyph horiz-adv-x="1275" d="M1247 1192l-237 -1192h-209l-160 842h-4l-162 -842h-207l-239 1192h194l154 -916h4l168 916h180l170 -922h4l154 922h190z" />
<glyph horiz-adv-x="811" d="M20 0l265 604l-256 588h204l170 -469h5l170 469h204l-254 -588l263 -604h-205l-178 481h-5l-180 -481h-203z" />
<glyph horiz-adv-x="796" d="M791 1192l-297 -817v-375h-191v375l-297 817h209l182 -608h4l183 608h207z" />
<glyph horiz-adv-x="729" d="M676 170v-170h-627v117l418 905h-397v170h608v-117l-418 -905h416z" />
<glyph horiz-adv-x="350" d="M266 0h-178v516l21 322h139l18 -322v-516zM279 1192v-215h-203v215h203z" />
<glyph horiz-adv-x="440" d="M31 1495h139v-211h-139v211zM272 1495h138v-211h-138v211z" />
<glyph horiz-adv-x="440" d="M432 1452v-127h-422v127h422z" />
<glyph horiz-adv-x="440" d="M162 1495h194l-129 -227h-135z" />
<glyph horiz-adv-x="698" d="M49 279q0 125 62 234t176 177l12 156h135l12 -242q-219 -112 -219 -311q0 -146 127 -146q131 0 176 164l146 -41q-34 -129 -119 -205.5t-213 -76.5q-148 0 -221.5 82t-73.5 209zM467 1194v-215h-203v215h203z" />
<glyph horiz-adv-x="1425" d="M358 1210q244 0 314 -254l-142 -49q-17 72 -58 109t-101 37q-123 0 -123 -135q0 -48 23.5 -89.5t61.5 -73.5t83.5 -63.5t91 -68t83.5 -79t61.5 -103.5t23.5 -134q0 -156 -83.5 -241.5t-230.5 -85.5q-122 0 -209 73.5t-110 206.5l152 43q38 -166 170 -166q127 0 127 148 q0 53 -24 98t-62.5 78.5t-84.5 66t-92.5 68t-85 77t-62.5 101.5t-24 133q0 133 81 218t220 85zM1071 1210q243 0 313 -254l-141 -49q-17 72 -58.5 109t-101.5 37q-122 0 -122 -135q0 -48 23.5 -89.5t61.5 -73.5t83.5 -63.5t91 -68t83.5 -79t61.5 -103.5t23.5 -134 q0 -156 -83.5 -241.5t-230.5 -85.5q-122 0 -209 73.5t-110 206.5l151 43q38 -166 170 -166q127 0 127 148q0 53 -24 98t-62 78.5t-84.5 66t-93 68t-84.5 77t-62 101.5t-24 133q0 133 81 218t220 85z" />
<glyph horiz-adv-x="839" d="M264 281l-59 -281h-195l301 1192h219l297 -1192h-196l-60 281h-307zM416 997l-121 -569h244l-119 569h-4zM236 1489h198l82 -221h-137z" />
<glyph horiz-adv-x="839" d="M264 281l-59 -281h-195l301 1192h219l297 -1192h-196l-60 281h-307zM416 997l-121 -569h244l-119 569h-4zM410 1495h194l-129 -227h-135z" />
<glyph horiz-adv-x="839" d="M264 281l-59 -281h-195l301 1192h219l297 -1192h-196l-60 281h-307zM416 997l-121 -569h244l-119 569h-4zM358 1268h-151l147 227h135l146 -227h-150l-63 121h-4z" />
<glyph horiz-adv-x="839" d="M264 281l-59 -281h-195l301 1192h219l297 -1192h-196l-60 281h-307zM416 997l-121 -569h244l-119 569h-4zM569 1497l101 -14q-12 -114 -47 -167.5t-101 -53.5q-35 0 -66.5 19t-50.5 41t-40.5 41t-38.5 19q-22 0 -35 -23.5t-19 -84.5l-102 12q11 117 45.5 170t101.5 53 q35 0 67 -18.5t52 -40.5t42 -40.5t38 -18.5q23 0 34.5 22.5t18.5 83.5z" />
<glyph horiz-adv-x="839" d="M264 281l-59 -281h-195l301 1192h219l297 -1192h-196l-60 281h-307zM416 997l-121 -569h244l-119 569h-4zM229 1495h140v-211h-140v211zM471 1495h137v-211h-137v211z" />
<glyph horiz-adv-x="839" d="M264 281l-59 -281h-195l301 1192h219l297 -1192h-196l-60 281h-307zM416 997l-121 -569h244l-119 569h-4zM252 1417q0 71 46.5 115.5t119.5 44.5q74 0 121 -44t47 -116q0 -73 -47 -116.5t-121 -43.5q-73 0 -119.5 43.5t-46.5 116.5zM362 1417q0 -30 14.5 -48.5 t41.5 -18.5q55 0 55 67q0 66 -55 66q-27 0 -41.5 -18.5t-14.5 -47.5z" />
<glyph horiz-adv-x="1169" d="M307 287l-100 -287h-193l441 1192h657v-168h-377l29 -334h264v-149h-252l31 -377h321v-164h-497l-23 287h-301zM551 989l-193 -555h238l-41 555h-4z" />
<glyph horiz-adv-x="731" d="M391 1208q117 0 198 -73t105 -191l-143 -49q-27 147 -141 147q-152 0 -152 -206v-494q0 -92 38.5 -145.5t111.5 -53.5q61 0 94.5 35.5t50.5 124.5l143 -47q-25 -132 -91 -198t-179 -74l-6 -41q133 -24 133 -123q0 -65 -58.5 -111t-158.5 -53l-33 90q53 11 78 25.5 t25 38.5q0 45 -113 53l26 125q-118 22 -184.5 116t-66.5 236v496q0 173 86 272.5t237 99.5z" />
<glyph horiz-adv-x="718" d="M94 1192h572v-168h-379v-334h291v-149h-291v-377h393v-164h-586v1192zM193 1489h198l82 -221h-137z" />
<glyph horiz-adv-x="718" d="M94 1192h572v-168h-379v-334h291v-149h-291v-377h393v-164h-586v1192zM360 1495h195l-129 -227h-135z" />
<glyph horiz-adv-x="718" d="M94 1192h572v-168h-379v-334h291v-149h-291v-377h393v-164h-586v1192zM319 1268h-151l147 227h136l145 -227h-150l-63 121h-4z" />
<glyph horiz-adv-x="718" d="M94 1192h572v-168h-379v-334h291v-149h-291v-377h393v-164h-586v1192zM193 1495h139v-211h-139v211zM434 1495h137v-211h-137v211z" />
<glyph horiz-adv-x="419" d="M115 1192h190v-1192h-190v1192zM12 1489h199l82 -221h-137z" />
<glyph horiz-adv-x="419" d="M115 1192h190v-1192h-190v1192zM199 1495h194l-129 -227h-135z" />
<glyph horiz-adv-x="419" d="M115 1192h190v-1192h-190v1192zM147 1268h-151l147 227h136l145 -227h-150l-63 121h-4z" />
<glyph horiz-adv-x="419" d="M115 1192h190v-1192h-190v1192zM20 1495h140v-211h-140v211zM262 1495h137v-211h-137v211z" />
<glyph horiz-adv-x="870" d="M805 821v-450q0 -174 -91.5 -272.5t-256.5 -98.5h-351v555h-86v113h86v524h351q165 0 256.5 -98.5t91.5 -272.5zM612 375v438q0 113 -37.5 163t-117.5 50h-158v-358h133v-113h-133v-391h158q80 0 117.5 49t37.5 162z" />
<glyph horiz-adv-x="864" d="M94 1192h144l360 -741h4v741h168v-1192h-133l-371 772h-4v-772h-168v1192zM592 1497l100 -14q-12 -115 -46.5 -168t-100.5 -53q-35 0 -66.5 19t-50.5 41t-41 41t-39 19q-22 0 -34.5 -23.5t-18.5 -84.5l-102 12q11 117 45.5 170t101.5 53q35 0 67 -18.5t52 -40.5t42 -40.5 t38 -18.5q23 0 34 22.5t19 83.5z" />
<glyph horiz-adv-x="827" d="M762 831v-471q0 -179 -90 -278.5t-258 -99.5q-170 0 -259 99.5t-89 278.5v471q0 179 89 278t259 99q169 0 258.5 -99t89.5 -278zM571 360v471q0 110 -37.5 159.5t-119.5 49.5q-80 0 -118 -50t-38 -159v-471q0 -112 37 -162.5t119 -50.5t119.5 50.5t37.5 162.5zM219 1489 h199l82 -221h-138z" />
<glyph horiz-adv-x="827" d="M762 831v-471q0 -179 -90 -278.5t-258 -99.5q-170 0 -259 99.5t-89 278.5v471q0 179 89 278t259 99q169 0 258.5 -99t89.5 -278zM571 360v471q0 110 -37.5 159.5t-119.5 49.5q-80 0 -118 -50t-38 -159v-471q0 -112 37 -162.5t119 -50.5t119.5 50.5t37.5 162.5zM410 1495 h194l-129 -227h-135z" />
<glyph horiz-adv-x="827" d="M762 831v-471q0 -179 -90 -278.5t-258 -99.5q-170 0 -259 99.5t-89 278.5v471q0 179 89 278t259 99q169 0 258.5 -99t89.5 -278zM571 360v471q0 110 -37.5 159.5t-119.5 49.5q-80 0 -118 -50t-38 -159v-471q0 -112 37 -162.5t119 -50.5t119.5 50.5t37.5 162.5zM354 1268 h-151l147 227h135l146 -227h-150l-63 121h-4z" />
<glyph horiz-adv-x="827" d="M762 831v-471q0 -179 -90 -278.5t-258 -99.5q-170 0 -259 99.5t-89 278.5v471q0 179 89 278t259 99q169 0 258.5 -99t89.5 -278zM571 360v471q0 110 -37.5 159.5t-119.5 49.5q-80 0 -118 -50t-38 -159v-471q0 -112 37 -162.5t119 -50.5t119.5 50.5t37.5 162.5zM569 1497 l101 -14q-12 -114 -47 -167.5t-101 -53.5q-35 0 -66.5 19t-50.5 41t-40.5 41t-38.5 19q-22 0 -35 -23.5t-19 -84.5l-102 12q11 117 45.5 170t101.5 53q35 0 67 -18.5t52 -40.5t42 -40.5t38 -18.5q23 0 34.5 22.5t18.5 83.5z" />
<glyph horiz-adv-x="827" d="M762 831v-471q0 -179 -90 -278.5t-258 -99.5q-170 0 -259 99.5t-89 278.5v471q0 179 89 278t259 99q169 0 258.5 -99t89.5 -278zM571 360v471q0 110 -37.5 159.5t-119.5 49.5q-80 0 -118 -50t-38 -159v-471q0 -112 37 -162.5t119 -50.5t119.5 50.5t37.5 162.5zM225 1495 h140v-211h-140v211zM467 1495h137v-211h-137v211z" />
<glyph horiz-adv-x="827" d="M762 831v-471q0 -179 -90 -278.5t-258 -99.5q-175 0 -262 104l-48 -80l-61 49l61 105q-36 79 -36 200v471q0 180 88.5 278.5t257.5 98.5t258 -100l53 90l61 -49l-67 -113q43 -82 43 -205zM573 360v431h-4l-305 -517q13 -64 50 -94t100 -30q82 0 120.5 50t38.5 160z M258 831v-415h4l301 512q-28 108 -149 108q-80 0 -118 -48.5t-38 -156.5z" />
<glyph horiz-adv-x="860" d="M588 1192h190v-840q0 -177 -90 -273.5t-256 -96.5q-167 0 -258.5 95t-91.5 267v848h192v-848q0 -190 158 -190q78 0 117 44.5t39 145.5v848zM238 1489h198l82 -221h-137z" />
<glyph horiz-adv-x="860" d="M588 1192h190v-840q0 -177 -90 -273.5t-256 -96.5q-167 0 -258.5 95t-91.5 267v848h192v-848q0 -190 158 -190q78 0 117 44.5t39 145.5v848zM426 1495h195l-129 -227h-136z" />
<glyph horiz-adv-x="860" d="M588 1192h190v-840q0 -177 -90 -273.5t-256 -96.5q-167 0 -258.5 95t-91.5 267v848h192v-848q0 -190 158 -190q78 0 117 44.5t39 145.5v848zM371 1268h-152l148 227h135l145 -227h-149l-64 121h-4z" />
<glyph horiz-adv-x="860" d="M588 1192h190v-840q0 -177 -90 -273.5t-256 -96.5q-167 0 -258.5 95t-91.5 267v848h192v-848q0 -190 158 -190q78 0 117 44.5t39 145.5v848zM244 1495h139v-211h-139v211zM485 1495h138v-211h-138v211z" />
<glyph horiz-adv-x="796" d="M791 1192l-297 -817v-375h-191v375l-297 817h209l182 -608h4l183 608h207zM383 1495h195l-129 -227h-136z" />
<glyph horiz-adv-x="784" d="M436 987q149 0 229 -96.5t80 -276.5q0 -179 -77.5 -275.5t-221.5 -96.5h-159v-242h-193v1192h193v-205h149zM287 823v-430h145q65 0 94 51.5t29 167.5q0 115 -29 163t-94 48h-145z" />
<glyph horiz-adv-x="796" d="M791 1192l-297 -817v-375h-191v375l-297 817h209l182 -608h4l183 608h207zM209 1495h139v-211h-139v211zM451 1495h137v-211h-137v211z" />
<glyph horiz-adv-x="1193" d="M573 1192h564v-168h-375v-334h291v-149h-291v-377h393v-164h-582v76h-4q-66 -94 -202 -94q-137 0 -218 101t-81 277v471q0 176 81 276.5t218 100.5q136 0 202 -94h4v78zM573 365v460q0 114 -38 163.5t-121 49.5q-81 0 -118.5 -49.5t-37.5 -161.5v-462q0 -114 37.5 -164.5 t118.5 -50.5q83 0 121 50.5t38 164.5z" />
<glyph horiz-adv-x="440" d="M158 1268h-152l148 227h135l145 -227h-149l-64 121h-4z" />
<glyph horiz-adv-x="440" d="M371 1497l100 -14q-12 -115 -46.5 -168t-100.5 -53q-35 0 -66.5 19t-50.5 41t-41 41t-39 19q-22 0 -34.5 -23.5t-18.5 -84.5l-103 12q11 117 46 170t102 53q35 0 67 -18.5t51.5 -40.5t41.5 -40.5t38 -18.5q23 0 35 22.5t19 83.5z" />
<glyph horiz-adv-x="1128" d="M94 1192h574v-170h-381v-346h327v-160h-327v-516h-193v1192zM823 1192h191v-1192h-191v1192z" />
<glyph horiz-adv-x="1376" d="M94 1192h574v-170h-381v-346h327v-160h-327v-516h-193v1192zM803 1192h188v-1020h357v-172h-545v1192z" />
<glyph horiz-adv-x="1837" d="M94 1192h574v-170h-381v-346h327v-160h-327v-516h-193v1192zM803 1192h573v-170h-381v-346h328v-160h-328v-516h-192v1192zM1532 1192h190v-1192h-190v1192z" />
<glyph horiz-adv-x="2084" d="M94 1192h574v-170h-381v-346h327v-160h-327v-516h-193v1192zM803 1192h573v-170h-381v-346h328v-160h-328v-516h-192v1192zM1511 1192h189v-1020h356v-172h-545v1192z" />
<glyph horiz-adv-x="460" d="M111 563v357q0 327 81.5 465.5t264.5 138.5h24v-140h-24q-63 0 -103.5 -39.5t-65 -144.5t-24.5 -280v-357q0 -175 24.5 -280.5t65 -146t103.5 -40.5h24v-139h-24q-122 0 -197 59.5t-112 192.5t-37 354z" />
<glyph horiz-adv-x="460" d="M354 920v-357q0 -327 -82.5 -466.5t-263.5 -139.5h-24v139h24q47 0 80.5 23t59 75.5t38.5 144.5t13 224v357q0 175 -24 279.5t-64 144.5t-103 40h-24v140h24q121 0 196 -58.5t112.5 -192t37.5 -353.5z" />
<glyph horiz-adv-x="460" d="M43 653v174h377v-174h-377z" />
<glyph horiz-adv-x="454" d="M125 -43v1569h352v-144h-188v-1282h188v-143h-352z" />
<glyph horiz-adv-x="456" d="M332 1526v-1569h-352v143h188v1282h-188v144h352z" />
<glyph horiz-adv-x="446" d="M-18 1552h233l102 -157h-161z" />
<glyph horiz-adv-x="473" d="M31 690v103q137 12 137 104q0 30 -28.5 145t-28.5 197q0 145 86.5 216t263.5 71h28v-142h-28q-101 0 -145 -47t-44 -145q0 -70 27 -174.5t27 -136.5q0 -106 -127 -140q127 -34 127 -139q0 -31 -27 -134.5t-27 -174.5q0 -98 43.5 -146.5t143.5 -48.5h28v-141h-28 q-348 0 -348 291q0 82 28.5 195t28.5 143q0 44 -35.5 71t-101.5 33z" />
<glyph horiz-adv-x="473" d="M440 805v-103q-65 -6 -100 -33t-35 -71q0 -29 28.5 -142.5t28.5 -195.5q0 -291 -348 -291h-28v142h28q99 0 143 48t44 146q0 70 -27 173.5t-27 135.5q0 107 123 140q-123 33 -123 139q0 30 27 135.5t27 175.5q0 97 -44.5 145t-142.5 48h-28v139h28q348 0 348 -285 q0 -82 -28.5 -197.5t-28.5 -144.5q0 -91 135 -104z" />
<glyph horiz-adv-x="446" d="M51 1554h131v-159h-131v159zM264 1554h131v-159h-131v159z" />
<glyph horiz-adv-x="546" d="M518 1032l-158 -291l158 -290h-129l-156 290l156 291h129zM311 1032l-157 -291l157 -290h-129l-155 290l155 291h129z" />
<glyph horiz-adv-x="460" d="M43 653v174h377v-174h-377z" />
<glyph horiz-adv-x="446" d="M420 1487v-90h-391v90h391z" />
<glyph horiz-adv-x="446" d="M180 1554h226l-179 -159h-151z" />
<glyph horiz-adv-x="546" d="M233 451l158 290l-158 291h129l156 -291l-156 -290h-129zM27 451l157 290l-157 291h129l155 -291l-155 -290h-129z" />
<glyph horiz-adv-x="446" d="M156 1395h-154l143 159h156l143 -159h-151l-70 82z" />
<glyph horiz-adv-x="446" d="M360 1559l91 -11q-13 -77 -45 -116t-97 -39q-36 0 -68 16.5t-56 33.5t-42 17q-20 0 -30.5 -14t-18.5 -47l-92 8q13 79 45 118.5t98 39.5q37 0 69 -17.5t55.5 -35t41.5 -17.5q21 0 31 14t18 50z" />
<glyph horiz-adv-x="698" d="M41 666v151h616v-151h-616z" />
<glyph horiz-adv-x="1003" d="M41 664v153h922v-153h-922z" />
<glyph horiz-adv-x="339" d="M311 1032l-157 -291l157 -290h-129l-155 290l155 291h129z" />
<glyph horiz-adv-x="339" d="M27 451l157 290l-157 291h129l155 -291l-155 -290h-129z" />
<glyph horiz-adv-x="405" d="M104 1485h189v-635l-19 -418h-151l-19 412v641zM94 0v233h213v-233h-213z" />
<glyph horiz-adv-x="370" d="M80 0v221h213v-168q0 -138 -46.5 -215.5t-158.5 -87.5l-8 96q50 10 69 43.5t21 110.5h-90z" />
<glyph horiz-adv-x="368" d="M78 0v233h213v-233h-213z" />
<glyph horiz-adv-x="368" d="M78 764v233h213v-233h-213zM78 0v233h213v-233h-213z" />
<glyph horiz-adv-x="370" d="M78 764v233h213v-233h-213zM80 0v221h213v-168q0 -138 -46.5 -215.5t-158.5 -87.5l-8 96q50 10 69 43.5t21 110.5h-90z" />
<glyph horiz-adv-x="806" d="M33 1163q35 157 132 249.5t245 92.5q169 0 252 -98t83 -254q0 -155 -74 -292.5t-204 -225.5l-14 -205h-142l-12 301q256 151 256 408q0 192 -158 192t-209 -213zM276 0v233h213v-233h-213z" />
<glyph horiz-adv-x="727" d="M688 895l-209 -360l209 -361h-160l-206 361l206 360h160zM406 895l-209 -360l209 -361h-160l-207 361l207 360h160z" />
<glyph horiz-adv-x="727" d="M322 174l210 361l-210 360h161l205 -360l-205 -361h-161zM39 174l211 361l-211 360h162l205 -360l-205 -361h-162z" />
<glyph horiz-adv-x="348" d="M270 1417v-217h-192v166q0 177 98 320l70 -33q-46 -95 -49 -223z" />
<glyph horiz-adv-x="348" d="M80 1307v217h190v-164q0 -182 -96 -322l-72 33q49 107 52 223z" />
<glyph horiz-adv-x="348" d="M80 12v217h190v-163q0 -182 -96 -322l-72 33q49 107 52 223z" />
<glyph horiz-adv-x="626" d="M551 1417v-217h-193v166q0 176 99 320l69 -33q-46 -95 -49 -223zM270 1417v-217h-192v166q0 177 98 320l70 -33q-46 -95 -49 -223z" />
<glyph horiz-adv-x="626" d="M360 1307v217h191v-164q0 -182 -96 -322l-72 33q48 105 51 223zM80 1309v217h190v-164q0 -182 -96 -322l-72 33q49 107 52 223z" />
<glyph horiz-adv-x="616" d="M344 12v217h191v-163q0 -181 -97 -322l-71 33q48 105 51 223zM66 12v217h190v-163q0 -182 -96 -322l-72 33q48 105 51 223z" />
<glyph horiz-adv-x="1107" d="M78 0v233h213v-233h-213zM446 0v233h213v-233h-213zM817 0v233h213v-233h-213z" />
<glyph horiz-adv-x="444" d="M406 895l-209 -360l209 -361h-160l-207 361l207 360h160z" />
<glyph horiz-adv-x="444" d="M39 174l211 361l-211 360h162l205 -360l-205 -361h-162z" />
<glyph horiz-adv-x="1060" d="M928 1057v-637q0 -207 -104.5 -323.5t-293.5 -116.5q-192 0 -294.5 116t-102.5 324v637q0 210 103 329t294 119q189 0 293.5 -119.5t104.5 -328.5zM238 786v-393q0 -163 75.5 -246.5t216.5 -83.5t218 84t77 246v393q0 165 -76 251.5t-219 86.5t-217.5 -86t-74.5 -252z M330 750q0 33 22.5 58.5t55.5 25.5q34 0 55.5 -25t21.5 -59q0 -36 -22 -61t-55 -25t-55.5 25t-22.5 61zM580 750q0 33 22 58.5t55 25.5q34 0 57 -25.5t23 -58.5q0 -36 -22.5 -61t-57.5 -25q-33 0 -55 25t-22 61zM487 418v233h93v-233h-93zM369 281v84h336v-84h-336zM360 774 q0 -10 8 -18t19 -8q10 0 17.5 7.5t7.5 18.5t-7.5 19t-17.5 8q-11 0 -19 -8.5t-8 -18.5zM614 774q0 -11 7.5 -18.5t17.5 -7.5q11 0 19 8t8 18t-8 18.5t-19 8.5q-10 0 -17.5 -8t-7.5 -19z" />
</font>
</defs>
</svg>
