<?xml version="1.0" standalone="no"?>
<!DOCTYPE svg PUBLIC "-//W3C//DTD SVG 1.1//EN" "http://www.w3.org/Graphics/SVG/1.1/DTD/svg11.dtd" >
<svg xmlns="http://www.w3.org/2000/svg">
<metadata></metadata>
<defs>
<font id="good_headline_procondBlkIt" horiz-adv-x="460" >
<font-face units-per-em="2048" ascent="1796" descent="-252" />
<missing-glyph horiz-adv-x="284" />
<glyph horiz-adv-x="0" />
<glyph horiz-adv-x="0" />
<glyph horiz-adv-x="682" />
<glyph unicode="&#xd;" horiz-adv-x="284" />
<glyph unicode=" "  horiz-adv-x="284" />
<glyph unicode="&#x09;" horiz-adv-x="284" />
<glyph unicode="&#xa0;" horiz-adv-x="284" />
<glyph unicode="!" horiz-adv-x="395" d="M158 1341h258l-72 -542l-65 -379h-211l18 371zM33 0l26 242h213l-26 -242h-213z" />
<glyph unicode="&#x22;" horiz-adv-x="636" d="M416 1194l35 291h213l-35 -291l-84 -215h-105zM145 1194l35 291h213l-35 -291l-84 -215h-104z" />
<glyph unicode="#" horiz-adv-x="815" d="M84 809l20 188h125l64 344h180l-61 -344h112l64 344h180l-63 -344h102l-21 -188h-108l-45 -266h119l-21 -187h-125l-63 -356h-183l64 356h-115l-63 -356h-180l63 356h-100l20 187h107l45 266h-117zM381 809l-45 -266h115l45 266h-115z" />
<glyph unicode="$" horiz-adv-x="772" d="M606 1511l-16 -174q81 -34 127 -114t55 -193l-182 -55q-9 98 -49 133l-62 -315q48 -38 78.5 -68t66 -76t53 -102.5t17.5 -122.5q0 -172 -89.5 -289.5t-225.5 -144.5l-45 -174h-150l17 180q-192 54 -201 323l195 58q6 -105 57 -141l63 327q-42 33 -65.5 53t-58.5 58 t-53.5 72.5t-33 85t-14.5 106.5q0 160 87 277.5t237 140.5l43 155h149zM399 219q34 11 54 45.5t20 83.5q0 61 -45 115zM389 1126q-72 -24 -72 -116q0 -58 48 -113z" />
<glyph unicode="%" horiz-adv-x="1067" d="M592 1202l-10 -82q-38 -301 -273 -301q-209 0 -209 228q0 46 4 73l11 82q39 303 276 303q102 0 153.5 -59t51.5 -170q0 -47 -4 -74zM303 1200l-10 -80q-6 -40 -6 -65q0 -32 10 -44t33 -12q27 0 40.5 24t22.5 97l10 80q7 47 7 66q0 31 -9.5 42t-29.5 11q-30 0 -44.5 -24 t-23.5 -95zM8 0l885 1479h199l-885 -1479h-199zM1001 354l-10 -82q-38 -301 -272 -301q-209 0 -209 232q0 37 6 86l8 65q19 148 88.5 225.5t188.5 77.5q102 0 153.5 -59t51.5 -170q0 -40 -5 -74zM713 352l-11 -78q-6 -40 -6 -65q0 -33 10 -45t33 -12q28 0 42 24t24 98l10 78 q6 38 6 62q0 32 -10 44.5t-31 12.5q-30 0 -44 -23.5t-23 -95.5z" />
<glyph unicode="&#x26;" horiz-adv-x="937" d="M784 1081l-192 -94q-35 148 -100 148q-68 0 -68 -103q0 -53 16 -90l164 -356q30 113 39 192l6 58h289l-25 -220h-98q-31 -153 -92 -282q56 -91 162 -105l-58 -245q-177 11 -262 116q-124 -118 -286 -118q-129 0 -209 87.5t-80 258.5q0 156 60 277t173 196q-47 99 -47 196 q0 68 20 131t59 115t103.5 83.5t145.5 31.5q120 0 185.5 -69t94.5 -208zM342 209q66 0 129 76l-147 311q-72 -99 -72 -254q0 -133 90 -133z" />
<glyph unicode="'" horiz-adv-x="337" d="M137 1194l35 291h213l-35 -291l-84 -215h-104z" />
<glyph unicode="(" horiz-adv-x="489" d="M80 422l51 414q38 311 140 446t296 135h21l-23 -203h-22q-74 0 -121.5 -83t-75.5 -295l-53 -414q-12 -99 -12 -168q0 -211 114 -211h23l-23 -205h-20q-159 0 -234 90.5t-75 290.5q0 97 14 203z" />
<glyph unicode=")" horiz-adv-x="489" d="M422 836l-51 -414q-38 -312 -139.5 -448t-292.5 -136h-21l21 205h20q47 0 82 32t65.5 118t49.5 229l53 414q12 102 12 172q0 114 -29.5 160t-85.5 46h-22l25 203h20q158 0 232.5 -91t74.5 -290q0 -67 -14 -200z" />
<glyph unicode="*" horiz-adv-x="593" d="M283 1309l-164 34l67 164l150 -75v176h156l-39 -176l163 75l31 -164l-174 -34l102 -127l-139 -103l-67 152l-101 -150l-116 103z" />
<glyph unicode="+" horiz-adv-x="753" d="M276 209v311h-210v217h210v312h201v-312h213v-217h-213v-311h-201z" />
<glyph unicode="," horiz-adv-x="378" d="M10 0l27 242h213l-21 -174q-15 -126 -65.5 -191.5t-167.5 -73.5l4 123q51 6 68.5 21t23.5 53h-82z" />
<glyph unicode="-" horiz-adv-x="468" d="M31 477l28 252h379l-28 -252h-379z" />
<glyph unicode="." horiz-adv-x="378" d="M10 0l27 242h213l-27 -242h-213z" />
<glyph unicode="/" horiz-adv-x="499" d="M-74 0l467 1341h203l-469 -1341h-201z" />
<glyph unicode="0" horiz-adv-x="804" d="M799 928l-70 -516q-28 -206 -130 -318t-273 -112q-152 0 -229 86t-77 247q0 39 7 97l69 516q28 208 128.5 320t271.5 112q152 0 230.5 -88.5t78.5 -253.5q0 -44 -6 -90zM356 928l-69 -516q-6 -52 -6 -86q0 -57 16.5 -78t56.5 -21q49 0 73.5 38t39.5 147l70 516q6 50 6 82 q0 56 -17.5 77t-56.5 21q-52 0 -76 -36.5t-37 -143.5z" />
<glyph unicode="1" horiz-adv-x="593" d="M381 1346h217l-164 -1346h-280l112 909h-196l22 207h80q92 0 134 45t75 185z" />
<glyph unicode="2" horiz-adv-x="763" d="M489 1360q148 0 221.5 -80.5t73.5 -212.5q0 -87 -20.5 -163t-56 -134t-78.5 -110t-92.5 -101t-94 -96t-86 -105.5t-65.5 -119.5h385l-25 -238h-676l7 123q15 90 52 175t85 152t102.5 130t106 119t93.5 108.5t67.5 109t25.5 111.5q0 84 -76 84q-96 0 -147 -188l-205 63 q52 173 153.5 273t249.5 100z" />
<glyph unicode="3" horiz-adv-x="772" d="M252 571l24 224h84q138 0 138 227q0 49 -17.5 70.5t-52.5 21.5q-49 0 -82 -34.5t-61 -125.5l-199 64q48 162 148.5 252t242.5 90q149 0 222 -81t73 -214q0 -134 -47.5 -231.5t-130.5 -137.5q123 -48 123 -219q0 -35 -6 -78q-27 -215 -135 -316t-277 -101 q-147 0 -223.5 78.5t-83.5 246.5l207 64q6 -78 33 -114t77 -36q54 0 91.5 62t37.5 186q0 56 -24 79t-72 23h-90z" />
<glyph unicode="4" horiz-adv-x="806" d="M629 0h-242l29 238h-443l21 186l530 917h269l-109 -876h92l-41 -227h-78zM256 465h190l78 522z" />
<glyph unicode="5" horiz-adv-x="774" d="M229 575l-161 70l120 696h603l-48 -258h-366l-41 -252q72 35 151 35q240 0 240 -295q0 -44 -8 -114q-30 -249 -133 -362t-291 -113q-138 0 -217 80.5t-82 246.5l217 62q1 -76 27.5 -113t68.5 -37q60 0 87 49t46 185q4 40 4 57q0 60 -23.5 85.5t-74.5 25.5q-68 0 -119 -48 z" />
<glyph unicode="6" horiz-adv-x="788" d="M506 1360q130 0 204 -82t83 -248l-203 -67q-4 83 -28 116t-70 33q-61 0 -93 -42t-43 -128l-18 -137q73 49 168 49q237 0 237 -283q0 -49 -12 -135q-34 -237 -135.5 -345.5t-271.5 -108.5q-153 0 -229.5 87t-76.5 242q0 36 7 90l69 508q27 198 139 324.5t273 126.5z M412 612q-98 0 -107 -67l-22 -172q-4 -32 -4 -45q0 -97 77 -97q46 0 71.5 46.5t43.5 175.5q6 46 6 75q0 46 -15 65t-50 19z" />
<glyph unicode="7" horiz-adv-x="739" d="M299 0h-287l490 1083h-416l29 258h696l-25 -225z" />
<glyph unicode="8" horiz-adv-x="788" d="M317 -18q-156 0 -235.5 70.5t-79.5 238.5q0 156 46.5 263.5t135.5 154.5q-82 56 -82 200q0 101 22 181.5t67 142t120 94.5t176 33q299 0 299 -283q0 -133 -41.5 -230.5t-111.5 -139.5q102 -63 102 -228q0 -49 -4 -76q-16 -119 -50.5 -201.5t-88 -130t-120.5 -68.5 t-155 -21zM467 414q6 47 6 78q0 53 -19 72.5t-61 19.5q-55 0 -79.5 -34t-37.5 -136q-8 -49 -8 -95q0 -57 18.5 -78.5t57.5 -21.5q50 0 78.5 39.5t44.5 155.5zM463 1126q-49 0 -73.5 -31.5t-35.5 -123.5q-8 -49 -8 -90q0 -49 17 -65.5t55 -16.5q36 0 55 11t32.5 48.5 t22.5 112.5q7 51 7 73q0 48 -17 65t-55 17z" />
<glyph unicode="9" horiz-adv-x="788" d="M203 385q10 -90 36 -125t78 -35q60 0 91 38t43 126l22 172q-64 -43 -149 -43q-119 0 -185.5 70.5t-66.5 222.5q0 274 114 411.5t306 137.5q149 0 225 -87.5t76 -230.5q0 -30 -7 -77l-73 -562q-26 -200 -132 -309.5t-274 -109.5q-276 0 -297 315zM403 748q41 0 70 20.5 t35 67.5l18 139q4 46 4 55q0 46 -17 64t-56 18q-121 0 -121 -274q0 -54 16 -72t51 -18z" />
<glyph unicode=":" horiz-adv-x="378" d="M104 750l27 241h213l-27 -241h-213zM10 0l27 242h213l-27 -242h-213z" />
<glyph unicode=";" horiz-adv-x="378" d="M104 750l27 241h213l-27 -241h-213zM10 0l27 242h213l-21 -174q-15 -126 -65.5 -191.5t-167.5 -73.5l4 123q51 6 68.5 21t23.5 53h-82z" />
<glyph unicode="&#x3c;" horiz-adv-x="753" d="M655 817l-247 -178l247 -180v-293l-587 461v24l587 459v-293z" />
<glyph unicode="=" horiz-adv-x="753" d="M662 666h-570v217h570v-217zM662 340h-570v217h570v-217z" />
<glyph unicode="&#x3e;" horiz-adv-x="753" d="M98 459l246 180l-246 178v293l588 -459v-24l-588 -461v293z" />
<glyph unicode="?" horiz-adv-x="749" d="M70 1016q54 161 157.5 252.5t249.5 91.5q151 0 224 -77.5t73 -205.5q0 -150 -85 -295.5t-226 -236.5l-27 -129h-192l14 258q127 63 190.5 160.5t63.5 203.5q0 82 -78 82q-53 0 -90.5 -36t-69.5 -128zM193 0l26 242h213l-26 -242h-213z" />
<glyph unicode="@" horiz-adv-x="1130" d="M827 807h-28l-13 -254q-8 -141 -8 -143q0 -64 49 -64q27 0 44 14.5t29.5 65.5t12.5 141v207q0 171 -78 256.5t-249 85.5q-175 0 -268 -104.5t-93 -276.5v-332q0 -196 98.5 -295.5t274.5 -99.5q116 0 189.5 32.5t140.5 104.5l133 -92q-183 -217 -465 -217q-263 0 -406 148 t-143 417v334q0 117 35.5 218t101.5 177.5t169.5 120t232.5 43.5q124 0 220.5 -39t156 -109.5t90 -164.5t30.5 -207v-207q0 -211 -70.5 -310t-193.5 -99q-107 0 -160 65q-68 -71 -176 -71q-99 0 -149.5 74.5t-50.5 209.5q0 268 92 402.5t270 134.5h191zM580 377l20 401h-8 q-94 0 -94 -336q0 -59 9 -78.5t28 -19.5q34 0 45 33z" />
<glyph unicode="A" horiz-adv-x="894" d="M289 270l-74 -270h-283l439 1341h336l112 -1341h-289l-8 270h-233zM498 1022l-148 -533h164z" />
<glyph unicode="B" horiz-adv-x="858" d="M834 1049q0 -281 -172 -353q137 -51 137 -237q0 -71 -10 -133t-38 -123.5t-72 -105t-117.5 -70.5t-168.5 -27h-389l164 1341h346q164 0 242 -77.5t78 -214.5zM352 571l-45 -321h103q48 0 71 33.5t35 126.5q8 78 8 90q0 43 -15.5 57t-53.5 14h-103zM416 1085l-39 -297h84 q110 0 110 222q0 44 -16 59.5t-55 15.5h-84z" />
<glyph unicode="C" horiz-adv-x="770" d="M504 1360q135 0 215.5 -90.5t83.5 -239.5l-223 -67q0 77 -19.5 110t-62.5 33q-52 0 -79 -38t-38 -122l-78 -577q-2 -14 -2 -41q0 -52 19.5 -77.5t62.5 -25.5q42 0 70 34.5t51 117.5l211 -64q-45 -170 -140 -250.5t-245 -80.5q-149 0 -231.5 84.5t-82.5 234.5q0 20 4 66 l76 577q26 194 135.5 305t272.5 111z" />
<glyph unicode="D" horiz-adv-x="899" d="M168 1341h385q165 0 253.5 -92.5t88.5 -261.5q0 -53 -4 -80l-64 -471q-28 -206 -140.5 -321t-295.5 -115h-387zM606 895q6 53 6 82q0 62 -20.5 85t-65.5 23h-102l-109 -837h103q55 0 81.5 39.5t43.5 156.5z" />
<glyph unicode="E" horiz-adv-x="737" d="M168 1341h618l-28 -262h-334l-37 -272h244l-25 -229h-250l-41 -322h347l-29 -256h-629z" />
<glyph unicode="F" horiz-adv-x="735" d="M168 1341h627l-29 -262h-342l-37 -293h293l-27 -243h-297l-67 -543h-285z" />
<glyph unicode="G" horiz-adv-x="862" d="M537 1362q145 0 232 -85.5t91 -244.5l-221 -67q-10 81 -36.5 113t-72.5 32q-70 0 -105 -45.5t-50 -155.5l-66 -489q-4 -36 -4 -51q0 -129 111 -129q61 0 104 51l27 203h-90l22 202h336l-82 -696h-229l6 59q-93 -77 -209 -77q-130 0 -205.5 82.5t-75.5 250.5q0 60 7 103 l67 493q29 212 139 331.5t304 119.5z" />
<glyph unicode="H" horiz-adv-x="909" d="M168 1341h285l-66 -520h186l66 520h285l-164 -1341h-285l70 559h-187l-69 -559h-285z" />
<glyph unicode="I" horiz-adv-x="458" d="M178 1341h285l-164 -1341h-285z" />
<glyph unicode="J" horiz-adv-x="509" d="M240 1341h284l-112 -899q-29 -239 -142 -346.5t-336 -107.5l25 235q72 0 112 46t54 163z" />
<glyph unicode="K" horiz-adv-x="884" d="M821 0h-305l-119 526l-65 -112l-49 -414h-279l164 1341h278l-69 -565l278 565h310l-359 -587z" />
<glyph unicode="L" horiz-adv-x="696" d="M168 1341h276l-137 -1077h322l-29 -264h-596z" />
<glyph unicode="M" horiz-adv-x="1179" d="M928 1341h264l-164 -1341h-254l82 668l-254 -482h-127l-133 486l-82 -672h-256l164 1341h266l154 -739z" />
<glyph unicode="N" horiz-adv-x="909" d="M168 1341h207l221 -641l80 641h248l-164 -1341h-193l-229 678l-86 -678h-248z" />
<glyph unicode="O" horiz-adv-x="870" d="M530 1360q168 0 254 -90t86 -258q0 -55 -4 -84l-69 -514q-28 -207 -138.5 -319.5t-298.5 -112.5q-168 0 -254 89.5t-86 254.5q0 34 7 88l69 514q28 208 137 320t297 112zM514 414l70 514q4 29 4 73q0 60 -19.5 83.5t-64.5 23.5q-57 0 -85.5 -38.5t-41.5 -141.5l-70 -514 q-4 -29 -4 -76q0 -62 20.5 -87.5t65.5 -25.5q55 0 82.5 41t42.5 148z" />
<glyph unicode="P" horiz-adv-x="841" d="M553 1341q145 0 223 -88.5t78 -255.5q0 -255 -108 -398.5t-285 -143.5h-115l-57 -455h-285l164 1341h385zM424 1090l-53 -404h92q41 0 64 44.5t40 160.5q8 57 8 104q0 53 -14 74t-45 21h-92z" />
<glyph unicode="Q" horiz-adv-x="870" d="M530 1360q168 0 254 -90t86 -258q0 -55 -4 -84l-67 -502q-15 -114 -74 -197h111l-25 -229h-446q-169 0 -257 87.5t-88 252.5q0 32 7 86l69 502q28 208 137 320t297 112zM516 426l68 502q4 29 4 73q0 60 -19.5 83.5t-64.5 23.5q-57 0 -85.5 -38.5t-41.5 -141.5l-68 -502 q-6 -46 -6 -80q0 -60 21 -84t65 -24q56 0 84 40.5t43 147.5z" />
<glyph unicode="R" horiz-adv-x="854" d="M483 0l-75 522h-54l-65 -522h-285l164 1341h373q311 0 311 -307q0 -161 -52 -274t-134 -158l112 -602h-295zM424 1092l-45 -342h74q51 0 73.5 35.5t36.5 134.5q8 70 8 84q0 51 -18 69.5t-57 18.5h-72z" />
<glyph unicode="S" horiz-adv-x="753" d="M463 1360q145 0 220 -77.5t101 -225.5l-211 -84q-7 80 -35.5 111.5t-78.5 31.5q-42 0 -69.5 -31.5t-27.5 -93.5q0 -47 35.5 -91.5t86 -86t100.5 -90t85.5 -124.5t35.5 -169q0 -208 -113.5 -328t-290.5 -120q-135 0 -224.5 90t-92.5 245l225 66q7 -85 40.5 -123.5 t78.5 -38.5q51 0 75.5 31t24.5 98q0 44 -19 84t-50 72.5t-68 65.5t-74 69.5t-68 77.5t-50 97.5t-19 121.5q0 113 48 209.5t136.5 154.5t198.5 58z" />
<glyph unicode="T" horiz-adv-x="737" d="M106 1341h707l-29 -262h-211l-135 -1079h-284l135 1079h-211z" />
<glyph unicode="U" horiz-adv-x="899" d="M645 1341h283l-117 -929q-26 -210 -139 -320t-297 -110q-165 0 -254.5 86t-89.5 249q0 39 6 82l119 942h282l-112 -911q-9 -68 -9 -84q0 -96 89 -96q52 0 81 33.5t39 113.5z" />
<glyph unicode="V" horiz-adv-x="899" d="M995 1341l-465 -1341h-305l-137 1341h305l33 -933l264 933h305z" />
<glyph unicode="W" horiz-adv-x="1376" d="M1462 1341l-407 -1341h-314l-28 782l-224 -782h-311l-80 1341h293v-929l256 929h266l23 -942l246 942h280z" />
<glyph unicode="X" horiz-adv-x="874" d="M-68 0l332 688l-160 653h299l68 -458l182 458h297l-319 -667l166 -674h-299l-80 471l-189 -471h-297z" />
<glyph unicode="Y" horiz-adv-x="868" d="M967 1341l-418 -958l-45 -383h-283l45 369l-178 972h307l58 -608l204 608h310z" />
<glyph unicode="Z" horiz-adv-x="768" d="M674 258l-29 -258h-674l19 174l491 907h-356l29 260h661l-20 -178l-484 -905h363z" />
<glyph unicode="[" horiz-adv-x="479" d="M23 -160l192 1577h367l-23 -203h-139l-148 -1171h140l-21 -203h-368z" />
<glyph unicode="\" horiz-adv-x="542" d="M276 1522l177 -1696h-203l-176 1696h202z" />
<glyph unicode="]" horiz-adv-x="483" d="M469 1417l-190 -1577h-367l20 203h138l147 1171h-137l22 203h367z" />
<glyph unicode="^" horiz-adv-x="751" d="M125 1081l213 449h199l211 -449h-205l-105 244l-108 -244h-205z" />
<glyph unicode="_" horiz-adv-x="659" d="M-82 -80h657l-22 -199h-657z" />
<glyph unicode="`" horiz-adv-x="454" d="M76 1341h286l46 -233h-189z" />
<glyph unicode="a" horiz-adv-x="817" d="M10 340l47 332q55 393 316 393q96 0 168 -72l16 58h246l-127 -1051h-234l-4 98q-107 -116 -243 -116q-96 0 -143.5 61t-47.5 190q0 68 6 107zM330 229q60 0 110 72l66 512q-36 25 -76 25q-42 0 -67 -38t-37 -128l-43 -314q-4 -25 -4 -59q0 -41 12 -55.5t39 -14.5z" />
<glyph unicode="b" horiz-adv-x="819" d="M432 1341l-45 -362q103 92 219 92q96 0 143.5 -61.5t47.5 -190.5q0 -63 -9 -121l-45 -319q-55 -393 -315 -393q-105 0 -180 80l-19 -66h-229l164 1341h268zM471 831q-60 0 -113 -75l-63 -520q38 -23 76 -23q42 0 67 37.5t37 126.5l43 313q6 34 6 70q0 42 -13 56.5 t-40 14.5z" />
<glyph unicode="c" horiz-adv-x="706" d="M711 784l-205 -63q-6 71 -22 96t-48 25q-45 0 -71.5 -37.5t-38.5 -130.5l-47 -346q-5 -40 -5 -43q0 -42 17 -60t51 -18q76 0 115 123l194 -62q-105 -286 -370 -286q-138 0 -206.5 78t-68.5 202q0 17 4 53l49 369q10 80 38 148t73.5 122.5t114 85.5t153.5 31 q118 0 189.5 -73.5t83.5 -213.5z" />
<glyph unicode="d" horiz-adv-x="821" d="M442 0l-4 98q-107 -116 -243 -116q-96 0 -143.5 61t-47.5 190q0 68 6 107l47 332q55 393 316 393q88 0 153 -57l43 333h271l-164 -1341h-234zM436 272l68 543q-38 23 -74 23q-42 0 -66.5 -37t-37.5 -129l-43 -307q-7 -54 -7 -72q0 -42 13.5 -57t40.5 -15q32 0 61 15 t45 36z" />
<glyph unicode="e" horiz-adv-x="757" d="M700 469h-403l-14 -119q-4 -36 -4 -49q0 -51 20.5 -73.5t62.5 -22.5q40 0 67.5 29.5t53.5 99.5l197 -62q-52 -148 -141 -219t-232 -71q-144 0 -221.5 83t-77.5 218q0 19 4 59l49 369q22 157 120.5 258.5t264.5 101.5q140 0 213.5 -84.5t73.5 -220.5q0 -34 -6 -80z M332 725l-13 -82h160l13 84q2 16 2 43q0 44 -16.5 63t-49.5 19q-43 0 -64.5 -28t-31.5 -99z" />
<glyph unicode="f" horiz-adv-x="512" d="M545 1004l-23 -218h-137l-96 -786h-271l97 786h-76l24 218h78q21 166 125 252.5t312 89.5l-11 -201q-89 -4 -123.5 -33.5t-46.5 -107.5h148z" />
<glyph unicode="g" horiz-adv-x="806" d="M10 426l39 276q25 179 110 271t203 92q99 0 168 -72l17 58h246l-105 -856q-26 -209 -135 -314.5t-279 -105.5q-122 0 -270 57l45 213q130 -47 211 -47q76 0 118 42.5t52 135.5q-89 -86 -213 -86q-101 0 -156 66t-55 192q0 49 4 78zM332 305q60 0 106 70l58 438 q-39 25 -76 25q-44 0 -67 -29t-36 -117l-38 -266q-5 -40 -5 -45q0 -76 58 -76z" />
<glyph unicode="h" horiz-adv-x="829" d="M791 713l-91 -713h-268l88 702q4 29 4 58q0 42 -13 56.5t-40 14.5q-59 0 -111 -73l-92 -758h-268l164 1341h268l-45 -362q99 92 219 92q96 0 143.5 -61.5t47.5 -190.5q0 -47 -6 -106z" />
<glyph unicode="i" horiz-adv-x="428" d="M129 1012h268l-121 -1012h-270zM188 1341h234l-29 -225h-233z" />
<glyph unicode="j" horiz-adv-x="407" d="M186 1341h234l-29 -225h-233zM-104 -217l8 219q54 8 81.5 44.5t39.5 125.5l104 838h268l-102 -832q-25 -194 -122 -291t-277 -104z" />
<glyph unicode="k" horiz-adv-x="854" d="M164 1341h268l-92 -753l285 463h272l-303 -459l188 -592h-288l-101 389l-90 -102l-35 -287h-268z" />
<glyph unicode="l" horiz-adv-x="434" d="M174 1341h268l-163 -1341h-269z" />
<glyph unicode="m" horiz-adv-x="1212" d="M858 821q-33 0 -60.5 -32.5t-35.5 -96.5l-88 -692h-266l84 676q6 53 6 78q0 40 -11.5 53.5t-37.5 13.5q-46 0 -89 -57l-94 -764h-270l129 1051h233l-4 -95q100 115 221 115q60 0 102.5 -37t59.5 -110q107 147 252 147q191 0 191 -260q0 -43 -6 -96l-91 -715h-266l84 676 q6 47 6 78q0 40 -11.5 53.5t-37.5 13.5z" />
<glyph unicode="n" horiz-adv-x="827" d="M786 713l-88 -713h-270l88 694q4 46 4 56q0 42 -13 56.5t-40 14.5q-59 0 -107 -69l-94 -752h-270l129 1051h233v-99q110 119 246 119q95 0 142 -61.5t47 -190.5q0 -38 -7 -106z" />
<glyph unicode="o" horiz-adv-x="798" d="M768 711l-51 -373q-22 -157 -123.5 -257.5t-271.5 -100.5q-155 0 -234.5 83.5t-79.5 219.5q0 19 4 55l49 373q22 158 123.5 259t272.5 101q156 0 234.5 -83.5t78.5 -219.5q0 -39 -2 -57zM330 700l-49 -352q-5 -45 -5 -49q0 -52 17.5 -74t54.5 -22q44 0 68.5 32.5 t34.5 112.5l47 352q4 40 4 54q0 50 -17 71t-55 21q-44 0 -67.5 -33t-32.5 -113z" />
<glyph unicode="p" horiz-adv-x="817" d="M786 713l-47 -334q-55 -393 -313 -393q-90 0 -156 55l-30 -250h-269l154 1260h233v-99q110 119 246 119q191 0 191 -250q0 -47 -9 -108zM469 831q-56 0 -109 -71l-65 -524q38 -23 72 -23q42 0 66.5 37t37.5 127l47 325q4 46 4 58q0 42 -13 56.5t-40 14.5z" />
<glyph unicode="q" horiz-adv-x="817" d="M10 340l47 332q55 393 316 393q96 0 168 -72l16 58h246l-154 -1260h-268l35 285q-101 -94 -221 -94q-96 0 -143.5 61t-47.5 190q0 68 6 107zM330 229q32 0 62 22.5t52 57.5l62 504q-41 25 -76 25q-42 0 -67 -38t-37 -128l-43 -314q-4 -25 -4 -59q0 -41 12 -55.5t39 -14.5 z" />
<glyph unicode="r" horiz-adv-x="606" d="M639 1044l-51 -274q-27 21 -68 21q-129 0 -188 -267l-66 -524h-270l129 1051h229l-8 -179q49 105 101.5 150t113.5 45q48 0 78 -23z" />
<glyph unicode="s" horiz-adv-x="679" d="M674 799l-182 -62q-12 121 -95 121q-36 0 -57 -23t-21 -65q0 -28 16.5 -52t42.5 -44.5t57.5 -42t63.5 -48t58 -57.5t42.5 -77t16.5 -101q0 -155 -98.5 -261.5t-249.5 -106.5q-121 0 -190.5 64.5t-87.5 203.5l190 76q10 -67 40.5 -101.5t64.5 -34.5q73 0 73 101 q0 41 -31 75.5t-75 64t-88.5 64t-75.5 92t-31 132.5q0 152 97.5 253t255.5 101q117 0 183 -69.5t81 -202.5z" />
<glyph unicode="t" horiz-adv-x="555" d="M573 1010l-24 -219h-160l-55 -451q-6 -50 -6 -61q0 -38 18.5 -59t54.5 -21q33 0 60 8v-178q-85 -47 -182 -47q-116 0 -170 60t-54 183q0 39 6 86l62 465l-86 31l22 201l107 8l92 209h186l-26 -215h155z" />
<glyph unicode="u" horiz-adv-x="827" d="M381 1051l-86 -670q-6 -55 -6 -80q0 -41 12.5 -55.5t40.5 -14.5q56 0 107 68l96 752h268l-129 -1051h-231l-4 98q-107 -116 -244 -116q-191 0 -191 251q0 68 6 107l93 711h268z" />
<glyph unicode="v" horiz-adv-x="821" d="M877 1051l-388 -1051h-307l-127 1051h293l21 -760l215 760h293z" />
<glyph unicode="w" horiz-adv-x="1206" d="M629 0l-23 623l-172 -623h-295l-78 1051h277v-709l197 709h247l21 -713l178 713h276l-333 -1051h-295z" />
<glyph unicode="x" horiz-adv-x="827" d="M-70 0l293 543l-157 508h288l76 -355l154 355h288l-284 -527l164 -524h-289l-82 373l-162 -373h-289z" />
<glyph unicode="y" horiz-adv-x="813" d="M868 1051l-385 -928q-78 -188 -171.5 -260.5t-252.5 -77.5l7 209q69 6 106 32t64 91l8 22l-189 912h293l66 -584l182 584h272z" />
<glyph unicode="z" horiz-adv-x="679" d="M584 231l-25 -231h-594l17 156l378 659h-278l29 236h585l-16 -150l-387 -670h291z" />
<glyph unicode="{" horiz-adv-x="512" d="M20 555l17 147q72 7 102.5 38.5t30.5 90.5q0 23 -6 92.5t-6 112.5q0 194 101.5 287.5t311.5 93.5h29l-22 -203h-29q-91 0 -131.5 -57.5t-40.5 -171.5q0 -39 7 -103.5t7 -86.5q0 -127 -149 -168q112 -34 112 -125q0 -27 -40 -150t-40 -190q0 -62 29 -91.5t98 -29.5h29 l-20 -201h-29q-342 0 -342 250q0 67 22.5 144.5t45 140.5t22.5 94q0 34 -28.5 57t-80.5 29z" />
<glyph unicode="|" horiz-adv-x="501" d="M16 -301l242 1978h250l-242 -1978h-250z" />
<glyph unicode="}" horiz-adv-x="512" d="M500 723l-17 -148q-133 -14 -133 -124q0 -23 6 -92.5t6 -112.5q0 -195 -100 -290t-311 -95h-29l21 200h28q92 0 132 58.5t40 175.5q0 40 -6 106.5t-6 87.5q0 53 36.5 96t111.5 64q-115 31 -115 123q0 28 41 151.5t41 192.5q0 60 -30 89.5t-97 29.5h-29l23 203h28 q340 0 340 -248q0 -67 -22.5 -146t-45 -143t-22.5 -94q0 -72 109 -84z" />
<glyph unicode="~" horiz-adv-x="837" d="M352 1206h-196q10 173 69.5 249.5t165.5 76.5q56 0 98.5 -20t63 -43.5t41.5 -43.5t39 -20q11 0 18.5 7t13 32.5t7.5 71.5h194q-10 -173 -69.5 -249.5t-165.5 -76.5q-46 0 -82 13t-58 31t-38.5 36.5t-31.5 31.5t-30 13q-19 0 -27.5 -21t-11.5 -88z" />
<glyph unicode="&#xa1;" horiz-adv-x="428" d="M254 -193h-268l80 611l71 416h219l-20 -408zM436 1292l-35 -303h-272l35 303h272z" />
<glyph unicode="&#xa2;" horiz-adv-x="706" d="M711 780l-205 -61q-4 61 -22.5 85.5t-51.5 24.5q-45 0 -69 -31.5t-37 -123.5l-41 -295q-4 -29 -4 -76q0 -59 16.5 -80.5t52.5 -21.5q35 0 60.5 29t46.5 100l194 -62q-78 -222 -248 -272l-55 -199h-155l16 197q-98 24 -147.5 103t-49.5 196q0 49 4 76l43 315 q21 150 93.5 250t195.5 127l64 233h155l-22 -243q72 -28 115.5 -97.5t50.5 -173.5z" />
<glyph unicode="&#xa3;" horiz-adv-x="890" d="M86 590l2 198h88q0 7 -1 22.5t-1 23.5q0 240 103.5 384t291.5 144q134 0 205.5 -84t73.5 -236l-207 -63q-1 75 -22.5 106t-61.5 31q-61 0 -91 -78t-36 -250h270l-43 -198h-235q-3 -124 -12 -207q26 -17 48 -43.5t34.5 -47.5t29 -36.5t35.5 -15.5q31 0 51 33t41 126 l193 -53q-45 -194 -116.5 -279t-178.5 -85q-40 0 -71.5 13t-56 40.5t-39.5 50t-34 59.5q-79 -163 -229 -163q-74 0 -116 41t-42 118q0 101 64 174.5t176 94.5q-2 54 -13 180h-100zM158 172q30 0 41 86q-28 -8 -42 -29.5t-14 -40.5q0 -16 15 -16z" />
<glyph unicode="&#xa4;" horiz-adv-x="798" d="M182 680q0 59 25 111l-62 67l88 98l64 -69q47 26 100 26q57 0 105 -28l69 78l88 -97l-69 -78q24 -50 24 -108q0 -59 -26 -113l65 -67l-86 -99l-67 72q-46 -27 -103 -27q-52 0 -100 25l-68 -76l-88 97l68 73q-27 53 -27 115zM326 680q0 -38 21 -60t52 -22q32 0 53 22 t21 60q0 37 -21 57.5t-53 20.5q-31 0 -52 -20.5t-21 -57.5z" />
<glyph unicode="&#xa5;" horiz-adv-x="874" d="M680 213h-148l-24 -213h-283l25 213h-146l23 186h145l9 66h-146l21 186h98l-162 690h309l56 -579l202 579h310l-332 -690h94l-20 -186h-148l-8 -66h147z" />
<glyph unicode="&#xa6;" horiz-adv-x="501" d="M152 811l106 866h250l-107 -866h-249zM16 -301l107 864h250l-115 -864h-242z" />
<glyph unicode="&#xa7;" horiz-adv-x="716" d="M-14 -18l219 34q3 -55 17 -80.5t42 -25.5q32 0 49 26.5t17 69.5q0 44 -32 93t-77.5 96.5t-91 101t-77.5 127.5t-32 156q0 116 50.5 211t130.5 147q-62 106 -62 203q0 98 37.5 179.5t117 134t187.5 52.5q121 0 190.5 -85t71.5 -232l-219 -35q-3 109 -57 109 q-33 0 -51.5 -28t-18.5 -71q0 -44 32 -92.5t78 -95.5t92 -100.5t78 -127t32 -155.5q0 -117 -51.5 -213t-131.5 -148q64 -109 64 -206q0 -95 -37 -176t-115.5 -134t-185.5 -53q-122 0 -192.5 85.5t-73.5 232.5zM471 522q0 28 -10.5 57.5t-35 65t-42.5 58.5t-55 67 q-70 -43 -70 -123q0 -37 23 -82t48 -77t72 -87q29 17 49.5 48.5t20.5 72.5z" />
<glyph unicode="&#xa8;" horiz-adv-x="454" d="M109 1341h174l-27 -225h-176zM354 1341h174l-26 -225h-174z" />
<glyph unicode="&#xa9;" horiz-adv-x="1267" d="M635 1270q140 0 220 -81t97 -235l-192 -51q-10 89 -32.5 121.5t-65.5 32.5q-47 0 -71 -36t-24 -101v-363q0 -139 95 -139q41 0 63.5 36t32.5 126l196 -48q-19 -168 -96.5 -245.5t-220.5 -77.5q-154 0 -243 93.5t-89 250.5v365q0 161 88.5 256.5t241.5 95.5zM1202 922 v-367q0 -124 -37 -230.5t-106.5 -186.5t-179 -125.5t-246.5 -45.5q-136 0 -245 45.5t-179 125.5t-106.5 186.5t-36.5 230.5v367q0 124 36.5 230t106.5 186t179 125.5t245 45.5q137 0 246.5 -45.5t179 -125.5t106.5 -186t37 -230zM1030 553v371q0 191 -103.5 305t-295.5 114 q-190 0 -291.5 -114t-101.5 -305v-371q0 -190 102.5 -304t292.5 -114q191 0 294 114t103 304z" />
<glyph unicode="&#xaa;" horiz-adv-x="583" d="M98 1116l27 189q17 125 69.5 184t147.5 59q67 0 119 -41l10 31h174l-78 -637h-168l-2 60q-79 -76 -168 -76q-135 0 -135 172q0 13 4 59zM326 1044q39 0 69 35l39 310q-22 16 -49 16q-29 0 -47 -23t-25 -79l-24 -177q-2 -12 -2 -32q0 -28 9.5 -39t29.5 -11z" />
<glyph unicode="&#xab;" horiz-adv-x="587" d="M590 838l-187 -297l115 -295h-164l-116 295l188 297h164zM367 838l-187 -297l115 -295h-164l-117 295l189 297h164z" />
<glyph unicode="&#xac;" horiz-adv-x="753" d="M485 262v256h-419v219h622v-475h-203z" />
<glyph unicode="&#xad;" horiz-adv-x="468" d="M31 477l28 252h379l-28 -252h-379z" />
<glyph unicode="&#xae;" horiz-adv-x="499" d="M561 1370v-121q0 -105 -59.5 -174t-167.5 -69q-109 0 -168.5 69t-59.5 174v121q0 103 59 168.5t169 65.5q109 0 168 -65.5t59 -168.5zM172 1372v-123q0 -172 160 -172q164 0 164 172v123q0 166 -164 166q-160 0 -160 -166zM365 1143l-35 127h-13v-127h-92v342h117 q113 0 113 -105q0 -65 -45 -90l49 -147h-94zM317 1411v-76h23q13 0 17.5 8t4.5 31q0 24 -5 30.5t-21 6.5h-19z" />
<glyph unicode="&#xaf;" horiz-adv-x="454" d="M541 1315l-21 -174h-452l20 174h453z" />
<glyph unicode="&#xb0;" horiz-adv-x="479" d="M106 1366q0 95 65 162t157 67t157.5 -67t65.5 -162q0 -96 -65 -162.5t-158 -66.5t-157.5 66.5t-64.5 162.5zM254 1366q0 -40 21.5 -63t54.5 -23q32 0 54 23t22 63q0 38 -23 62t-55 24t-53 -23.5t-21 -62.5z" />
<glyph unicode="&#xb1;" horiz-adv-x="753" d="M274 309v248h-208v217h208v275h203v-275h213v-217h-213v-248h-203zM690 57h-624v217h624v-217z" />
<glyph unicode="&#xb2;" d="M358 1626q87 0 130.5 -44t43.5 -112q0 -58 -23.5 -107.5t-60 -83.5t-73.5 -62.5t-71 -60t-46 -60.5h221l-14 -131h-389l4 65q10 62 44 117t74 94t79.5 74t65.5 71t26 70q0 33 -39 33q-26 0 -48.5 -22.5t-35.5 -67.5l-121 41q70 186 233 186z" />
<glyph unicode="&#xb3;" d="M229 1235l15 121h47q69 0 69 90q0 45 -38 45q-28 0 -45.5 -15t-34.5 -57l-115 41q29 77 86.5 121.5t138.5 44.5q88 0 131 -42.5t43 -110.5q0 -57 -26 -102.5t-68 -67.5q66 -23 66 -109q0 -118 -65.5 -178t-168.5 -60q-84 0 -128.5 38.5t-53.5 121.5l121 41 q6 -37 21 -53.5t44 -16.5q27 0 45.5 25.5t18.5 73.5q0 27 -12 38t-39 11h-52z" />
<glyph unicode="&#xb4;" horiz-adv-x="454" d="M242 1341h286l-204 -233h-189z" />
<glyph unicode="&#xb5;" horiz-adv-x="839" d="M41 387l84 664h268l-84 -660q-4 -46 -4 -59q0 -49 16 -68.5t48 -19.5q57 0 92 47l96 760h268l-127 -1051h-233l-2 70q-52 -52 -111 -52q-63 0 -94 50q-12 -159 -12 -369l-269 -23q4 114 24.5 335.5t39.5 375.5z" />
<glyph unicode="&#xb6;" horiz-adv-x="1064" d="M391 1528h785l-27 -252h-135l-199 -1591h-258l199 1591h-142l-198 -1591h-252l168 1321q-122 0 -184 58.5t-62 162.5q0 128 81 214.5t224 86.5z" />
<glyph unicode="&#xb7;" horiz-adv-x="389" d="M39 662q0 72 46 124t110 52q63 0 109 -52t46 -124t-46 -123.5t-109 -51.5q-64 0 -110 51.5t-46 123.5z" />
<glyph unicode="&#xb8;" horiz-adv-x="454" d="M84 12h147l-67 -221h-225z" />
<glyph unicode="&#xb9;" horiz-adv-x="385" d="M305 1622h133l-80 -657h-168l54 424h-115l14 114h45q52 0 74.5 23t42.5 96z" />
<glyph unicode="&#xba;" horiz-adv-x="557" d="M610 1303l-24 -173q-14 -106 -84 -173.5t-189 -67.5q-108 0 -162.5 56t-54.5 147q0 24 2 38l25 173q14 107 83 175t187 68q110 0 164.5 -55.5t54.5 -149.5q0 -26 -2 -38zM309 1290l-20 -151q-4 -36 -4 -45q0 -35 11 -49.5t34 -14.5q31 0 44.5 22t22.5 87l23 151 q2 14 2 37q0 64 -47 64q-29 0 -44 -22t-22 -79z" />
<glyph unicode="&#xbb;" horiz-adv-x="587" d="M203 246l188 295l-117 297h166l117 -297l-188 -295h-166zM-20 246l188 295l-117 297h166l117 -297l-189 -295h-165z" />
<glyph unicode="&#xbc;" horiz-adv-x="1034" d="M354 1489h133l-79 -658h-168l53 424h-115l15 115h45q52 0 73.5 23t42.5 96zM193 0h-164l850 1485h165zM866 0h-141l12 113h-250l15 108l286 432h158l-51 -413h51l-22 -127h-45zM655 240h101l37 233z" />
<glyph unicode="&#xbd;" horiz-adv-x="1034" d="M354 1489h133l-79 -658h-168l53 424h-115l15 115h45q52 0 73.5 23t42.5 96zM193 0h-164l850 1485h165zM805 662q87 0 130.5 -44t43.5 -112q0 -58 -23.5 -107.5t-60 -84t-73.5 -63t-71 -60t-46 -60.5h221l-15 -131h-389l4 66q10 62 44 117t74 94t79.5 74t65.5 71t26 70 q0 32 -39 32q-26 0 -48.5 -22.5t-35.5 -67.5l-121 41q33 87 91.5 137t142.5 50z" />
<glyph unicode="&#xbe;" horiz-adv-x="1034" d="M223 1102l15 121h47q69 0 69 90q0 45 -39 45q-28 0 -45 -15t-34 -57l-115 41q29 77 86.5 121.5t138.5 44.5q87 0 130.5 -43t43.5 -111q0 -57 -26 -102.5t-68 -67.5q66 -23 66 -108q0 -118 -65.5 -178t-168.5 -60q-84 0 -128.5 38.5t-53.5 121.5l121 41q6 -37 21 -53.5 t44 -16.5q27 0 45.5 25.5t18.5 73.5q0 27 -12.5 38t-39.5 11h-51zM193 0h-164l850 1485h165zM850 0h-141l12 113h-250l14 108l287 432h158l-51 -413h51l-23 -127h-45zM639 240h100l37 233z" />
<glyph unicode="&#xbf;" horiz-adv-x="813" d="M739 162q-59 -175 -171.5 -276t-270.5 -101q-161 0 -240.5 84t-79.5 223q0 163 93 327.5t247 266.5l33 150h203l-18 -287q-136 -71 -208.5 -182.5t-72.5 -229.5q0 -100 90 -100q59 0 101.5 41.5t76.5 144.5zM643 1290l-35 -303h-270l35 303h270z" />
<glyph unicode="&#xc0;" horiz-adv-x="894" d="M289 270l-74 -270h-283l439 1341h336l112 -1341h-289l-8 270h-233zM498 1022l-148 -533h164zM303 1540h315l60 -160h-225z" />
<glyph unicode="&#xc1;" horiz-adv-x="894" d="M289 270l-74 -270h-283l439 1341h336l112 -1341h-289l-8 270h-233zM498 1022l-148 -533h164zM547 1542h305l-205 -162h-207z" />
<glyph unicode="&#xc2;" horiz-adv-x="894" d="M492 1380h-205l166 162h215l125 -162h-203l-41 66zM289 270l-74 -270h-283l439 1341h336l112 -1341h-289l-8 270h-233zM498 1022l-148 -533h164z" />
<glyph unicode="&#xc3;" horiz-adv-x="894" d="M694 1554l121 -10q-24 -82 -65.5 -124t-118.5 -42q-48 0 -94 20.5t-60 20.5q-31 0 -45 -35l-121 9q23 84 65 126t120 42q50 0 95 -22.5t60 -22.5q18 0 27.5 8.5t15.5 29.5zM289 270l-74 -270h-283l439 1341h336l112 -1341h-289l-8 270h-233zM498 1022l-148 -533h164z" />
<glyph unicode="&#xc4;" horiz-adv-x="894" d="M360 1542h172l-20 -162h-172zM588 1542h172l-19 -162h-172zM289 270l-74 -270h-283l439 1341h336l112 -1341h-289l-8 270h-233zM498 1022l-148 -533h164z" />
<glyph unicode="&#xc5;" horiz-adv-x="894" d="M289 270l-74 -270h-283l439 1341h14q-10 23 -10 50q0 71 53.5 113t134.5 42q68 0 110 -32.5t42 -88.5q0 -45 -27 -84h19l112 -1341h-289l-8 270h-233zM498 1022l-148 -533h164zM549 1442q-33 0 -33 -39q0 -25 27 -25q32 0 32 39q0 11 -7 18t-19 7z" />
<glyph unicode="&#xc6;" horiz-adv-x="1218" d="M326 281l-111 -281h-283l572 1341h758l-29 -262h-338l-10 -272h239l-24 -229h-226l-14 -322h281l-27 -256h-551l12 281h-249zM412 500h176l24 504z" />
<glyph unicode="&#xc7;" horiz-adv-x="770" d="M504 1360q135 0 215.5 -90.5t83.5 -239.5l-223 -67q0 77 -19.5 110t-62.5 33q-52 0 -79 -38t-38 -122l-78 -577q-2 -14 -2 -41q0 -52 19.5 -77.5t62.5 -25.5q42 0 70 34.5t51 117.5l211 -64q-40 -147 -114 -225.5t-189 -97.5l-60 -199h-225l129 197q-115 19 -177.5 100.5 t-62.5 212.5q0 20 4 66l76 577q26 194 135.5 305t272.5 111z" />
<glyph unicode="&#xc8;" horiz-adv-x="737" d="M168 1341h618l-28 -262h-334l-37 -272h244l-25 -229h-250l-41 -322h347l-29 -256h-629zM266 1540h316l59 -160h-225z" />
<glyph unicode="&#xc9;" horiz-adv-x="737" d="M168 1341h618l-28 -262h-334l-37 -272h244l-25 -229h-250l-41 -322h347l-29 -256h-629zM463 1542h305l-205 -162h-207z" />
<glyph unicode="&#xca;" horiz-adv-x="737" d="M168 1341h618l-28 -262h-334l-37 -272h244l-25 -229h-250l-41 -322h347l-29 -256h-629zM436 1380h-205l166 162h215l125 -162h-202l-41 66z" />
<glyph unicode="&#xcb;" horiz-adv-x="737" d="M168 1341h618l-28 -262h-334l-37 -272h244l-25 -229h-250l-41 -322h347l-29 -256h-629zM305 1542h172l-20 -162h-172zM532 1542h173l-19 -162h-172z" />
<glyph unicode="&#xcc;" horiz-adv-x="458" d="M178 1341h285l-164 -1341h-285zM80 1540h315l60 -160h-226z" />
<glyph unicode="&#xcd;" horiz-adv-x="458" d="M178 1341h285l-164 -1341h-285zM311 1542h305l-204 -162h-207z" />
<glyph unicode="&#xce;" horiz-adv-x="458" d="M178 1341h285l-164 -1341h-285zM281 1380h-205l166 162h215l125 -162h-203l-41 66z" />
<glyph unicode="&#xcf;" horiz-adv-x="458" d="M178 1341h285l-164 -1341h-285zM145 1542h172l-20 -162h-172zM373 1542h172l-19 -162h-172z" />
<glyph unicode="&#xd0;" horiz-adv-x="917" d="M186 1341h385q165 0 253.5 -92.5t88.5 -261.5q0 -53 -4 -80l-63 -471q-28 -206 -140.5 -321t-295.5 -115h-387l73 610h-80l21 178h82zM442 1085l-39 -297h99l-21 -178h-100l-47 -362h102q55 0 81.5 39.5t43.5 156.5l64 451q6 50 6 82q0 62 -20.5 85t-65.5 23h-103z" />
<glyph unicode="&#xd1;" horiz-adv-x="909" d="M168 1341h207l221 -641l80 641h248l-164 -1341h-193l-229 678l-86 -678h-248zM696 1554l121 -10q-24 -82 -65.5 -124t-118.5 -42q-48 0 -94 20.5t-60 20.5q-31 0 -45 -35l-121 9q23 84 65 126t120 42q50 0 95 -22.5t60 -22.5q18 0 27.5 8.5t15.5 29.5z" />
<glyph unicode="&#xd2;" horiz-adv-x="870" d="M530 1360q168 0 254 -90t86 -258q0 -55 -4 -84l-69 -514q-28 -207 -138.5 -319.5t-298.5 -112.5q-168 0 -254 89.5t-86 254.5q0 34 7 88l69 514q28 208 137 320t297 112zM514 414l70 514q4 29 4 73q0 60 -19.5 83.5t-64.5 23.5q-57 0 -85.5 -38.5t-41.5 -141.5l-70 -514 q-4 -29 -4 -76q0 -62 20.5 -87.5t65.5 -25.5q55 0 82.5 41t42.5 148zM297 1540h315l60 -160h-226z" />
<glyph unicode="&#xd3;" horiz-adv-x="870" d="M530 1360q168 0 254 -90t86 -258q0 -55 -4 -84l-69 -514q-28 -207 -138.5 -319.5t-298.5 -112.5q-168 0 -254 89.5t-86 254.5q0 34 7 88l69 514q28 208 137 320t297 112zM514 414l70 514q4 29 4 73q0 60 -19.5 83.5t-64.5 23.5q-57 0 -85.5 -38.5t-41.5 -141.5l-70 -514 q-4 -29 -4 -76q0 -62 20.5 -87.5t65.5 -25.5q55 0 82.5 41t42.5 148zM522 1542h305l-204 -162h-207z" />
<glyph unicode="&#xd4;" horiz-adv-x="870" d="M530 1360q168 0 254 -90t86 -258q0 -55 -4 -84l-69 -514q-28 -207 -138.5 -319.5t-298.5 -112.5q-168 0 -254 89.5t-86 254.5q0 34 7 88l69 514q28 208 137 320t297 112zM514 414l70 514q4 29 4 73q0 60 -19.5 83.5t-64.5 23.5q-57 0 -85.5 -38.5t-41.5 -141.5l-70 -514 q-4 -29 -4 -76q0 -62 20.5 -87.5t65.5 -25.5q55 0 82.5 41t42.5 148zM485 1380h-204l165 162h216l124 -162h-202l-41 66z" />
<glyph unicode="&#xd5;" horiz-adv-x="870" d="M530 1360q168 0 254 -90t86 -258q0 -55 -4 -84l-69 -514q-28 -207 -138.5 -319.5t-298.5 -112.5q-168 0 -254 89.5t-86 254.5q0 34 7 88l69 514q28 208 137 320t297 112zM514 414l70 514q4 29 4 73q0 60 -19.5 83.5t-64.5 23.5q-57 0 -85.5 -38.5t-41.5 -141.5l-70 -514 q-4 -29 -4 -76q0 -62 20.5 -87.5t65.5 -25.5q55 0 82.5 41t42.5 148zM686 1554l121 -10q-24 -82 -65.5 -124t-118.5 -42q-48 0 -94 20.5t-60 20.5q-31 0 -45 -35l-121 9q23 84 65 126t119 42q50 0 95.5 -22.5t60.5 -22.5q18 0 27.5 8.5t15.5 29.5z" />
<glyph unicode="&#xd6;" horiz-adv-x="870" d="M530 1360q168 0 254 -90t86 -258q0 -55 -4 -84l-69 -514q-28 -207 -138.5 -319.5t-298.5 -112.5q-168 0 -254 89.5t-86 254.5q0 34 7 88l69 514q28 208 137 320t297 112zM514 414l70 514q4 29 4 73q0 60 -19.5 83.5t-64.5 23.5q-57 0 -85.5 -38.5t-41.5 -141.5l-70 -514 q-4 -29 -4 -76q0 -62 20.5 -87.5t65.5 -25.5q55 0 82.5 41t42.5 148zM352 1542h172l-20 -162h-172zM580 1542h172l-19 -162h-172z" />
<glyph unicode="&#xd7;" horiz-adv-x="753" d="M555 279l-180 194l-178 -194l-140 151l179 195l-179 194l138 154l180 -197l180 197l137 -152l-178 -196l180 -195z" />
<glyph unicode="&#xd8;" horiz-adv-x="870" d="M530 1360q172 0 261 -98l63 92l76 -64l-84 -121q24 -71 24 -163q-1 -8 -1.5 -35.5t-2.5 -42.5l-69 -514q-28 -208 -138 -320t-299 -112q-181 0 -268 104l-55 -82l-74 64l78 112q-21 62 -21 144q0 36 7 90l69 514q28 208 137 320t297 112zM514 414l47 346l-254 -367 q-4 -40 -4 -61q0 -59 20.5 -83t65.5 -24q55 0 82.5 41t42.5 148zM377 928l-43 -326l254 367v28q0 62 -19.5 86.5t-64.5 24.5q-57 0 -85.5 -38.5t-41.5 -141.5z" />
<glyph unicode="&#xd9;" horiz-adv-x="899" d="M645 1341h283l-117 -929q-26 -210 -139 -320t-297 -110q-165 0 -254.5 86t-89.5 249q0 39 6 82l119 942h282l-112 -911q-9 -68 -9 -84q0 -96 89 -96q52 0 81 33.5t39 113.5zM311 1540h316l59 -160h-225z" />
<glyph unicode="&#xda;" horiz-adv-x="899" d="M645 1341h283l-117 -929q-26 -210 -139 -320t-297 -110q-165 0 -254.5 86t-89.5 249q0 39 6 82l119 942h282l-112 -911q-9 -68 -9 -84q0 -96 89 -96q52 0 81 33.5t39 113.5zM535 1542h305l-205 -162h-207z" />
<glyph unicode="&#xdb;" horiz-adv-x="899" d="M645 1341h283l-117 -929q-26 -210 -139 -320t-297 -110q-165 0 -254.5 86t-89.5 249q0 39 6 82l119 942h282l-112 -911q-9 -68 -9 -84q0 -96 89 -96q52 0 81 33.5t39 113.5zM500 1380h-205l166 162h215l125 -162h-203l-41 66z" />
<glyph unicode="&#xdc;" horiz-adv-x="899" d="M645 1341h283l-117 -929q-26 -210 -139 -320t-297 -110q-165 0 -254.5 86t-89.5 249q0 39 6 82l119 942h282l-112 -911q-9 -68 -9 -84q0 -96 89 -96q52 0 81 33.5t39 113.5zM369 1542h172l-21 -162h-172zM596 1542h172l-18 -162h-172z" />
<glyph unicode="&#xdd;" horiz-adv-x="868" d="M967 1341l-418 -958l-45 -383h-283l45 369l-178 972h307l58 -608l204 608h310zM530 1542h306l-205 -162h-207z" />
<glyph unicode="&#xde;" horiz-adv-x="841" d="M524 1135q146 0 224.5 -89t78.5 -255q0 -257 -108.5 -400t-284.5 -143h-115l-30 -248h-285l164 1341h285l-27 -206h98zM399 883l-55 -404h92q41 0 64.5 45t40.5 160q10 75 10 109q0 51 -15.5 70.5t-46.5 19.5h-90z" />
<glyph unicode="&#xdf;" horiz-adv-x="854" d="M408 715q0 84 39 158.5t110 121.5q8 37 8 64q0 74 -55 74q-50 0 -81.5 -46t-45.5 -163l-115 -924h-268l115 926q24 197 128 311.5t277 114.5q133 0 203 -82t70 -215q0 -112 -41 -199q-80 -29 -80 -100q0 -30 20 -68.5t44.5 -73t44.5 -93t20 -122.5q0 -194 -97 -306.5 t-235 -112.5q-110 0 -170 51l53 207q36 -33 84 -33q41 0 70 43.5t29 118.5q0 39 -20 82t-43.5 77t-43.5 85.5t-20 103.5z" />
<glyph unicode="&#xe0;" horiz-adv-x="817" d="M10 340l47 332q55 393 316 393q96 0 168 -72l16 58h246l-127 -1051h-234l-4 98q-107 -116 -243 -116q-96 0 -143.5 61t-47.5 190q0 68 6 107zM330 229q60 0 110 72l66 512q-36 25 -76 25q-42 0 -67 -38t-37 -128l-43 -314q-4 -25 -4 -59q0 -41 12 -55.5t39 -14.5z M297 1341h287l45 -233h-189z" />
<glyph unicode="&#xe1;" horiz-adv-x="817" d="M10 340l47 332q55 393 316 393q96 0 168 -72l16 58h246l-127 -1051h-234l-4 98q-107 -116 -243 -116q-96 0 -143.5 61t-47.5 190q0 68 6 107zM330 229q60 0 110 72l66 512q-36 25 -76 25q-42 0 -67 -38t-37 -128l-43 -314q-4 -25 -4 -59q0 -41 12 -55.5t39 -14.5z M494 1341h286l-205 -233h-188z" />
<glyph unicode="&#xe2;" horiz-adv-x="817" d="M10 340l47 332q55 393 316 393q96 0 168 -72l16 58h246l-127 -1051h-234l-4 98q-107 -116 -243 -116q-96 0 -143.5 61t-47.5 190q0 68 6 107zM330 229q60 0 110 72l66 512q-36 25 -76 25q-42 0 -67 -38t-37 -128l-43 -314q-4 -25 -4 -59q0 -41 12 -55.5t39 -14.5z M444 1108h-190l176 233h186l119 -233h-190l-39 98z" />
<glyph unicode="&#xe3;" horiz-adv-x="817" d="M10 340l47 332q55 393 316 393q96 0 168 -72l16 58h246l-127 -1051h-234l-4 98q-107 -116 -243 -116q-96 0 -143.5 61t-47.5 190q0 68 6 107zM330 229q60 0 110 72l66 512q-36 25 -76 25q-42 0 -67 -38t-37 -128l-43 -314q-4 -25 -4 -59q0 -41 12 -55.5t39 -14.5z M662 1343l126 -10q-28 -114 -74.5 -171.5t-129.5 -57.5q-36 0 -65 14.5t-43.5 32.5t-30.5 32.5t-29 14.5q-18 0 -30 -16t-26 -68l-124 12q26 116 72.5 173t129.5 57q37 0 66.5 -15t43.5 -33t30 -33t30 -15q18 0 29 15.5t25 67.5z" />
<glyph unicode="&#xe4;" horiz-adv-x="817" d="M10 340l47 332q55 393 316 393q96 0 168 -72l16 58h246l-127 -1051h-234l-4 98q-107 -116 -243 -116q-96 0 -143.5 61t-47.5 190q0 68 6 107zM330 229q60 0 110 72l66 512q-36 25 -76 25q-42 0 -67 -38t-37 -128l-43 -314q-4 -25 -4 -59q0 -41 12 -55.5t39 -14.5z M315 1341h174l-26 -225h-176zM561 1341h174l-26 -225h-174z" />
<glyph unicode="&#xe5;" horiz-adv-x="817" d="M10 340l47 332q55 393 316 393q96 0 168 -72l16 58h246l-127 -1051h-234l-4 98q-107 -116 -243 -116q-96 0 -143.5 61t-47.5 190q0 68 6 107zM330 229q60 0 110 72l66 512q-36 25 -76 25q-42 0 -67 -38t-37 -128l-43 -314q-4 -25 -4 -59q0 -41 12 -55.5t39 -14.5z M549 1352q72 0 116 -30.5t44 -86.5q0 -71 -56.5 -113.5t-140.5 -42.5q-72 0 -116 31t-44 84q0 74 55.5 116t141.5 42zM535 1239q-41 0 -41 -27q0 -20 32 -20q41 0 41 25q0 22 -32 22z" />
<glyph unicode="&#xe6;" horiz-adv-x="1126" d="M1067 467h-389l-14 -121q-5 -50 -5 -51q0 -50 19.5 -72t58.5 -22t65.5 30t53.5 103l193 -62q-97 -288 -336 -288q-146 0 -215 112q-107 -110 -267 -110q-113 0 -171 63t-58 178q0 199 106.5 301t331.5 109l15 100q2 16 2 41q0 38 -14.5 52t-45.5 14q-71 0 -123 -131 l-176 73q52 130 144 205.5t219 75.5q125 0 176 -86q100 90 223 90q117 0 179.5 -81t62.5 -214q0 -44 -6 -90zM295 213q38 0 68.5 31t37.5 90l17 131q-89 -6 -131.5 -51t-42.5 -144q0 -33 12.5 -45t38.5 -12zM713 729l-13 -90h152l10 70q4 36 4 67q0 43 -14.5 61.5 t-46.5 18.5q-41 0 -62 -28t-30 -99z" />
<glyph unicode="&#xe7;" horiz-adv-x="706" d="M711 784l-205 -63q-6 71 -22 96t-48 25q-46 0 -72 -37.5t-38 -130.5l-47 -346q-5 -40 -5 -43q0 -42 17 -60t51 -18q76 0 115 123l194 -62q-83 -228 -264 -274l-61 -203h-226l127 195q-111 14 -166 89.5t-55 186.5q0 17 4 53l49 369q10 80 38 148t73.5 122.5t114 85.5 t153.5 31q118 0 189.5 -73.5t83.5 -213.5z" />
<glyph unicode="&#xe8;" horiz-adv-x="757" d="M700 469h-403l-14 -119q-4 -36 -4 -49q0 -51 20.5 -73.5t62.5 -22.5q40 0 67.5 29.5t53.5 99.5l197 -62q-52 -148 -141 -219t-232 -71q-144 0 -221.5 83t-77.5 218q0 19 4 59l49 369q22 157 120.5 258.5t264.5 101.5q140 0 213.5 -84.5t73.5 -220.5q0 -34 -6 -80z M332 725l-13 -82h160l13 84q2 16 2 43q0 44 -16.5 63t-49.5 19q-43 0 -64.5 -28t-31.5 -99zM240 1341h286l45 -233h-188z" />
<glyph unicode="&#xe9;" horiz-adv-x="757" d="M700 469h-403l-14 -119q-4 -36 -4 -49q0 -51 20.5 -73.5t62.5 -22.5q40 0 67.5 29.5t53.5 99.5l197 -62q-52 -148 -141 -219t-232 -71q-144 0 -221.5 83t-77.5 218q0 19 4 59l49 369q22 157 120.5 258.5t264.5 101.5q140 0 213.5 -84.5t73.5 -220.5q0 -34 -6 -80z M332 725l-13 -82h160l13 84q2 16 2 43q0 44 -16.5 63t-49.5 19q-43 0 -64.5 -28t-31.5 -99zM455 1341h286l-204 -233h-189z" />
<glyph unicode="&#xea;" horiz-adv-x="757" d="M700 469h-403l-14 -119q-4 -36 -4 -49q0 -51 20.5 -73.5t62.5 -22.5q40 0 67.5 29.5t53.5 99.5l197 -62q-52 -148 -141 -219t-232 -71q-144 0 -221.5 83t-77.5 218q0 19 4 59l49 369q22 157 120.5 258.5t264.5 101.5q140 0 213.5 -84.5t73.5 -220.5q0 -34 -6 -80z M332 725l-13 -82h160l13 84q2 16 2 43q0 44 -16.5 63t-49.5 19q-43 0 -64.5 -28t-31.5 -99zM401 1106h-190l176 233h186l119 -233h-190l-39 98z" />
<glyph unicode="&#xeb;" horiz-adv-x="757" d="M700 469h-403l-14 -119q-4 -36 -4 -49q0 -51 20.5 -73.5t62.5 -22.5q40 0 67.5 29.5t53.5 99.5l197 -62q-52 -148 -141 -219t-232 -71q-144 0 -221.5 83t-77.5 218q0 19 4 59l49 369q22 157 120.5 258.5t264.5 101.5q140 0 213.5 -84.5t73.5 -220.5q0 -34 -6 -80z M332 725l-13 -82h160l13 84q2 16 2 43q0 44 -16.5 63t-49.5 19q-43 0 -64.5 -28t-31.5 -99zM268 1341h174l-26 -225h-176zM514 1341h174l-26 -225h-175z" />
<glyph unicode="&#xec;" horiz-adv-x="428" d="M129 1012h268l-121 -1012h-270zM53 1341h287l45 -233h-188z" />
<glyph unicode="&#xed;" horiz-adv-x="428" d="M129 1012h268l-121 -1012h-270zM283 1341h286l-204 -233h-189z" />
<glyph unicode="&#xee;" horiz-adv-x="428" d="M129 1012h268l-121 -1012h-270zM223 1108h-190l176 233h186l119 -233h-190l-39 98z" />
<glyph unicode="&#xef;" horiz-adv-x="428" d="M129 1012h268l-121 -1012h-270zM94 1341h174l-26 -225h-176zM340 1341h174l-27 -225h-174z" />
<glyph unicode="&#xf0;" horiz-adv-x="798" d="M305 1030l64 88q-68 21 -111 29l70 203q103 -15 176 -45l65 90l101 -62l-62 -84q174 -124 174 -387q0 -64 -8 -119l-55 -405q-22 -158 -120.5 -256t-272.5 -98q-155 0 -236.5 78.5t-81.5 211.5q0 30 6 74l35 240q25 176 109 264t204 88q105 0 181 -84q0 75 -15.5 124 t-56.5 83l-68 -94zM449 324l49 364q-42 27 -78 27q-45 0 -69 -30.5t-34 -106.5l-36 -254q-5 -40 -5 -43q0 -43 18 -62.5t56 -19.5q41 0 65.5 29t33.5 96z" />
<glyph unicode="&#xf1;" horiz-adv-x="827" d="M786 713l-88 -713h-270l88 694q4 46 4 56q0 42 -13 56.5t-40 14.5q-59 0 -107 -69l-94 -752h-270l129 1051h233v-99q110 119 246 119q95 0 142 -61.5t47 -190.5q0 -38 -7 -106zM653 1343l127 -10q-28 -114 -75 -171.5t-130 -57.5q-29 0 -53.5 9.5t-39.5 23.5t-27.5 28 t-24 23.5t-22.5 9.5q-18 0 -30 -16t-26 -68l-125 12q26 116 73 173t130 57q37 0 66.5 -15t43.5 -33t30 -33t30 -15q18 0 28 15.5t25 67.5z" />
<glyph unicode="&#xf2;" horiz-adv-x="798" d="M768 711l-51 -373q-22 -157 -123.5 -257.5t-271.5 -100.5q-155 0 -234.5 83.5t-79.5 219.5q0 19 4 55l49 373q22 158 123.5 259t272.5 101q156 0 234.5 -83.5t78.5 -219.5q0 -39 -2 -57zM330 700l-49 -352q-5 -45 -5 -49q0 -52 17.5 -74t54.5 -22q44 0 68.5 32.5 t34.5 112.5l47 352q4 40 4 54q0 50 -17 71t-55 21q-44 0 -67.5 -33t-32.5 -113zM240 1341h286l45 -233h-188z" />
<glyph unicode="&#xf3;" horiz-adv-x="798" d="M768 711l-51 -373q-22 -157 -123.5 -257.5t-271.5 -100.5q-155 0 -234.5 83.5t-79.5 219.5q0 19 4 55l49 373q22 158 123.5 259t272.5 101q156 0 234.5 -83.5t78.5 -219.5q0 -39 -2 -57zM330 700l-49 -352q-5 -45 -5 -49q0 -52 17.5 -74t54.5 -22q44 0 68.5 32.5 t34.5 112.5l47 352q4 40 4 54q0 50 -17 71t-55 21q-44 0 -67.5 -33t-32.5 -113zM475 1341h287l-205 -233h-188z" />
<glyph unicode="&#xf4;" horiz-adv-x="798" d="M768 711l-51 -373q-22 -157 -123.5 -257.5t-271.5 -100.5q-155 0 -234.5 83.5t-79.5 219.5q0 19 4 55l49 373q22 158 123.5 259t272.5 101q156 0 234.5 -83.5t78.5 -219.5q0 -39 -2 -57zM330 700l-49 -352q-5 -45 -5 -49q0 -52 17.5 -74t54.5 -22q44 0 68.5 32.5 t34.5 112.5l47 352q4 40 4 54q0 50 -17 71t-55 21q-44 0 -67.5 -33t-32.5 -113zM412 1106h-191l176 233h187l118 -233h-190l-39 98z" />
<glyph unicode="&#xf5;" horiz-adv-x="798" d="M768 711l-51 -373q-22 -157 -123.5 -257.5t-271.5 -100.5q-155 0 -234.5 83.5t-79.5 219.5q0 19 4 55l49 373q22 158 123.5 259t272.5 101q156 0 234.5 -83.5t78.5 -219.5q0 -39 -2 -57zM330 700l-49 -352q-5 -45 -5 -49q0 -52 17.5 -74t54.5 -22q44 0 68.5 32.5 t34.5 112.5l47 352q4 40 4 54q0 50 -17 71t-55 21q-44 0 -67.5 -33t-32.5 -113zM633 1343l127 -10q-28 -114 -75 -171.5t-130 -57.5q-36 0 -65 14.5t-43.5 32.5t-30.5 32.5t-29 14.5q-18 0 -29.5 -16t-25.5 -68l-125 12q26 116 73 173t130 57q37 0 66.5 -15t43.5 -33t30 -33 t30 -15q18 0 28 15.5t25 67.5z" />
<glyph unicode="&#xf6;" horiz-adv-x="798" d="M768 711l-51 -373q-22 -157 -123.5 -257.5t-271.5 -100.5q-155 0 -234.5 83.5t-79.5 219.5q0 19 4 55l49 373q22 158 123.5 259t272.5 101q156 0 234.5 -83.5t78.5 -219.5q0 -39 -2 -57zM330 700l-49 -352q-5 -45 -5 -49q0 -52 17.5 -74t54.5 -22q44 0 68.5 32.5 t34.5 112.5l47 352q4 40 4 54q0 50 -17 71t-55 21q-44 0 -67.5 -33t-32.5 -113zM279 1341h174l-27 -225h-176zM524 1341h174l-26 -225h-174z" />
<glyph unicode="&#xf7;" horiz-adv-x="753" d="M690 518h-624v219h624v-219zM246 940q0 58 37 99.5t92 41.5q52 0 90.5 -42t38.5 -99q0 -58 -38 -98.5t-91 -40.5q-55 0 -92 40t-37 99zM246 324q0 58 37 99.5t92 41.5q52 0 90.5 -42t38.5 -99q0 -58 -38 -99t-91 -41q-55 0 -92 40.5t-37 99.5z" />
<glyph unicode="&#xf8;" horiz-adv-x="798" d="M768 711l-51 -373q-22 -157 -123.5 -257.5t-271.5 -100.5q-156 0 -236 83l-45 -57l-80 66l68 86q-21 65 -21 123q0 21 4 57l49 373q22 158 123.5 259t272.5 101q151 0 235 -84l56 68l81 -66l-77 -98q18 -58 18 -125q0 -37 -2 -55zM348 203q44 0 68.5 32.5t34.5 112.5 l26 203l-201 -250q0 -53 18 -75.5t54 -22.5zM330 700l-29 -202l199 247q0 54 -16 77.5t-54 23.5q-43 0 -66.5 -33t-33.5 -113z" />
<glyph unicode="&#xf9;" horiz-adv-x="827" d="M381 1051l-88 -693q-4 -31 -4 -57q0 -41 12.5 -55.5t40.5 -14.5q56 0 107 68l96 752h268l-129 -1051h-231l-4 98q-107 -116 -244 -116q-191 0 -191 251q0 42 11 138l88 680h268zM246 1341h286l46 -233h-189z" />
<glyph unicode="&#xfa;" horiz-adv-x="827" d="M381 1051l-88 -693q-4 -31 -4 -57q0 -41 12.5 -55.5t40.5 -14.5q56 0 107 68l96 752h268l-129 -1051h-231l-4 98q-107 -116 -244 -116q-191 0 -191 251q0 42 11 138l88 680h268zM483 1341h287l-205 -233h-188z" />
<glyph unicode="&#xfb;" horiz-adv-x="827" d="M381 1051l-88 -693q-4 -31 -4 -57q0 -41 12.5 -55.5t40.5 -14.5q56 0 107 68l96 752h268l-129 -1051h-231l-4 98q-107 -116 -244 -116q-191 0 -191 251q0 42 11 138l88 680h268zM426 1106h-190l176 233h186l119 -233h-191l-39 98z" />
<glyph unicode="&#xfc;" horiz-adv-x="827" d="M381 1051l-88 -693q-4 -31 -4 -57q0 -41 12.5 -55.5t40.5 -14.5q56 0 107 68l96 752h268l-129 -1051h-231l-4 98q-107 -116 -244 -116q-191 0 -191 251q0 42 11 138l88 680h268zM295 1341h174l-27 -225h-176zM541 1341h174l-27 -225h-174z" />
<glyph unicode="&#xfd;" horiz-adv-x="813" d="M868 1051l-385 -928q-78 -188 -171.5 -260.5t-252.5 -77.5l7 209q69 6 106 32t64 91l8 22l-189 912h293l66 -584l182 584h272zM496 1341h286l-204 -233h-189z" />
<glyph unicode="&#xfe;" horiz-adv-x="817" d="M786 713l-47 -334q-55 -393 -313 -393q-90 0 -156 55l-30 -250h-269l189 1550h270l-45 -362q103 92 219 92q191 0 191 -250q0 -47 -9 -108zM469 831q-57 0 -111 -73l-65 -522q38 -23 74 -23q42 0 66.5 37t37.5 127l47 325q4 46 4 58q0 42 -13 56.5t-40 14.5z" />
<glyph unicode="&#xff;" horiz-adv-x="813" d="M868 1051l-385 -928q-78 -188 -171.5 -260.5t-252.5 -77.5l7 209q69 6 106 32t64 91l8 22l-189 912h293l66 -584l182 584h272zM305 1341h174l-26 -225h-177zM551 1341h174l-27 -225h-174z" />
<glyph unicode="&#x152;" horiz-adv-x="1198" d="M631 1341h616l-28 -262h-334l-37 -272h244l-25 -229h-250l-41 -322h346l-28 -256h-627l6 55q-73 -73 -190 -73q-120 0 -191.5 90t-71.5 250q0 34 7 92l69 514q27 201 124 316.5t231 115.5q111 0 172 -74zM514 414l70 514q6 44 6 76q0 59 -21 81.5t-67 22.5q-58 0 -85 -37 t-40 -143l-70 -514q-6 -49 -6 -82q0 -60 20.5 -82.5t65.5 -22.5q57 0 84.5 38t42.5 149z" />
<glyph unicode="&#x153;" horiz-adv-x="1189" d="M1130 467h-401l-16 -137q-2 -14 -2 -39q0 -94 82 -94q44 0 75.5 33.5t57.5 107.5l180 -64q-56 -144 -142.5 -218t-213.5 -74q-138 0 -205 90q-90 -90 -242 -90q-143 0 -219 85.5t-76 217.5q0 17 4 53l51 373q22 154 118.5 257t250.5 103q163 0 232 -98q98 98 241 98 q123 0 191.5 -87t68.5 -222q0 -37 -8 -94zM494 696q4 40 4 58q0 51 -16.5 71.5t-53.5 20.5q-44 0 -65 -31.5t-33 -118.5l-47 -344q-4 -27 -4 -67q0 -50 15 -70t48 -20q44 0 67 34t35 123zM764 725l-12 -86h157l13 88q2 16 2 45q0 44 -16 63t-48 19q-43 0 -64.5 -28.5 t-31.5 -100.5z" />
<glyph unicode="&#x178;" horiz-adv-x="868" d="M967 1341l-418 -958l-45 -383h-283l45 369l-178 972h307l58 -608l204 608h310zM352 1542h172l-20 -162h-172zM580 1542h172l-19 -162h-172z" />
<glyph unicode="&#x17f;" horiz-adv-x="501" d="M625 1346l-11 -209q-82 -4 -114.5 -42t-42.5 -122l-121 -973h-268l96 786h-125l24 218h127q25 154 131.5 246t303.5 96z" />
<glyph unicode="&#x2c6;" horiz-adv-x="454" d="M240 1108h-191l176 233h187l118 -233h-190l-39 98z" />
<glyph unicode="&#x2dc;" horiz-adv-x="454" d="M457 1343l127 -10q-28 -114 -75 -171.5t-130 -57.5q-36 0 -65 14.5t-43.5 32.5t-30.5 32.5t-29 14.5q-18 0 -29.5 -16t-25.5 -68l-125 12q26 116 72.5 173t129.5 57q37 0 66.5 -15t43.5 -33t30 -33t30 -15q18 0 29 15.5t25 67.5z" />
<glyph unicode="&#x2000;" horiz-adv-x="859" />
<glyph unicode="&#x2001;" horiz-adv-x="1718" />
<glyph unicode="&#x2002;" horiz-adv-x="859" />
<glyph unicode="&#x2003;" horiz-adv-x="1718" />
<glyph unicode="&#x2004;" horiz-adv-x="572" />
<glyph unicode="&#x2005;" horiz-adv-x="429" />
<glyph unicode="&#x2006;" horiz-adv-x="286" />
<glyph unicode="&#x2007;" horiz-adv-x="286" />
<glyph unicode="&#x2008;" horiz-adv-x="214" />
<glyph unicode="&#x2009;" horiz-adv-x="343" />
<glyph unicode="&#x200a;" horiz-adv-x="95" />
<glyph unicode="&#x2010;" horiz-adv-x="468" d="M31 477l28 252h379l-28 -252h-379z" />
<glyph unicode="&#x2011;" horiz-adv-x="468" d="M31 477l28 252h379l-28 -252h-379z" />
<glyph unicode="&#x2012;" horiz-adv-x="468" d="M31 477l28 252h379l-28 -252h-379z" />
<glyph unicode="&#x2013;" horiz-adv-x="710" d="M35 512l22 215h625l-23 -215h-624z" />
<glyph unicode="&#x2014;" horiz-adv-x="1019" d="M33 512l24 215h934l-24 -215h-934z" />
<glyph unicode="&#x2018;" horiz-adv-x="278" d="M322 1243l-25 -221h-201l21 162q11 90 45 153.5t100 112.5l57 -57q-63 -59 -73 -131z" />
<glyph unicode="&#x2019;" horiz-adv-x="278" d="M102 1120l25 221h201l-19 -161q-20 -169 -147 -267l-56 58q64 61 74 131z" />
<glyph unicode="&#x201a;" horiz-adv-x="278" d="M-35 18l25 222h200l-18 -162q-20 -168 -147 -266l-56 57q64 61 74 131z" />
<glyph unicode="&#x201c;" horiz-adv-x="520" d="M563 1243l-24 -221h-201l20 162q11 89 45.5 153t100.5 113l57 -57q-64 -61 -74 -131zM322 1243l-25 -221h-201l21 162q11 90 45 153.5t100 112.5l57 -57q-63 -59 -73 -131z" />
<glyph unicode="&#x201d;" horiz-adv-x="520" d="M342 1120l25 221h200l-18 -161q-20 -168 -148 -267l-55 58q64 61 74 131zM102 1120l25 221h201l-19 -161q-20 -169 -147 -267l-56 58q64 61 74 131z" />
<glyph unicode="&#x201e;" horiz-adv-x="520" d="M207 18l24 222h201l-18 -162q-20 -165 -148 -266l-55 57q64 61 74 131zM-35 18l25 222h200l-18 -162q-10 -87 -46 -150.5t-101 -115.5l-56 57q64 61 74 131z" />
<glyph unicode="&#x2022;" horiz-adv-x="483" d="M25 635q0 104 62.5 175t154.5 71t154.5 -71t62.5 -175q0 -103 -62.5 -173.5t-154.5 -70.5t-154.5 70.5t-62.5 173.5z" />
<glyph unicode="&#x2026;" horiz-adv-x="985" d="M616 0l27 242h213l-27 -242h-213zM311 0l27 242h213l-27 -242h-213zM10 0l27 242h213l-27 -242h-213z" />
<glyph unicode="&#x202f;" horiz-adv-x="343" />
<glyph unicode="&#x2039;" horiz-adv-x="362" d="M367 838l-187 -297l115 -295h-164l-117 295l189 297h164z" />
<glyph unicode="&#x203a;" horiz-adv-x="362" d="M-20 246l188 295l-117 297h166l117 -297l-189 -295h-165z" />
<glyph unicode="&#x2044;" horiz-adv-x="493" d="M-14 0h-164l850 1485h166z" />
<glyph unicode="&#x205f;" horiz-adv-x="429" />
<glyph unicode="&#x2070;" d="M532 1399l-30 -215q-15 -107 -74.5 -167.5t-155.5 -60.5q-88 0 -133 48.5t-45 136.5q0 29 2 43l31 215q15 107 72.5 167t154.5 60q87 0 134 -49.5t47 -136.5q0 -20 -3 -41zM281 1395l-29 -211q-4 -32 -4 -43q0 -28 10 -38.5t31 -10.5q26 0 38 18.5t19 73.5l29 211 q2 14 2 37q0 27 -9 37t-30 10q-27 0 -39 -17t-18 -67z" />
<glyph unicode="&#x2074;" d="M449 965h-142l12 112h-249l14 109l287 432h157l-51 -414h51l-22 -127h-45zM238 1204h100l37 234z" />
<glyph unicode="&#x2075;" d="M219 1233l-96 47l63 338h346l-26 -139h-209l-18 -109q40 16 79 16q142 0 142 -155q0 -137 -62.5 -206t-177.5 -69q-79 0 -125.5 40t-52.5 120l123 41q11 -67 61 -67q32 0 50 26t18 92q0 45 -53 45q-32 0 -62 -20z" />
<glyph unicode="&#x2076;" d="M365 1626q71 0 114.5 -40t52.5 -118l-116 -45q-8 68 -58 68q-72 0 -82 -86l-6 -51q45 28 101 28q137 0 137 -143q0 -142 -64 -212.5t-172 -70.5q-89 0 -133.5 47.5t-44.5 135.5q0 15 4 47l29 203q14 104 79 170.5t159 66.5zM313 1255q-25 0 -41.5 -11.5t-19.5 -29.5 q-8 -57 -8 -69q0 -51 49 -51q63 0 63 118q0 23 -10 33t-33 10z" />
<glyph unicode="&#x2077;" horiz-adv-x="434" d="M270 965h-174l260 510h-227l18 143h392l-15 -127z" />
<glyph unicode="&#x2078;" d="M272 956q-186 0 -186 162q0 146 98 189q-47 28 -47 100q0 100 53 159.5t164 59.5q172 0 172 -145q0 -60 -22 -106t-60 -68q62 -30 62 -113q0 -122 -64.5 -180t-169.5 -58zM289 1085q36 0 49.5 24t13.5 85q0 25 -10.5 34t-34.5 9q-35 0 -49 -19.5t-14 -82.5 q0 -29 10 -39.5t35 -10.5zM340 1499q-29 0 -43 -20.5t-14 -83.5q0 -25 8.5 -33t30.5 -8q29 0 44 21t15 83q0 25 -9 33t-32 8z" />
<glyph unicode="&#x2079;" d="M88 1110l111 51q9 -40 24.5 -55.5t44.5 -15.5q37 0 54.5 20.5t23.5 65.5l8 65q-40 -24 -92 -24q-64 0 -103.5 36.5t-39.5 114.5q0 125 64 191.5t169 66.5q88 0 132 -47.5t44 -126.5q0 -29 -2 -43l-30 -229q-14 -105 -74.5 -164.5t-159.5 -59.5q-153 0 -174 154zM311 1339 q21 0 39 10t21 27q10 63 10 78q0 23 -10.5 32t-34.5 9q-33 0 -49.5 -23t-16.5 -88q0 -27 9 -36t32 -9z" />
<glyph unicode="&#x207a;" horiz-adv-x="395" d="M203 1081l16 138h-110l12 112h110l17 137h108l-16 -137h109l-13 -112h-108l-17 -138h-108z" />
<glyph unicode="&#x207c;" horiz-adv-x="395" d="M418 1292h-285l12 111h285zM399 1130h-284l12 111h285z" />
<glyph unicode="&#x207d;" horiz-adv-x="262" d="M102 1112l43 338q18 139 72 203.5t158 64.5h26l-14 -108h-25q-71 0 -90 -160l-41 -322q-6 -50 -6 -77q0 -101 56 -101h24l-12 -104h-25q-90 0 -131 45t-41 141q0 36 6 80z" />
<glyph unicode="&#x207e;" horiz-adv-x="262" d="M322 1438l-41 -326q-18 -139 -70.5 -202.5t-159.5 -63.5h-22l12 104h22q72 0 91 162l41 324q6 46 6 77q0 97 -56 97h-24l12 108h27q89 0 128.5 -45.5t39.5 -142.5q0 -48 -6 -92z" />
<glyph unicode="&#x207f;" horiz-adv-x="479" d="M90 965l62 522h145l2 -41q55 49 119 49q56 0 84 -36.5t28 -98.5q0 -25 -4 -57l-41 -338h-157l39 313q4 35 4 51q0 33 -27 33q-28 0 -53 -31l-43 -366h-158z" />
<glyph unicode="&#x2080;" d="M389 199l-31 -215q-15 -107 -74 -167.5t-155 -60.5q-88 0 -133 48.5t-45 136.5q0 29 2 43l31 215q15 107 72.5 167t154.5 60q87 0 133.5 -49.5t46.5 -136.5q0 -27 -2 -41zM137 195l-28 -211q-5 -40 -5 -43q0 -28 10 -39t31 -11q26 0 38.5 19t19.5 74l28 211q2 14 2 36 q0 27 -8.5 37.5t-29.5 10.5q-27 0 -39.5 -17t-18.5 -67z" />
<glyph unicode="&#x2081;" horiz-adv-x="385" d="M162 422h133l-80 -658h-168l53 424h-114l14 115h45q52 0 74.5 23t42.5 96z" />
<glyph unicode="&#x2082;" d="M215 426q87 0 130.5 -44t43.5 -112q0 -58 -23.5 -107.5t-60 -83.5t-73.5 -62.5t-71 -60t-46 -60.5h221l-14 -132h-390l5 66q10 62 43.5 117t74 94t79.5 74t65 71t26 70q0 33 -39 33q-26 0 -48.5 -22.5t-35.5 -67.5l-120 41q70 186 233 186z" />
<glyph unicode="&#x2083;" d="M86 35l14 121h47q70 0 70 90q0 45 -39 45q-28 0 -45.5 -15t-34.5 -57l-114 41q29 77 86.5 121.5t138.5 44.5q87 0 130.5 -43t43.5 -111q0 -57 -26 -102.5t-68 -67.5q65 -23 65 -108q0 -119 -65 -178.5t-168 -59.5q-84 0 -128.5 38.5t-53.5 121.5l120 41q6 -37 21.5 -53.5 t44.5 -16.5q27 0 45 25.5t18 73.5q0 27 -12 38t-39 11h-51z" />
<glyph unicode="&#x2084;" d="M305 -236h-141l12 113h-250l15 109l286 432h158l-51 -414h51l-23 -127h-45zM94 4h101l36 234z" />
<glyph unicode="&#x2085;" d="M76 33l-96 47l63 338h346l-27 -139h-208l-19 -109q40 16 80 16q141 0 141 -155q0 -137 -62 -206t-177 -69q-79 0 -125.5 40t-52.5 120l122 41q12 -68 62 -68q32 0 49.5 26.5t17.5 92.5q0 45 -53 45q-31 0 -61 -20z" />
<glyph unicode="&#x2086;" d="M221 426q71 0 115 -40t53 -118l-117 -45q-8 68 -57 68q-72 0 -82 -86l-6 -51q45 28 100 28q138 0 138 -143q0 -142 -64 -212.5t-172 -70.5q-89 0 -133.5 47.5t-44.5 135.5q0 15 4 47l29 202q14 105 78.5 171.5t158.5 66.5zM170 55q-25 0 -41.5 -11.5t-19.5 -29.5 q-9 -64 -9 -69q0 -51 50 -51q63 0 63 118q0 23 -10 33t-33 10z" />
<glyph unicode="&#x2087;" horiz-adv-x="434" d="M127 -236h-174l260 510h-227l18 144h391l-14 -127z" />
<glyph unicode="&#x2088;" d="M129 -244q-186 0 -186 162q0 145 98 188q-47 28 -47 101q0 100 53 159.5t164 59.5q172 0 172 -145q0 -60 -22 -106.5t-60 -68.5q61 -30 61 -112q0 -122 -64.5 -180t-168.5 -58zM145 -115q36 0 50 24t14 85q0 25 -10.5 34t-34.5 9q-35 0 -49.5 -20.5t-14.5 -82.5 q0 -29 10 -39t35 -10zM197 299q-30 0 -44 -20.5t-14 -83.5q0 -25 8.5 -33t30.5 -8q29 0 44.5 21t15.5 83q0 25 -9 33t-32 8z" />
<glyph unicode="&#x2089;" d="M-55 -90l110 51q9 -40 25 -56t45 -16q37 0 54.5 20.5t23.5 65.5l8 66q-42 -25 -92 -25q-64 0 -104 37t-40 115q0 125 64.5 191.5t169.5 66.5q88 0 132 -47.5t44 -126.5q0 -29 -2 -43l-31 -229q-14 -106 -74 -165t-159 -59q-153 0 -174 154zM168 139q21 0 38.5 10t20.5 27 q11 69 11 78q0 23 -10.5 32t-34.5 9q-33 0 -49.5 -23t-16.5 -88q0 -27 9 -36t32 -9z" />
<glyph unicode="&#x208a;" horiz-adv-x="395" d="M59 -119l17 137h-111l12 113h111l16 137h109l-16 -137h108l-12 -113h-109l-16 -137h-109z" />
<glyph unicode="&#x208c;" horiz-adv-x="395" d="M274 92h-284l12 111h285zM256 -70h-285l13 111h284z" />
<glyph unicode="&#x208d;" horiz-adv-x="262" d="M-41 -88l43 338q18 139 71.5 203.5t157.5 64.5h27l-14 -108h-25q-71 0 -90 -160l-43 -338q-4 -46 -4 -62q0 -100 55 -100h25l-12 -104h-25q-90 0 -131 45t-41 141q0 36 6 80z" />
<glyph unicode="&#x208e;" horiz-adv-x="262" d="M178 238l-41 -326q-18 -140 -70 -203t-159 -63h-23l13 104h22q71 0 90 162l41 324q6 46 6 77q0 97 -55 97h-25l13 108h26q89 0 128.5 -45.5t39.5 -142.5q0 -48 -6 -92z" />
<glyph unicode="&#x20ac;" horiz-adv-x="827" d="M541 1360q134 0 215 -90.5t84 -239.5l-222 -67q-3 127 -88 127q-93 0 -112 -144l-10 -80h284l-43 -155h-262l-6 -37h256l-39 -156h-238l-18 -149q-4 -32 -4 -43q0 -97 82 -97q41 0 69 34.5t50 113.5l213 -64q-45 -170 -140.5 -250.5t-244.5 -80.5t-232.5 85t-83.5 236 q0 41 6 82l19 133h-68l21 156h67l4 37h-67l18 155h72l10 78q26 194 135.5 305t272.5 111z" />
<glyph unicode="&#x2122;" horiz-adv-x="929" d="M809 1485h147v-666h-141v309l-72 -231h-69l-70 231v-309h-141v666h147l99 -348zM88 1485h334v-144h-88v-522h-158v522h-88v144z" />
<glyph unicode="&#xfb01;" horiz-adv-x="884" d="M578 1346l-13 -209q-92 -3 -130.5 -33t-47.5 -100h469l-123 -1004h-268l96 786h-178l-94 -786h-271l97 786h-76l24 218h78q20 165 123 252t314 90zM657 1341h230l-29 -245h-229z" />
<glyph unicode="&#xfb02;" horiz-adv-x="907" d="M522 1004l-22 -218h-117l-94 -786h-271l97 786h-76l24 218h78q10 81 38 141.5t79.5 105t133 67.5t192.5 23h331l-163 -1341h-269l140 1139h-48q-88 0 -126.5 -31t-49.5 -104h123z" />
<glyph unicode="&#xfb03;" horiz-adv-x="1331" d="M1024 1346l-12 -209q-92 -3 -130.5 -33t-47.5 -100h469l-123 -1004h-269l97 786h-179l-94 -786h-270l96 786h-176l-96 -786h-271l97 786h-76l24 218h78q21 166 125 252.5t312 89.5l-11 -201q-89 -4 -123.5 -33.5t-46.5 -107.5h191q20 165 122.5 252t313.5 90zM1104 1341 h229l-28 -245h-230z" />
<glyph unicode="&#xfb04;" horiz-adv-x="1353" d="M588 1004q21 167 123.5 252t318.5 85h332l-164 -1341h-268l139 1139h-47q-90 0 -128.5 -30.5t-47.5 -104.5h123l-23 -218h-117l-94 -786h-270l96 786h-176l-96 -786h-271l97 786h-76l24 218h78q21 166 125 252.5t312 89.5l-11 -201q-89 -4 -123.5 -33.5t-46.5 -107.5h191 z" />
<glyph horiz-adv-x="428" d="M129 1012h268l-121 -1012h-270zM188 1341h234l-29 -225h-233z" />
<glyph horiz-adv-x="495" d="M-14 154l12 104h72l32 168h111l-35 -168h70l33 168h110l-35 -168h64l-12 -104h-66l-20 -115h69l-10 -105h-74l-33 -170h-108l33 170h-70l-31 -170h-110l30 170h-59l12 105h64l22 115h-71zM166 154l-21 -115h68l20 115h-67z" />
<glyph horiz-adv-x="475" d="M297 518l-10 -106q93 -37 110 -150l-108 -35q-10 43 -29 56l-29 -127q29 -16 48.5 -29.5t41.5 -34.5t33 -49t11 -61q0 -88 -55 -150t-134 -74l-26 -90h-91l11 94q-114 24 -129 160l116 39q5 -45 35 -65l29 135q-62 31 -99.5 71.5t-37.5 106.5q0 84 53 145t143 70l27 94 h90zM229 -70v7q0 25 -28 47l-13 -101q35 8 41 47zM127 256q0 -2 -1 -5t-1 -5q0 -23 27 -43l12 92q-34 -9 -37 -39z" />
<glyph horiz-adv-x="249" d="M-51 -229l18 170h156l-17 -138q-12 -92 -52.5 -146t-123.5 -60l4 86q35 5 51 23t23 65h-59z" />
<glyph horiz-adv-x="249" d="M-51 -236l18 177h156l-21 -177h-153z" />
<glyph horiz-adv-x="479" d="M-53 -236l61 523h146l2 -41q55 49 118 49q56 0 84.5 -37t28.5 -98q0 -26 -4 -58l-41 -338h-158l39 314q4 35 4 51q0 18 -5.5 25.5t-20.5 7.5q-29 0 -54 -31l-43 -367h-157z" />
<glyph horiz-adv-x="425" d="M379 260l-119 -37q-3 72 -49 72q-30 0 -46.5 -21t-23.5 -79l-28 -213q-4 -32 -4 -43q0 -35 12 -49.5t37 -14.5q23 0 39 18.5t30 59.5l111 -35q-46 -128 -152 -156l-26 -94h-90l8 94q-62 13 -92.5 59.5t-30.5 115.5q0 26 2 40l31 226q11 87 56 146t120 73l31 96h92 l-11 -104q88 -31 103 -154z" />
<glyph horiz-adv-x="520" d="M-12 51v111h49v37q0 105 62.5 172t164.5 67q80 0 125.5 -43.5t50.5 -115.5l-127 -46q-3 64 -53 64q-67 0 -67 -135h153l-24 -111h-129q0 -57 -5 -88q14 -9 29.5 -25.5t27.5 -25t27 -8.5q18 0 30 14.5t22 52.5l112 -32q-25 -95 -66 -140t-104 -45q-40 0 -67 20.5t-52 57.5 q-46 -78 -133 -78q-44 0 -70 23.5t-26 64.5q0 55 36 92.5t103 47.5l-10 69h-59zM41 -139q13 0 20 39q-12 -3 -20 -11.5t-8 -15.5q0 -12 8 -12z" />
<glyph horiz-adv-x="358" d="M-10 102q0 39 14 64l-35 39l49 55l39 -41q32 14 58 14q31 0 59 -14l43 45l51 -55l-41 -45q15 -34 15 -62q0 -31 -17 -65l39 -39l-51 -57l-39 41q-34 -15 -59 -15q-28 0 -58 15l-41 -43l-51 55l39 43q-14 25 -14 65zM78 100q0 -20 10.5 -31.5t28.5 -11.5q16 0 27.5 12 t11.5 31t-11.5 31t-27.5 12q-18 0 -28.5 -11.5t-10.5 -31.5z" />
<glyph horiz-adv-x="542" d="M356 -143h-86l-10 -93h-176l10 93h-84l13 102h83l5 29h-86l12 100h55l-112 338h194l43 -276l113 276h194l-194 -338h53l-10 -100h-86l-4 -29h86z" />
<glyph horiz-adv-x="497" d="M250 436q78 0 128 -46.5t56 -117.5l-133 -45q-6 60 -53 60q-58 0 -68 -76l-4 -21h176l-24 -79h-162l-2 -17h160l-23 -80h-147q-9 -64 -9 -69q0 -51 52 -51q46 0 69 67l125 -43q-57 -164 -227 -164q-92 0 -144.5 48t-52.5 132q0 21 8 80h-34l10 80h35l2 17h-35l10 79h35 l6 33q20 104 83 158.5t163 54.5z" />
<glyph horiz-adv-x="495" d="M129 1354l12 104h72l33 168h110l-34 -168h69l33 168h111l-35 -168h63l-12 -104h-66l-20 -115h70l-11 -104h-73l-33 -170h-109l33 170h-70l-30 -170h-111l31 170h-60l13 104h63l23 115h-72zM309 1354l-20 -115h67l21 115h-68z" />
<glyph horiz-adv-x="475" d="M440 1718l-10 -106q46 -18 74.5 -58t36.5 -92l-109 -35q-10 43 -29 56l-28 -127q40 -22 64.5 -40.5t46.5 -54t22 -79.5q0 -88 -55 -150t-134 -74l-26 -90h-90l10 93q-114 27 -129 161l117 39q5 -45 35 -65l28 135q-62 31 -99.5 71.5t-37.5 106.5q0 84 53.5 145t143.5 70 l26 94h90zM332 1083q18 3 29.5 18t11.5 36q0 24 -29 47zM307 1495q-39 -10 -39 -49q0 -23 27 -43z" />
<glyph horiz-adv-x="249" d="M92 971l19 170h155l-16 -137q-12 -93 -51.5 -147t-124.5 -60l4 86q35 5 51 23t23 65h-60z" />
<glyph horiz-adv-x="249" d="M92 965l19 176h155l-20 -176h-154z" />
<glyph horiz-adv-x="425" d="M522 1460l-119 -37q-3 72 -49 72q-30 0 -46 -21t-23 -79l-29 -213q-4 -32 -4 -43q0 -35 12 -49.5t37 -14.5q23 0 40 18.5t30 59.5l110 -35q-46 -127 -151 -155l-27 -95h-90l8 93q-62 13 -92.5 60t-30.5 116q0 27 2 41l31 225q11 87 56 146t120 73l31 96h92l-10 -104 q87 -30 102 -154z" />
<glyph horiz-adv-x="520" d="M131 1251v111h49v37q0 105 63 172t165 67q80 0 125.5 -43.5t50.5 -115.5l-127 -45q-1 34 -14.5 48.5t-39.5 14.5q-67 0 -67 -135h153l-24 -111h-129q0 -63 -4 -88q14 -9 29.5 -25.5t27.5 -25t27 -8.5q18 0 29.5 14.5t21.5 52.5l113 -32q-25 -95 -66 -140t-104 -45 q-40 0 -67 20.5t-52 57.5q-46 -78 -133 -78q-45 0 -71 23.5t-26 64.5q0 55 36.5 92.5t103.5 47.5l-11 69h-59zM184 1061q14 0 21 39q-12 -3 -20.5 -11.5t-8.5 -15.5q0 -12 8 -12z" />
<glyph horiz-adv-x="358" d="M133 1303q0 38 14 63l-34 39l49 55l39 -41q34 15 57 15q29 0 59 -15l43 45l52 -55l-41 -45q14 -32 14 -61q0 -34 -16 -66l39 -39l-52 -57l-39 41q-34 -15 -59 -15q-27 0 -57 15l-41 -43l-51 55l38 43q-14 25 -14 66zM221 1300q0 -20 10.5 -31.5t28.5 -11.5q16 0 27.5 12 t11.5 31t-11.5 31t-27.5 12q-18 0 -28.5 -11.5t-10.5 -31.5z" />
<glyph horiz-adv-x="542" d="M500 1057h-86l-11 -92h-176l11 92h-84l12 102h84l4 29h-86l12 100h56l-113 338h194l43 -276l113 276h195l-195 -338h53l-10 -100h-86l-4 -29h86z" />
<glyph horiz-adv-x="497" d="M393 1636q78 0 128.5 -46t56.5 -117l-134 -46q-6 60 -53 60q-57 0 -67 -76l-5 -20h177l-25 -80h-162l-2 -17h160l-23 -80h-147q-8 -57 -8 -69q0 -51 51 -51q47 0 70 67l125 -43q-57 -164 -228 -164q-92 0 -144 48.5t-52 132.5q0 20 8 79h-35l10 80h35l2 17h-35l10 80h35 l6 32q20 104 83 158.5t163 54.5z" />
<glyph horiz-adv-x="495" d="M113 1221l12 104h72l32 168h111l-35 -168h70l33 168h110l-35 -168h64l-12 -104h-66l-20 -115h69l-10 -105h-74l-33 -170h-108l33 170h-70l-31 -170h-110l30 170h-59l12 105h64l22 115h-71zM293 1221l-21 -115h68l20 115h-67z" />
<glyph horiz-adv-x="475" d="M424 1585l-10 -106q93 -37 110 -150l-108 -35q-10 43 -29 56l-29 -127q29 -16 48.5 -29.5t41.5 -34.5t33 -49t11 -61q0 -88 -55 -150t-134 -74l-27 -90h-90l11 92q-114 27 -129 162l116 39q5 -45 35 -65l29 135q-62 31 -99.5 71.5t-37.5 106.5q0 84 53 145t143 70l27 94 h90zM356 997v7q0 25 -28 47l-13 -101q35 8 41 47zM254 1323q0 -2 -1 -5t-1 -5q0 -23 27 -43l12 92q-34 -9 -37 -39z" />
<glyph horiz-adv-x="262" d="M86 979l43 338q18 139 71.5 203.5t157.5 64.5h27l-14 -108h-25q-71 0 -90 -160l-43 -338q-4 -46 -4 -61q0 -101 55 -101h25l-13 -104h-24q-90 0 -131 45t-41 141q0 37 6 80z" />
<glyph horiz-adv-x="262" d="M305 1305l-41 -326q-18 -140 -70 -203t-159 -63h-23l13 104h22q71 0 90 162l41 324q6 47 6 77q0 97 -55 97h-25l13 108h26q89 0 128.5 -45.5t39.5 -142.5q0 -49 -6 -92z" />
<glyph horiz-adv-x="395" d="M186 948l17 137h-111l12 113h111l16 137h109l-16 -137h108l-12 -113h-109l-16 -137h-109z" />
<glyph horiz-adv-x="249" d="M76 838l18 170h156l-17 -138q-12 -93 -51.5 -146.5t-124.5 -59.5l4 86q35 5 51 23t23 65h-59z" />
<glyph horiz-adv-x="249" d="M76 831l18 177h156l-21 -177h-153z" />
<glyph d="M516 1266l-31 -215q-15 -107 -74 -167.5t-155 -60.5q-88 0 -133 48.5t-45 136.5q0 29 2 43l31 215q15 107 72.5 167t154.5 60q87 0 133.5 -49.5t46.5 -136.5q0 -27 -2 -41zM264 1262l-28 -211q-5 -40 -5 -43q0 -28 10 -39t31 -11q26 0 38.5 19t19.5 74l28 211q2 14 2 36 q0 27 -8.5 37.5t-29.5 10.5q-27 0 -39.5 -17t-18.5 -67z" />
<glyph horiz-adv-x="385" d="M289 1489h133l-80 -658h-168l53 424h-114l14 115h45q52 0 74.5 23t42.5 96z" />
<glyph d="M342 1493q87 0 130.5 -44t43.5 -112q0 -58 -23.5 -107.5t-60 -83.5t-73.5 -62.5t-71 -60t-46 -60.5h221l-14 -132h-390l4 66q10 62 44 117t74 94t79.5 74t65.5 71t26 70q0 33 -39 33q-26 0 -48.5 -22.5t-35.5 -67.5l-120 41q70 186 233 186z" />
<glyph d="M213 1102l14 121h47q70 0 70 90q0 45 -39 45q-28 0 -45.5 -15t-34.5 -57l-114 41q29 77 86.5 121.5t138.5 44.5q87 0 130.5 -43t43.5 -111q0 -57 -26 -102.5t-68 -67.5q65 -23 65 -108q0 -119 -65 -178.5t-168 -59.5q-84 0 -128.5 38.5t-53.5 121.5l120 41 q6 -37 21.5 -53.5t44.5 -16.5q27 0 45 25.5t18 73.5q0 27 -12 38t-39 11h-51z" />
<glyph d="M432 831h-141l12 113h-250l15 109l286 432h158l-51 -414h51l-23 -127h-45zM221 1071h101l36 234z" />
<glyph d="M203 1100l-97 47l64 338h346l-27 -139h-208l-19 -109q40 16 80 16q141 0 141 -155q0 -137 -62 -206t-177 -69q-79 0 -125.5 40t-52.5 120l122 41q12 -68 62 -68q32 0 49.5 26.5t17.5 92.5q0 45 -53 45q-31 0 -61 -20z" />
<glyph d="M348 1493q71 0 115 -40t53 -118l-117 -45q-8 68 -57 68q-72 0 -82 -86l-6 -51q45 28 100 28q138 0 138 -143q0 -142 -64 -212.5t-172 -70.5q-89 0 -133.5 47.5t-44.5 135.5q0 15 4 47l29 202q14 105 78.5 171.5t158.5 66.5zM297 1122q-25 0 -41.5 -11.5t-19.5 -29.5 q-9 -64 -9 -69q0 -51 49 -51q64 0 64 118q0 23 -10 33t-33 10z" />
<glyph horiz-adv-x="434" d="M254 831h-174l260 510h-227l18 144h391l-14 -127z" />
<glyph d="M256 823q-186 0 -186 162q0 146 98 189q-47 28 -47 100q0 100 53 159.5t164 59.5q172 0 172 -145q0 -60 -22 -106t-60 -68q61 -30 61 -113q0 -122 -64.5 -180t-168.5 -58zM272 952q36 0 50 24t14 85q0 25 -10.5 34t-34.5 9q-35 0 -49.5 -20.5t-14.5 -82.5q0 -29 10 -39 t35 -10zM324 1366q-30 0 -44 -20.5t-14 -83.5q0 -25 8.5 -33t30.5 -8q29 0 44.5 21t15.5 83q0 25 -9 33t-32 8z" />
<glyph d="M72 977l110 51q9 -40 25 -56t45 -16q37 0 54.5 20.5t23.5 65.5l8 66q-42 -25 -92 -25q-64 0 -104 37t-40 115q0 125 64.5 191.5t169.5 66.5q88 0 132 -47.5t44 -126.5q0 -29 -2 -43l-31 -229q-14 -106 -74 -165t-159 -59q-153 0 -174 154zM295 1206q21 0 38.5 10t20.5 27 q11 69 11 78q0 23 -11 32t-35 9q-33 0 -49 -22.5t-16 -88.5q0 -27 9 -36t32 -9z" />
<glyph horiz-adv-x="395" d="M401 1159h-284l12 111h285zM383 997h-285l13 111h284z" />
<glyph horiz-adv-x="479" d="M74 831l61 523h146l2 -41q55 49 118 49q56 0 84.5 -37t28.5 -98q0 -26 -4 -58l-41 -338h-158l39 314q4 35 4 51q0 18 -5.5 25.5t-20.5 7.5q-29 0 -54 -31l-43 -367h-157z" />
<glyph horiz-adv-x="425" d="M506 1327l-119 -37q-3 72 -49 72q-30 0 -46.5 -21t-23.5 -79l-28 -213q-4 -32 -4 -43q0 -35 12 -49.5t37 -14.5q23 0 39 18.5t30 59.5l111 -35q-46 -128 -152 -156l-26 -94h-90l8 92q-62 13 -92.5 60.5t-30.5 116.5q0 26 2 40l31 226q11 87 56 146t120 73l31 96h92 l-11 -104q88 -31 103 -154z" />
<glyph horiz-adv-x="520" d="M115 1118v111h49v37q0 105 62.5 172t164.5 67q80 0 125.5 -43.5t50.5 -115.5l-127 -46q-3 64 -53 64q-68 0 -68 -135h154l-24 -111h-130q0 -63 -4 -88q14 -9 29.5 -25.5t27.5 -25t27 -8.5q18 0 30 14.5t22 52.5l112 -32q-25 -95 -66 -140t-104 -45q-40 0 -67 20.5 t-52 57.5q-46 -78 -133 -78q-44 0 -70 23.5t-26 64.5q0 55 36 92.5t103 47.5l-10 69h-59zM168 928q13 0 20 39q-12 -3 -20 -11.5t-8 -15.5q0 -12 8 -12z" />
<glyph horiz-adv-x="358" d="M117 1169q0 39 14 64l-35 39l49 55l39 -41q32 14 58 14q31 0 59 -14l43 45l51 -55l-41 -45q15 -34 15 -62q0 -31 -17 -65l39 -39l-51 -57l-39 41q-34 -15 -59 -15q-28 0 -58 15l-41 -43l-51 55l39 43q-14 25 -14 65zM205 1167q0 -20 10.5 -31.5t28.5 -11.5q16 0 27.5 12 t11.5 31t-11.5 31t-27.5 12q-18 0 -28.5 -11.5t-10.5 -31.5z" />
<glyph horiz-adv-x="542" d="M483 924h-86l-10 -93h-176l10 93h-84l13 102h83l5 29h-86l12 100h55l-113 338h195l43 -276l113 276h194l-194 -338h53l-10 -100h-86l-4 -29h86z" />
<glyph horiz-adv-x="497" d="M377 1503q78 0 128 -46.5t56 -117.5l-133 -45q-6 60 -53 60q-58 0 -68 -76l-4 -21h176l-24 -79h-162l-2 -17h160l-23 -80h-147q-9 -64 -9 -69q0 -51 52 -51q46 0 69 67l125 -43q-57 -164 -227 -164q-92 0 -144.5 48t-52.5 132q0 21 8 80h-34l10 80h35l2 17h-35l10 79h35 l6 33q20 104 83 158.5t163 54.5z" />
<glyph horiz-adv-x="495" d="M12 389l13 105h71l33 168h111l-35 -168h69l33 168h111l-35 -168h63l-12 -105h-65l-21 -115h70l-10 -104h-74l-33 -170h-108l32 170h-69l-31 -170h-111l31 170h-59l12 104h63l23 115h-72zM193 389l-21 -115h68l20 115h-67z" />
<glyph horiz-adv-x="475" d="M324 754l-11 -107q95 -38 111 -149l-109 -35q-10 42 -28 55l-29 -127q40 -22 64.5 -40.5t46.5 -54t22 -79.5q0 -88 -54.5 -149.5t-133.5 -73.5l-27 -90h-90l10 94q-114 24 -129 160l117 39q6 -46 35 -66l28 135q-62 31 -99.5 71.5t-37.5 106.5q0 84 53.5 145t143.5 70 l26 95h91zM256 166v6q0 24 -29 47l-12 -100q35 8 41 47zM154 492q0 -2 -1 -5.5t-1 -5.5q0 -23 26 -43l12 92q-33 -9 -36 -38z" />
<glyph horiz-adv-x="262" d="M-14 147l43 338q18 139 71.5 204t157.5 65h27l-15 -109h-24q-71 0 -90 -160l-43 -338q-4 -46 -4 -61q0 -100 55 -100h24l-12 -105h-24q-90 0 -131 45.5t-41 141.5q0 35 6 79z" />
<glyph horiz-adv-x="262" d="M205 473l-41 -326q-18 -139 -70.5 -202.5t-159.5 -63.5h-22l12 105h23q71 0 90 161l41 324q6 47 6 78q0 96 -55 96h-25l12 109h27q89 0 128.5 -46t39.5 -143q0 -49 -6 -92z" />
<glyph horiz-adv-x="395" d="M86 117l16 137h-110l12 113h111l16 137h109l-17 -137h109l-13 -113h-108l-16 -137h-109z" />
<glyph horiz-adv-x="249" d="M-25 6l19 170h156l-17 -137q-12 -93 -51.5 -147t-124.5 -60l4 86q35 5 51 23t23 65h-60z" />
<glyph horiz-adv-x="249" d="M-25 0l19 176h156l-21 -176h-154z" />
<glyph d="M416 434l-31 -215q-15 -107 -74 -167t-155 -60q-88 0 -133.5 48t-45.5 136q0 22 3 43l30 215q15 107 73 167.5t155 60.5q87 0 133.5 -50t46.5 -137q0 -27 -2 -41zM164 430l-29 -211q-4 -32 -4 -43q0 -28 10 -38.5t31 -10.5q26 0 38 18.5t19 73.5l29 211q2 14 2 37 q0 27 -9 37t-30 10q-27 0 -39 -17t-18 -67z" />
<glyph horiz-adv-x="385" d="M188 657h134l-80 -657h-168l53 424h-115l15 115h45q52 0 74 22.5t42 95.5z" />
<glyph d="M242 662q87 0 130.5 -44t43.5 -112q0 -58 -23.5 -107.5t-60 -84t-74 -63t-71.5 -60t-46 -60.5h221l-14 -131h-389l4 66q10 62 44 117t74 94t79.5 74t65.5 71t26 70q0 32 -39 32q-26 0 -48.5 -22.5t-35.5 -67.5l-121 41q33 87 91.5 137t142.5 50z" />
<glyph d="M113 270l14 121h47q70 0 70 90q0 45 -39 45q-29 0 -46 -14.5t-34 -56.5l-115 41q29 77 87 121.5t139 44.5q87 0 130.5 -43t43.5 -111q0 -57 -26 -102.5t-69 -67.5q66 -23 66 -109q0 -118 -65.5 -177.5t-168.5 -59.5q-84 0 -128.5 38.5t-53.5 121.5l121 41 q6 -37 21.5 -53.5t44.5 -16.5q27 0 45 25t18 73q0 27 -12 38t-39 11h-51z" />
<glyph d="M332 0h-142l13 113h-250l14 108l287 432h158l-52 -413h52l-23 -127h-45zM121 240h100l37 233z" />
<glyph d="M102 268l-96 47l64 338h346l-27 -139h-209l-18 -108q40 16 80 16q141 0 141 -156q0 -137 -62.5 -205.5t-177.5 -68.5q-79 0 -125.5 40t-52.5 120l123 41q12 -68 62 -68q32 0 49.5 26.5t17.5 92.5q0 45 -53 45q-30 0 -62 -21z" />
<glyph d="M248 662q71 0 115 -40t53 -118l-117 -45q-4 36 -18 51.5t-39 15.5q-72 0 -82 -86l-6 -51q47 29 100 29q137 0 137 -144q0 -142 -63.5 -212t-171.5 -70q-89 0 -134 47t-45 135q0 7 5 47l28 203q14 104 79 171t159 67zM197 291q-26 0 -42.5 -11.5t-19.5 -29.5 q-8 -57 -8 -70q0 -51 49 -51q64 0 64 119q0 23 -10 33t-33 10z" />
<glyph horiz-adv-x="434" d="M154 0h-174l260 510h-228l19 143h391l-14 -127z" />
<glyph d="M156 -8q-187 0 -187 162q0 144 99 188q-48 29 -48 100q0 100 53.5 160t164.5 60q172 0 172 -146q0 -60 -22 -106t-60 -68q61 -30 61 -113q0 -122 -64 -179.5t-169 -57.5zM172 121q36 0 50 23.5t14 84.5q0 25 -10.5 34t-35.5 9q-35 0 -49 -19.5t-14 -82.5q0 -29 10 -39 t35 -10zM223 535q-29 0 -43 -21t-14 -84q0 -25 8.5 -33t30.5 -8q29 0 44 21.5t15 83.5q0 25 -9 33t-32 8z" />
<glyph d="M-29 145l111 52q9 -40 25 -56t45 -16q37 0 54 20.5t23 65.5l9 65q-40 -24 -93 -24q-64 0 -103.5 36.5t-39.5 114.5q0 125 64.5 192t169.5 67q88 0 132 -48t44 -127q0 -29 -2 -43l-31 -229q-14 -105 -74.5 -164t-159.5 -59q-153 0 -174 153zM195 375q21 0 38.5 10t20.5 27 q10 63 10 77q0 23 -10.5 32t-34.5 9q-33 0 -49 -22.5t-16 -87.5q0 -27 9 -36t32 -9z" />
<glyph horiz-adv-x="395" d="M301 328h-285l13 110h284zM283 166h-285l12 110h285z" />
<glyph horiz-adv-x="479" d="M-27 0l62 522h145l2 -41q55 49 119 49q56 0 84.5 -37t28.5 -98q0 -25 -4 -57l-41 -338h-158l39 313q4 35 4 52t-6 24.5t-21 7.5q-29 0 -53 -30l-43 -367h-158z" />
<glyph horiz-adv-x="425" d="M406 496l-119 -37q-1 39 -13.5 55t-35.5 16q-30 0 -46.5 -21t-23.5 -79l-29 -213q-4 -32 -4 -43q0 -35 12 -49t37 -14q45 0 70 77l111 -34q-46 -128 -152 -156l-27 -94h-90l8 94q-122 26 -122 174q0 27 2 41l30 225q11 87 56 146t120 73l31 97h92l-10 -105 q88 -31 103 -153z" />
<glyph horiz-adv-x="520" d="M14 287v110h49v37q0 105 63 172.5t165 67.5q80 0 125.5 -43.5t50.5 -116.5l-127 -45q-1 34 -14 48.5t-39 14.5q-68 0 -68 -135h154l-25 -110h-129q0 -63 -4 -88q14 -9 29.5 -25.5t27.5 -25.5t27 -9q18 0 29.5 14.5t21.5 53.5l113 -33q-25 -95 -66 -139.5t-104 -44.5 q-40 0 -67 20.5t-52 57.5q-46 -78 -133 -78q-44 0 -70 23.5t-26 64.5q0 55 36 92t103 47l-10 70h-60zM68 96q13 0 20 39q-13 -3 -21 -11t-8 -15q0 -13 9 -13z" />
<glyph horiz-adv-x="358" d="M16 338q0 36 15 63l-35 39l49 56l39 -41q31 14 57 14q32 0 60 -14l43 45l51 -56l-41 -45q14 -31 14 -61q0 -34 -16 -66l39 -39l-51 -57l-39 41q-31 -14 -60 -14t-57 14l-41 -43l-51 55l39 43q-15 27 -15 66zM104 336q0 -20 10.5 -31.5t28.5 -11.5q16 0 27.5 12t11.5 31 t-11.5 31t-27.5 12q-18 0 -28.5 -11.5t-10.5 -31.5z" />
<glyph horiz-adv-x="542" d="M383 92h-86l-10 -92h-176l10 92h-84l12 103h84l4 28h-86l12 101h56l-113 338h195l43 -277l112 277h195l-195 -338h54l-11 -101h-86l-4 -28h86z" />
<glyph horiz-adv-x="497" d="M276 672q78 0 128.5 -46.5t56.5 -117.5l-133 -45q-6 59 -54 59q-57 0 -67 -76l-4 -20h176l-25 -80h-161l-3 -16h160l-22 -80h-148q-8 -57 -8 -70q0 -51 51 -51q47 0 70 68l125 -43q-57 -164 -228 -164q-92 0 -144 48t-52 132q0 21 8 80h-35l10 80h35l2 16h-34l10 80h35 l6 33q20 104 82.5 158.5t162.5 54.5z" />
<glyph horiz-adv-x="55" />
<glyph horiz-adv-x="804" d="M59 750l21 188h125l59 324h191l-62 -324h113l63 324h193l-64 -324h105l-21 -188h-108l-43 -230h121l-21 -190h-127l-61 -330h-193l64 330h-115l-61 -330h-191l62 330h-101l21 190h108l39 230h-117zM367 750l-39 -230h110l43 230h-114z" />
<glyph horiz-adv-x="804" d="M92 868q0 140 81 250.5t220 147.5l66 227h159l-20 -238q167 -61 186 -292l-194 -50q-11 78 -41 106t-88 28q-86 0 -86 -117q0 -33 19 -64t50 -57.5t68 -54.5t74 -61t68 -70.5t50 -89t19 -111.5q0 -158 -84 -272.5t-213 -149.5l-64 -256h-161l22 252q-99 20 -150.5 93.5 t-58.5 211.5l205 55q5 -153 141 -153q39 0 66 39t27 100q0 35 -20 67.5t-51.5 59.5t-70.5 55t-77.5 61.5t-70 72t-51.5 92.5t-20 118z" />
<glyph horiz-adv-x="804" d="M301 176v309h-209v217h209v312h203v-312h211v-217h-211v-309h-203z" />
<glyph horiz-adv-x="813" d="M795 782l-52 -376q-28 -208 -132 -317t-283 -109q-157 0 -236.5 85t-79.5 248q0 45 6 95l52 372q60 426 409 426q159 0 240.5 -85t81.5 -247q0 -42 -6 -92zM336 782l-51 -387q-6 -53 -6 -88q0 -58 17.5 -80t57.5 -22q51 0 76.5 39t40.5 151l51 389q6 56 6 90 q0 59 -17.5 81t-57.5 22q-52 0 -77.5 -39.5t-39.5 -155.5z" />
<glyph horiz-adv-x="616" d="M279 760h-224l25 213h96q100 0 145 54t76 187h226l-148 -1214h-293z" />
<glyph horiz-adv-x="759" d="M475 1214q141 0 210 -74.5t69 -201.5q0 -62 -23 -130.5t-57.5 -130t-96 -141.5t-115.5 -143t-140 -157h346l-25 -236h-674l13 156q499 556 499 747q0 36 -15 52t-48 16q-39 0 -78 -33.5t-68 -101.5l-196 69q70 153 166 231t233 78z" />
<glyph horiz-adv-x="757" d="M739 938q0 -52 -8 -100.5t-26 -97t-51 -89t-79 -65.5q121 -48 121 -199q0 -272 -178 -419.5t-520 -147.5l4 239q420 3 420 310q0 55 -29.5 74.5t-101.5 19.5h-62l27 225h53q80 0 119 47t39 162q0 40 -15.5 57t-48.5 17q-83 0 -145 -135l-199 69q140 309 404 309 q140 0 208 -73.5t68 -202.5z" />
<glyph horiz-adv-x="788" d="M590 -176h-258l55 446h-418l23 209l491 717h273l-86 -702h104l-41 -224h-90zM258 494h164l67 376z" />
<glyph horiz-adv-x="751" d="M715 936h-375l-37 -229q68 24 150 24q243 0 243 -262q0 -316 -179.5 -479.5t-516.5 -169.5l6 239q212 2 314 80.5t102 259.5q0 53 -24.5 75t-78.5 22q-59 0 -131 -35l-161 74l118 661h617z" />
<glyph horiz-adv-x="786" d="M727 1157q-158 0 -248 -80t-129 -268q63 29 127 29q262 0 262 -293q0 -29 -8 -107q-57 -458 -418 -458q-147 0 -217.5 88t-70.5 247q0 51 6 107l37 289q42 329 220 508.5t447 179.5zM403 596q-50 0 -88 -33l-16 -133q-8 -57 -8 -102q0 -58 15.5 -81.5t49.5 -23.5 q43 0 68 41t41 158q6 49 6 80q0 53 -16 73.5t-52 20.5z" />
<glyph horiz-adv-x="735" d="M268 -164h-284l503 1100h-430l29 260h707l-25 -231z" />
<glyph horiz-adv-x="792" d="M319 -20q-157 0 -237 64t-80 216q0 276 180 361q-90 60 -90 200q0 84 20.5 152.5t64 124t118.5 86t176 30.5q156 0 228.5 -69t72.5 -189q0 -116 -42.5 -204.5t-115.5 -130.5q113 -58 113 -213q0 -193 -104.5 -310.5t-303.5 -117.5zM346 215q34 0 58 20.5t35.5 55 t16.5 67.5t5 68q0 44 -19 63t-57 19q-55 0 -83 -44.5t-28 -158.5q0 -50 17 -70t55 -20zM444 987q-100 0 -100 -199q0 -45 15 -63t49 -18q104 0 104 198q0 44 -16.5 63t-51.5 19z" />
<glyph horiz-adv-x="786" d="M37 59q90 0 155 18.5t115.5 62.5t83.5 118.5t53 185.5q-58 -24 -122 -24q-124 0 -196.5 69t-72.5 220q0 249 113 377t307 128q147 0 218 -87.5t71 -243.5q0 -49 -6 -101l-35 -266q-44 -340 -224 -518t-462 -178zM389 649q50 0 88 41l10 84q9 92 9 98q0 55 -15.5 77 t-50.5 22q-108 0 -108 -228q0 -53 16.5 -73.5t50.5 -20.5z" />
<glyph horiz-adv-x="804" d="M684 766l-254 -180l254 -180v-293l-594 460v25l594 459v-291z" />
<glyph horiz-adv-x="804" d="M686 645h-567v217h567v-217zM686 319h-567v218h567v-218z" />
<glyph horiz-adv-x="804" d="M121 1057l594 -459v-25l-594 -460v293l252 180l-252 180v291z" />
<glyph horiz-adv-x="804" d="M780 973l-223 -66q-4 77 -25.5 109.5t-62.5 32.5q-54 0 -80 -41t-39 -148l-63 -475q-4 -27 -4 -72q0 -63 20 -86.5t62 -23.5t69 30.5t51 114.5l209 -63q-78 -244 -266 -291l-63 -250h-160l20 246q-106 22 -156.5 97t-50.5 208q0 63 7 108l61 445q50 368 311 418l64 227 h162l-21 -242q157 -61 178 -278z" />
<glyph horiz-adv-x="804" d="M766 975l-201 -64q-1 75 -18.5 105.5t-52.5 30.5q-50 0 -76 -70.5t-33 -237.5h238l-37 -176h-201q0 -119 -12 -217q23 -17 44 -45.5t35.5 -45.5t28.5 -17q28 0 45.5 29t34.5 110l187 -47q-40 -189 -105 -268.5t-162 -79.5q-34 0 -61.5 11.5t-48 34.5t-33 44t-27.5 53 q-74 -143 -205 -143q-143 0 -143 147q0 90 53.5 158.5t149.5 89.5q0 11 -21 186h-63v176h49q0 5 -1 17t-1 18q0 227 99.5 365.5t271.5 138.5q125 0 193 -82t73 -221zM135 154q24 0 37 79q-49 -20 -49 -65q0 -14 12 -14z" />
<glyph horiz-adv-x="628" d="M80 653q0 70 26 121l-67 76l92 104l72 -77q51 28 108 28q56 0 113 -31l78 87l92 -103l-76 -84q29 -60 29 -121q0 -65 -29 -121l72 -75l-92 -105l-74 80q-51 -31 -113 -31q-58 0 -108 29l-76 -84l-92 103l74 81q-29 56 -29 123zM233 653q0 -41 23.5 -65.5t58.5 -24.5 t58.5 24.5t23.5 65.5t-23.5 65.5t-58.5 24.5t-58.5 -24.5t-23.5 -65.5z" />
<glyph horiz-adv-x="804" d="M641 219h-152l-24 -219h-270l26 219h-149l18 170h152l6 64h-150l21 172h100l-147 632h288l58 -540l186 540h291l-307 -632h100l-18 -172h-154l-6 -64h152z" />
<glyph horiz-adv-x="804" d="M512 229v256h-420v217h623v-473h-203z" />
<glyph horiz-adv-x="804" d="M301 279v245h-209v217h209v273h201v-273h213v-217h-213v-245h-201zM715 27h-623v217h623v-217z" />
<glyph horiz-adv-x="804" d="M549 260l-180 195l-179 -195l-139 150l180 196l-178 195l137 151l179 -194l180 196l137 -153l-178 -195l180 -196z" />
<glyph horiz-adv-x="804" d="M713 487h-623v218h623v-218zM270 907q0 59 37 100.5t92 41.5q53 0 91 -42t38 -100t-38 -97.5t-91 -39.5q-55 0 -92 39t-37 98zM270 293q0 58 37 98.5t92 40.5q53 0 91 -41t38 -98q0 -58 -38 -98.5t-91 -40.5q-55 0 -92 40t-37 99z" />
<glyph horiz-adv-x="804" d="M795 971l-226 -62q-4 78 -22.5 108t-57.5 30q-49 0 -72.5 -39t-35.5 -140l-6 -47h209l-35 -153h-197l-4 -41h189l-39 -150h-170l-11 -84q-6 -55 -6 -90q0 -59 17.5 -79.5t54.5 -20.5q40 0 66.5 30t48.5 113l215 -61q-102 -305 -369 -305q-154 0 -225.5 80.5t-71.5 240.5 q0 51 6 109l8 67h-49l17 150h53l4 41h-51l18 153h53l7 35q73 418 389 418q126 0 205 -78t88 -225z" />
<glyph horiz-adv-x="819" d="M76 809l20 188h125l64 344h180l-62 -344h113l64 344h180l-64 -344h103l-21 -188h-108l-45 -266h118l-20 -187h-125l-63 -356h-183l64 356h-115l-63 -356h-181l64 356h-101l21 187h106l46 266h-117zM373 809l-45 -266h114l45 266h-114z" />
<glyph horiz-adv-x="819" d="M629 1511l-17 -174q81 -34 127.5 -114t55.5 -193l-183 -55q-9 98 -49 133l-61 -315q48 -38 78.5 -68t66 -76t53 -102.5t17.5 -122.5q0 -172 -89.5 -289.5t-226.5 -144.5l-45 -174h-149l16 180q-191 53 -200 323l194 58q6 -105 57 -141l64 327q-42 33 -65.5 53t-58.5 58 t-53.5 72.5t-33 85t-14.5 106.5q0 160 86.5 277.5t236.5 140.5l43 155h150zM422 219q34 11 54 45.5t20 83.5q0 61 -45 115zM412 1126q-72 -24 -72 -116q0 -60 47 -113z" />
<glyph horiz-adv-x="870" d="M334 188v332h-228v215h228v334h201v-334h229v-215h-229v-332h-201z" />
<glyph horiz-adv-x="819" d="M803 928l-70 -516q-28 -206 -130 -318t-273 -112q-152 0 -228.5 86t-76.5 247q0 47 6 97l69 516q28 208 128.5 320t271.5 112q152 0 230.5 -88.5t78.5 -253.5q0 -44 -6 -90zM360 928l-69 -516q-6 -52 -6 -86q0 -57 16.5 -78t56.5 -21q49 0 73.5 38t39.5 147l70 516 q6 50 6 82q0 56 -17.5 77t-56.5 21q-52 0 -76 -36.5t-37 -143.5z" />
<glyph horiz-adv-x="819" d="M84 0l20 182h156l86 688h-231l24 220h107q98 0 141.5 48t81.5 203h225l-141 -1159h143l-18 -182h-594z" />
<glyph horiz-adv-x="819" d="M524 1360q148 0 221.5 -80.5t73.5 -212.5q0 -87 -20.5 -163t-56 -134t-78.5 -110t-92.5 -101t-94 -96t-86 -105.5t-65.5 -119.5h385l-25 -238h-676l6 123q15 90 52 175t85 152t102.5 130t106.5 119t94 108.5t67.5 109t25.5 111.5q0 84 -76 84q-96 0 -147 -188l-205 63 q52 173 153.5 273t249.5 100z" />
<glyph horiz-adv-x="819" d="M276 571l25 224h84q137 0 137 227q0 50 -17 71t-52 21q-49 0 -82.5 -35t-61.5 -125l-198 64q48 162 148.5 252t242.5 90q149 0 222 -81t73 -214q0 -134 -48 -231.5t-131 -137.5q123 -48 123 -219q0 -35 -6 -78q-27 -215 -135 -316t-276 -101q-147 0 -224 78.5t-84 246.5 l207 64q11 -150 111 -150q54 0 91.5 62t37.5 186q0 56 -24 79t-72 23h-91z" />
<glyph horiz-adv-x="819" d="M637 0h-242l29 238h-442l20 186l530 917h269l-109 -876h92l-41 -227h-77zM264 465h191l77 522z" />
<glyph horiz-adv-x="819" d="M256 575l-162 70l121 696h602l-47 -258h-367l-41 -252q72 35 152 35q240 0 240 -295q0 -35 -9 -114q-30 -249 -132.5 -362t-290.5 -113q-138 0 -217 80.5t-82 246.5l217 62q1 -76 27.5 -113t68.5 -37q60 0 87 49t46 185q4 40 4 57q0 60 -23.5 85.5t-74.5 25.5 q-68 0 -119 -48z" />
<glyph horiz-adv-x="819" d="M516 1360q130 0 204 -82t83 -248l-203 -67q-4 83 -28 116t-70 33q-61 0 -92.5 -42t-42.5 -128l-19 -137q73 49 168 49q238 0 238 -283q0 -42 -13 -135q-34 -237 -135.5 -345.5t-271.5 -108.5q-153 0 -229 87t-76 242q0 43 6 90l69 508q27 198 139 324.5t273 126.5z M422 612q-98 0 -107 -67l-22 -172q-4 -32 -4 -45q0 -97 78 -97q46 0 71 46t43 176q6 46 6 75q0 46 -15 65t-50 19z" />
<glyph horiz-adv-x="819" d="M338 0h-287l490 1083h-416l29 258h696l-25 -225z" />
<glyph horiz-adv-x="819" d="M332 -18q-156 0 -236 71t-80 238q0 156 47 263.5t136 154.5q-82 56 -82 200q0 101 22 181.5t67 142t120 94.5t176 33q299 0 299 -283q0 -133 -42 -230.5t-112 -139.5q103 -63 103 -228q0 -42 -5 -76q-31 -232 -132 -326.5t-281 -94.5zM481 414q6 47 6 78q0 53 -18.5 72.5 t-60.5 19.5q-55 0 -79.5 -34t-37.5 -136q-8 -49 -8 -95q0 -57 18 -78.5t57 -21.5q50 0 78.5 39.5t44.5 155.5zM477 1126q-49 0 -73 -31.5t-35 -123.5q-9 -55 -9 -90q0 -49 17 -65.5t55 -16.5q53 0 75.5 31.5t35.5 140.5q6 43 6 73q0 48 -17 65t-55 17z" />
<glyph horiz-adv-x="819" d="M217 385q10 -90 36.5 -125t78.5 -35q60 0 90.5 38t42.5 126l22 172q-64 -43 -149 -43q-119 0 -185.5 70.5t-66.5 222.5q0 274 114 411.5t306 137.5q149 0 225 -87.5t76 -230.5q0 -36 -6 -77l-74 -562q-26 -200 -131.5 -309.5t-273.5 -109.5q-276 0 -297 315zM418 748 q40 0 69 20.5t35 67.5l19 139q4 46 4 55q0 46 -17.5 64t-56.5 18q-121 0 -121 -274q0 -54 16.5 -72t51.5 -18z" />
<glyph horiz-adv-x="870" d="M729 842l-289 -205l289 -203v-291l-633 484v24l633 484v-293z" />
<glyph horiz-adv-x="870" d="M735 666h-600v217h600v-217zM735 340h-600v217h600v-217z" />
<glyph horiz-adv-x="870" d="M141 434l289 203l-289 205v293l633 -484v-24l-633 -484v291z" />
<glyph horiz-adv-x="819" d="M758 780l-205 -61q-4 61 -22.5 85.5t-51.5 24.5q-45 0 -69 -31.5t-37 -123.5l-41 -295q-4 -29 -4 -76q0 -59 16.5 -80.5t52.5 -21.5q35 0 60.5 29t46.5 100l194 -62q-78 -223 -247 -272l-56 -199h-155l16 197q-98 24 -147.5 103t-49.5 196q0 49 4 76l43 315 q21 150 93.5 250t195.5 127l64 233h155l-22 -243q72 -28 115.5 -97.5t50.5 -173.5z" />
<glyph horiz-adv-x="819" d="M57 590l2 198h88q0 7 -1 22.5t-1 23.5q0 240 104 384t292 144q134 0 205 -84t73 -236l-207 -63q-1 75 -22.5 106t-61.5 31q-61 0 -91 -78t-36 -250h271l-43 -198h-236q-3 -124 -12 -207q26 -17 48 -43.5t34.5 -47.5t29 -36.5t35.5 -15.5q31 0 51.5 33t41.5 126l192 -53 q-45 -194 -116.5 -279t-178.5 -85q-40 0 -71.5 13t-56 40.5t-39.5 50t-34 59.5q-79 -163 -229 -163q-74 0 -116 41t-42 118q0 101 64 174.5t176 94.5q-3 76 -12 180h-101zM129 172q30 0 41 86q-28 -8 -41.5 -29.5t-13.5 -40.5q0 -16 14 -16z" />
<glyph horiz-adv-x="819" d="M190 680q0 59 25 111l-61 67l88 98l63 -69q47 26 101 26q56 0 104 -28l70 78l88 -97l-70 -78q25 -52 25 -108q0 -57 -27 -113l66 -67l-87 -99l-67 72q-46 -27 -102 -27q-53 0 -101 25l-67 -76l-88 97l67 73q-27 53 -27 115zM334 680q0 -38 21.5 -60t52.5 -22 q32 0 52.5 21.5t20.5 60.5q0 37 -20.5 57.5t-52.5 20.5q-31 0 -52.5 -20.5t-21.5 -57.5z" />
<glyph horiz-adv-x="819" d="M647 213h-147l-25 -213h-282l24 213h-145l22 186h146l8 66h-146l21 186h98l-162 690h310l55 -579l203 579h309l-332 -690h94l-20 -186h-148l-8 -66h148z" />
<glyph horiz-adv-x="870" d="M561 262v258h-452v215h653v-473h-201z" />
<glyph horiz-adv-x="870" d="M334 299v258h-211v217h211v297h201v-297h213v-217h-213v-258h-201zM748 37h-625v217h625v-217z" />
<glyph horiz-adv-x="870" d="M639 248l-205 225l-203 -225l-139 151l205 226l-205 227l137 152l205 -228l205 228l137 -152l-205 -227l207 -226z" />
<glyph horiz-adv-x="870" d="M764 520h-658v215h658v-215zM297 948q0 62 39 106t96 44q55 0 95 -44t40 -106q0 -61 -39.5 -104t-95.5 -43q-57 0 -96 42.5t-39 104.5zM297 315q0 61 39.5 105.5t95.5 44.5q55 0 96 -45t41 -105q0 -62 -40.5 -104.5t-96.5 -42.5q-57 0 -96 42t-39 105z" />
<glyph horiz-adv-x="819" d="M563 1360q134 0 215 -90.5t84 -239.5l-221 -67q-3 127 -88 127q-46 0 -75 -37.5t-38 -106.5l-10 -80h285l-43 -155h-262l-7 -37h256l-38 -156h-238l-18 -149q-5 -40 -5 -43q0 -97 82 -97q41 0 69 34.5t50 113.5l213 -64q-45 -170 -140.5 -250.5t-244.5 -80.5t-232 85 t-83 236q0 41 6 82l18 133h-67l20 156h68l4 37h-68l19 155h71l11 78q26 194 135 305t272 111z" />
<glyph horiz-adv-x="370" d="M133 1198h248l-66 -510l-61 -307h-199l13 305zM-18 0l30 272h258l-30 -272h-258z" />
<glyph horiz-adv-x="899" d="M745 963l-204 -80q-24 123 -82 123q-62 0 -62 -91q0 -37 15 -75l157 -318q26 92 43 230h269l-23 -203h-94q-31 -141 -82 -248q58 -82 154 -92l-56 -223q-157 7 -243 104q-118 -108 -271 -108q-122 0 -198 71.5t-76 220.5q0 131 56 248.5t155 188.5q-45 88 -45 178 q0 61 19.5 117t57 102.5t100 74t142.5 27.5q116 0 179 -61.5t89 -185.5zM324 193q62 0 118 65l-137 260q-57 -98 -57 -219q0 -59 19 -82.5t57 -23.5z" />
<glyph horiz-adv-x="700" d="M434 1210q141 0 210 -70t69 -184q0 -135 -77 -267t-208 -212l-20 -106h-191l12 233q117 51 173.5 134.5t56.5 174.5q0 70 -66 70q-47 0 -81 -31t-60 -110l-201 57q53 145 150 228t233 83zM141 0l31 272h258l-31 -272h-258z" />
<glyph horiz-adv-x="452" d="M113 1485h274l33 -234h-184z" />
<glyph horiz-adv-x="837" d="M264 231l-63 -231h-273l404 1198h317l113 -1198h-277l-8 231h-213zM455 913l-131 -473h147z" />
<glyph horiz-adv-x="802" d="M770 938q0 -67 -13 -125.5t-50 -113t-95 -78.5q129 -48 129 -213q0 -192 -90.5 -300t-285.5 -108h-369l145 1198h328q155 0 228 -69t73 -191zM324 504l-37 -275h88q49 0 75.5 45t26.5 160q0 42 -13.5 56t-49.5 14h-90zM383 963l-35 -256h72q51 0 76.5 41t25.5 147 q0 39 -14.5 53.5t-50.5 14.5h-74z" />
<glyph horiz-adv-x="714" d="M455 1214q127 0 202 -81.5t80 -214.5l-209 -68q0 127 -71 127q-89 0 -107 -141l-67 -496q-2 -14 -2 -37q0 -92 73 -92q38 0 62.5 30t44.5 103l198 -65q-44 -151 -131.5 -224t-226.5 -73q-138 0 -216.5 77.5t-78.5 214.5q0 22 4 62l66 500q23 177 125 277.5t254 100.5z " />
<glyph horiz-adv-x="839" d="M823 803l-55 -406q-25 -186 -131.5 -291.5t-276.5 -105.5h-364l145 1198h363q155 0 239 -86t84 -240q0 -44 -4 -69zM496 406l55 385q6 44 6 71q0 55 -19 75.5t-59 20.5h-90l-94 -725h88q52 0 75 34.5t38 138.5z" />
<glyph horiz-adv-x="692" d="M141 1198h584l-25 -242h-309l-33 -235h222l-25 -211h-223l-37 -274h319l-24 -236h-594z" />
<glyph horiz-adv-x="690" d="M141 1198h590l-24 -246h-316l-33 -247h271l-27 -230h-272l-60 -475h-274z" />
<glyph horiz-adv-x="804" d="M489 1214q136 0 217 -76.5t87 -219.5l-218 -72q-14 112 -102 112q-58 0 -87.5 -36t-41.5 -121l-57 -418q-4 -40 -4 -53q0 -52 22 -76.5t68 -24.5q56 0 102 41l23 172h-82l20 185h318l-76 -627h-217l4 51q-85 -69 -189 -69q-124 0 -196 77.5t-72 231.5q0 41 6 88l58 426 q26 191 130 300t287 109z" />
<glyph horiz-adv-x="847" d="M141 1198h275l-58 -459h164l58 459h274l-145 -1198h-275l62 492h-164l-62 -492h-274z" />
<glyph horiz-adv-x="430" d="M152 1198h270l-146 -1198h-270z" />
<glyph horiz-adv-x="434" d="M166 1198h270l-123 -995q-25 -200 -137 -307t-305 -113v223q77 0 117 43t53 148z" />
<glyph horiz-adv-x="827" d="M764 0h-291l-108 461l-58 -92l-43 -369h-268l145 1198h267l-60 -491l248 491h297l-330 -522z" />
<glyph horiz-adv-x="651" d="M141 1198h265l-119 -950h295l-25 -248h-561z" />
<glyph horiz-adv-x="1099" d="M848 1198h254l-146 -1198h-243l71 586l-227 -422h-121l-123 420l-69 -584h-248l145 1198h258l140 -651z" />
<glyph horiz-adv-x="847" d="M141 1198h199l205 -557l69 557h240l-145 -1198h-187l-215 592l-74 -592h-237z" />
<glyph horiz-adv-x="813" d="M801 819l-62 -440q-27 -190 -130 -293.5t-279 -103.5q-158 0 -239 83.5t-81 237.5q0 49 4 76l60 440q25 189 128 292t279 103q158 0 241 -83.5t83 -237.5q0 -49 -4 -74zM469 379l61 440q5 57 5 60q0 52 -18.5 73t-59.5 21q-51 0 -75 -32.5t-36 -121.5l-61 -440 q-2 -15 -2.5 -38.5t-1.5 -29.5q0 -53 17 -73.5t58 -20.5q51 0 76 35t37 127z" />
<glyph horiz-adv-x="786" d="M504 1198q139 0 214 -83t75 -236q0 -224 -103.5 -353t-265.5 -129h-105l-49 -397h-274l145 1198h363zM391 963l-47 -351h80q37 0 57 39t33 140q8 82 8 96q0 43 -12 59.5t-39 16.5h-80z" />
<glyph horiz-adv-x="813" d="M801 819l-62 -440q-40 -282 -231 -365l123 -182l-238 -88l-106 240q-137 12 -207 94.5t-70 224.5q0 49 4 76l60 440q25 189 128 292t279 103q158 0 241 -83.5t83 -237.5q0 -24 -4 -74zM469 379l61 440q5 57 5 60q0 52 -18.5 73t-59.5 21q-51 0 -75 -32.5t-36 -121.5 l-61 -440q-2 -15 -2.5 -38.5t-1.5 -29.5q0 -53 17 -73.5t58 -20.5q51 0 76 35t37 127z" />
<glyph horiz-adv-x="794" d="M442 0l-71 459h-43l-58 -459h-274l145 1198h351q294 0 294 -278q0 -142 -47 -244t-125 -141l109 -535h-281zM389 965l-39 -295h66q102 0 102 219q0 44 -15.5 60t-51.5 16h-62z" />
<glyph horiz-adv-x="729" d="M438 1214q140 0 211.5 -72.5t89.5 -209.5l-202 -70q-11 129 -103 129q-36 0 -58 -24.5t-22 -77.5q0 -43 33 -84.5t80 -80.5t94 -84t80 -113t33 -150q0 -184 -106.5 -290.5t-272.5 -106.5q-129 0 -213.5 80.5t-87.5 222.5l219 57q11 -137 113 -137q80 0 80 106 q0 38 -18 73.5t-46.5 65t-63 59.5t-69 63.5t-63 71t-46.5 88t-18 108.5q0 158 98.5 267t257.5 109z" />
<glyph horiz-adv-x="692" d="M86 1198h664l-27 -246h-195l-118 -952h-271l119 952h-197z" />
<glyph horiz-adv-x="839" d="M586 1198h270l-102 -823q-23 -187 -130 -290t-278 -103q-156 0 -239.5 81t-83.5 232q0 33 6 86l102 817h272l-104 -836q-4 -36 -4 -47q0 -48 19.5 -67t60.5 -19q45 0 71 30t35 103z" />
<glyph horiz-adv-x="845" d="M922 1198l-428 -1198h-289l-139 1198h294l37 -813l234 813h291z" />
<glyph horiz-adv-x="1286" d="M1354 1198l-373 -1198h-295l-31 678l-198 -678h-295l-84 1198h270l19 -797l223 797h254l28 -801l211 801h271z" />
<glyph horiz-adv-x="817" d="M-72 0l308 608l-154 590h287l61 -405l162 405h287l-293 -592l157 -606h-288l-68 416l-174 -416h-285z" />
<glyph horiz-adv-x="817" d="M893 1198l-383 -868l-39 -330h-270l39 336l-170 862h295l53 -526l180 526h295z" />
<glyph horiz-adv-x="720" d="M627 244l-25 -244h-631l17 164l446 790h-330l25 244h623l-19 -168l-438 -786h332z" />
<glyph horiz-adv-x="370" d="M238 0h-248l63 510l64 307h198l-12 -305zM387 1198l-31 -272h-258l31 272h258z" />
<glyph horiz-adv-x="452" d="M115 1487h186l-27 -232h-188zM373 1487h184l-29 -232h-184z" />
<glyph horiz-adv-x="452" d="M569 1462l-20 -176h-473l18 176h475z" />
<glyph horiz-adv-x="452" d="M238 1487h270l-170 -236h-191z" />
<glyph horiz-adv-x="700" d="M266 -12q-141 0 -210.5 71t-69.5 185q0 132 77 266t207 211l23 108h190l-12 -233q-117 -51 -173 -134.5t-56 -176.5q0 -68 65 -68q48 0 82 31t60 110l200 -59q-53 -145 -150 -228t-233 -83zM561 1200l-33 -272h-258l33 272h258z" />
<glyph horiz-adv-x="1458" d="M438 1214q140 0 211.5 -72.5t89.5 -209.5l-202 -70q-11 129 -103 129q-36 0 -58 -24.5t-22 -77.5q0 -43 33 -84.5t80 -80.5t94 -84t80 -113t33 -150q0 -184 -106.5 -290.5t-272.5 -106.5q-129 0 -213.5 80.5t-87.5 222.5l219 57q11 -137 113 -137q80 0 80 106 q0 38 -18 73.5t-46.5 65t-63 59.5t-69 63.5t-63 71t-46.5 88t-18 108.5q0 158 98.5 267t257.5 109zM1167 1214q140 0 211.5 -72.5t89.5 -209.5l-202 -70q-11 129 -103 129q-36 0 -58 -24.5t-22 -77.5q0 -43 33 -84.5t80 -80.5t94 -84t80 -113t33 -150q0 -184 -106.5 -290.5 t-272.5 -106.5q-129 0 -213.5 80.5t-87.5 222.5l219 57q11 -137 113 -137q80 0 80 106q0 38 -18 73.5t-46.5 65t-63 59.5t-69 63.5t-63 71t-46.5 88t-18 108.5q0 158 98.5 267t257.5 109z" />
<glyph horiz-adv-x="837" d="M264 231l-63 -231h-273l404 1198h317l113 -1198h-277l-8 231h-213zM455 913l-131 -473h147zM309 1485h275l32 -234h-184z" />
<glyph horiz-adv-x="837" d="M264 231l-63 -231h-273l404 1198h317l113 -1198h-277l-8 231h-213zM455 913l-131 -473h147zM477 1487h271l-170 -236h-191z" />
<glyph horiz-adv-x="837" d="M264 231l-63 -231h-273l404 1198h317l113 -1198h-277l-8 231h-213zM455 913l-131 -473h147zM459 1251h-205l180 236h191l123 -236h-205l-31 99z" />
<glyph horiz-adv-x="837" d="M264 231l-63 -231h-273l404 1198h317l113 -1198h-277l-8 231h-213zM455 913l-131 -473h147zM674 1499l135 -18q-29 -119 -76 -177.5t-125 -58.5q-37 0 -69 14t-50.5 31t-38.5 31t-36 14q-22 0 -36 -16.5t-24 -61.5l-135 17q26 121 75 179t126 58q36 0 68.5 -13.5 t52 -30.5t40.5 -30.5t37 -13.5q22 0 33.5 16.5t22.5 59.5z" />
<glyph horiz-adv-x="837" d="M264 231l-63 -231h-273l404 1198h317l113 -1198h-277l-8 231h-213zM455 913l-131 -473h147zM305 1487h187l-27 -232h-189zM563 1487h185l-29 -232h-184z" />
<glyph horiz-adv-x="837" d="M264 231l-63 -231h-273l404 1198h317l113 -1198h-277l-8 231h-213zM455 913l-131 -473h147zM537 1581q77 0 123.5 -38t46.5 -107q0 -88 -61 -139.5t-152 -51.5q-75 0 -121.5 39t-46.5 107q0 89 60.5 139.5t150.5 50.5zM520 1454q-39 0 -39 -49q0 -31 29 -31q18 0 29.5 13 t11.5 32q0 35 -31 35z" />
<glyph horiz-adv-x="1138" d="M299 244l-98 -244h-271l529 1198h715l-27 -242h-318l-8 -235h209l-24 -211h-193l-10 -274h258l-25 -236h-512l8 244h-233zM383 451h158l18 434z" />
<glyph horiz-adv-x="714" d="M455 1214q127 0 202 -81.5t80 -214.5l-209 -68q0 127 -71 127q-89 0 -107 -141l-67 -496q-2 -14 -2 -37q0 -92 73 -92q38 0 62.5 30t44.5 103l198 -65q-41 -139 -117 -211t-194 -82l-6 -25q115 -25 115 -115q0 -72 -72.5 -127.5t-191.5 -64.5l-39 119q92 18 94 45 q0 34 -88 41l47 135q-96 23 -148.5 95.5t-52.5 184.5q0 22 4 62l66 500q23 177 125 277.5t254 100.5z" />
<glyph horiz-adv-x="692" d="M141 1198h584l-25 -242h-309l-33 -235h222l-25 -211h-223l-37 -274h319l-24 -236h-594zM252 1485h274l33 -234h-184z" />
<glyph horiz-adv-x="692" d="M141 1198h584l-25 -242h-309l-33 -235h222l-25 -211h-223l-37 -274h319l-24 -236h-594zM412 1487h270l-170 -236h-190z" />
<glyph horiz-adv-x="692" d="M141 1198h584l-25 -242h-309l-33 -235h222l-25 -211h-223l-37 -274h319l-24 -236h-594zM399 1251h-204l180 236h190l123 -236h-205l-30 99z" />
<glyph horiz-adv-x="692" d="M141 1198h584l-25 -242h-309l-33 -235h222l-25 -211h-223l-37 -274h319l-24 -236h-594zM250 1487h186l-26 -232h-189zM508 1487h184l-28 -232h-185z" />
<glyph horiz-adv-x="430" d="M152 1198h270l-146 -1198h-270zM102 1485h275l33 -234h-185z" />
<glyph horiz-adv-x="430" d="M152 1198h270l-146 -1198h-270zM272 1487h271l-170 -236h-191z" />
<glyph horiz-adv-x="430" d="M152 1198h270l-146 -1198h-270zM256 1251h-205l180 236h191l123 -236h-205l-31 99z" />
<glyph horiz-adv-x="430" d="M152 1198h270l-146 -1198h-270zM102 1487h187l-27 -232h-188zM360 1487h185l-29 -232h-184z" />
<glyph horiz-adv-x="854" d="M838 803l-56 -406q-25 -187 -131 -292t-276 -105h-365l66 537h-72l19 157h71l62 504h362q155 0 239.5 -86t84.5 -240q0 -44 -4 -69zM510 406l55 385q6 44 6 71q0 55 -18.5 75.5t-58.5 20.5h-91l-34 -264h86l-17 -157h-90l-39 -304h88q52 0 75 34.5t38 138.5z" />
<glyph horiz-adv-x="847" d="M141 1198h199l205 -557l69 557h240l-145 -1198h-187l-215 592l-74 -592h-237zM686 1499l135 -18q-29 -119 -75.5 -177.5t-124.5 -58.5q-47 0 -85 22.5t-64.5 45t-45.5 22.5q-22 0 -35.5 -16.5t-23.5 -61.5l-136 17q26 121 75 179t126 58q46 0 85 -22t67 -44t47 -22 q21 0 32.5 16t22.5 60z" />
<glyph horiz-adv-x="813" d="M801 819l-62 -440q-27 -190 -130 -293.5t-279 -103.5q-158 0 -239 83.5t-81 237.5q0 49 4 76l60 440q25 189 128 292t279 103q158 0 241 -83.5t83 -237.5q0 -49 -4 -74zM469 379l61 440q5 57 5 60q0 52 -18.5 73t-59.5 21q-51 0 -75 -32.5t-36 -121.5l-61 -440 q-2 -15 -2.5 -38.5t-1.5 -29.5q0 -53 17 -73.5t58 -20.5q51 0 76 35t37 127zM293 1485h274l33 -234h-184z" />
<glyph horiz-adv-x="813" d="M801 819l-62 -440q-27 -190 -130 -293.5t-279 -103.5q-158 0 -239 83.5t-81 237.5q0 49 4 76l60 440q25 189 128 292t279 103q158 0 241 -83.5t83 -237.5q0 -49 -4 -74zM469 379l61 440q5 57 5 60q0 52 -18.5 73t-59.5 21q-51 0 -75 -32.5t-36 -121.5l-61 -440 q-2 -15 -2.5 -38.5t-1.5 -29.5q0 -53 17 -73.5t58 -20.5q51 0 76 35t37 127zM475 1487h270l-170 -236h-190z" />
<glyph horiz-adv-x="813" d="M801 819l-62 -440q-27 -190 -130 -293.5t-279 -103.5q-158 0 -239 83.5t-81 237.5q0 49 4 76l60 440q25 189 128 292t279 103q158 0 241 -83.5t83 -237.5q0 -49 -4 -74zM469 379l61 440q5 57 5 60q0 52 -18.5 73t-59.5 21q-51 0 -75 -32.5t-36 -121.5l-61 -440 q-2 -15 -2.5 -38.5t-1.5 -29.5q0 -53 17 -73.5t58 -20.5q51 0 76 35t37 127zM449 1251h-205l180 236h190l123 -236h-205l-30 99z" />
<glyph horiz-adv-x="813" d="M801 819l-62 -440q-27 -190 -130 -293.5t-279 -103.5q-158 0 -239 83.5t-81 237.5q0 49 4 76l60 440q25 189 128 292t279 103q158 0 241 -83.5t83 -237.5q0 -49 -4 -74zM469 379l61 440q5 57 5 60q0 52 -18.5 73t-59.5 21q-51 0 -75 -32.5t-36 -121.5l-61 -440 q-2 -15 -2.5 -38.5t-1.5 -29.5q0 -53 17 -73.5t58 -20.5q51 0 76 35t37 127zM670 1499l135 -18q-29 -119 -76 -177.5t-125 -58.5q-37 0 -69 14t-50.5 31t-38.5 31t-36 14q-22 0 -36 -16.5t-24 -61.5l-135 17q26 121 75 179t126 58q36 0 68.5 -13.5t52 -30.5t40.5 -30.5 t37 -13.5q22 0 33.5 16.5t22.5 59.5z" />
<glyph horiz-adv-x="813" d="M801 819l-62 -440q-27 -190 -130 -293.5t-279 -103.5q-158 0 -239 83.5t-81 237.5q0 49 4 76l60 440q25 189 128 292t279 103q158 0 241 -83.5t83 -237.5q0 -49 -4 -74zM469 379l61 440q5 57 5 60q0 52 -18.5 73t-59.5 21q-51 0 -75 -32.5t-36 -121.5l-61 -440 q-2 -15 -2.5 -38.5t-1.5 -29.5q0 -53 17 -73.5t58 -20.5q51 0 76 35t37 127zM297 1487h186l-26 -232h-189zM555 1487h184l-28 -232h-185z" />
<glyph horiz-adv-x="813" d="M801 819l-62 -440q-27 -190 -130 -293.5t-279 -103.5q-168 0 -250 94l-53 -74l-68 61l72 99q-21 61 -21 139q0 51 4 78l60 440q25 189 128 292t279 103q162 0 244 -88l61 84l68 -59l-76 -107q27 -68 27 -153q0 -47 -4 -72zM469 379l41 295l-229 -318q-2 -14 -2 -37 q0 -54 18 -76t59 -22q53 0 77 33.5t36 124.5zM346 819l-39 -272l228 313v17q0 51 -19 70.5t-61 19.5q-51 0 -74 -30.5t-35 -117.5z" />
<glyph horiz-adv-x="839" d="M586 1198h270l-102 -823q-23 -187 -130 -290t-278 -103q-156 0 -239.5 81t-83.5 232q0 33 6 86l102 817h272l-104 -836q-4 -36 -4 -47q0 -48 19.5 -67t60.5 -19q45 0 71 30t35 103zM297 1485h274l33 -234h-184z" />
<glyph horiz-adv-x="839" d="M586 1198h270l-102 -823q-23 -187 -130 -290t-278 -103q-156 0 -239.5 81t-83.5 232q0 33 6 86l102 817h272l-104 -836q-4 -36 -4 -47q0 -48 19.5 -67t60.5 -19q45 0 71 30t35 103zM494 1487h270l-170 -236h-191z" />
<glyph horiz-adv-x="839" d="M586 1198h270l-102 -823q-23 -187 -130 -290t-278 -103q-156 0 -239.5 81t-83.5 232q0 33 6 86l102 817h272l-104 -836q-4 -36 -4 -47q0 -48 19.5 -67t60.5 -19q45 0 71 30t35 103zM463 1251h-205l180 236h191l123 -236h-205l-31 99z" />
<glyph horiz-adv-x="839" d="M586 1198h270l-102 -823q-23 -187 -130 -290t-278 -103q-156 0 -239.5 81t-83.5 232q0 33 6 86l102 817h272l-104 -836q-4 -36 -4 -47q0 -48 19.5 -67t60.5 -19q45 0 71 30t35 103zM313 1487h187l-27 -232h-188zM571 1487h185l-29 -232h-184z" />
<glyph horiz-adv-x="817" d="M893 1198l-383 -868l-39 -330h-270l39 336l-170 862h295l53 -526l180 526h295zM473 1487h270l-170 -236h-190z" />
<glyph horiz-adv-x="786" d="M481 1016q138 0 212.5 -81.5t74.5 -232.5q0 -227 -101 -356t-266 -129h-104l-27 -217h-274l145 1198h275l-23 -182h88zM367 782l-45 -352h79q37 0 57.5 39.5t33.5 140.5q8 78 8 95q0 44 -13 60.5t-41 16.5h-79z" />
<glyph horiz-adv-x="817" d="M893 1198l-383 -868l-39 -330h-270l39 336l-170 862h295l53 -526l180 526h295zM297 1487h186l-26 -232h-189zM555 1487h184l-28 -232h-185z" />
<glyph horiz-adv-x="1118" d="M571 1198h582l-25 -242h-311l-31 -235h222l-23 -211h-227l-35 -274h319l-26 -236h-590l4 47q-68 -65 -174 -65q-112 0 -179 85t-67 234q0 51 4 78l60 440q24 182 115.5 288.5t216.5 106.5q103 0 159 -65zM471 385l57 424q4 27 4 68q0 52 -18 72t-59 20q-51 0 -75 -32.5 t-36 -125.5l-57 -426q-6 -44 -6 -74q0 -52 17.5 -71t57.5 -19q53 0 77.5 33.5t37.5 130.5z" />
<glyph horiz-adv-x="452" d="M266 1251h-205l181 236h190l123 -236h-205l-31 99z" />
<glyph horiz-adv-x="452" d="M483 1499l135 -18q-29 -119 -75.5 -177.5t-124.5 -58.5q-47 0 -85 22.5t-64.5 45t-45.5 22.5q-22 0 -35.5 -16.5t-23.5 -61.5l-135 17q27 121 75 179t125 58q46 0 85 -22t67 -44t47 -22q21 0 32.5 16t22.5 60z" />
<glyph horiz-adv-x="1120" d="M141 1198h590l-24 -246h-316l-33 -247h271l-27 -230h-272l-60 -475h-274zM842 1198h270l-145 -1198h-271z" />
<glyph horiz-adv-x="1341" d="M141 1198h590l-24 -246h-316l-33 -247h271l-27 -230h-272l-60 -475h-274zM831 1198h265l-119 -950h295l-25 -248h-561z" />
<glyph horiz-adv-x="1810" d="M141 1198h590l-24 -246h-316l-33 -247h271l-27 -230h-272l-60 -475h-274zM831 1198h590l-24 -246h-316l-32 -247h270l-27 -230h-272l-59 -475h-275zM1532 1198h270l-145 -1198h-271z" />
<glyph horiz-adv-x="2031" d="M141 1198h590l-24 -246h-316l-33 -247h271l-27 -230h-272l-60 -475h-274zM831 1198h590l-24 -246h-316l-32 -247h270l-27 -230h-272l-59 -475h-275zM1522 1198h264l-119 -950h295l-25 -248h-561z" />
<glyph horiz-adv-x="489" d="M94 535l51 413q38 311 140.5 446.5t296.5 135.5h20l-22 -203h-23q-74 0 -121.5 -83.5t-75.5 -295.5l-53 -413q-12 -99 -12 -168q0 -211 115 -211h22l-22 -205h-21q-159 0 -234 90.5t-75 290.5q0 97 14 203z" />
<glyph horiz-adv-x="489" d="M436 948l-51 -413q-38 -312 -139.5 -448t-292.5 -136h-21l21 205h20q47 0 82 32t65.5 118t49.5 229l53 413q13 110 13 172q0 114 -29.5 160.5t-85.5 46.5h-23l25 203h20q158 0 233 -91t75 -290q0 -59 -15 -201z" />
<glyph horiz-adv-x="468" d="M47 614l29 252h379l-29 -252h-379z" />
<glyph horiz-adv-x="479" d="M37 -47l192 1577h367l-23 -203h-139l-147 -1171h139l-20 -203h-369z" />
<glyph horiz-adv-x="483" d="M483 1530l-190 -1577h-367l21 203h137l147 1171h-137l23 203h366z" />
<glyph horiz-adv-x="454" d="M76 1540h315l60 -160h-226z" />
<glyph horiz-adv-x="512" d="M35 668l16 147q72 7 102.5 38.5t30.5 90.5q0 23 -6 92.5t-6 112.5q0 194 101.5 287.5t312.5 93.5h28l-22 -203h-29q-91 0 -131.5 -57.5t-40.5 -171.5q0 -39 7.5 -104t7.5 -87q0 -127 -150 -168q113 -34 113 -125q0 -27 -40 -150t-40 -190q0 -62 29 -91t98 -29h28 l-20 -201h-29q-342 0 -342 250q0 67 22.5 144.5t45 140.5t22.5 94q0 34 -28 57t-80 29z" />
<glyph horiz-adv-x="512" d="M514 836l-16 -148q-133 -14 -133 -125q0 -23 6 -92.5t6 -112.5q0 -195 -100.5 -290t-311.5 -95h-28l20 201h29q92 0 132 58.5t40 175.5q0 40 -6.5 106.5t-6.5 87.5q0 53 36.5 96t111.5 64q-115 31 -115 123q0 28 41 151.5t41 192.5q0 60 -30 89.5t-97 29.5h-29l23 202h29 q340 0 340 -247q0 -67 -22.5 -146t-45 -143t-22.5 -94q0 -72 108 -84z" />
<glyph horiz-adv-x="454" d="M143 1542h172l-20 -162h-172zM371 1542h172l-19 -162h-172z" />
<glyph horiz-adv-x="587" d="M614 1036l-186 -297l115 -295h-164l-117 295l189 297h163zM391 1036l-186 -297l114 -295h-163l-117 295l188 297h164z" />
<glyph horiz-adv-x="468" d="M47 614l29 252h379l-29 -252h-379z" />
<glyph horiz-adv-x="454" d="M545 1493l-13 -111h-417l12 111h418z" />
<glyph horiz-adv-x="454" d="M242 1542h305l-205 -162h-207z" />
<glyph horiz-adv-x="587" d="M227 444l189 295l-117 297h166l117 -297l-189 -295h-166zM4 444l189 295l-117 297h166l116 -297l-188 -295h-166z" />
<glyph horiz-adv-x="454" d="M274 1380h-204l166 162h215l124 -162h-202l-41 66z" />
<glyph horiz-adv-x="454" d="M463 1554l121 -10q-24 -82 -66 -124t-119 -42q-48 0 -93.5 20.5t-59.5 20.5q-31 0 -45 -35l-121 9q23 84 65 126t119 42q50 0 95.5 -22.5t60.5 -22.5q18 0 27.5 8.5t15.5 29.5z" />
<glyph horiz-adv-x="710" d="M49 633l23 215h624l-22 -215h-625z" />
<glyph horiz-adv-x="1019" d="M47 633l25 215h934l-25 -215h-934z" />
<glyph horiz-adv-x="362" d="M391 1036l-186 -297l114 -295h-163l-117 295l188 297h164z" />
<glyph horiz-adv-x="362" d="M4 444l189 295l-117 297h166l116 -297l-188 -295h-166z" />
<glyph horiz-adv-x="428" d="M186 1485h269l-80 -613l-74 -413h-219l22 405zM6 0l33 303h270l-33 -303h-270z" />
<glyph horiz-adv-x="378" d="M-18 0l30 281h271l-23 -211q-35 -328 -303 -346l6 135q58 7 83.5 37t37.5 104h-102z" />
<glyph horiz-adv-x="378" d="M-18 0l32 303h271l-33 -303h-270z" />
<glyph horiz-adv-x="378" d="M72 709l32 303h271l-33 -303h-270zM-18 0l32 303h271l-33 -303h-270z" />
<glyph horiz-adv-x="378" d="M72 709l32 303h271l-33 -303h-270zM-18 0l30 281h271l-23 -211q-35 -328 -303 -346l6 135q58 7 83.5 37t37.5 104h-102z" />
<glyph horiz-adv-x="813" d="M86 1128q59 175 171.5 276t270.5 101q160 0 239 -83t79 -220q0 -167 -93 -331.5t-247 -268.5l-33 -147h-201l19 286q137 71 208.5 182.5t71.5 229.5q0 100 -90 100q-59 0 -101.5 -41.5t-76.5 -144.5zM184 0l33 303h270l-32 -303h-271z" />
<glyph horiz-adv-x="788" d="M780 895l-241 -354l155 -353h-217l-149 353l235 354h217zM487 895l-241 -354l155 -353h-217l-149 353l235 354h217z" />
<glyph horiz-adv-x="788" d="M285 188l241 353l-153 354h217l147 -354l-233 -353h-219zM-8 188l241 353l-153 354h217l147 -354l-233 -353h-219z" />
<glyph horiz-adv-x="389" d="M416 1407l-31 -283h-240l23 209q19 184 154 357l88 -41q-60 -99 -78 -230z" />
<glyph horiz-adv-x="389" d="M158 1260l30 280h242l-24 -209q-23 -191 -152 -354l-94 39q64 106 84 229z" />
<glyph horiz-adv-x="389" d="M4 14l31 281h241l-24 -209q-23 -191 -152 -354l-94 39q64 106 84 229z" />
<glyph horiz-adv-x="706" d="M737 1407l-30 -283h-240l22 209q19 184 154 357l88 -41q-60 -99 -78 -230zM416 1407l-31 -283h-240l23 209q19 184 154 357l88 -41q-60 -99 -78 -230z" />
<glyph horiz-adv-x="706" d="M481 1260l31 280h242l-25 -209q-23 -192 -151 -354l-95 39q64 106 84 229zM158 1260l30 280h242l-24 -209q-23 -191 -152 -354l-94 39q64 106 84 229z" />
<glyph horiz-adv-x="686" d="M309 14l31 281h242l-25 -209q-23 -192 -151 -354l-95 39q64 106 84 229zM-18 14l30 281h242l-25 -209q-23 -192 -151 -354l-94 39q64 106 84 229z" />
<glyph horiz-adv-x="1134" d="M-18 0l32 303h271l-33 -303h-270zM358 0l33 303h273l-33 -303h-273zM737 0l33 303h272l-32 -303h-273z" />
<glyph horiz-adv-x="495" d="M487 895l-241 -354l155 -353h-217l-149 353l235 354h217z" />
<glyph horiz-adv-x="495" d="M-8 188l241 353l-153 354h217l147 -354l-233 -353h-219z" />
<glyph horiz-adv-x="1114" d="M1057 1022l-80 -565q-31 -224 -159.5 -350.5t-338.5 -126.5q-191 0 -291 103t-100 290q0 55 4 84l80 565q32 225 159 354t337 129q191 0 292 -106t101 -295q0 -53 -4 -82zM274 731l-45 -317q-4 -46 -4 -66q0 -127 70 -192.5t201 -65.5q144 0 230.5 81.5t109.5 242.5 l41 284q8 46 8 97q0 131 -69 197.5t-198 66.5q-148 0 -236.5 -83.5t-107.5 -244.5zM352 727q0 52 31 86.5t80 34.5q38 0 60 -26.5t22 -65.5q0 -49 -32 -85t-75 -36q-39 0 -62.5 26.5t-23.5 65.5zM610 725q0 53 31.5 88t81.5 35q37 0 59.5 -27t22.5 -67q0 -49 -32 -84 t-75 -35q-39 0 -63.5 25.5t-24.5 64.5zM477 414l29 211h121l-29 -211h-121zM332 266l14 109h373l-12 -109h-375zM393 774q0 -13 8 -22t21 -9q12 0 21.5 9.5t11.5 21.5q0 33 -27 33q-12 0 -22 -9.5t-13 -23.5zM655 774q0 -31 29 -31q13 0 22 11.5t9 25.5q0 12 -7 19.5 t-18 7.5q-12 0 -23 -10t-12 -23z" />
</font>
</defs>
</svg>
