<?xml version="1.0" standalone="no"?>
<!DOCTYPE svg PUBLIC "-//W3C//DTD SVG 1.1//EN" "http://www.w3.org/Graphics/SVG/1.1/DTD/svg11.dtd" >
<svg xmlns="http://www.w3.org/2000/svg">
<metadata></metadata>
<defs>
<font id="good_headline_procond_book" horiz-adv-x="464" >
<font-face units-per-em="2048" ascent="1796" descent="-252" />
<missing-glyph horiz-adv-x="362" />
<glyph unicode="ffj" horiz-adv-x="1318" d="M934 1346l8 -113q-114 -7 -162.5 -56t-48.5 -153v-33h467v-839q0 -354 -299 -379l-14 121q86 14 127 74t41 182v724h-314v-874h-143v874h-313v-874h-144v874h-110v117h110v37q0 153 80.5 232t257.5 86l8 -109q-113 -7 -159.5 -55t-46.5 -154v-37h317v31q0 152 80.5 233.5 t257.5 90.5zM1057 1337h135v-190h-135v190z" />
<glyph unicode="fj" horiz-adv-x="862" d="M477 1346l8 -113q-114 -7 -162.5 -56t-48.5 -153v-35h467v-837q0 -354 -299 -379l-14 121q86 14 127 74t41 182v724h-313v-874h-144v874h-110v115h110v33q0 152 80.5 233.5t257.5 90.5zM600 1337h135v-190h-135v190z" />
<glyph horiz-adv-x="0" />
<glyph horiz-adv-x="0" />
<glyph horiz-adv-x="682" />
<glyph unicode="&#xd;" horiz-adv-x="362" />
<glyph unicode=" "  horiz-adv-x="362" />
<glyph unicode="&#x09;" horiz-adv-x="362" />
<glyph unicode="&#xa0;" horiz-adv-x="362" />
<glyph unicode="!" horiz-adv-x="358" d="M106 1337h142v-579l-15 -377h-112l-15 375v581zM121 0v156h141v-156h-141z" />
<glyph unicode="&#x22;" horiz-adv-x="514" d="M301 1257v228h131v-228l-35 -217h-65zM78 1257v228h131v-228l-35 -217h-65z" />
<glyph unicode="#" horiz-adv-x="808" d="M53 831v105h172l29 401h102l-26 -401h190l29 401h104l-28 -401h133v-105h-137l-21 -323h158v-102h-160l-31 -406h-104l31 406h-193l-29 -406h-104l29 406h-144v102h146l22 323h-168zM326 831l-23 -323h193l22 323h-192z" />
<glyph unicode="$" horiz-adv-x="737" d="M352 1511h88l2 -163q89 -21 148.5 -91t83.5 -174l-101 -36q-37 147 -141 176l-20 -475q50 -36 78.5 -58.5t70 -63.5t63.5 -79.5t39 -95.5t17 -121q0 -150 -74.5 -242t-199.5 -104l-19 -160h-90l-4 166q-196 39 -246 293l109 39q33 -170 147 -201l25 504 q-55 38 -80.5 57.5t-69 61t-64.5 77t-38 91t-17 118.5q0 137 73 224.5t200 99.5zM555 313q0 83 -39 143t-110 113l-5 -454q74 8 114 58t40 140zM188 1042q0 -75 37 -130t107 -109l2 426q-146 -20 -146 -187z" />
<glyph unicode="%" horiz-adv-x="1003" d="M481 1247v-139q0 -122 -52.5 -188t-152.5 -66q-103 0 -154.5 65.5t-51.5 188.5v139q0 125 51.5 191.5t154.5 66.5q100 0 152.5 -67t52.5 -191zM178 1249v-141q0 -82 22.5 -117t75.5 -35q50 0 73.5 35.5t23.5 116.5v141q0 79 -23.5 114.5t-73.5 35.5q-52 0 -75 -35 t-23 -115zM80 2l717 1483h118l-718 -1483h-117zM942 367v-140q0 -122 -53 -187t-154 -65q-102 0 -154.5 65t-52.5 187v140q0 124 52.5 191t154.5 67q101 0 154 -67t53 -191zM637 369v-142q0 -81 23 -116t75 -35q51 0 75 35.5t24 115.5v142q0 78 -24.5 113.5t-74.5 35.5 q-51 0 -74.5 -35t-23.5 -114z" />
<glyph unicode="&#x26;" horiz-adv-x="919" d="M686 1118l-100 -55q-33 89 -73.5 128.5t-94.5 39.5q-123 0 -123 -150q0 -90 45 -168l281 -483q36 160 36 350v27h228v-115h-117q-9 -226 -68 -397q86 -139 222 -180l-23 -127q-151 25 -266 168q-107 -172 -281 -172q-142 0 -225.5 94.5t-83.5 288.5q0 135 54 249.5 t151 190.5l-2 4q-90 138 -90 266q0 122 66.5 199.5t187.5 77.5q103 0 169 -56.5t107 -179.5zM369 106q118 0 194 158l-252 432q-59 -60 -91 -150.5t-32 -176.5q0 -263 181 -263z" />
<glyph unicode="'" horiz-adv-x="286" d="M78 1257v228h131v-228l-35 -217h-65z" />
<glyph unicode="(" horiz-adv-x="442" d="M115 469v330q0 227 36 363t107.5 194.5t187.5 58.5h27v-108h-27q-70 0 -114.5 -43.5t-70 -157.5t-25.5 -307v-330q0 -191 26 -305.5t70.5 -158.5t113.5 -44h27v-106h-27q-116 0 -187.5 58.5t-107.5 194t-36 361.5z" />
<glyph unicode=")" horiz-adv-x="442" d="M330 799v-330q0 -226 -36.5 -361.5t-108.5 -194t-189 -58.5h-25v106h25q70 0 114.5 44t70.5 158t26 306v330q0 192 -26 306.5t-70.5 158t-114.5 43.5h-25v108h25q117 0 189 -58.5t108.5 -194.5t36.5 -363z" />
<glyph unicode="*" horiz-adv-x="577" d="M246 1430l-17 198h99l-15 -198l176 77l31 -102l-186 -45l125 -152l-80 -63l-100 172l-97 -170l-82 63l125 150l-186 45l31 100z" />
<glyph unicode="+" horiz-adv-x="782" d="M332 213v365h-244v120h244v365h112v-365h250v-120h-250v-365h-112z" />
<glyph unicode="," horiz-adv-x="364" d="M111 0v156h141v-117q0 -103 -30.5 -153t-112.5 -60l-9 70q42 11 57 31.5t15 72.5h-61z" />
<glyph unicode="-" horiz-adv-x="452" d="M41 535v135h371v-135h-371z" />
<glyph unicode="." horiz-adv-x="362" d="M111 0v156h141v-156h-141z" />
<glyph unicode="/" horiz-adv-x="479" d="M8 0l328 1337h121l-330 -1337h-119z" />
<glyph unicode="0" horiz-adv-x="833" d="M750 958v-583q0 -188 -85.5 -290.5t-246.5 -102.5q-163 0 -247.5 102.5t-84.5 290.5v583q0 189 85 293.5t247 104.5q161 0 246.5 -105t85.5 -293zM231 958v-583q0 -134 45.5 -197t141.5 -63q94 0 140 63t46 197v583q0 134 -46 198.5t-140 64.5q-95 0 -141 -64t-46 -199z " />
<glyph unicode="1" horiz-adv-x="565" d="M309 1341h113v-1341h-152v1008h-217v112h99q60 0 88.5 15t45 61.5t23.5 144.5z" />
<glyph unicode="2" horiz-adv-x="790" d="M408 1356q151 0 228 -88.5t77 -235.5q0 -87 -24 -165.5t-62.5 -139t-86 -117.5t-97 -111.5t-91.5 -108.5t-73.5 -121t-40.5 -138h487v-131h-637l-4 80q2 87 30 169t71 147t94 128t101.5 122.5t92.5 117.5t68 125.5t26 136.5q0 197 -168 197q-76 0 -127.5 -57.5 t-70.5 -166.5l-117 35q26 143 109.5 232.5t214.5 89.5z" />
<glyph unicode="3" horiz-adv-x="776" d="M279 631v123h71q94 0 141.5 55.5t47.5 183.5q0 124 -41 177t-123 53q-148 0 -197 -205l-115 37q31 141 115.5 221t206.5 80q151 0 227 -92t76 -254q0 -243 -153 -310q87 -25 130.5 -99.5t43.5 -209.5q0 -212 -84 -310.5t-244 -98.5q-257 0 -326 270l113 39 q50 -180 207 -180q96 0 139 68t43 218q0 134 -50 184t-151 50h-77z" />
<glyph unicode="4" horiz-adv-x="784" d="M643 0h-135v254h-490v100l482 983h143v-958h137l-12 -125h-125v-254zM172 379h336l6 751z" />
<glyph unicode="5" horiz-adv-x="786" d="M186 629l-96 45l47 663h551l-10 -139h-426l-27 -420q96 62 203 62q152 0 226.5 -99t74.5 -313q0 -446 -342 -446q-118 0 -199.5 68.5t-111.5 203.5l114 39q22 -93 73.5 -137.5t119.5 -44.5q102 0 149.5 74.5t47.5 240.5q0 156 -47.5 219.5t-153.5 63.5 q-55 0 -108.5 -22.5t-84.5 -57.5z" />
<glyph unicode="6" horiz-adv-x="798" d="M420 1356q113 0 188.5 -69.5t106.5 -203.5l-109 -43q-24 97 -68 140t-112 43q-97 0 -146 -75.5t-49 -215.5v-180q82 82 213 82q152 0 222.5 -98.5t70.5 -297.5q0 -456 -327 -456q-152 0 -238 101.5t-86 297.5v539q0 199 89 317.5t245 118.5zM418 705q-78 0 -132.5 -39.5 t-54.5 -104.5v-192q0 -130 49.5 -192t131.5 -62q94 0 139 76t45 245q0 139 -43 204t-135 65z" />
<glyph unicode="7" horiz-adv-x="718" d="M307 0h-160l398 1200h-522v137h675v-116z" />
<glyph unicode="8" horiz-adv-x="813" d="M406 -18q-85 0 -146 20.5t-105 67.5t-65.5 126t-21.5 193q0 261 157 322q-135 69 -135 299q0 346 316 346q165 0 241 -88.5t76 -257.5q0 -229 -137 -299q159 -62 159 -322q0 -223 -83 -315t-256 -92zM598 395q0 139 -48 192.5t-144 53.5q-95 0 -143 -54t-48 -192 q0 -161 45 -222.5t146 -61.5q103 0 147.5 60.5t44.5 223.5zM406 1229q-94 0 -135.5 -51t-41.5 -181t42 -182.5t135 -52.5q95 0 136.5 52t41.5 183t-41 181.5t-137 50.5z" />
<glyph unicode="9" horiz-adv-x="800" d="M182 287q29 -92 76 -132t123 -40q91 0 139.5 58t48.5 175v285q-80 -80 -204 -80q-302 0 -302 391q0 205 86 308.5t252 103.5q149 0 231.5 -99t82.5 -270v-633q0 -172 -89 -271t-239 -99q-244 0 -309 254zM389 676q66 0 121 37t59 96v184q0 230 -172 230 q-95 0 -141.5 -65.5t-46.5 -209.5q0 -151 45 -211.5t135 -60.5z" />
<glyph unicode=":" horiz-adv-x="362" d="M111 815v156h141v-156h-141zM111 0v156h141v-156h-141z" />
<glyph unicode=";" horiz-adv-x="362" d="M111 815v156h141v-156h-141zM111 0v156h141v-117q0 -103 -30.5 -153t-112.5 -60l-9 70q42 11 57 31.5t15 72.5h-61z" />
<glyph unicode="&#x3c;" horiz-adv-x="782" d="M651 922l-366 -279l368 -276v-166l-557 432v20l555 432v-163z" />
<glyph unicode="=" horiz-adv-x="782" d="M682 694h-582v121h582v-121zM682 430h-582v123h582v-123z" />
<glyph unicode="&#x3e;" horiz-adv-x="782" d="M129 367l367 276l-365 279v163l555 -432v-20l-557 -432v166z" />
<glyph unicode="?" horiz-adv-x="737" d="M33 1059q33 135 121 216t217 81q152 0 226.5 -88.5t74.5 -227.5t-69.5 -259.5t-190.5 -196.5l-15 -205h-104l-8 274q243 145 243 379q0 195 -163 195q-162 0 -215 -203zM285 0v156h141v-156h-141z" />
<glyph unicode="@" horiz-adv-x="1161" d="M846 874h-43l-35 -468q-2 -12 -2 -37q0 -53 20.5 -76t61.5 -23q64 0 96.5 59.5t32.5 211.5v223q0 211 -98 319.5t-287 108.5q-194 0 -301 -123.5t-107 -333.5v-311q0 -241 111 -359t309 -118q124 0 211 37.5t154 115.5l75 -55q-161 -199 -440 -199q-253 0 -389.5 145.5 t-136.5 432.5v313q0 250 135.5 404.5t378.5 154.5q236 0 361.5 -144t125.5 -388v-223q0 -192 -61.5 -285.5t-171.5 -93.5q-121 0 -162 94q-73 -98 -195 -98q-182 0 -182 256q0 261 102 410t285 149h156zM649 393l39 467h-18q-114 0 -177 -112.5t-63 -329.5q0 -84 21 -117 t63 -33q95 0 135 125z" />
<glyph unicode="A" horiz-adv-x="899" d="M258 348l-80 -348h-158l338 1337h181l338 -1337h-158l-80 348h-381zM449 1182l-164 -711h325z" />
<glyph unicode="B" horiz-adv-x="864" d="M752 999q0 -125 -37.5 -196t-122.5 -101q207 -51 207 -319q0 -197 -77 -290t-257 -93h-346v1337h307q164 0 245 -88t81 -250zM270 631v-494h191q99 0 142.5 55t43.5 199q0 129 -44.5 184.5t-139.5 55.5h-193zM270 1198v-442h162q96 0 135 55t39 174q0 115 -40.5 164 t-133.5 49h-162z" />
<glyph unicode="C" horiz-adv-x="792" d="M426 1356q122 0 205.5 -77t107.5 -202l-118 -41q-35 183 -185 183q-194 0 -194 -269v-577q0 -119 49.5 -188.5t142.5 -69.5q82 0 125.5 43t63.5 153l118 -37q-26 -153 -104.5 -222.5t-212.5 -69.5q-157 0 -247.5 107t-90.5 284v575q0 191 90 299.5t250 108.5z" />
<glyph unicode="D" horiz-adv-x="925" d="M119 1337h354q174 0 270.5 -107.5t96.5 -299.5v-527q0 -190 -96.5 -296.5t-270.5 -106.5h-354v1337zM684 924q0 140 -52.5 207t-158.5 67h-199v-1063h199q211 0 211 271v518z" />
<glyph unicode="E" horiz-adv-x="782" d="M119 1337h594v-141h-439v-440h351v-127h-351v-490h461v-139h-616v1337z" />
<glyph unicode="F" horiz-adv-x="765" d="M119 1337h596v-141h-441v-451h381v-135h-381v-610h-155v1337z" />
<glyph unicode="G" horiz-adv-x="886" d="M455 1358q132 0 222 -75.5t118 -209.5l-119 -37q-29 96 -80.5 140.5t-128.5 44.5q-225 0 -225 -297v-531q0 -135 56 -203.5t163 -68.5q69 0 117 30t84 101v285h-150v114h287v-651h-127v102q-88 -118 -248 -118t-249 105t-89 302v533q0 201 93.5 317.5t275.5 116.5z" />
<glyph unicode="H" horiz-adv-x="933" d="M119 1337h155v-579h385v579h156v-1337h-156v618h-385v-618h-155v1337z" />
<glyph unicode="I" horiz-adv-x="444" d="M143 1337h158v-1337h-158v1337z" />
<glyph unicode="J" horiz-adv-x="487" d="M213 1337h156v-901q0 -438 -351 -444l-12 127q106 0 156.5 74.5t50.5 238.5v905z" />
<glyph unicode="K" horiz-adv-x="878" d="M860 0h-176l-303 625l-111 -176v-449h-151v1337h151v-700l385 700h176l-346 -598z" />
<glyph unicode="L" horiz-adv-x="722" d="M119 1337h151v-1194h418v-143h-569v1337z" />
<glyph unicode="M" horiz-adv-x="1187" d="M928 1337h141v-1337h-141v961l-299 -715h-72l-297 715v-961h-141v1337h141l334 -858z" />
<glyph unicode="N" horiz-adv-x="933" d="M119 1337h119l440 -948v948h137v-1337h-108l-449 969v-969h-139v1337z" />
<glyph unicode="O" horiz-adv-x="890" d="M446 1356q176 0 268.5 -105t92.5 -295v-573q0 -191 -92.5 -296t-268.5 -105q-175 0 -267.5 104.5t-92.5 294.5v573q0 191 92.5 296.5t267.5 105.5zM653 383v571q0 135 -51 200t-156 65q-103 0 -153.5 -64.5t-50.5 -200.5v-573q0 -136 49.5 -200t154.5 -64t156 64.5 t51 201.5z" />
<glyph unicode="P" horiz-adv-x="835" d="M467 1337q155 0 236 -103t81 -300q0 -192 -79.5 -297t-229.5 -105h-201v-532h-155v1337h348zM274 1200v-538h191q87 0 126.5 64t39.5 206q0 144 -39.5 206t-126.5 62h-191z" />
<glyph unicode="Q" horiz-adv-x="890" d="M446 1356q176 0 268.5 -105t92.5 -295v-559q0 -168 -94 -270h157v-127h-424q-175 0 -267.5 104t-92.5 293v557q0 191 92.5 296.5t267.5 105.5zM653 397v557q0 135 -51 200t-156 65q-103 0 -153.5 -64.5t-50.5 -200.5v-557q0 -136 50 -201t154 -65q105 0 156 65t51 201z " />
<glyph unicode="R" horiz-adv-x="856" d="M659 0l-239 588h-146v-588h-155v1337h332q313 0 313 -362q0 -303 -201 -357l266 -618h-170zM274 1200v-485h164q95 0 134.5 59.5t39.5 190.5q0 128 -39.5 181.5t-130.5 53.5h-168z" />
<glyph unicode="S" horiz-adv-x="741" d="M369 1356q125 0 206.5 -69t116.5 -193l-112 -47q-23 86 -74.5 131t-126.5 45q-168 0 -168 -189q0 -61 26.5 -111t69.5 -86.5t94.5 -71.5t103.5 -74t95 -84.5t69.5 -113.5t26.5 -151q0 -172 -87 -266t-238 -94q-125 0 -214.5 78t-115.5 221l121 41q24 -105 79 -156 t130 -51q176 0 176 209q0 65 -27 118t-70 91t-95.5 73t-105 73.5t-95.5 83.5t-70 112.5t-27 150.5q0 146 83.5 238t228.5 92z" />
<glyph unicode="T" horiz-adv-x="716" d="M20 1337h676v-141h-260v-1196h-155v1196h-261v141z" />
<glyph unicode="U" horiz-adv-x="929" d="M672 1337h153v-966q0 -188 -92.5 -288.5t-265.5 -100.5q-175 0 -269 99.5t-94 285.5v970h156v-972q0 -238 207 -238q102 0 153.5 56.5t51.5 181.5v972z" />
<glyph unicode="V" horiz-adv-x="874" d="M858 1337l-340 -1337h-162l-338 1337h166l254 -1130l252 1130h168z" />
<glyph unicode="W" horiz-adv-x="1355" d="M1311 1337l-258 -1337h-172l-201 1038l-205 -1038h-172l-256 1337h156l192 -1126l211 1126h146l211 -1126l194 1126h154z" />
<glyph unicode="X" horiz-adv-x="858" d="M35 0l297 680l-289 657h168l221 -559l219 559h166l-287 -663l295 -674h-168l-229 569l-227 -569h-166z" />
<glyph unicode="Y" horiz-adv-x="833" d="M825 1337l-329 -884v-453h-156v446l-330 891h172l236 -725l237 725h170z" />
<glyph unicode="Z" horiz-adv-x="780" d="M719 141v-141h-666v96l494 1100h-463v141h635v-96l-492 -1100h492z" />
<glyph unicode="[" horiz-adv-x="436" d="M131 -145v1560h340v-110h-213v-1340h213v-110h-340z" />
<glyph unicode="\" horiz-adv-x="520" d="M82 1528l430 -1702h-119l-432 1702h121z" />
<glyph unicode="]" horiz-adv-x="440" d="M309 1415v-1560h-342v110h215v1340h-215v110h342z" />
<glyph unicode="^" horiz-adv-x="763" d="M88 1073l248 465h98l242 -465h-121l-168 336h-4l-172 -336h-123z" />
<glyph unicode="_" horiz-adv-x="653" d="M0 -109h653v-110h-653v110z" />
<glyph unicode="`" horiz-adv-x="438" d="M18 1337h168l107 -227h-113z" />
<glyph unicode="a" horiz-adv-x="755" d="M190 774l-98 49q91 232 287 232q133 0 197.5 -85.5t64.5 -234.5v-561q0 -80 68 -80h24v-94q-40 -12 -74 -12q-103 0 -143 88q-83 -92 -213 -92q-109 0 -173 74t-64 202q0 155 88 243.5t280 88.5h62v143q0 197 -134 197q-112 0 -172 -158zM334 96q100 0 162 92v293h-62 q-124 0 -176.5 -53t-52.5 -158q0 -174 129 -174z" />
<glyph unicode="b" horiz-adv-x="823" d="M475 -14q-146 0 -225 104l-10 -90h-125v1337h145v-383q83 99 223 99q124 0 192 -89.5t68 -252.5v-385q0 -163 -69 -251.5t-199 -88.5zM260 827v-616q61 -100 176 -100q162 0 162 213v383q0 217 -160 217q-108 0 -178 -97z" />
<glyph unicode="c" horiz-adv-x="700" d="M662 817l-107 -41q-42 152 -166 152q-164 0 -164 -213v-393q0 -107 42.5 -161.5t121.5 -54.5q64 0 104.5 37t63.5 121l109 -37q-30 -116 -102 -179.5t-183 -63.5q-145 0 -223 92.5t-78 238.5v404q0 148 78 241t221 93q105 0 178.5 -62.5t104.5 -173.5z" />
<glyph unicode="d" horiz-adv-x="825" d="M348 1051q131 0 215 -93v379h146v-1337h-127l-9 88q-82 -104 -231 -104q-126 0 -194 88.5t-68 251.5v385q0 164 69 253t199 89zM563 203v626q-68 93 -176 93q-162 0 -162 -215v-383q0 -105 40.5 -160t119.5 -55q110 0 178 94z" />
<glyph unicode="e" horiz-adv-x="751" d="M684 514h-459v-192q0 -106 44.5 -161t129.5 -55q68 0 110 41t69 138l110 -37q-32 -135 -106.5 -199.5t-194.5 -64.5q-147 0 -227 91t-80 242v402q0 151 79.5 242.5t225.5 91.5q142 0 220.5 -94.5t78.5 -245.5v-199zM225 725v-109h328v111q0 100 -42.5 152.5t-121.5 52.5 q-164 0 -164 -207z" />
<glyph unicode="f" horiz-adv-x="520" d="M494 991v-117h-211v-874h-144v874h-110v117h110v37q0 153 80.5 232t257.5 86l8 -109q-113 -7 -159.5 -55t-46.5 -154v-37h215z" />
<glyph unicode="g" horiz-adv-x="786" d="M397 424q-85 0 -139 22q-61 -33 -61 -84q0 -71 104 -71h176q145 0 209 -57.5t64 -170.5q0 -141 -93.5 -216.5t-259.5 -75.5q-153 0 -229 59t-76 168q0 118 80 186q-98 43 -98 152q0 100 110 156q-75 75 -75 245q0 165 69 239.5t219 74.5q111 0 176 -39q37 22 67 54t42 64 l72 -30q-17 -97 -103 -172q37 -73 37 -191q0 -161 -70 -237t-221 -76zM248 733q0 -114 31.5 -155t117.5 -41q88 0 120 40.5t32 155.5q0 116 -34 158.5t-118 42.5q-85 0 -117 -42t-32 -159zM467 164h-182q-68 -45 -68 -150q0 -135 186 -135q122 0 168.5 42.5t46.5 121.5 q0 67 -32.5 94t-118.5 27z" />
<glyph unicode="h" horiz-adv-x="837" d="M260 827v-827h-145v1337h145v-385q81 101 221 101q127 0 194.5 -88.5t67.5 -253.5v-711h-145v709q0 215 -160 215q-57 0 -103.5 -28t-74.5 -69z" />
<glyph unicode="i" horiz-adv-x="391" d="M123 993h145v-993h-145v993zM127 1337h137v-186h-137v186z" />
<glyph unicode="j" horiz-adv-x="366" d="M127 1337h137v-186h-137v186zM-29 -227l-12 121q85 14 125.5 74t40.5 182v843h145v-841q0 -354 -299 -379z" />
<glyph unicode="k" horiz-adv-x="813" d="M115 1337h145v-833l344 530h158l-291 -444l326 -590h-166l-256 485l-115 -149v-336h-145v1337z" />
<glyph unicode="l" horiz-adv-x="401" d="M127 1337h145v-1337h-145v1337z" />
<glyph unicode="m" horiz-adv-x="1226" d="M694 711v-711h-145v711q0 115 -36 163t-101 48q-54 0 -95.5 -35.5t-62.5 -95.5v-791h-145v1034h127v-106q79 125 213 125q148 0 204 -144q35 68 95 106t133 38q121 0 186.5 -84t65.5 -258v-711h-146v711q0 211 -141 211q-152 0 -152 -211z" />
<glyph unicode="n" horiz-adv-x="829" d="M254 827v-827h-145v1034h127l6 -90q86 109 231 109q127 0 195.5 -89t68.5 -253v-711h-145v709q0 215 -160 215q-110 0 -178 -97z" />
<glyph unicode="o" horiz-adv-x="790" d="M711 719v-406q0 -150 -83 -239.5t-235 -89.5q-151 0 -232 89t-81 240v406q0 151 81.5 242.5t231.5 91.5q153 0 235.5 -91t82.5 -243zM225 715v-398q0 -213 168 -213q172 0 172 213v398q0 215 -172 215q-168 0 -168 -215z" />
<glyph unicode="p" horiz-adv-x="817" d="M469 -16q-135 0 -215 92v-295h-145v1253h127l8 -88q83 107 231 107q127 0 194.5 -89.5t67.5 -252.5v-385q0 -163 -69.5 -252.5t-198.5 -89.5zM254 827v-626q67 -92 176 -92q162 0 162 215v383q0 217 -160 217q-111 0 -178 -97z" />
<glyph unicode="q" horiz-adv-x="817" d="M358 1053q145 0 224 -117l8 98h119v-1253h-146v305q-83 -106 -221 -106q-123 0 -192.5 88t-69.5 243v410q0 157 73.5 244.5t204.5 87.5zM563 246v569q-65 109 -172 109q-78 0 -122 -53.5t-44 -157.5v-396q0 -208 164 -208q62 0 106.5 37t67.5 100z" />
<glyph unicode="r" horiz-adv-x="579" d="M555 1026l-18 -143q-34 22 -82 22q-86 0 -138.5 -74t-62.5 -213v-618h-145v1034h124l9 -170q69 187 215 187q56 0 98 -25z" />
<glyph unicode="s" horiz-adv-x="677" d="M618 829l-96 -38q-41 145 -168 145q-69 0 -104 -38t-35 -105q0 -46 22.5 -83t59 -62.5t80 -49.5t87 -52.5t80 -63.5t59 -89t22.5 -123q0 -127 -76.5 -206.5t-196.5 -79.5q-217 0 -286 229l100 45q47 -162 182 -162q67 0 103 43t36 121q0 50 -22.5 89t-59 66t-80 51.5 t-87.5 52t-80.5 61t-59 85t-22.5 117.5q0 118 72 194.5t202 76.5q202 0 268 -224z" />
<glyph unicode="t" horiz-adv-x="552" d="M500 993v-121h-209v-632q0 -138 110 -138q38 0 82 21l19 -94q-65 -45 -150 -45q-209 0 -209 258v624l-112 25v100l121 8l34 232h105v-238h209z" />
<glyph unicode="u" horiz-adv-x="829" d="M578 205v829h143v-1034h-127l-8 88q-82 -104 -232 -104q-125 0 -193.5 89t-68.5 251v710h146v-710q0 -104 40.5 -158.5t118.5 -54.5q113 0 181 94z" />
<glyph unicode="v" horiz-adv-x="800" d="M774 1034l-293 -1034h-166l-286 1034h159l211 -884l213 884h162z" />
<glyph unicode="w" horiz-adv-x="1187" d="M764 0l-170 838l-170 -838h-162l-227 1034h151l162 -866l178 866h138l178 -872l162 872h151l-231 -1034h-160z" />
<glyph unicode="x" horiz-adv-x="794" d="M37 0l260 535l-248 499h164l188 -416l185 416h159l-247 -508l260 -526h-162l-203 442l-194 -442h-162z" />
<glyph unicode="y" horiz-adv-x="815" d="M782 1034l-295 -985q-43 -141 -109.5 -204t-184.5 -70l-13 112q73 11 112.5 48t63.5 122l6 23l-329 954h157l244 -772l199 772h149z" />
<glyph unicode="z" horiz-adv-x="686" d="M621 127v-127h-562v94l398 813h-377v127h545v-90l-400 -817h396z" />
<glyph unicode="{" horiz-adv-x="450" d="M33 596v78q145 15 145 110q0 30 -31.5 149t-31.5 206q0 276 336 276h26v-108h-26q-109 0 -159 -49.5t-50 -151.5q0 -78 30.5 -188t30.5 -144q0 -54 -29 -88t-98 -51q69 -18 98 -52t29 -87q0 -33 -30.5 -141t-30.5 -187q0 -102 49.5 -153.5t157.5 -51.5h28v-108h-28 q-169 0 -251.5 70t-82.5 212q0 88 31.5 203.5t31.5 144.5q0 47 -37.5 76t-107.5 35z" />
<glyph unicode="|" horiz-adv-x="446" d="M156 -311v1970h137v-1970h-137z" />
<glyph unicode="}" horiz-adv-x="450" d="M414 682v-80q-68 -6 -106 -33.5t-38 -72.5q0 -30 32 -146.5t32 -204.5q0 -142 -82.5 -212t-251.5 -70h-27v108h27q108 0 157.5 51.5t49.5 153.5q0 78 -30 186t-30 142q0 54 27.5 87.5t93.5 51.5q-66 17 -93.5 50.5t-27.5 88.5q0 34 30 144t30 188q0 101 -50 151t-157 50 h-29v108h29q334 0 334 -278q0 -87 -32 -205t-32 -149q0 -96 144 -109z" />
<glyph unicode="~" horiz-adv-x="839" d="M201 1249h-113q20 277 201 277q44 0 79 -18t57 -44t41 -52t41 -44t46 -18q39 0 60 35t28 122h111q-10 -144 -59.5 -210t-139.5 -66q-44 0 -79 18t-57 44t-41.5 52t-41.5 44t-47 18q-39 0 -59.5 -35.5t-26.5 -122.5z" />
<glyph unicode="&#xa1;" horiz-adv-x="389" d="M266 -193h-147v650l16 417h115l16 -413v-654zM283 1292v-198h-183v198h183z" />
<glyph unicode="&#xa2;" horiz-adv-x="700" d="M662 817l-107 -41q-42 148 -164 148q-166 0 -166 -219v-373q0 -228 164 -228q64 0 104.5 38t63.5 122l109 -37q-56 -208 -226 -237l-20 -185h-92l-6 183q-118 18 -180 110t-62 230v381q0 140 63.5 231.5t182.5 108.5l24 208h94l5 -213q78 -19 132.5 -77.5t80.5 -149.5z " />
<glyph unicode="&#xa3;" horiz-adv-x="854" d="M78 608l-17 111h105q-21 164 -21 244q0 187 81 291t231 104q118 0 197 -71.5t104 -196.5l-113 -37q-22 90 -67.5 130t-114.5 40q-174 0 -174 -273q0 -81 16 -231h350l-14 -111h-326q4 -36 10 -90.5t9.5 -92t5.5 -60.5q36 -14 68.5 -44.5t56 -63.5t46 -64.5t49 -51.5 t54.5 -20q47 0 73.5 48.5t41.5 170.5l111 -29q-20 -176 -73 -252.5t-144 -76.5q-53 0 -98.5 30.5t-72 67.5t-60.5 88t-56 74q-10 -140 -56.5 -200t-123.5 -60q-64 0 -102 43t-38 120q0 94 54 155t149 73q-27 168 -37 235h-104zM166 90q30 0 46 42.5t17 150.5q-54 -8 -79 -45 t-25 -86q0 -62 41 -62z" />
<glyph unicode="&#xa4;" horiz-adv-x="817" d="M217 700q0 59 29 109l-68 76l58 63l69 -78q51 33 103 33q54 0 102 -33l76 82l57 -63l-74 -80q31 -48 31 -109q0 -62 -31 -110l72 -78l-57 -63l-76 77q-44 -30 -100 -30q-58 0 -101 30l-76 -82l-57 64l74 80q-31 53 -31 112zM305 698q0 -47 30.5 -79.5t72.5 -32.5 q43 0 73.5 32.5t30.5 79.5q0 49 -30 80t-74 31q-42 0 -72.5 -31.5t-30.5 -79.5z" />
<glyph unicode="&#xa5;" horiz-adv-x="870" d="M717 303h-197v-303h-155v303h-207v109h207v86h-207v108h178l-293 731h172l227 -661l230 661h170l-293 -731h168v-108h-197v-86h197v-109z" />
<glyph unicode="&#xa6;" horiz-adv-x="446" d="M156 813v846h137v-846h-137zM156 -311v846h137v-846h-137z" />
<glyph unicode="&#xa7;" horiz-adv-x="724" d="M98 -84l115 29q36 -148 158 -148q71 0 103 44t32 114q0 49 -24.5 96t-63 87.5t-85.5 82t-94 87.5t-85.5 96t-63 115t-24.5 136q0 97 43 169t116 110q-127 141 -127 278q0 127 68.5 210t202.5 83q109 0 181 -66t97 -186l-115 -28q-38 147 -157 147q-72 0 -104.5 -44 t-32.5 -114q0 -49 24.5 -96t63.5 -87.5t86 -82t94 -87.5t86 -95.5t63.5 -114.5t24.5 -137q0 -97 -43.5 -168.5t-118.5 -109.5q129 -143 129 -279q0 -127 -68 -210t-202 -83q-111 0 -183.5 66t-95.5 186zM551 502q0 65 -53.5 144t-184.5 202q-118 -50 -118 -178 q0 -81 46.5 -147t188.5 -199q121 49 121 178z" />
<glyph unicode="&#xa8;" horiz-adv-x="438" d="M51 1337h109v-186h-109v186zM281 1337h108v-186h-108v186z" />
<glyph unicode="&#xa9;" horiz-adv-x="1206" d="M606 1276q116 0 190 -70.5t95 -193.5l-105 -31q-17 92 -58.5 136t-111.5 44q-87 0 -131.5 -62t-44.5 -179v-363q0 -109 44.5 -173.5t129.5 -64.5q75 0 114.5 42.5t59.5 152.5l107 -27q-23 -150 -94 -216t-197 -66q-142 0 -222.5 96.5t-80.5 253.5v365q0 166 80 261 t225 95zM1116 907v-336q0 -172 -58 -305.5t-175 -212t-279 -78.5q-163 0 -280 78.5t-174.5 212t-57.5 305.5v336q0 173 57.5 306.5t174.5 212.5t280 79q162 0 279 -78.5t175 -212.5t58 -307zM1016 573v332q0 228 -109 364t-305 136q-195 0 -302 -135.5t-107 -364.5v-332 q0 -227 107.5 -362t303.5 -135q195 0 303.5 135t108.5 362z" />
<glyph unicode="&#xaa;" horiz-adv-x="532" d="M137 1352l-78 34q24 68 76.5 109t122.5 41q91 0 135.5 -53t44.5 -142v-325q0 -43 37 -43h21v-76h-56q-64 0 -92 49q-61 -55 -147 -55q-76 0 -120 45.5t-44 122.5q0 201 250 201h45v83q0 51 -19.5 77t-66.5 26q-37 0 -67 -25t-42 -69zM225 973q65 0 107 53v152h-45 q-148 0 -148 -113q0 -92 86 -92z" />
<glyph unicode="&#xab;" horiz-adv-x="520" d="M492 819l-160 -287l160 -288h-109l-158 288l158 287h109zM295 819l-160 -287l160 -288h-109l-157 288l157 287h109z" />
<glyph unicode="&#xac;" horiz-adv-x="782" d="M580 305v273h-492v120h604v-393h-112z" />
<glyph unicode="&#xad;" horiz-adv-x="452" d="M41 535v135h371v-135h-371z" />
<glyph unicode="&#xae;" horiz-adv-x="483" d="M453 1376v-123q0 -95 -55 -156t-156 -61q-102 0 -156.5 61t-54.5 156v123q0 95 54.5 155t156.5 60q101 0 156 -60t55 -155zM80 1376v-123q0 -168 160 -168q166 0 166 168v123q0 170 -166 170q-160 0 -160 -170zM303 1157l-63 133h-37v-133h-64v328h111q108 0 108 -96 q0 -74 -59 -89l72 -143h-68zM203 1434v-99h45q25 0 35 12.5t10 38.5t-10 37t-35 11h-45z" />
<glyph unicode="&#xaf;" horiz-adv-x="438" d="M416 1286v-102h-393v102h393z" />
<glyph unicode="&#xb0;" horiz-adv-x="462" d="M35 1393q0 85 57 144.5t139 59.5t139.5 -59.5t57.5 -144.5t-57.5 -144t-139.5 -59t-139 59t-57 144zM125 1393q0 -51 30.5 -84t75.5 -33t77 33.5t32 83.5t-32 83t-77 33t-75.5 -33t-30.5 -83z" />
<glyph unicode="&#xb1;" horiz-adv-x="782" d="M332 289v321h-244v123h244v330h112v-330h250v-123h-250v-321h-112zM694 94h-606v121h606v-121z" />
<glyph unicode="&#xb2;" d="M238 1636q85 0 127.5 -46t42.5 -120q0 -56 -23 -105t-57.5 -85t-69.5 -69t-63 -72t-35 -80h252v-84h-355l-2 47q1 49 20.5 95t48 79t61 68.5t60 64.5t46 65t18.5 72q0 86 -80 86q-37 0 -62.5 -26.5t-35.5 -77.5l-78 22q16 75 63 120.5t122 45.5z" />
<glyph unicode="&#xb3;" d="M168 1272v78h43q44 0 66 24.5t22 79.5q0 52 -19 75t-57 23q-75 0 -98 -92l-76 25q18 70 65.5 110.5t116.5 40.5q86 0 128 -46.5t42 -125.5q0 -117 -79 -147v-4q90 -21 90 -148q0 -198 -185 -198q-143 0 -182 139l74 27q27 -84 104 -84q44 0 65 29.5t21 92.5 q0 58 -23.5 79.5t-72.5 21.5h-45z" />
<glyph unicode="&#xb4;" horiz-adv-x="438" d="M201 1337h168l-148 -227h-108z" />
<glyph unicode="&#xb5;" horiz-adv-x="845" d="M109 336v698h145v-696q0 -213 164 -213q109 0 174 94v815h145v-1034h-127l-8 92h-4q-68 -90 -178 -90q-121 0 -174 100h-4q11 -271 30 -421l-147 -13q-16 348 -16 668z" />
<glyph unicode="&#xb6;" horiz-adv-x="1005" d="M299 1532h715v-137h-187v-1727h-143v1727h-246v-1727h-139v1348q-131 0 -199.5 68.5t-68.5 189.5q0 113 70 185.5t198 72.5z" />
<glyph unicode="&#xb7;" horiz-adv-x="395" d="M92 657q0 47 31 82t74 35t74.5 -35t31.5 -82t-31.5 -80.5t-74.5 -33.5t-74 33.5t-31 80.5z" />
<glyph unicode="&#xb8;" horiz-adv-x="438" d="M178 12h86l-53 -231h-129z" />
<glyph unicode="&#xb9;" horiz-adv-x="368" d="M188 1630h82v-655h-104v473h-111v70h45q48 0 65 20.5t23 91.5z" />
<glyph unicode="&#xba;" horiz-adv-x="503" d="M467 1321v-217q0 -93 -57 -154t-160 -61q-102 0 -157.5 60.5t-55.5 154.5v217q0 92 56 153.5t157 61.5q104 0 160.5 -60.5t56.5 -154.5zM143 1313v-203q0 -68 28.5 -103.5t78.5 -35.5q110 0 110 139v203q0 135 -110 135q-51 0 -79 -34t-28 -101z" />
<glyph unicode="&#xbb;" horiz-adv-x="520" d="M225 244l160 288l-160 287h109l158 -287l-158 -288h-109zM29 244l159 288l-159 287h108l158 -287l-158 -288h-108z" />
<glyph unicode="&#xbc;" horiz-adv-x="972" d="M250 1487h82v-656h-105v474h-110v69h45q48 0 65 21t23 92zM211 0h-105l646 1485h104zM858 0h-90v121h-260v67l252 465h98v-452h68l-6 -80h-62v-121zM608 201h160l8 334h-4z" />
<glyph unicode="&#xbd;" horiz-adv-x="972" d="M250 1487h82v-656h-105v474h-110v69h45q48 0 65 21t23 92zM211 0h-105l646 1485h104zM748 662q85 0 127.5 -46t42.5 -120q0 -56 -23 -105t-57.5 -85.5t-69.5 -69.5t-63 -72t-35 -80h252v-84h-355l-2 47q2 58 28.5 111t63.5 92.5t74 77t62.5 80t25.5 84.5q0 86 -80 86 q-76 0 -98 -105l-78 23q16 75 63 120.5t122 45.5z" />
<glyph unicode="&#xbe;" horiz-adv-x="972" d="M166 1128v78h43q44 0 66 24.5t22 80.5q0 52 -19 75t-57 23q-75 0 -98 -92l-76 24q18 70 65.5 111t116.5 41q86 0 128 -46.5t42 -125.5q0 -117 -80 -147v-5q91 -22 91 -147q0 -199 -185 -199q-143 0 -182 140l74 26q27 -84 104 -84q86 0 86 123q0 58 -23 79t-73 21h-45z M211 0h-105l646 1485h104zM844 0h-90v121h-260v67l251 465h99v-452h67l-6 -80h-61v-121zM594 201h160l8 334h-4z" />
<glyph unicode="&#xbf;" horiz-adv-x="796" d="M760 113q-35 -148 -130 -237t-233 -89q-84 0 -147.5 27.5t-101 75.5t-56 109t-18.5 134q0 153 75 288t205 220l17 236h108l10 -308q-266 -169 -266 -428q0 -99 42.5 -159t137.5 -60q179 0 236 225zM514 1292v-198h-182v198h182z" />
<glyph unicode="&#xc0;" horiz-adv-x="899" d="M258 348l-80 -348h-158l338 1337h181l338 -1337h-158l-80 348h-381zM449 1182l-164 -711h325zM217 1559h189l112 -158h-129z" />
<glyph unicode="&#xc1;" horiz-adv-x="899" d="M258 348l-80 -348h-158l338 1337h181l338 -1337h-158l-80 348h-381zM449 1182l-164 -711h325zM504 1559h180l-172 -158h-121z" />
<glyph unicode="&#xc2;" horiz-adv-x="899" d="M371 1401h-127l143 158h121l143 -158h-125l-77 90zM258 348l-80 -348h-158l338 1337h181l338 -1337h-158l-80 348h-381zM449 1182l-164 -711h325z" />
<glyph unicode="&#xc3;" horiz-adv-x="899" d="M592 1559l76 -9q-13 -75 -42.5 -113t-88.5 -38q-35 0 -66.5 20.5t-56 41t-43.5 20.5q-21 0 -33 -17t-21 -57l-75 8q13 76 42 114t89 38q36 0 68 -20.5t56.5 -41t43.5 -20.5q21 0 32 16.5t19 57.5zM258 348l-80 -348h-158l338 1337h181l338 -1337h-158l-80 348h-381z M449 1182l-164 -711h325z" />
<glyph unicode="&#xc4;" horiz-adv-x="899" d="M295 1559h108v-158h-108v158zM498 1559h108v-158h-108v158zM258 348l-80 -348h-158l338 1337h181l338 -1337h-158l-80 348h-381zM449 1182l-164 -711h325z" />
<glyph unicode="&#xc5;" horiz-adv-x="899" d="M258 348l-80 -348h-158l334 1321q-51 36 -51 106q0 60 41.5 99t104.5 39q64 0 104.5 -39t40.5 -99q0 -70 -51 -106l334 -1321h-158l-80 348h-381zM449 1182l-164 -711h325zM385 1427q0 -30 17 -49.5t47 -19.5q29 0 46 19.5t17 49.5q0 31 -17 50.5t-46 19.5 q-30 0 -47 -19.5t-17 -50.5z" />
<glyph unicode="&#xc6;" horiz-adv-x="1263" d="M311 352l-127 -352h-157l497 1337h676v-141h-444l35 -440h352v-127h-342l39 -490h374v-139h-522l-26 352h-355zM604 1169l-250 -694h301z" />
<glyph unicode="&#xc7;" horiz-adv-x="792" d="M426 1356q122 0 205.5 -77t107.5 -202l-118 -41q-35 183 -185 183q-194 0 -194 -269v-577q0 -119 49.5 -188.5t142.5 -69.5q82 0 125.5 43t63.5 153l118 -37q-24 -140 -91.5 -209.5t-178.5 -80.5l-47 -203h-129l84 205q-137 13 -215 118t-78 269v575q0 191 90 299.5 t250 108.5z" />
<glyph unicode="&#xc8;" horiz-adv-x="782" d="M119 1337h594v-141h-439v-440h351v-127h-351v-490h461v-139h-616v1337zM223 1559h189l112 -158h-129z" />
<glyph unicode="&#xc9;" horiz-adv-x="782" d="M119 1337h594v-141h-439v-440h351v-127h-351v-490h461v-139h-616v1337zM453 1559h180l-172 -158h-121z" />
<glyph unicode="&#xca;" horiz-adv-x="782" d="M119 1337h594v-141h-439v-440h351v-127h-351v-490h461v-139h-616v1337zM344 1401h-127l143 158h121l144 -158h-125l-78 90z" />
<glyph unicode="&#xcb;" horiz-adv-x="782" d="M119 1337h594v-141h-439v-440h351v-127h-351v-490h461v-139h-616v1337zM272 1559h109v-158h-109v158zM475 1559h109v-158h-109v158z" />
<glyph unicode="&#xcc;" horiz-adv-x="444" d="M143 1337h158v-1337h-158v1337zM-6 1559h188l113 -158h-129z" />
<glyph unicode="&#xcd;" horiz-adv-x="444" d="M143 1337h158v-1337h-158v1337zM274 1559h181l-172 -158h-121z" />
<glyph unicode="&#xce;" horiz-adv-x="444" d="M143 1337h158v-1337h-158v1337zM147 1401h-127l144 158h121l143 -158h-125l-78 90z" />
<glyph unicode="&#xcf;" horiz-adv-x="444" d="M143 1337h158v-1337h-158v1337zM68 1559h108v-158h-108v158zM270 1559h109v-158h-109v158z" />
<glyph unicode="&#xd0;" horiz-adv-x="940" d="M135 1337h354q174 0 270.5 -107.5t96.5 -299.5v-527q0 -190 -96.5 -296.5t-270.5 -106.5h-354v659h-104v101h104v577zM700 924q0 140 -52.5 207t-158.5 67h-198v-438h139v-101h-139v-524h198q211 0 211 271v518z" />
<glyph unicode="&#xd1;" horiz-adv-x="933" d="M119 1337h119l440 -948v948h137v-1337h-108l-449 969v-969h-139v1337zM616 1559l76 -9q-13 -75 -42.5 -113t-88.5 -38q-35 0 -66.5 20.5t-56 41t-43.5 20.5q-21 0 -32.5 -17t-20.5 -57l-76 8q13 76 42 114t89 38q36 0 68 -20.5t56.5 -41t43.5 -20.5q21 0 32 16.5t19 57.5 z" />
<glyph unicode="&#xd2;" horiz-adv-x="890" d="M446 1356q176 0 268.5 -105t92.5 -295v-573q0 -191 -92.5 -296t-268.5 -105q-175 0 -267.5 104.5t-92.5 294.5v573q0 191 92.5 296.5t267.5 105.5zM653 383v571q0 135 -51 200t-156 65q-103 0 -153.5 -64.5t-50.5 -200.5v-573q0 -136 49.5 -200t154.5 -64t156 64.5 t51 201.5zM233 1559h189l113 -158h-129z" />
<glyph unicode="&#xd3;" horiz-adv-x="890" d="M446 1356q176 0 268.5 -105t92.5 -295v-573q0 -191 -92.5 -296t-268.5 -105q-175 0 -267.5 104.5t-92.5 294.5v573q0 191 92.5 296.5t267.5 105.5zM653 383v571q0 135 -51 200t-156 65q-103 0 -153.5 -64.5t-50.5 -200.5v-573q0 -136 49.5 -200t154.5 -64t156 64.5 t51 201.5zM485 1559h181l-172 -158h-121z" />
<glyph unicode="&#xd4;" horiz-adv-x="890" d="M446 1356q176 0 268.5 -105t92.5 -295v-573q0 -191 -92.5 -296t-268.5 -105q-175 0 -267.5 104.5t-92.5 294.5v573q0 191 92.5 296.5t267.5 105.5zM653 383v571q0 135 -51 200t-156 65q-103 0 -153.5 -64.5t-50.5 -200.5v-573q0 -136 49.5 -200t154.5 -64t156 64.5 t51 201.5zM373 1401h-127l143 158h121l143 -158h-125l-77 90z" />
<glyph unicode="&#xd5;" horiz-adv-x="890" d="M446 1356q176 0 268.5 -105t92.5 -295v-573q0 -191 -92.5 -296t-268.5 -105q-175 0 -267.5 104.5t-92.5 294.5v573q0 191 92.5 296.5t267.5 105.5zM653 383v571q0 135 -51 200t-156 65q-103 0 -153.5 -64.5t-50.5 -200.5v-573q0 -136 49.5 -200t154.5 -64t156 64.5 t51 201.5zM621 1559l75 -9q-13 -75 -42.5 -113t-88.5 -38q-35 0 -66.5 20.5t-56 41t-43.5 20.5q-21 0 -32.5 -17t-20.5 -57l-76 8q13 76 42 114t89 38q36 0 68 -20.5t56.5 -41t43.5 -20.5q21 0 32.5 17t19.5 57z" />
<glyph unicode="&#xd6;" horiz-adv-x="890" d="M446 1356q176 0 268.5 -105t92.5 -295v-573q0 -191 -92.5 -296t-268.5 -105q-175 0 -267.5 104.5t-92.5 294.5v573q0 191 92.5 296.5t267.5 105.5zM653 383v571q0 135 -51 200t-156 65q-103 0 -153.5 -64.5t-50.5 -200.5v-573q0 -136 49.5 -200t154.5 -64t156 64.5 t51 201.5zM293 1559h108v-158h-108v158zM496 1559h108v-158h-108v158z" />
<glyph unicode="&#xd7;" horiz-adv-x="782" d="M596 330l-207 223l-205 -223l-80 86l205 223l-205 223l80 86l205 -223l207 223l80 -86l-207 -223l207 -223z" />
<glyph unicode="&#xd8;" horiz-adv-x="821" d="M438 1356q187 0 279 -119l57 98l60 -43l-74 -129q39 -89 39 -207v-573q0 -191 -92.5 -296t-268.5 -105q-188 0 -280 118l-52 -88l-59 43l68 119q-37 84 -37 207v573q0 192 92 297t268 105zM645 383v578l-399 -703q40 -141 192 -141q105 0 156 64.5t51 201.5zM233 954 v-571l396 698q-41 138 -191 138q-103 0 -154 -64.5t-51 -200.5z" />
<glyph unicode="&#xd9;" horiz-adv-x="929" d="M672 1337h153v-966q0 -188 -92.5 -288.5t-265.5 -100.5q-175 0 -269 99.5t-94 285.5v970h156v-972q0 -238 207 -238q102 0 153.5 56.5t51.5 181.5v972zM274 1559h189l112 -158h-129z" />
<glyph unicode="&#xda;" horiz-adv-x="929" d="M672 1337h153v-966q0 -188 -92.5 -288.5t-265.5 -100.5q-175 0 -269 99.5t-94 285.5v970h156v-972q0 -238 207 -238q102 0 153.5 56.5t51.5 181.5v972zM494 1559h180l-172 -158h-121z" />
<glyph unicode="&#xdb;" horiz-adv-x="929" d="M672 1337h153v-966q0 -188 -92.5 -288.5t-265.5 -100.5q-175 0 -269 99.5t-94 285.5v970h156v-972q0 -238 207 -238q102 0 153.5 56.5t51.5 181.5v972zM391 1401h-127l144 158h120l144 -158h-125l-78 90z" />
<glyph unicode="&#xdc;" horiz-adv-x="929" d="M672 1337h153v-966q0 -188 -92.5 -288.5t-265.5 -100.5q-175 0 -269 99.5t-94 285.5v970h156v-972q0 -238 207 -238q102 0 153.5 56.5t51.5 181.5v972zM313 1559h109v-158h-109v158zM516 1559h109v-158h-109v158z" />
<glyph unicode="&#xdd;" horiz-adv-x="833" d="M825 1337l-329 -884v-453h-156v446l-330 891h172l236 -725l237 725h170zM455 1559h180l-172 -158h-121z" />
<glyph unicode="&#xde;" horiz-adv-x="835" d="M467 1094q155 0 236 -103.5t81 -300.5q0 -193 -79.5 -297t-229.5 -104h-201v-289h-155v1337h155v-243h193zM274 954v-536h191q87 0 126.5 64t39.5 206q0 143 -39.5 204.5t-126.5 61.5h-191z" />
<glyph unicode="&#xdf;" horiz-adv-x="833" d="M395 756q0 158 142 229q8 36 8 84q0 74 -29.5 116t-85.5 42q-168 0 -168 -305v-922h-147v922q0 207 80 316.5t229 109.5q120 0 184 -81t64 -216q0 -82 -23 -152q-63 -21 -85.5 -51.5t-22.5 -83.5q0 -47 26.5 -86.5t64 -72.5t75 -71t64 -99.5t26.5 -139.5q0 -153 -75 -234 t-208 -81t-211 75l35 109q63 -60 154 -60q159 0 159 195q0 59 -26.5 107t-64 82t-75 69t-64 85.5t-26.5 113.5z" />
<glyph unicode="&#xe0;" horiz-adv-x="755" d="M190 774l-98 49q91 232 287 232q133 0 197.5 -85.5t64.5 -234.5v-561q0 -80 68 -80h24v-94q-40 -12 -74 -12q-103 0 -143 88q-83 -92 -213 -92q-109 0 -173 74t-64 202q0 155 88 243.5t280 88.5h62v143q0 197 -134 197q-112 0 -172 -158zM334 96q100 0 162 92v293h-62 q-124 0 -176.5 -53t-52.5 -158q0 -174 129 -174zM207 1337h168l106 -227h-112z" />
<glyph unicode="&#xe1;" horiz-adv-x="755" d="M190 774l-98 49q91 232 287 232q133 0 197.5 -85.5t64.5 -234.5v-561q0 -80 68 -80h24v-94q-40 -12 -74 -12q-103 0 -143 88q-83 -92 -213 -92q-109 0 -173 74t-64 202q0 155 88 243.5t280 88.5h62v143q0 197 -134 197q-112 0 -172 -158zM334 96q100 0 162 92v293h-62 q-124 0 -176.5 -53t-52.5 -158q0 -174 129 -174zM393 1337h168l-147 -227h-109z" />
<glyph unicode="&#xe2;" horiz-adv-x="755" d="M190 774l-98 49q91 232 287 232q133 0 197.5 -85.5t64.5 -234.5v-561q0 -80 68 -80h24v-94q-40 -12 -74 -12q-103 0 -143 88q-83 -92 -213 -92q-109 0 -173 74t-64 202q0 155 88 243.5t280 88.5h62v143q0 197 -134 197q-112 0 -172 -158zM334 96q100 0 162 92v293h-62 q-124 0 -176.5 -53t-52.5 -158q0 -174 129 -174zM303 1110h-115l144 227h102l144 -227h-115l-80 139z" />
<glyph unicode="&#xe3;" horiz-adv-x="755" d="M190 774l-98 49q91 232 287 232q133 0 197.5 -85.5t64.5 -234.5v-561q0 -80 68 -80h24v-94q-40 -12 -74 -12q-103 0 -143 88q-83 -92 -213 -92q-109 0 -173 74t-64 202q0 155 88 243.5t280 88.5h62v143q0 197 -134 197q-112 0 -172 -158zM334 96q100 0 162 92v293h-62 q-124 0 -176.5 -53t-52.5 -158q0 -174 129 -174zM532 1341l76 -10q-13 -116 -43.5 -169.5t-93.5 -53.5q-33 0 -62 24t-46 52t-36 52t-34 24q-23 0 -34.5 -30.5t-22.5 -111.5l-76 10q13 117 43 170.5t92 53.5q33 0 62.5 -24t46.5 -53t36.5 -53t36.5 -24q22 0 33 30t22 113z " />
<glyph unicode="&#xe4;" horiz-adv-x="755" d="M190 774l-98 49q91 232 287 232q133 0 197.5 -85.5t64.5 -234.5v-561q0 -80 68 -80h24v-94q-40 -12 -74 -12q-103 0 -143 88q-83 -92 -213 -92q-109 0 -173 74t-64 202q0 155 88 243.5t280 88.5h62v143q0 197 -134 197q-112 0 -172 -158zM334 96q100 0 162 92v293h-62 q-124 0 -176.5 -53t-52.5 -158q0 -174 129 -174zM217 1337h109v-186h-109v186zM446 1337h109v-186h-109v186z" />
<glyph unicode="&#xe5;" horiz-adv-x="755" d="M238 1225q0 63 41 104t104 41q64 0 104.5 -41t40.5 -104t-40.5 -103.5t-104.5 -40.5q-63 0 -104 40.5t-41 103.5zM322 1225q0 -32 16 -52t47 -20q29 0 45 20t16 52t-16.5 52.5t-46.5 20.5t-45.5 -20.5t-15.5 -52.5zM190 774l-98 49q91 232 287 232q133 0 197.5 -85.5 t64.5 -234.5v-561q0 -80 68 -80h24v-94q-40 -12 -74 -12q-103 0 -143 88q-83 -92 -213 -92q-109 0 -173 74t-64 202q0 155 88 243.5t280 88.5h62v143q0 197 -134 197q-112 0 -172 -158zM334 96q100 0 162 92v293h-62q-124 0 -176.5 -53t-52.5 -158q0 -174 129 -174z" />
<glyph unicode="&#xe6;" horiz-adv-x="1177" d="M1106 496h-440v-185q0 -211 161 -211q135 0 183 185l104 -39q-72 -264 -297 -264q-169 0 -237 139q-39 -70 -110.5 -104.5t-158.5 -34.5q-112 0 -178.5 75t-66.5 203q0 156 93 247t290 91h71v158q0 172 -143 172q-60 0 -104 -42t-64 -120l-109 43q31 111 107 178.5 t176 67.5q152 0 215 -117q72 117 223 117q133 0 209 -96t76 -240v-223zM340 98q63 0 114.5 35.5t65.5 99.5v252h-71q-242 0 -242 -217q0 -170 133 -170zM666 725v-127h307v131q0 100 -40 151.5t-114 51.5q-81 0 -117 -50.5t-36 -156.5z" />
<glyph unicode="&#xe7;" horiz-adv-x="700" d="M662 817l-107 -41q-42 152 -166 152q-164 0 -164 -213v-393q0 -107 42.5 -161.5t121.5 -54.5q64 0 104.5 37t63.5 121l109 -37q-27 -103 -87 -165t-151 -74l-45 -207h-131l84 205q-124 15 -190 105t-66 224v404q0 148 78 241t221 93q105 0 178.5 -62.5t104.5 -173.5z" />
<glyph unicode="&#xe8;" horiz-adv-x="751" d="M684 514h-459v-192q0 -106 44.5 -161t129.5 -55q68 0 110 41t69 138l110 -37q-32 -135 -106.5 -199.5t-194.5 -64.5q-147 0 -227 91t-80 242v402q0 151 79.5 242.5t225.5 91.5q142 0 220.5 -94.5t78.5 -245.5v-199zM225 725v-109h328v111q0 100 -42.5 152.5t-121.5 52.5 q-164 0 -164 -207zM201 1337h168l106 -227h-113z" />
<glyph unicode="&#xe9;" horiz-adv-x="751" d="M684 514h-459v-192q0 -106 44.5 -161t129.5 -55q68 0 110 41t69 138l110 -37q-32 -135 -106.5 -199.5t-194.5 -64.5q-147 0 -227 91t-80 242v402q0 151 79.5 242.5t225.5 91.5q142 0 220.5 -94.5t78.5 -245.5v-199zM225 725v-109h328v111q0 100 -42.5 152.5t-121.5 52.5 q-164 0 -164 -207zM412 1337h168l-148 -227h-108z" />
<glyph unicode="&#xea;" horiz-adv-x="751" d="M684 514h-459v-192q0 -106 44.5 -161t129.5 -55q68 0 110 41t69 138l110 -37q-32 -135 -106.5 -199.5t-194.5 -64.5q-147 0 -227 91t-80 242v402q0 151 79.5 242.5t225.5 91.5q142 0 220.5 -94.5t78.5 -245.5v-199zM225 725v-109h328v111q0 100 -42.5 152.5t-121.5 52.5 q-164 0 -164 -207zM307 1110h-114l143 227h102l144 -227h-115l-80 139z" />
<glyph unicode="&#xeb;" horiz-adv-x="751" d="M684 514h-459v-192q0 -106 44.5 -161t129.5 -55q68 0 110 41t69 138l110 -37q-32 -135 -106.5 -199.5t-194.5 -64.5q-147 0 -227 91t-80 242v402q0 151 79.5 242.5t225.5 91.5q142 0 220.5 -94.5t78.5 -245.5v-199zM225 725v-109h328v111q0 100 -42.5 152.5t-121.5 52.5 q-164 0 -164 -207zM219 1337h109v-186h-109v186zM449 1337h108v-186h-108v186z" />
<glyph unicode="&#xec;" horiz-adv-x="391" d="M123 993h145v-993h-145v993zM-18 1337h168l106 -227h-113z" />
<glyph unicode="&#xed;" horiz-adv-x="391" d="M123 993h145v-993h-145v993zM231 1337h168l-147 -227h-109z" />
<glyph unicode="&#xee;" horiz-adv-x="391" d="M123 993h145v-993h-145v993zM115 1110h-115l143 227h103l143 -227h-115l-79 139z" />
<glyph unicode="&#xef;" horiz-adv-x="391" d="M123 993h145v-993h-145v993zM29 1337h108v-186h-108v186zM258 1337h109v-186h-109v186z" />
<glyph unicode="&#xf0;" horiz-adv-x="792" d="M227 1247l25 109q112 -18 194 -58l74 107l66 -43l-70 -105q199 -139 199 -450v-494q0 -151 -82 -240t-234 -89q-151 0 -233 87.5t-82 239.5v336q0 150 74.5 239t210.5 89t211 -88q-15 191 -131 272l-91 -131l-65 45l86 125q-57 26 -152 49zM227 307q0 -205 172 -205 q170 0 170 205v336q0 207 -172 207q-170 0 -170 -207v-336z" />
<glyph unicode="&#xf1;" horiz-adv-x="829" d="M254 827v-827h-145v1034h127l6 -90q86 109 231 109q127 0 195.5 -89t68.5 -253v-711h-145v709q0 215 -160 215q-110 0 -178 -97zM571 1341l76 -10q-13 -116 -43.5 -169.5t-93.5 -53.5q-33 0 -62 24t-46 52t-36 52t-34 24q-23 0 -35 -30.5t-23 -111.5l-75 10 q13 117 43 170.5t92 53.5q33 0 62.5 -24t46.5 -53t36.5 -53t36.5 -24q22 0 33 30t22 113z" />
<glyph unicode="&#xf2;" horiz-adv-x="790" d="M711 719v-406q0 -150 -83 -239.5t-235 -89.5q-151 0 -232 89t-81 240v406q0 151 81.5 242.5t231.5 91.5q153 0 235.5 -91t82.5 -243zM225 715v-398q0 -213 168 -213q172 0 172 213v398q0 215 -172 215q-168 0 -168 -215zM188 1337h168l107 -227h-113z" />
<glyph unicode="&#xf3;" horiz-adv-x="790" d="M711 719v-406q0 -150 -83 -239.5t-235 -89.5q-151 0 -232 89t-81 240v406q0 151 81.5 242.5t231.5 91.5q153 0 235.5 -91t82.5 -243zM225 715v-398q0 -213 168 -213q172 0 172 213v398q0 215 -172 215q-168 0 -168 -215zM426 1337h168l-148 -227h-108z" />
<glyph unicode="&#xf4;" horiz-adv-x="790" d="M711 719v-406q0 -150 -83 -239.5t-235 -89.5q-151 0 -232 89t-81 240v406q0 151 81.5 242.5t231.5 91.5q153 0 235.5 -91t82.5 -243zM225 715v-398q0 -213 168 -213q172 0 172 213v398q0 215 -172 215q-168 0 -168 -215zM313 1110h-114l143 227h102l144 -227h-115 l-80 139z" />
<glyph unicode="&#xf5;" horiz-adv-x="790" d="M711 719v-406q0 -150 -83 -239.5t-235 -89.5q-151 0 -232 89t-81 240v406q0 151 81.5 242.5t231.5 91.5q153 0 235.5 -91t82.5 -243zM225 715v-398q0 -213 168 -213q172 0 172 213v398q0 215 -172 215q-168 0 -168 -215zM547 1341l76 -10q-13 -115 -43.5 -169t-94.5 -54 q-33 0 -62 24t-46 52t-36 52t-34 24q-23 0 -34.5 -30.5t-22.5 -111.5l-76 10q13 117 43 170.5t92 53.5q33 0 62.5 -24t47 -53t37 -53t36.5 -24q22 0 33 30t22 113z" />
<glyph unicode="&#xf6;" horiz-adv-x="790" d="M711 719v-406q0 -150 -83 -239.5t-235 -89.5q-151 0 -232 89t-81 240v406q0 151 81.5 242.5t231.5 91.5q153 0 235.5 -91t82.5 -243zM225 715v-398q0 -213 168 -213q172 0 172 213v398q0 215 -172 215q-168 0 -168 -215zM225 1337h109v-186h-109v186zM455 1337h108v-186 h-108v186z" />
<glyph unicode="&#xf7;" horiz-adv-x="782" d="M694 578h-606v120h606v-120zM293 961q0 43 27 72.5t67 29.5q39 0 66.5 -30t27.5 -72q0 -41 -28 -71t-66 -30q-39 0 -66.5 29.5t-27.5 71.5zM293 324q0 42 27.5 72t66.5 30q38 0 66 -30.5t28 -71.5t-28 -71t-66 -30q-39 0 -66.5 29.5t-27.5 71.5z" />
<glyph unicode="&#xf8;" horiz-adv-x="790" d="M711 719v-406q0 -150 -83 -239.5t-235 -89.5q-154 0 -237 96l-41 -64l-62 45l58 89q-31 73 -31 163v406q0 151 81.5 242.5t231.5 91.5q153 0 238 -95l45 70l63 -45l-61 -96q33 -67 33 -168zM393 104q172 0 172 213v396l-325 -502q38 -107 153 -107zM225 715v-387l322 501 q-38 101 -154 101q-168 0 -168 -215z" />
<glyph unicode="&#xf9;" horiz-adv-x="829" d="M578 205v829h143v-1034h-127l-8 88q-82 -104 -232 -104q-125 0 -193.5 89t-68.5 251v710h146v-710q0 -104 40.5 -158.5t118.5 -54.5q113 0 181 94zM221 1337h168l107 -227h-113z" />
<glyph unicode="&#xfa;" horiz-adv-x="829" d="M578 205v829h143v-1034h-127l-8 88q-82 -104 -232 -104q-125 0 -193.5 89t-68.5 251v710h146v-710q0 -104 40.5 -158.5t118.5 -54.5q113 0 181 94zM446 1337h168l-147 -227h-109z" />
<glyph unicode="&#xfb;" horiz-adv-x="829" d="M578 205v829h143v-1034h-127l-8 88q-82 -104 -232 -104q-125 0 -193.5 89t-68.5 251v710h146v-710q0 -104 40.5 -158.5t118.5 -54.5q113 0 181 94zM336 1110h-115l144 227h102l143 -227h-114l-80 139z" />
<glyph unicode="&#xfc;" horiz-adv-x="829" d="M578 205v829h143v-1034h-127l-8 88q-82 -104 -232 -104q-125 0 -193.5 89t-68.5 251v710h146v-710q0 -104 40.5 -158.5t118.5 -54.5q113 0 181 94zM248 1337h108v-186h-108v186zM477 1337h109v-186h-109v186z" />
<glyph unicode="&#xfd;" horiz-adv-x="815" d="M782 1034l-295 -985q-43 -141 -109.5 -204t-184.5 -70l-13 112q73 11 112.5 48t63.5 122l6 23l-329 954h157l244 -772l199 772h149zM457 1337h168l-148 -227h-108z" />
<glyph unicode="&#xfe;" horiz-adv-x="817" d="M469 -16q-135 0 -215 92v-295h-145v1556h145v-391q80 107 221 107q127 0 194.5 -89.5t67.5 -252.5v-385q0 -163 -69.5 -252.5t-198.5 -89.5zM254 827v-626q67 -92 176 -92q162 0 162 215v383q0 217 -160 217q-111 0 -178 -97z" />
<glyph unicode="&#xff;" horiz-adv-x="815" d="M782 1034l-295 -985q-43 -141 -109.5 -204t-184.5 -70l-13 112q73 11 112.5 48t63.5 122l6 23l-329 954h157l244 -772l199 772h149zM262 1337h109v-186h-109v186zM492 1337h108v-186h-108v186z" />
<glyph unicode="&#x152;" horiz-adv-x="1316" d="M653 1337h590v-141h-436v-440h350v-127h-350v-490h461v-139h-615v100q-74 -118 -239 -118q-153 0 -240.5 106t-87.5 293v573q0 188 87.5 295t240.5 107q163 0 239 -121v102zM653 383v571q0 136 -51 200.5t-156 64.5q-104 0 -154 -64.5t-50 -200.5v-573 q0 -137 49.5 -200.5t154.5 -63.5t156 64t51 202z" />
<glyph unicode="&#x153;" horiz-adv-x="1226" d="M1159 500h-450v-189q0 -102 42.5 -156.5t122.5 -54.5q141 0 189 185l104 -39q-73 -266 -301 -266q-164 0 -231 131h-4q-72 -131 -248 -131q-144 0 -223.5 93.5t-79.5 235.5v416q0 142 80 236t223 94q177 0 248 -133h4q71 133 242 133q131 0 206.5 -96t75.5 -240v-219z M561 717q0 215 -168 215q-166 0 -166 -215v-400q0 -219 164 -219q170 0 170 219v400zM709 725v-125h317v129q0 100 -41 151.5t-117 51.5q-159 0 -159 -207z" />
<glyph unicode="&#x178;" horiz-adv-x="833" d="M825 1337l-329 -884v-453h-156v446l-330 891h172l236 -725l237 725h170zM262 1559h109v-158h-109v158zM465 1559h108v-158h-108v158z" />
<glyph unicode="&#x17f;" horiz-adv-x="471" d="M520 1343l8 -110q-110 -7 -156 -63.5t-46 -168.5v-1001h-146v874h-151v117h151v15q0 323 340 337z" />
<glyph unicode="&#x2c6;" horiz-adv-x="438" d="M139 1110h-114l143 227h102l144 -227h-115l-80 139z" />
<glyph unicode="&#x2dc;" horiz-adv-x="438" d="M369 1341l75 -10q-13 -116 -43.5 -169.5t-93.5 -53.5q-33 0 -62 24t-46 52t-36 52t-34 24q-23 0 -34.5 -30.5t-22.5 -111.5l-76 10q13 117 43 170.5t92 53.5q33 0 62.5 -24t46.5 -53t36.5 -53t36.5 -24q22 0 33.5 30.5t22.5 112.5z" />
<glyph unicode="&#x2000;" horiz-adv-x="866" />
<glyph unicode="&#x2001;" horiz-adv-x="1733" />
<glyph unicode="&#x2002;" horiz-adv-x="866" />
<glyph unicode="&#x2003;" horiz-adv-x="1733" />
<glyph unicode="&#x2004;" horiz-adv-x="577" />
<glyph unicode="&#x2005;" horiz-adv-x="433" />
<glyph unicode="&#x2006;" horiz-adv-x="288" />
<glyph unicode="&#x2007;" horiz-adv-x="288" />
<glyph unicode="&#x2008;" horiz-adv-x="216" />
<glyph unicode="&#x2009;" horiz-adv-x="346" />
<glyph unicode="&#x200a;" horiz-adv-x="96" />
<glyph unicode="&#x2010;" horiz-adv-x="452" d="M41 535v135h371v-135h-371z" />
<glyph unicode="&#x2011;" horiz-adv-x="452" d="M41 535v135h371v-135h-371z" />
<glyph unicode="&#x2012;" horiz-adv-x="452" d="M41 535v135h371v-135h-371z" />
<glyph unicode="&#x2013;" horiz-adv-x="684" d="M41 549v119h604v-119h-604z" />
<glyph unicode="&#x2014;" horiz-adv-x="983" d="M41 547v121h903v-121h-903z" />
<glyph unicode="&#x2018;" horiz-adv-x="245" d="M199 1233v-146h-144v111q0 140 95 219l40 -39q-55 -59 -55 -131z" />
<glyph unicode="&#x2019;" horiz-adv-x="245" d="M47 1192v145h143v-110q0 -141 -92 -221l-41 41q54 54 54 131z" />
<glyph unicode="&#x201a;" horiz-adv-x="245" d="M47 12v146h143v-111q0 -141 -92 -221l-41 41q54 54 54 131z" />
<glyph unicode="&#x201c;" horiz-adv-x="434" d="M387 1233v-146h-143v111q0 141 94 219l41 -39q-55 -59 -55 -131zM199 1233v-146h-144v111q0 140 95 219l40 -39q-55 -59 -55 -131z" />
<glyph unicode="&#x201d;" horiz-adv-x="434" d="M236 1192v145h143v-110q0 -141 -92 -221l-41 41q53 53 53 131zM47 1192v145h143v-110q0 -141 -92 -221l-41 41q54 54 54 131z" />
<glyph unicode="&#x201e;" horiz-adv-x="434" d="M236 12v146h143v-111q0 -141 -92 -221l-41 41q53 53 53 131zM47 12v146h143v-111q0 -141 -92 -221l-41 41q54 54 54 131z" />
<glyph unicode="&#x2022;" horiz-adv-x="442" d="M35 637q0 92 54 154.5t134 62.5t134.5 -62.5t54.5 -154.5q0 -89 -55 -151t-134 -62t-133.5 62t-54.5 151z" />
<glyph unicode="&#x2026;" horiz-adv-x="882" d="M111 0v156h141v-156h-141zM373 0v156h141v-156h-141zM631 0v156h141v-156h-141z" />
<glyph unicode="&#x202f;" horiz-adv-x="346" />
<glyph unicode="&#x2039;" horiz-adv-x="323" d="M295 819l-160 -287l160 -288h-109l-157 288l157 287h109z" />
<glyph unicode="&#x203a;" horiz-adv-x="323" d="M29 244l159 288l-159 287h108l158 -287l-158 -288h-108z" />
<glyph unicode="&#x2044;" horiz-adv-x="466" d="M-4 0h-105l646 1485h104z" />
<glyph unicode="&#x205f;" horiz-adv-x="433" />
<glyph unicode="&#x2070;" d="M418 1430v-256q0 -98 -48.5 -152.5t-138.5 -54.5t-137 54.5t-47 152.5v253q0 98 47.5 153.5t136.5 55.5q90 0 138.5 -55t48.5 -151zM145 1427v-253q0 -123 86 -123q88 0 88 123v253q0 119 -88 119q-86 0 -86 -119z" />
<glyph unicode="&#x2074;" d="M379 975h-90v121h-260v67l252 465h98v-452h67l-6 -80h-61v-121zM129 1176h160l8 333h-4z" />
<glyph unicode="&#x2075;" d="M127 1270l-66 33l25 325h309l-6 -88h-225l-14 -178h4q49 27 100 27q162 0 162 -203q0 -219 -191 -219q-66 0 -112.5 35t-63.5 104l76 27q11 -42 37 -63t59 -21q49 0 70.5 31.5t21.5 105.5q0 65 -22 92t-74 27q-55 0 -90 -35z" />
<glyph unicode="&#x2076;" d="M242 1636q62 0 105.5 -35t60.5 -102l-70 -29q-25 82 -90 82q-98 0 -98 -131v-71h4q39 36 106 36q160 0 160 -194q0 -225 -187 -225q-87 0 -133.5 56t-46.5 161v227q0 101 51 163t138 62zM238 1305q-33 0 -59 -17t-29 -43v-74q0 -59 23 -88.5t63 -29.5q46 0 67 31.5 t21 105.5q0 59 -20.5 87t-65.5 28z" />
<glyph unicode="&#x2077;" horiz-adv-x="430" d="M199 975h-111l209 565h-266v88h368v-78z" />
<glyph unicode="&#x2078;" d="M233 967q-96 0 -143 46.5t-47 153.5q0 123 86 150v4q-72 29 -72 143q0 172 176 172q175 0 175 -172q0 -114 -72 -143v-4q86 -27 86 -150q0 -107 -47.5 -153.5t-141.5 -46.5zM324 1169q0 61 -23 84t-68 23q-47 0 -69.5 -23t-22.5 -84q0 -69 22 -94.5t70 -25.5t69.5 25.5 t21.5 94.5zM233 1556q-47 0 -65 -21t-18 -79q0 -59 19 -81.5t64 -22.5q44 0 63 22.5t19 81.5q0 57 -19 78.5t-63 21.5z" />
<glyph unicode="&#x2079;" d="M53 1096l68 34q15 -42 39 -60.5t61 -18.5q96 0 96 110v113h-4q-37 -37 -106 -37q-73 0 -116.5 47.5t-43.5 145.5q0 102 48 155t141 53q86 0 132 -53.5t46 -144.5v-277q0 -91 -50.5 -143.5t-136.5 -52.5q-133 0 -174 129zM225 1317q33 0 61 16.5t31 42.5v74q0 104 -81 104 q-49 0 -71 -27t-22 -91q0 -66 20 -92.5t62 -26.5z" />
<glyph unicode="&#x207a;" horiz-adv-x="407" d="M168 1096v157h-117v72h117v156h70v-156h118v-72h-118v-157h-70z" />
<glyph unicode="&#x207c;" horiz-adv-x="407" d="M342 1313h-283v71h283v-71zM342 1180h-283v71h283v-71z" />
<glyph unicode="&#x207d;" horiz-adv-x="249" d="M59 1147v291q0 153 43.5 220.5t137.5 67.5h22v-65h-22q-101 0 -101 -223v-291q0 -223 101 -223h22v-66h-22q-94 0 -137.5 68t-43.5 221z" />
<glyph unicode="&#x207e;" horiz-adv-x="249" d="M190 1438v-291q0 -153 -43.5 -221t-136.5 -68h-22v66h22q101 0 101 223v291q0 223 -101 223h-22v65h22q93 0 136.5 -67.5t43.5 -220.5z" />
<glyph unicode="&#x207f;" horiz-adv-x="475" d="M70 975v512h84l4 -47h4q47 57 117 57q68 0 101.5 -44t33.5 -118v-360h-95v356q0 84 -67 84q-59 0 -86 -53v-387h-96z" />
<glyph unicode="&#x2080;" d="M418 213v-256q0 -98 -48.5 -152.5t-138.5 -54.5t-137 54.5t-47 152.5v254q0 98 47.5 153.5t136.5 55.5q90 0 138.5 -55t48.5 -152zM145 211v-254q0 -123 86 -123q88 0 88 123v254q0 119 -88 119q-86 0 -86 -119z" />
<glyph unicode="&#x2081;" horiz-adv-x="368" d="M188 414h82v-656h-104v473h-111v70h45q48 0 65 21t23 92z" />
<glyph unicode="&#x2082;" d="M238 420q85 0 127.5 -46t42.5 -120q0 -56 -23 -105t-57.5 -85.5t-69.5 -69.5t-63 -72t-35 -80h252v-84h-355l-2 47q2 58 28.5 111t63.5 92.5t74 77t62.5 80t25.5 84.5q0 86 -80 86q-76 0 -98 -105l-78 23q16 75 63 120.5t122 45.5z" />
<glyph unicode="&#x2083;" d="M168 55v78h43q44 0 66 24.5t22 80.5q0 52 -19 75t-57 23q-75 0 -98 -92l-76 24q18 70 65.5 111t116.5 41q86 0 128 -46.5t42 -125.5q0 -118 -79 -148v-4q90 -21 90 -147q0 -199 -185 -199q-143 0 -182 139l74 27q27 -84 104 -84q86 0 86 123q0 58 -23 79t-73 21h-45z" />
<glyph unicode="&#x2084;" d="M379 -242h-90v121h-260v68l252 465h98v-453h67l-6 -80h-61v-121zM129 -41h160l8 334h-4z" />
<glyph unicode="&#x2085;" d="M127 53l-66 33l25 326h309l-6 -88h-225l-14 -179h4q49 27 100 27q162 0 162 -203q0 -219 -191 -219q-66 0 -112.5 35t-63.5 104l76 27q11 -42 37 -63t59 -21q49 0 70.5 31.5t21.5 105.5q0 65 -22 92t-74 27q-55 0 -90 -35z" />
<glyph unicode="&#x2086;" d="M242 420q62 0 105.5 -35t60.5 -102l-70 -29q-25 82 -90 82q-98 0 -98 -131v-72h4q40 37 106 37q160 0 160 -195q0 -225 -187 -225q-87 0 -133.5 56t-46.5 161v228q0 101 51 163t138 62zM238 88q-33 0 -59 -16.5t-29 -42.5v-74q0 -59 23 -89t63 -30q46 0 67 31.5t21 105.5 q0 59 -20.5 87t-65.5 28z" />
<glyph unicode="&#x2087;" horiz-adv-x="430" d="M199 -242h-111l209 566h-266v88h368v-78z" />
<glyph unicode="&#x2088;" d="M233 -250q-95 0 -142.5 47t-47.5 154q0 122 86 149v4q-72 29 -72 144q0 172 176 172q175 0 175 -172q0 -115 -72 -144v-4q86 -27 86 -149q0 -107 -47.5 -154t-141.5 -47zM324 -47q0 61 -23 83.5t-68 22.5q-48 0 -70 -22.5t-22 -83.5q0 -69 22 -95t70 -26t69.5 26t21.5 95 zM233 340q-47 0 -65 -21t-18 -79q0 -59 19 -82t64 -23q44 0 63 23t19 82q0 57 -19 78.5t-63 21.5z" />
<glyph unicode="&#x2089;" d="M53 -121l68 35q28 -80 100 -80q96 0 96 111v112h-4q-37 -37 -106 -37q-73 0 -116.5 47.5t-43.5 145.5q0 103 48.5 156t140.5 53q86 0 132 -54t46 -145v-276q0 -92 -51 -144.5t-136 -52.5q-133 0 -174 129zM225 100q33 0 61 17t31 43v73q0 105 -81 105q-48 0 -70.5 -27 t-22.5 -92q0 -66 20 -92.5t62 -26.5z" />
<glyph unicode="&#x208a;" horiz-adv-x="407" d="M168 -121v158h-117v72h117v155h70v-155h118v-72h-118v-158h-70z" />
<glyph unicode="&#x208c;" horiz-adv-x="407" d="M342 96h-283v72h283v-72zM342 -37h-283v72h283v-72z" />
<glyph unicode="&#x208d;" horiz-adv-x="249" d="M59 -70v291q0 153 43.5 221t137.5 68h22v-66h-22q-101 0 -101 -223v-291q0 -223 101 -223h22v-65h-22q-94 0 -137.5 67.5t-43.5 220.5z" />
<glyph unicode="&#x208e;" horiz-adv-x="249" d="M190 221v-291q0 -153 -43.5 -220.5t-136.5 -67.5h-22v65h22q101 0 101 223v291q0 223 -101 223h-22v66h22q93 0 136.5 -68t43.5 -221z" />
<glyph unicode="&#x20ac;" horiz-adv-x="839" d="M457 1356q119 0 203.5 -77.5t109.5 -201.5l-119 -41q-39 176 -186 176q-95 0 -145 -68.5t-50 -193.5v-119h363l-19 -92h-344v-86h328l-18 -94h-310v-186q0 -117 50.5 -186.5t144.5 -69.5q80 0 123.5 43t64.5 151l119 -37q-27 -153 -105 -222.5t-212 -69.5 q-157 0 -248.5 107.5t-91.5 283.5v186h-86v94h86v86h-86v92h86v117q0 191 90.5 299.5t251.5 108.5z" />
<glyph unicode="&#x2122;" horiz-adv-x="978" d="M831 1485h91v-649h-88v430h-5l-131 -324h-43l-129 324h-4v-430h-90v649h90l154 -398h4zM25 1485h346v-88h-125v-561h-99v561h-122v88z" />
<glyph unicode="&#x25fc;" horiz-adv-x="1034" d="M0 1034h1034v-1034h-1034v1034z" />
<glyph unicode="&#xfb01;" horiz-adv-x="860" d="M477 1346l8 -113q-114 -7 -163.5 -57.5t-49.5 -155.5v-29h469v-991h-145v874h-313v-874h-144v874h-110v117h110v29q0 151 81 234t257 92zM600 1337h135v-190h-135v190z" />
<glyph unicode="&#xfb02;" horiz-adv-x="874" d="M479 991v-117h-196v-874h-144v874h-110v117h110v35q0 159 85 235t278 76h246v-1337h-146v1229h-92q-127 0 -179 -45.5t-52 -161.5v-31h200z" />
<glyph unicode="&#xfb03;" horiz-adv-x="1316" d="M934 1346l8 -113q-114 -7 -163.5 -57.5t-49.5 -155.5v-29h469v-991h-145v874h-314v-874h-143v874h-313v-874h-144v874h-110v117h110v37q0 153 80.5 232t257.5 86l8 -109q-113 -7 -159.5 -55t-46.5 -154v-37h317v29q0 151 81 234t257 92zM1057 1337h135v-190h-135v190z " />
<glyph unicode="&#xfb04;" horiz-adv-x="1331" d="M936 991v-117h-195v-874h-145v874h-313v-874h-144v874h-110v117h110v37q0 153 80.5 232t257.5 86l8 -109q-113 -7 -159.5 -55t-46.5 -154v-37h317v33q0 159 85 236t277 77h244v-1337h-145v1229h-90q-127 0 -179.5 -46t-52.5 -161v-31h201z" />
<glyph horiz-adv-x="391" d="M123 993h145v-993h-145v993zM127 1337h137v-186h-137v186z" />
<glyph horiz-adv-x="722" d="M506 838h121v-181h-121v181zM119 1337h151v-1194h418v-143h-569v1337z" />
<glyph horiz-adv-x="440" d="M371 893h94v-231h-94v231zM127 1337h145v-1337h-145v1337z" />
<glyph horiz-adv-x="479" d="M35 162v63h94l14 193h68l-14 -193h104l16 193h68l-14 -193h75v-63h-77l-11 -148h88v-63h-90l-14 -193h-70l15 193h-105l-14 -193h-70l17 193h-80v63h82l10 148h-92zM197 162l-11 -148h105l10 148h-104z" />
<glyph horiz-adv-x="438" d="M207 516h59l2 -102q99 -27 131 -135l-65 -23q-19 63 -72 80l-14 -207q29 -15 46.5 -25t41.5 -28.5t37 -37t23 -46t10 -60.5q0 -79 -44 -126.5t-120 -53.5l-11 -94h-57l-2 96q-115 19 -145 148l69 26q18 -75 80 -94l12 219q-35 17 -57.5 31t-47.5 37t-37.5 55t-12.5 72 q0 72 44.5 119t119.5 51zM324 -82q0 35 -20.5 59.5t-59.5 47.5l-2 -197q82 10 82 90zM119 256q0 -33 18.5 -55t55.5 -43l4 182q-78 -9 -78 -84z" />
<glyph horiz-adv-x="247" d="M63 -240v134h119v-105q0 -97 -26 -145.5t-88 -55.5l-7 54q32 8 46 34.5t14 83.5h-58z" />
<glyph horiz-adv-x="247" d="M63 -242v136h119v-136h-119z" />
<glyph horiz-adv-x="475" d="M70 -242v512h84l4 -47h4q48 58 117 58q68 0 101.5 -44t33.5 -118v-361h-95v357q0 84 -67 84q-58 0 -86 -54v-387h-96z" />
<glyph horiz-adv-x="428" d="M408 274l-70 -22q-13 46 -36.5 66t-59.5 20q-97 0 -97 -129v-250q0 -135 95 -135q75 0 98 98l72 -24q-36 -127 -140 -144l-10 -96h-61l-2 96q-74 10 -112 65t-38 140v254q0 84 39.5 139.5t114.5 65.5l14 98h61l3 -102q93 -24 129 -140z" />
<glyph horiz-adv-x="495" d="M45 55l-10 68h59q-10 65 -10 102q0 95 47 150t135 55q69 0 117 -38t63 -101l-73 -29q-22 82 -101 82q-94 0 -94 -129q0 -22 8 -92h193l-8 -68h-176q8 -57 12 -106q27 -12 53.5 -40.5t48.5 -49.5t45 -21q25 0 40 22.5t22 78.5l73 -21q-12 -88 -43.5 -128t-85.5 -40 q-27 0 -52.5 14t-38.5 27t-35.5 42t-28.5 36h-4q-14 -119 -109 -119q-38 0 -60 23t-22 65q0 48 30 79.5t85 37.5q-1 5 -8 40.5t-11 59.5h-61zM100 -184q33 0 33 86q-51 -5 -51 -60q0 -26 18 -26z" />
<glyph horiz-adv-x="348" d="M66 102q0 33 16 62l-39 41l35 39l39 -43q26 16 57 16q33 0 57 -18l43 47l35 -39l-41 -45q17 -27 17 -60q0 -32 -17 -63l39 -41l-35 -39l-41 43q-26 -16 -57 -16t-57 16l-41 -45l-35 39l39 43q-14 25 -14 63zM123 100q0 -25 15 -40t38 -15q22 0 36.5 15.5t14.5 39.5 q0 26 -14.5 42t-36.5 16q-23 0 -38 -16t-15 -42z" />
<glyph horiz-adv-x="522" d="M426 -106h-109v-136h-104v136h-115v65h115v39h-115v65h95l-170 355h118l121 -314h4l123 314h119l-172 -355h90v-65h-109v-39h109v-65z" />
<glyph horiz-adv-x="489" d="M264 428q70 0 120.5 -39.5t68.5 -101.5l-78 -31q-23 82 -103 82q-104 0 -104 -129v-37h209l-12 -53h-197v-39h188l-12 -53h-176v-66q0 -59 26.5 -93t77.5 -34q42 0 66.5 20.5t36.5 67.5l78 -26q-34 -146 -189 -146q-93 0 -148 57.5t-55 153.5v66h-47v53h47v39h-47v53h47 v37q0 102 54.5 160.5t148.5 58.5z" />
<glyph horiz-adv-x="479" d="M35 1378v64h94l14 192h68l-14 -192h104l16 192h68l-14 -192h75v-64h-77l-11 -147h88v-64h-90l-14 -192h-70l15 192h-105l-14 -192h-70l17 192h-80v64h82l10 147h-92zM197 1378l-11 -147h105l10 147h-104z" />
<glyph horiz-adv-x="438" d="M207 1733h59l2 -103q99 -27 131 -135l-65 -22q-19 62 -72 79l-14 -206q29 -15 46.5 -25t41.5 -28.5t37 -37t23 -46t10 -60.5q0 -79 -44 -126.5t-120 -55.5l-11 -93h-57l-2 95q-115 22 -145 149l69 27q18 -75 80 -94l12 219q-28 14 -46 24t-41 27.5t-36 36t-22.5 46 t-9.5 60.5q0 72 44.5 119t119.5 51zM324 1135q0 35 -20.5 58.5t-59.5 47.5l-2 -197q39 5 60.5 28.5t21.5 62.5zM119 1473q0 -33 19 -55.5t55 -43.5l4 182q-78 -9 -78 -83z" />
<glyph horiz-adv-x="247" d="M63 977v133h119v-104q0 -97 -26 -145.5t-88 -55.5l-7 53q32 8 46 35t14 84h-58z" />
<glyph horiz-adv-x="247" d="M63 975v135h119v-135h-119z" />
<glyph horiz-adv-x="428" d="M408 1491l-70 -23q-13 46 -36.5 66t-59.5 20q-97 0 -97 -129v-249q0 -136 95 -136q75 0 98 99l72 -25q-36 -125 -140 -145l-10 -95h-61l-2 95q-74 12 -112 67t-38 140v254q0 84 39.5 139t114.5 65l14 99h61l3 -103q93 -24 129 -139z" />
<glyph horiz-adv-x="495" d="M45 1272l-10 67h59q-10 65 -10 103q0 95 47 150t135 55q69 0 117 -38.5t63 -101.5l-73 -28q-22 82 -101 82q-94 0 -94 -129q0 -23 8 -93h193l-8 -67h-176q8 -56 12 -107q27 -12 53.5 -40t48.5 -49t45 -21q26 0 40.5 22.5t21.5 77.5l73 -20q-12 -88 -43.5 -128t-85.5 -40 q-22 0 -41.5 7.5t-36 22t-27.5 27t-27 32.5t-23 29h-4q-14 -118 -109 -118q-38 0 -60 23t-22 65q0 48 30 79t85 37q-1 4 -8 40.5t-11 60.5h-61zM100 1032q33 0 33 86q-51 -5 -51 -59q0 -27 18 -27z" />
<glyph horiz-adv-x="348" d="M66 1319q0 32 16 61l-39 41l35 39l39 -43q27 17 57 17q32 0 57 -19l43 47l35 -39l-41 -45q17 -27 17 -59q0 -33 -17 -64l39 -41l-35 -38l-41 43q-27 -17 -57 -17t-57 17l-41 -45l-35 38l39 43q-14 25 -14 64zM123 1317q0 -25 15 -40t38 -15q22 0 36.5 15.5t14.5 39.5 q0 26 -14.5 41.5t-36.5 15.5q-24 0 -38.5 -15.5t-14.5 -41.5z" />
<glyph horiz-adv-x="522" d="M426 1110h-109v-135h-104v135h-115v66h115v38h-115v66h95l-170 354h118l121 -313h4l123 313h119l-172 -354h90v-66h-109v-38h109v-66z" />
<glyph horiz-adv-x="489" d="M264 1645q70 0 120.5 -40t68.5 -102l-78 -30q-22 81 -103 81q-104 0 -104 -129v-36h209l-12 -54h-197v-39h188l-12 -53h-176v-65q0 -59 26.5 -93t77.5 -34q42 0 66.5 20.5t36.5 67.5l78 -27q-33 -145 -189 -145q-93 0 -148 57.5t-55 153.5v65h-47v53h47v39h-47v54h47v36 q0 102 54.5 161t148.5 59z" />
<glyph horiz-adv-x="479" d="M35 1235v63h94l14 193h68l-14 -193h104l16 193h68l-14 -193h75v-63h-77l-11 -148h88v-63h-90l-14 -193h-70l15 193h-105l-14 -193h-70l17 193h-80v63h82l10 148h-92zM197 1235l-11 -148h105l10 148h-104z" />
<glyph horiz-adv-x="438" d="M207 1589h59l2 -102q99 -27 131 -135l-65 -23q-19 63 -72 80l-14 -207q37 -19 58 -32t48 -37t39.5 -55.5t12.5 -71.5q0 -79 -44 -127t-120 -56l-11 -92h-57l-2 94q-115 22 -145 150l69 26q18 -75 80 -94l12 219q-35 17 -57.5 31t-47.5 37t-37.5 55t-12.5 72 q0 72 44.5 119t119.5 51zM324 991q0 35 -20.5 59.5t-59.5 47.5l-2 -197q82 10 82 90zM119 1329q0 -33 18.5 -55t55.5 -43l4 182q-78 -9 -78 -84z" />
<glyph horiz-adv-x="249" d="M59 1004v290q0 153 43.5 221t137.5 68h22v-65h-22q-101 0 -101 -224v-290q0 -224 101 -224h22v-65h-22q-94 0 -137.5 68t-43.5 221z" />
<glyph horiz-adv-x="249" d="M190 1294v-290q0 -153 -43.5 -221t-136.5 -68h-22v65h22q101 0 101 224v290q0 224 -101 224h-22v65h22q93 0 136.5 -68t43.5 -221z" />
<glyph horiz-adv-x="407" d="M168 952v158h-117v72h117v155h70v-155h118v-72h-118v-158h-70z" />
<glyph horiz-adv-x="247" d="M63 834v133h119v-105q0 -97 -26 -145t-88 -55l-7 53q32 8 46 35t14 84h-58z" />
<glyph horiz-adv-x="247" d="M63 831v136h119v-136h-119z" />
<glyph d="M418 1286v-256q0 -98 -48.5 -152.5t-138.5 -54.5t-137 54.5t-47 152.5v254q0 98 47.5 153.5t136.5 55.5q90 0 138.5 -55t48.5 -152zM145 1284v-254q0 -123 86 -123q88 0 88 123v254q0 119 -88 119q-86 0 -86 -119z" />
<glyph horiz-adv-x="368" d="M188 1487h82v-656h-104v474h-111v69h45q48 0 65 21t23 92z" />
<glyph d="M238 1493q85 0 127.5 -46t42.5 -120q0 -56 -23 -105t-57.5 -85.5t-69.5 -69.5t-63 -72t-35 -80h252v-84h-355l-2 48q1 49 20.5 95t48 79t61 68.5t60 64.5t46 65t18.5 72q0 86 -80 86q-37 0 -62.5 -26.5t-35.5 -77.5l-78 22q16 75 63 120.5t122 45.5z" />
<glyph d="M168 1128v78h43q44 0 66 24.5t22 80.5q0 52 -19 75t-57 23q-75 0 -98 -92l-76 24q18 70 65.5 111t116.5 41q86 0 128 -46.5t42 -125.5q0 -117 -79 -147v-5q90 -21 90 -147q0 -199 -185 -199q-143 0 -182 140l74 26q27 -84 104 -84q86 0 86 123q0 58 -23 79t-73 21h-45z " />
<glyph d="M379 831h-90v121h-260v68l252 465h98v-453h67l-6 -80h-61v-121zM129 1032h160l8 334h-4z" />
<glyph d="M127 1126l-66 33l25 326h309l-6 -88h-225l-14 -178h4q47 26 100 26q162 0 162 -203q0 -219 -191 -219q-66 0 -112.5 35.5t-63.5 104.5l76 26q11 -42 37 -63t59 -21q49 0 70.5 31.5t21.5 105.5q0 65 -22 92t-74 27q-55 0 -90 -35z" />
<glyph d="M242 1493q62 0 105.5 -35t60.5 -102l-70 -29q-25 82 -90 82q-98 0 -98 -131v-72h4q40 37 106 37q160 0 160 -194q0 -226 -187 -226q-87 0 -133.5 56t-46.5 161v228q0 101 51 163t138 62zM238 1161q-33 0 -59 -16.5t-29 -42.5v-74q0 -59 23 -89t63 -30q46 0 67 32t21 106 q0 59 -20.5 86.5t-65.5 27.5z" />
<glyph horiz-adv-x="430" d="M199 831h-111l209 566h-266v88h368v-78z" />
<glyph d="M233 823q-95 0 -142.5 47t-47.5 154q0 123 86 150v4q-72 29 -72 143q0 172 176 172q175 0 175 -172q0 -114 -72 -143v-4q86 -27 86 -150q0 -107 -47.5 -154t-141.5 -47zM324 1026q0 61 -23 84t-68 23q-47 0 -69.5 -23t-22.5 -84q0 -69 22 -95t70 -26t69.5 26t21.5 95z M233 1413q-47 0 -65 -21t-18 -79q0 -59 19 -82t64 -23q44 0 63 23t19 82q0 57 -19 78.5t-63 21.5z" />
<glyph d="M53 952l68 35q28 -80 100 -80q96 0 96 111v112h-4q-36 -36 -106 -36q-73 0 -116.5 47t-43.5 145q0 103 48.5 156t140.5 53q86 0 132 -54t46 -145v-276q0 -92 -51 -144.5t-136 -52.5q-133 0 -174 129zM225 1174q33 0 61 16.5t31 42.5v74q0 104 -81 104q-48 0 -70.5 -27 t-22.5 -92q0 -66 20 -92t62 -26z" />
<glyph horiz-adv-x="407" d="M342 1169h-283v72h283v-72zM342 1036h-283v72h283v-72z" />
<glyph horiz-adv-x="475" d="M70 831v512h84l4 -47h4q48 58 117 58q68 0 101.5 -44t33.5 -118v-361h-95v357q0 84 -67 84q-59 0 -86 -53v-388h-96z" />
<glyph horiz-adv-x="428" d="M408 1348l-70 -23q-13 46 -36.5 66t-59.5 20q-97 0 -97 -129v-250q0 -135 95 -135q75 0 98 98l72 -24q-36 -126 -140 -146l-10 -94h-61l-2 94q-74 12 -112 67t-38 140v254q0 84 39.5 139.5t114.5 65.5l14 98h61l3 -102q93 -24 129 -139z" />
<glyph horiz-adv-x="495" d="M45 1128l-10 68h59q-10 65 -10 102q0 95 47 150t135 55q69 0 117 -38t63 -101l-73 -29q-22 82 -101 82q-94 0 -94 -129q0 -22 8 -92h193l-8 -68h-176q8 -57 12 -106q27 -12 53.5 -40.5t48.5 -49.5t45 -21q25 0 40 22.5t22 78.5l73 -21q-12 -88 -43.5 -128t-85.5 -40 q-27 0 -52.5 14t-38.5 27t-35.5 42t-28.5 36h-4q-14 -119 -109 -119q-38 0 -60 23t-22 65q0 48 30 79.5t85 37.5q-1 5 -8 40.5t-11 59.5h-61zM100 889q33 0 33 86q-51 -5 -51 -60q0 -26 18 -26z" />
<glyph horiz-adv-x="348" d="M66 1176q0 32 16 61l-39 41l35 39l39 -43q26 16 57 16q33 0 57 -18l43 47l35 -39l-41 -45q17 -27 17 -59q0 -33 -17 -64l39 -41l-35 -39l-41 43q-26 -16 -57 -16t-57 16l-41 -45l-35 39l39 43q-14 25 -14 64zM123 1174q0 -25 15 -40.5t38 -15.5q22 0 36.5 15.5t14.5 40.5 q0 26 -14.5 41.5t-36.5 15.5q-24 0 -38.5 -15.5t-14.5 -41.5z" />
<glyph horiz-adv-x="522" d="M426 967h-109v-136h-104v136h-115v65h115v39h-115v66h95l-170 354h118l121 -313h4l123 313h119l-172 -354h90v-66h-109v-39h109v-65z" />
<glyph horiz-adv-x="489" d="M264 1501q70 0 120.5 -39.5t68.5 -101.5l-78 -31q-23 82 -103 82q-104 0 -104 -129v-37h209l-12 -53h-197v-39h188l-12 -53h-176v-66q0 -59 26.5 -93t77.5 -34q42 0 66.5 20.5t36.5 67.5l78 -26q-34 -146 -189 -146q-93 0 -148 57.5t-55 153.5v66h-47v53h47v39h-47v53h47 v37q0 102 54.5 160.5t148.5 58.5z" />
<glyph horiz-adv-x="479" d="M35 403v64h94l14 192h68l-14 -192h104l16 192h68l-14 -192h75v-64h-77l-11 -147h88v-63h-90l-14 -193h-70l15 193h-105l-14 -193h-70l17 193h-80v63h82l10 147h-92zM197 403l-11 -147h105l10 147h-104z" />
<glyph horiz-adv-x="438" d="M207 758h59l2 -103q99 -27 131 -135l-65 -22q-19 63 -72 80l-14 -207q29 -15 46.5 -25t41.5 -28.5t37 -37t23 -46t10 -60.5q0 -79 -44 -126.5t-120 -53.5l-11 -94h-57l-2 96q-115 19 -145 147l69 27q18 -75 80 -94l12 219q-28 14 -46 24t-41 27.5t-36 36t-22.5 46 t-9.5 60.5q0 72 44.5 119t119.5 51zM324 160q0 35 -20.5 58.5t-59.5 47.5l-2 -196q82 10 82 90zM119 498q0 -33 19 -55.5t55 -43.5l4 183q-78 -9 -78 -84z" />
<glyph horiz-adv-x="249" d="M59 172v291q0 153 43.5 221t137.5 68h22v-66h-22q-101 0 -101 -223v-291q0 -223 101 -223h22v-66h-22q-94 0 -137.5 68t-43.5 221z" />
<glyph horiz-adv-x="249" d="M190 463v-291q0 -153 -43.5 -221t-136.5 -68h-22v66h22q101 0 101 223v291q0 223 -101 223h-22v66h22q93 0 136.5 -68t43.5 -221z" />
<glyph horiz-adv-x="407" d="M168 121v158h-117v71h117v156h70v-156h118v-71h-118v-158h-70z" />
<glyph horiz-adv-x="247" d="M63 2v133h119v-104q0 -97 -26 -145.5t-88 -55.5l-7 53q32 8 46 35t14 84h-58z" />
<glyph horiz-adv-x="247" d="M63 0v135h119v-135h-119z" />
<glyph d="M418 455v-256q0 -98 -48.5 -152.5t-138.5 -54.5t-137 54.5t-47 152.5v254q0 98 47.5 153.5t136.5 55.5q90 0 138.5 -55t48.5 -152zM145 453v-254q0 -123 86 -123q88 0 88 123v254q0 118 -88 118q-86 0 -86 -118z" />
<glyph horiz-adv-x="368" d="M188 655h82v-655h-104v473h-111v70h45q48 0 65 20.5t23 91.5z" />
<glyph d="M238 662q85 0 127.5 -46t42.5 -120q0 -56 -23 -105t-57.5 -85.5t-69.5 -69.5t-63 -72t-35 -80h252v-84h-355l-2 47q2 58 28.5 111t63.5 92.5t74 77t62.5 80t25.5 84.5q0 86 -80 86q-76 0 -98 -105l-78 23q16 75 63 120.5t122 45.5z" />
<glyph d="M168 297v78h43q44 0 66 24.5t22 79.5q0 99 -76 99q-74 0 -98 -93l-76 25q18 70 65.5 111t116.5 41q86 0 128 -47t42 -126q0 -117 -79 -147v-4q90 -21 90 -148q0 -198 -185 -198q-143 0 -182 139l74 27q27 -84 104 -84q86 0 86 123q0 58 -23 79t-73 21h-45z" />
<glyph d="M379 0h-90v121h-260v67l252 465h98v-452h67l-6 -80h-61v-121zM129 201h160l8 334h-4z" />
<glyph d="M127 295l-66 33l25 325h309l-6 -88h-225l-14 -178h4q49 27 100 27q162 0 162 -203q0 -219 -191 -219q-66 0 -112.5 35t-63.5 104l76 27q11 -42 37 -63t59 -21q49 0 70.5 31.5t21.5 105.5q0 65 -22 92t-74 27q-55 0 -90 -35z" />
<glyph d="M242 662q62 0 105.5 -35.5t60.5 -102.5l-70 -28q-25 82 -90 82q-98 0 -98 -132v-71h4q40 37 106 37q160 0 160 -195q0 -225 -187 -225q-87 0 -133.5 56t-46.5 161v227q0 101 51 163.5t138 62.5zM238 330q-33 0 -59 -17t-29 -43v-73q0 -59 23 -89t63 -30q46 0 67 31.5 t21 105.5q0 59 -20.5 87t-65.5 28z" />
<glyph horiz-adv-x="430" d="M199 0h-111l209 565h-266v88h368v-78z" />
<glyph d="M233 -8q-95 0 -142.5 47t-47.5 154q0 122 86 149v4q-72 29 -72 143q0 173 176 173q175 0 175 -173q0 -114 -72 -143v-4q86 -27 86 -149q0 -107 -47.5 -154t-141.5 -47zM324 195q0 61 -23 83.5t-68 22.5q-48 0 -70 -22.5t-22 -83.5q0 -69 22 -95t70 -26t69.5 26t21.5 95z M233 582q-46 0 -64.5 -21.5t-18.5 -79.5q0 -59 19 -81.5t64 -22.5q44 0 63 22.5t19 81.5q0 57 -19 79t-63 22z" />
<glyph d="M53 121l68 35q28 -80 100 -80q96 0 96 110v113h-4q-37 -37 -106 -37q-73 0 -116.5 47.5t-43.5 145.5q0 103 48.5 156t140.5 53q86 0 132 -54t46 -145v-277q0 -91 -50.5 -143.5t-136.5 -52.5q-133 0 -174 129zM225 342q33 0 61 16.5t31 42.5v74q0 105 -81 105 q-48 0 -70.5 -27t-22.5 -92q0 -66 20 -92.5t62 -26.5z" />
<glyph horiz-adv-x="407" d="M342 338h-283v72h283v-72zM342 205h-283v71h283v-71z" />
<glyph horiz-adv-x="475" d="M70 0v512h84l4 -47h4q47 57 117 57q68 0 101.5 -44t33.5 -118v-360h-95v356q0 84 -67 84q-59 0 -86 -53v-387h-96z" />
<glyph horiz-adv-x="428" d="M408 516l-70 -22q-13 46 -36.5 66t-59.5 20q-97 0 -97 -129v-250q0 -135 95 -135q75 0 98 98l72 -25q-36 -126 -140 -143l-10 -96h-61l-2 96q-74 10 -112 65t-38 140v254q0 84 39.5 139t114.5 65l14 99h61l3 -103q93 -24 129 -139z" />
<glyph horiz-adv-x="495" d="M45 297l-10 68h59q-10 65 -10 102q0 95 47 150t135 55q69 0 117 -38.5t63 -101.5l-73 -28q-22 82 -101 82q-94 0 -94 -129q0 -22 8 -92h193l-8 -68h-176q8 -56 12 -107q27 -12 53.5 -40t48.5 -49t45 -21q26 0 40.5 22.5t21.5 77.5l73 -20q-12 -88 -43.5 -128t-85.5 -40 q-27 0 -52.5 14t-38.5 27t-35.5 42t-28.5 36h-4q-14 -119 -109 -119q-38 0 -60 23t-22 65q0 48 30 79.5t85 37.5q-1 5 -8 40.5t-11 59.5h-61zM100 57q33 0 33 86q-51 -5 -51 -59q0 -27 18 -27z" />
<glyph horiz-adv-x="348" d="M66 344q0 33 16 62l-39 40l35 39l39 -43q27 17 57 17q32 0 57 -19l43 47l35 -38l-41 -46q17 -27 17 -59t-17 -63l39 -41l-35 -39l-41 43q-27 -17 -57 -17t-57 17l-41 -45l-35 39l39 43q-14 25 -14 63zM123 342q0 -25 15 -40t38 -15q22 0 36.5 15.5t14.5 39.5 q0 26 -14.5 41.5t-36.5 15.5q-24 0 -38.5 -15.5t-14.5 -41.5z" />
<glyph horiz-adv-x="522" d="M426 135h-109v-135h-104v135h-115v66h115v39h-115v65h95l-170 354h118l121 -313h4l123 313h119l-172 -354h90v-65h-109v-39h109v-66z" />
<glyph horiz-adv-x="489" d="M264 670q70 0 120.5 -40t68.5 -102l-78 -30q-23 82 -103 82q-104 0 -104 -129v-37h209l-12 -54h-197v-38h188l-12 -54h-176v-65q0 -59 26.5 -93t77.5 -34q42 0 66.5 20.5t36.5 67.5l78 -27q-33 -145 -189 -145q-93 0 -148 57.5t-55 153.5v65h-47v54h47v38h-47v54h47v37 q0 102 54.5 160.5t148.5 58.5z" />
<glyph horiz-adv-x="71" />
<glyph horiz-adv-x="765" d="M45 768v106h156l26 371h109l-27 -371h174l27 371h108l-26 -371h121v-106h-123l-21 -289h144v-104h-146l-28 -375h-109l29 375h-174l-29 -375h-109l29 375h-131v104h133l19 289h-152zM305 768l-16 -289h172l18 289h-174z" />
<glyph horiz-adv-x="765" d="M76 952q0 125 66.5 206.5t185.5 96.5l28 240h95l4 -244q85 -21 141 -85t80 -160l-109 -35q-46 162 -184 162q-83 0 -119.5 -42.5t-36.5 -127.5q0 -54 25 -100.5t65 -81.5t88.5 -68.5t97.5 -71.5t89 -81t65 -106t25 -139q0 -133 -65 -219.5t-175 -107.5l-22 -248h-94 l-7 246q-101 12 -162.5 78t-88.5 196l112 35q23 -101 71 -147t124 -46q75 0 120.5 52t45.5 141q0 59 -25.5 108.5t-66.5 85t-90.5 69.5t-99.5 71t-91 79.5t-66.5 105t-25.5 138.5z" />
<glyph horiz-adv-x="765" d="M324 176v359h-238v120h238v359h114v-359h244v-120h-244v-359h-114z" />
<glyph horiz-adv-x="808" d="M733 827v-475q0 -178 -85 -274t-245 -96t-242.5 96.5t-82.5 277.5v465q0 182 83 281.5t242 99.5q160 0 245 -97.5t85 -277.5zM221 821v-471q0 -127 45 -186.5t137 -59.5q94 0 138.5 58.5t44.5 185.5v481q0 130 -44.5 189t-138.5 59q-92 0 -137 -61.5t-45 -194.5z" />
<glyph horiz-adv-x="561" d="M299 856h-240v113h111q65 0 97.5 18.5t49 69t21.5 153.5h115v-1210h-154v856z" />
<glyph horiz-adv-x="755" d="M395 1206q145 0 217 -76.5t72 -211.5q0 -146 -114.5 -341t-317.5 -444v-4h446v-129h-632l-5 96q215 244 346.5 462t131.5 353q0 84 -37.5 125t-118.5 41q-136 0 -209 -164l-108 45q53 124 132 186t197 62z" />
<glyph horiz-adv-x="757" d="M662 907q0 -245 -146 -301v-4q97 -21 138.5 -89t41.5 -196q0 -493 -590 -493l-14 129q248 0 352.5 90t104.5 276q0 127 -52.5 172.5t-183.5 45.5h-43v120h39q113 0 160 53.5t47 186.5q0 93 -34 135.5t-113 42.5q-138 0 -213 -164l-109 45q104 250 334 250 q142 0 211.5 -79.5t69.5 -219.5z" />
<glyph horiz-adv-x="755" d="M606 -172h-139v475h-461v109l455 778h145v-766h146l-13 -121h-133v-475zM160 424h307l16 588h-4z" />
<glyph horiz-adv-x="733" d="M631 1053h-414l-24 -396q84 43 180 43q152 0 228.5 -81.5t76.5 -268.5q0 -248 -152 -387t-426 -139l-12 127q229 0 336.5 102t107.5 285q0 134 -48 185.5t-154 51.5q-48 0 -96.5 -15t-81.5 -42l-97 45l43 627h543z" />
<glyph horiz-adv-x="776" d="M629 1262q-165 0 -267.5 -126.5t-123.5 -383.5h4q73 67 182 67q295 0 295 -391q0 -221 -82 -333.5t-240 -112.5q-155 0 -231 112t-76 314v223q0 360 142.5 559t388.5 199zM406 686q-104 0 -170 -78v-196q0 -158 41.5 -228.5t125.5 -70.5q85 0 128.5 70t43.5 239 q0 145 -40.5 204.5t-128.5 59.5z" />
<glyph horiz-adv-x="690" d="M270 -164h-155l409 1217h-512v137h662v-117z" />
<glyph horiz-adv-x="774" d="M387 -18q-160 0 -239.5 83.5t-79.5 274.5q0 228 157 281v4q-137 62 -137 274q0 307 299 307t299 -305q0 -212 -137 -276v-4q158 -54 158 -281q0 -191 -79.5 -274.5t-240.5 -83.5zM561 350q0 115 -44.5 162t-129.5 47t-128.5 -46.5t-43.5 -162.5q0 -132 40 -188t132 -56 t133 56t41 188zM387 1081q-83 0 -121.5 -46t-38.5 -154q0 -110 38 -159.5t122 -49.5q85 0 122.5 49.5t37.5 159.5q0 109 -37.5 154.5t-122.5 45.5z" />
<glyph horiz-adv-x="776" d="M137 -47q387 0 406 553h-4q-75 -62 -183 -62q-142 0 -220.5 90t-78.5 277q0 194 82.5 293.5t241.5 99.5q152 0 228.5 -112t76.5 -310v-215q0 -363 -142 -553t-394 -190zM375 569q98 0 168 82v129q0 153 -39.5 224t-128.5 71q-85 0 -129.5 -59.5t-44.5 -198.5 q0 -134 43 -191t131 -57z" />
<glyph horiz-adv-x="765" d="M664 872l-388 -278l390 -281v-161l-580 432v18l578 434v-164z" />
<glyph horiz-adv-x="765" d="M670 666h-574v122h574v-122zM670 403h-574v121h574v-121z" />
<glyph horiz-adv-x="765" d="M492 594l-392 280v162h4l578 -432v-18l-576 -434h-4v161z" />
<glyph horiz-adv-x="765" d="M686 1010l-117 -41q-45 168 -182 168q-91 0 -132.5 -63t-41.5 -193v-531q0 -129 43.5 -189.5t132.5 -60.5q70 0 114.5 43t67.5 136l117 -37q-56 -229 -244 -258l-24 -244h-92l-6 244q-254 34 -254 374v519q0 162 66 262.5t198 117.5l26 238h95l4 -242q84 -20 142.5 -82 t86.5 -161z" />
<glyph horiz-adv-x="765" d="M657 1016l-108 -35q-18 84 -55 119t-93 35q-72 0 -105.5 -59.5t-33.5 -188.5q0 -74 14 -221h293l-10 -99h-272q20 -191 22 -241q34 -17 66.5 -54t52.5 -71t46 -60t52 -26q40 0 62.5 42.5t32.5 151.5l106 -24q-14 -165 -61.5 -235t-126.5 -70q-37 0 -68 16t-54.5 44 t-40.5 55.5t-37 62.5t-34 53h-4q-8 -126 -48.5 -178.5t-107.5 -52.5q-56 0 -88 38t-32 109q0 85 45 143t123 70l-37 227h-78l-12 99h75q-18 155 -18 225q0 179 69.5 276t200.5 97q104 0 173 -66t91 -182zM152 78q50 0 53 174q-86 -16 -86 -121q0 -53 33 -53z" />
<glyph horiz-adv-x="630" d="M109 641q0 67 30 117l-76 84l60 67l78 -84q50 35 112 35q63 0 113 -35l82 88l61 -65l-80 -88q33 -58 33 -119q0 -65 -33 -123l78 -84l-61 -65l-80 84q-50 -35 -113 -35q-56 0 -110 33l-80 -89l-62 68l80 88q-32 56 -32 123zM201 639q0 -53 33 -88t81 -35t81.5 35t33.5 88 t-33.5 88t-81.5 35t-81 -35t-33 -88z" />
<glyph horiz-adv-x="765" d="M655 289h-198v-289h-146v289h-198v100h198v84h-198v98h170l-279 672h158l223 -610h4l215 610h162l-283 -672h172v-98h-198v-84h198v-100z" />
<glyph horiz-adv-x="765" d="M569 262v273h-483v120h596v-393h-113z" />
<glyph horiz-adv-x="765" d="M324 258v315h-238v119h238v322h114v-322h244v-119h-244v-315h-114zM682 63h-596v123h596v-123z" />
<glyph horiz-adv-x="765" d="M573 289l-206 223l-205 -223l-80 86l205 223l-205 223l80 88l205 -225l206 225l80 -88l-207 -223l207 -223z" />
<glyph horiz-adv-x="765" d="M682 535h-596v120h596v-120zM285 918q0 42 27.5 72t66.5 30q40 0 68 -29.5t28 -72.5q0 -41 -28 -71t-68 -30q-38 0 -66 30t-28 71zM285 283q0 41 28 71.5t66 30.5q40 0 68 -30.5t28 -71.5q0 -43 -28 -72t-68 -29q-39 0 -66.5 29.5t-27.5 71.5z" />
<glyph horiz-adv-x="765" d="M694 1008l-119 -37q-42 166 -172 166q-85 0 -124 -61t-39 -187v-115h290l-14 -88h-276v-82h262l-17 -86h-245v-172q0 -128 40 -186t123 -58q69 0 111.5 41t63.5 133l118 -34q-28 -125 -103.5 -193.5t-193.5 -68.5q-305 0 -305 374v164h-59v86h59v82h-59v88h59v111 q0 172 76.5 274.5t228.5 102.5q112 0 189 -66.5t106 -187.5z" />
<glyph horiz-adv-x="819" d="M57 831v105h172l29 401h102l-26 -401h190l29 401h104l-28 -401h133v-105h-137l-21 -323h158v-102h-160l-31 -406h-104l31 406h-193l-29 -406h-104l29 406h-144v102h146l22 323h-168zM330 831l-23 -323h193l22 323h-192z" />
<glyph horiz-adv-x="819" d="M397 1511h88l2 -163q89 -21 148.5 -91t83.5 -174l-101 -36q-37 147 -141 176l-20 -475q50 -36 78.5 -58.5t70 -63.5t63.5 -79.5t39 -95.5t17 -121q0 -150 -74.5 -242t-199.5 -104l-19 -160h-90l-4 166q-196 39 -246 293l109 39q33 -170 147 -201l25 504 q-55 38 -80.5 57.5t-69 61t-64.5 77t-38 91t-17 118.5q0 137 73 224.5t200 99.5zM600 313q0 83 -39 143t-110 113l-5 -454q74 8 114 58t40 140zM233 1042q0 -75 37 -130t107 -109l2 426q-146 -20 -146 -187z" />
<glyph horiz-adv-x="870" d="M377 213v365h-244v120h244v365h112v-365h250v-120h-250v-365h-112z" />
<glyph horiz-adv-x="819" d="M741 958v-583q0 -188 -85 -290.5t-246 -102.5q-163 0 -247.5 102.5t-84.5 290.5v583q0 189 85 293.5t247 104.5q161 0 246 -105t85 -293zM223 958v-583q0 -134 45.5 -197t141.5 -63q94 0 140 63t46 197v583q0 134 -46 198.5t-140 64.5q-95 0 -141 -64t-46 -199z" />
<glyph horiz-adv-x="819" d="M141 0v104h230v871h-273v117h144q48 0 75 7.5t48.5 33.5t30.5 73.5t14 130.5h116v-1233h189v-104h-574z" />
<glyph horiz-adv-x="819" d="M408 1356q151 0 228 -88.5t77 -235.5q0 -87 -24 -165.5t-62.5 -139t-86 -117.5t-97 -111.5t-91.5 -108.5t-73.5 -121t-40.5 -138h487v-131h-637l-4 80q2 87 30 169t71 147t94 128t101.5 122.5t92.5 117.5t68 125.5t26 136.5q0 197 -168 197q-76 0 -127.5 -57.5 t-70.5 -166.5l-117 35q26 143 109.5 232.5t214.5 89.5z" />
<glyph horiz-adv-x="819" d="M301 631v123h72q93 0 140.5 55t47.5 184q0 124 -41 177t-123 53q-147 0 -196 -205l-115 37q31 141 115.5 221t206.5 80q151 0 227 -92t76 -254q0 -242 -154 -310q87 -25 130.5 -99.5t43.5 -209.5q0 -212 -84 -310.5t-244 -98.5q-256 0 -325 270l112 39q50 -180 207 -180 q96 0 139.5 68t43.5 218q0 134 -50 184t-151 50h-78z" />
<glyph horiz-adv-x="819" d="M649 0h-135v254h-489v100l481 983h143v-958h137l-12 -125h-125v-254zM178 379h336l6 751z" />
<glyph horiz-adv-x="819" d="M197 629l-97 45l47 663h551l-10 -139h-426l-26 -420q96 62 202 62q152 0 226.5 -99t74.5 -313q0 -446 -342 -446q-118 0 -199.5 68.5t-111.5 203.5l115 39q22 -93 73 -137.5t119 -44.5q102 0 149.5 74.5t47.5 240.5q0 156 -47.5 219.5t-153.5 63.5q-55 0 -108 -22 t-84 -58z" />
<glyph horiz-adv-x="819" d="M428 1356q113 0 188.5 -69.5t106.5 -203.5l-109 -43q-24 97 -68 140t-112 43q-97 0 -145.5 -75.5t-48.5 -215.5v-180q82 82 213 82q152 0 222 -98t70 -298q0 -456 -327 -456q-152 0 -238 101.5t-86 297.5v539q0 199 89 317.5t245 118.5zM426 705q-78 0 -132 -39.5 t-54 -104.5v-192q0 -130 49 -192t131 -62q94 0 139 76t45 245q0 139 -43 204t-135 65z" />
<glyph horiz-adv-x="819" d="M356 0h-159l397 1200h-522v137h676v-116z" />
<glyph horiz-adv-x="819" d="M408 -18q-85 0 -146 20.5t-105 67.5t-65.5 126t-21.5 193q0 261 157 322q-135 69 -135 299q0 346 316 346q165 0 241 -88.5t76 -257.5q0 -229 -137 -299q160 -62 160 -322q0 -222 -83.5 -314.5t-256.5 -92.5zM600 395q0 139 -48 192.5t-144 53.5q-95 0 -143 -54t-48 -192 q0 -161 45 -222.5t146 -61.5q103 0 147.5 60.5t44.5 223.5zM408 1229q-94 0 -135.5 -51t-41.5 -181t42 -182.5t135 -52.5q95 0 136.5 52t41.5 183t-41 181.5t-137 50.5z" />
<glyph horiz-adv-x="819" d="M197 287q29 -93 75.5 -132.5t122.5 -39.5q91 0 140 58.5t49 174.5v285q-80 -80 -205 -80q-301 0 -301 391q0 205 86 308.5t252 103.5q149 0 231 -99t82 -270v-633q0 -172 -89 -271t-239 -99q-244 0 -309 254zM403 676q66 0 121.5 37.5t59.5 95.5v184q0 230 -172 230 q-95 0 -142 -65.5t-47 -209.5q0 -151 45 -211.5t135 -60.5z" />
<glyph horiz-adv-x="870" d="M696 922l-366 -279l368 -276v-166l-557 432v20l555 432v-163z" />
<glyph horiz-adv-x="870" d="M727 694h-582v121h582v-121zM727 430h-582v123h582v-123z" />
<glyph horiz-adv-x="870" d="M174 367l367 276l-365 279v163l555 -432v-20l-557 -432v166z" />
<glyph horiz-adv-x="819" d="M698 817l-106 -41q-42 148 -164 148q-166 0 -166 -219v-373q0 -228 164 -228q64 0 104.5 38t63.5 122l108 -37q-56 -208 -225 -237l-20 -185h-92l-7 183q-118 18 -179.5 110t-61.5 230v381q0 140 63 231.5t182 108.5l25 208h94l4 -213q78 -19 132.5 -77.5t80.5 -149.5z " />
<glyph horiz-adv-x="819" d="M59 608l-16 111h104q-20 157 -20 244q0 187 80.5 291t230.5 104q118 0 197 -71.5t104 -196.5l-112 -37q-42 170 -183 170q-174 0 -174 -273q0 -71 17 -231h350l-14 -111h-326q4 -36 10 -90.5t9.5 -92t5.5 -60.5q36 -14 68.5 -44.5t56 -63.5t46 -64.5t49 -51.5t54.5 -20 q47 0 73.5 48.5t41.5 170.5l110 -29q-20 -176 -73 -252.5t-144 -76.5q-53 0 -98.5 30.5t-72 67.5t-60.5 88t-56 74q-10 -140 -56.5 -200t-123.5 -60q-64 0 -101.5 43t-37.5 120q0 94 54 155t149 73q-27 168 -37 235h-105zM147 90q30 0 46.5 42.5t17.5 150.5 q-54 -8 -79.5 -45.5t-25.5 -85.5q0 -62 41 -62z" />
<glyph horiz-adv-x="819" d="M217 700q0 59 29 109l-68 76l58 63l69 -78q51 33 103 33q54 0 102 -33l76 82l57 -63l-74 -80q31 -48 31 -109q0 -62 -31 -110l72 -78l-57 -63l-76 77q-44 -30 -100 -30q-58 0 -101 30l-76 -82l-57 64l74 80q-31 53 -31 112zM305 698q0 -47 30.5 -79.5t72.5 -32.5 q43 0 73.5 32.5t30.5 79.5q0 49 -30 80t-74 31q-42 0 -72.5 -31.5t-30.5 -79.5z" />
<glyph horiz-adv-x="819" d="M684 303h-197v-303h-155v303h-207v109h207v86h-207v108h178l-293 731h172l228 -661l229 661h170l-293 -731h168v-108h-197v-86h197v-109z" />
<glyph horiz-adv-x="870" d="M625 305v273h-492v120h604v-393h-112z" />
<glyph horiz-adv-x="870" d="M377 289v321h-244v123h244v330h112v-330h250v-123h-250v-321h-112zM739 94h-606v121h606v-121z" />
<glyph horiz-adv-x="870" d="M641 330l-207 223l-205 -223l-79 86l204 223l-204 223l79 86l205 -223l207 223l80 -86l-207 -223l207 -223z" />
<glyph horiz-adv-x="870" d="M739 578h-606v120h606v-120zM338 961q0 43 27 72.5t67 29.5q39 0 66.5 -30t27.5 -72q0 -41 -28 -71t-66 -30q-39 0 -66.5 29.5t-27.5 71.5zM338 324q0 42 27.5 72t66.5 30q38 0 66 -30.5t28 -71.5t-28 -71t-66 -30q-39 0 -66.5 29.5t-27.5 71.5z" />
<glyph horiz-adv-x="819" d="M465 1356q119 0 203.5 -77.5t109.5 -201.5l-119 -41q-39 176 -186 176q-95 0 -144.5 -68t-49.5 -194v-119h362l-18 -92h-344v-86h327l-18 -94h-309v-186q0 -117 50 -186.5t144 -69.5q80 0 124 43t65 151l118 -37q-27 -153 -105 -222.5t-212 -69.5q-157 0 -248.5 107.5 t-91.5 283.5v186h-86v94h86v86h-86v92h86v117q0 191 90.5 299.5t251.5 108.5z" />
<glyph horiz-adv-x="335" d="M96 1190h140v-520l-17 -328h-106l-17 328v520zM80 0v186h174v-186h-174z" />
<glyph horiz-adv-x="870" d="M653 993l-106 -49q-52 146 -154 146q-108 0 -108 -129q0 -81 41 -148l258 -422q32 144 32 309v23h218v-109h-111q-9 -206 -61 -348q85 -124 206 -155l-22 -123q-142 22 -248 147q-99 -151 -268 -151q-127 0 -205 84t-78 258q0 121 48.5 222t137.5 167v2q-81 121 -81 241 q0 108 62.5 177t176.5 69q191 0 262 -211zM346 100q110 0 182 140l-231 374q-53 -52 -81 -128.5t-28 -155.5q0 -230 158 -230z" />
<glyph horiz-adv-x="690" d="M633 922q0 -126 -64.5 -234t-179.5 -174l-10 -176h-107l-10 244q230 125 230 329q0 75 -35.5 121.5t-114.5 46.5q-148 0 -199 -176l-114 33q32 122 114.5 195t204.5 73q143 0 214 -80t71 -202zM240 0v186h174v-186h-174z" />
<glyph horiz-adv-x="430" d="M37 1491h158l88 -217h-109z" />
<glyph horiz-adv-x="831" d="M240 305l-72 -305h-152l316 1190h168l313 -1190h-151l-74 305h-348zM412 1036l-144 -614h293l-145 614h-4z" />
<glyph horiz-adv-x="800" d="M696 891q0 -110 -34 -173.5t-111 -90.5v-4q192 -45 192 -283q0 -173 -72.5 -256.5t-236.5 -83.5h-328v1190h289q151 0 226 -78.5t75 -220.5zM252 559v-434h176q89 0 127.5 48.5t38.5 174.5q0 112 -40 161.5t-126 49.5h-176zM252 1061v-389h147q89 0 125.5 48t36.5 154 q0 100 -37.5 143.5t-122.5 43.5h-149z" />
<glyph horiz-adv-x="731" d="M393 1206q111 0 189.5 -69t103.5 -181l-111 -38q-39 159 -169 159q-90 0 -135.5 -61t-45.5 -178v-496q0 -107 45.5 -170t132.5 -63q73 0 112.5 38.5t59.5 135.5l113 -37q-27 -138 -99.5 -201t-197.5 -63q-145 0 -229 98t-84 260v498q0 172 83.5 270t231.5 98z" />
<glyph horiz-adv-x="858" d="M780 834v-478q0 -168 -88 -262t-248 -94h-338v1190h338q160 0 248 -94t88 -262zM633 358v469q0 234 -189 234h-188v-934h188q95 0 142 55.5t47 175.5z" />
<glyph horiz-adv-x="724" d="M106 1190h560v-131h-410v-385h322v-117h-322v-428h426v-129h-576v1190z" />
<glyph horiz-adv-x="710" d="M106 1190h558v-133h-408v-395h352v-123h-352v-539h-150v1190z" />
<glyph horiz-adv-x="821" d="M424 1206q119 0 202.5 -68.5t108.5 -185.5l-110 -41q-54 158 -197 158q-203 0 -203 -258v-455q0 -239 195 -239q64 0 109 24.5t79 83.5v252h-137v105h268v-582h-121v90h-4q-76 -106 -223 -106q-148 0 -230.5 96t-82.5 276v455q0 181 87 288t259 107z" />
<glyph horiz-adv-x="862" d="M106 1190h150v-512h352v512h150v-1190h-150v545h-352v-545h-150v1190z" />
<glyph horiz-adv-x="411" d="M131 1190h150v-1190h-150v1190z" />
<glyph horiz-adv-x="393" d="M139 1190h148v-1010q0 -199 -93 -299t-270 -102l-12 119q117 0 172 65.5t55 214.5v1012z" />
<glyph horiz-adv-x="815" d="M797 0h-166l-277 549l-100 -150v-399h-148v1190h148v-619h4l346 619h170l-321 -531z" />
<glyph horiz-adv-x="667" d="M106 1190h146v-1057h385v-133h-531v1190z" />
<glyph horiz-adv-x="1095" d="M854 1190h135v-1190h-135v844h-4l-268 -629h-68l-268 637h-4v-852h-136v1190h138l301 -754h4z" />
<glyph horiz-adv-x="862" d="M106 1190h115l402 -838h4v838h131v-1190h-107l-409 860h-4v-860h-132v1190z" />
<glyph horiz-adv-x="825" d="M750 840v-492q0 -172 -87 -269t-249 -97q-165 0 -250.5 96.5t-85.5 269.5v492q0 174 85.5 270t250.5 96q163 0 249.5 -96t86.5 -270zM602 348v492q0 120 -46.5 177.5t-141.5 57.5q-96 0 -142.5 -57.5t-46.5 -177.5v-492q0 -120 46.5 -178.5t142.5 -58.5q188 0 188 237z " />
<glyph horiz-adv-x="774" d="M434 1190q142 0 218.5 -93.5t76.5 -267.5q0 -171 -74 -265.5t-213 -94.5h-186v-469h-150v1190h328zM256 1061v-471h174q79 0 114.5 56t35.5 181t-35 179.5t-115 54.5h-174z" />
<glyph horiz-adv-x="825" d="M750 840v-492q0 -140 -59 -231.5t-171 -120.5l156 -195l-129 -51l-156 232q-155 7 -234 102.5t-79 263.5v492q0 174 85.5 270t250.5 96q163 0 249.5 -96t86.5 -270zM602 348v492q0 120 -46.5 177.5t-141.5 57.5q-96 0 -142.5 -57.5t-46.5 -177.5v-492q0 -120 46.5 -178.5 t142.5 -58.5q188 0 188 237z" />
<glyph horiz-adv-x="792" d="M608 0l-221 518h-131v-518h-150v1190h310q293 0 293 -326q0 -270 -185 -317l246 -547h-162zM256 1061v-424h150q87 0 123 52.5t36 166.5q0 112 -35 158.5t-120 46.5h-154z" />
<glyph horiz-adv-x="696" d="M352 -20q-116 0 -198.5 69.5t-106.5 196.5l123 39q42 -183 184 -183q156 0 156 183q0 58 -25 105t-65 81.5t-88 66.5t-96.5 67t-88.5 76t-65 102t-25 135q0 129 77.5 209.5t211.5 80.5q116 0 190.5 -63t106.5 -176l-115 -43q-38 157 -174 157q-147 0 -147 -159 q0 -54 24.5 -99t64 -78.5t87 -65.5t95 -68t87 -77t64 -101.5t24.5 -133.5q0 -154 -80.5 -237.5t-220.5 -83.5z" />
<glyph horiz-adv-x="667" d="M18 1190h631v-135h-241v-1055h-148v1055h-242v135z" />
<glyph horiz-adv-x="860" d="M618 1190h148v-852q0 -170 -86.5 -263t-247.5 -93t-249.5 92.5t-88.5 259.5v856h150v-856q0 -219 188 -219q93 0 139.5 51.5t46.5 167.5v856z" />
<glyph horiz-adv-x="813" d="M799 1190l-316 -1190h-153l-316 1190h162l230 -987h4l229 987h160z" />
<glyph horiz-adv-x="1257" d="M1217 1190l-240 -1190h-164l-182 913h-4l-183 -913h-163l-240 1190h152l174 -975h4l188 975h139l193 -981h4l174 981h148z" />
<glyph horiz-adv-x="798" d="M31 0l276 600l-268 590h160l198 -496h4l199 496h162l-268 -590l276 -600h-162l-207 504h-4l-209 -504h-157z" />
<glyph horiz-adv-x="778" d="M766 1190l-303 -793v-397h-150v397l-303 793h164l213 -637h4l215 637h160z" />
<glyph horiz-adv-x="724" d="M668 133v-133h-619v92l455 965h-428v133h594v-90l-455 -967h453z" />
<glyph horiz-adv-x="335" d="M240 0h-138v520l15 328h108l15 -328v-520zM258 1190v-186h-176v186h176z" />
<glyph horiz-adv-x="430" d="M43 1499h113v-203h-113v203zM274 1499h113v-203h-113v203z" />
<glyph horiz-adv-x="430" d="M412 1448v-102h-394v102h394z" />
<glyph horiz-adv-x="430" d="M176 1499h156l-121 -225h-107z" />
<glyph horiz-adv-x="690" d="M59 270q0 125 63.5 232.5t176.5 173.5l14 178h105l10 -246q-229 -123 -229 -327q0 -75 36 -121.5t115 -46.5q148 0 199 176l113 -33q-32 -123 -115 -195.5t-205 -72.5q-142 0 -212.5 79.5t-70.5 202.5zM453 1192v-186h-174v186h174z" />
<glyph horiz-adv-x="1392" d="M352 -20q-116 0 -198.5 69.5t-106.5 196.5l123 39q42 -183 184 -183q156 0 156 183q0 58 -25 105t-65 81.5t-88 66.5t-96.5 67t-88.5 76t-65 102t-25 135q0 129 77.5 209.5t211.5 80.5q116 0 190.5 -63t106.5 -176l-115 -43q-38 157 -174 157q-147 0 -147 -159 q0 -54 24.5 -99t64 -78.5t87 -65.5t95 -68t87 -77t64 -101.5t24.5 -133.5q0 -154 -80.5 -237.5t-220.5 -83.5zM1049 -20q-116 0 -199 69.5t-107 196.5l123 39q42 -183 185 -183q155 0 155 183q0 58 -25 105t-65 81.5t-88 66.5t-96 67t-88 76t-65 102t-25 135q0 129 77 209.5 t211 80.5q116 0 190.5 -63t106.5 -176l-114 -43q-38 157 -174 157q-75 0 -111.5 -41.5t-36.5 -117.5q0 -54 24.5 -99t64 -78.5t87 -65.5t95.5 -68t87.5 -77t64 -101.5t24.5 -133.5q0 -154 -80.5 -237.5t-220.5 -83.5z" />
<glyph horiz-adv-x="831" d="M240 305l-72 -305h-152l316 1190h168l313 -1190h-151l-74 305h-348zM412 1036l-144 -614h293l-145 614h-4zM252 1491h158l88 -217h-109z" />
<glyph horiz-adv-x="831" d="M240 305l-72 -305h-152l316 1190h168l313 -1190h-151l-74 305h-348zM412 1036l-144 -614h293l-145 614h-4zM424 1499h156l-121 -225h-107z" />
<glyph horiz-adv-x="831" d="M240 305l-72 -305h-152l316 1190h168l313 -1190h-151l-74 305h-348zM412 1036l-144 -614h293l-145 614h-4zM342 1274h-121l144 225h104l143 -225h-123l-71 135h-4z" />
<glyph horiz-adv-x="831" d="M240 305l-72 -305h-152l316 1190h168l313 -1190h-151l-74 305h-348zM412 1036l-144 -614h293l-145 614h-4zM563 1497l82 -14q-12 -112 -43 -162.5t-90 -50.5q-28 0 -53 14t-42.5 34t-33 39.5t-30.5 33.5t-29 14q-23 0 -37 -27t-21 -96l-82 12q10 114 41.5 163.5 t91.5 49.5q33 0 63.5 -21t49 -45.5t40 -45.5t38.5 -21q25 0 36 25.5t19 97.5z" />
<glyph horiz-adv-x="831" d="M240 305l-72 -305h-152l316 1190h168l313 -1190h-151l-74 305h-348zM412 1036l-144 -614h293l-145 614h-4zM244 1499h112v-203h-112v203zM475 1499h113v-203h-113v203z" />
<glyph horiz-adv-x="831" d="M240 305l-72 -305h-152l316 1190h168l313 -1190h-151l-74 305h-348zM412 1036l-144 -614h293l-145 614h-4zM260 1417q0 69 44 113.5t112 44.5q67 0 110 -44.5t43 -113.5t-42.5 -112t-110.5 -43t-112 43t-44 112zM350 1417q0 -36 17 -58t49 -22q31 0 48 22.5t17 57.5 t-17 57.5t-48 22.5t-48.5 -22.5t-17.5 -57.5z" />
<glyph horiz-adv-x="1171" d="M287 309l-115 -309h-152l463 1190h623v-131h-404l33 -385h289v-117h-281l37 -428h346v-129h-485l-25 309h-329zM557 1032l-225 -606h274l-45 606h-4z" />
<glyph horiz-adv-x="731" d="M393 1206q111 0 189.5 -69t103.5 -181l-111 -38q-39 159 -169 159q-90 0 -135.5 -61t-45.5 -178v-496q0 -107 45.5 -170t132.5 -63q73 0 112.5 38.5t59.5 135.5l113 -37q-26 -129 -90.5 -191.5t-173.5 -70.5l-8 -52q135 -22 135 -118q0 -64 -54 -106.5t-149 -51.5l-24 78 q59 12 83.5 28t24.5 43q0 53 -121 60l25 121q-121 19 -189.5 113.5t-68.5 240.5v498q0 172 83.5 270t231.5 98z" />
<glyph horiz-adv-x="724" d="M106 1190h560v-131h-410v-385h322v-117h-322v-428h426v-129h-576v1190zM217 1491h158l88 -217h-109z" />
<glyph horiz-adv-x="724" d="M106 1190h560v-131h-410v-385h322v-117h-322v-428h426v-129h-576v1190zM385 1499h156l-121 -225h-107z" />
<glyph horiz-adv-x="724" d="M106 1190h560v-131h-410v-385h322v-117h-322v-428h426v-129h-576v1190zM315 1274h-120l143 225h104l144 -225h-123l-72 135h-4z" />
<glyph horiz-adv-x="724" d="M106 1190h560v-131h-410v-385h322v-117h-322v-428h426v-129h-576v1190zM215 1499h113v-203h-113v203zM446 1499h113v-203h-113v203z" />
<glyph horiz-adv-x="411" d="M131 1190h150v-1190h-150v1190zM23 1491h157l88 -217h-108z" />
<glyph horiz-adv-x="411" d="M131 1190h150v-1190h-150v1190zM213 1499h156l-121 -225h-107z" />
<glyph horiz-adv-x="411" d="M131 1190h150v-1190h-150v1190zM133 1274h-121l144 225h104l143 -225h-122l-72 135h-4z" />
<glyph horiz-adv-x="411" d="M131 1190h150v-1190h-150v1190zM33 1499h112v-203h-112v203zM264 1499h113v-203h-113v203z" />
<glyph horiz-adv-x="872" d="M793 834v-478q0 -168 -88 -262t-248 -94h-338v565h-94v90h94v535h338q160 0 248 -94t88 -262zM645 358v469q0 234 -188 234h-189v-406h154v-90h-154v-438h189q95 0 141.5 55.5t46.5 175.5z" />
<glyph horiz-adv-x="862" d="M106 1190h115l402 -838h4v838h131v-1190h-107l-409 860h-4v-860h-132v1190zM592 1497l82 -14q-12 -112 -43 -162.5t-90 -50.5q-34 0 -64.5 21t-48.5 46.5t-39 46.5t-37 21q-23 0 -36.5 -27t-20.5 -96l-82 12q10 114 41.5 163.5t91.5 49.5q33 0 63.5 -21t49 -45.5 t40 -45.5t38.5 -21q25 0 36 25.5t19 97.5z" />
<glyph horiz-adv-x="825" d="M750 840v-492q0 -172 -87 -269t-249 -97q-165 0 -250.5 96.5t-85.5 269.5v492q0 174 85.5 270t250.5 96q163 0 249.5 -96t86.5 -270zM602 348v492q0 120 -46.5 177.5t-141.5 57.5q-96 0 -142.5 -57.5t-46.5 -177.5v-492q0 -120 46.5 -178.5t142.5 -58.5q188 0 188 237z M238 1491h157l88 -217h-108z" />
<glyph horiz-adv-x="825" d="M750 840v-492q0 -172 -87 -269t-249 -97q-165 0 -250.5 96.5t-85.5 269.5v492q0 174 85.5 270t250.5 96q163 0 249.5 -96t86.5 -270zM602 348v492q0 120 -46.5 177.5t-141.5 57.5q-96 0 -142.5 -57.5t-46.5 -177.5v-492q0 -120 46.5 -178.5t142.5 -58.5q188 0 188 237z M428 1499h156l-121 -225h-107z" />
<glyph horiz-adv-x="825" d="M750 840v-492q0 -172 -87 -269t-249 -97q-165 0 -250.5 96.5t-85.5 269.5v492q0 174 85.5 270t250.5 96q163 0 249.5 -96t86.5 -270zM602 348v492q0 120 -46.5 177.5t-141.5 57.5q-96 0 -142.5 -57.5t-46.5 -177.5v-492q0 -120 46.5 -178.5t142.5 -58.5q188 0 188 237z M342 1274h-121l144 225h104l143 -225h-123l-71 135h-4z" />
<glyph horiz-adv-x="825" d="M750 840v-492q0 -172 -87 -269t-249 -97q-165 0 -250.5 96.5t-85.5 269.5v492q0 174 85.5 270t250.5 96q163 0 249.5 -96t86.5 -270zM602 348v492q0 120 -46.5 177.5t-141.5 57.5q-96 0 -142.5 -57.5t-46.5 -177.5v-492q0 -120 46.5 -178.5t142.5 -58.5q188 0 188 237z M569 1497l82 -14q-12 -112 -43 -162.5t-90 -50.5q-28 0 -53 14t-42.5 34t-33 39.5t-30.5 33.5t-29 14q-23 0 -37 -27t-21 -96l-82 12q10 113 42 163t92 50q33 0 63.5 -21t48.5 -45.5t39.5 -45.5t38.5 -21q25 0 36 25.5t19 97.5z" />
<glyph horiz-adv-x="825" d="M750 840v-492q0 -172 -87 -269t-249 -97q-165 0 -250.5 96.5t-85.5 269.5v492q0 174 85.5 270t250.5 96q163 0 249.5 -96t86.5 -270zM602 348v492q0 120 -46.5 177.5t-141.5 57.5q-96 0 -142.5 -57.5t-46.5 -177.5v-492q0 -120 46.5 -178.5t142.5 -58.5q188 0 188 237z M242 1499h112v-203h-112v203zM473 1499h113v-203h-113v203z" />
<glyph horiz-adv-x="825" d="M752 840v-492q0 -172 -87.5 -269t-250.5 -97q-174 0 -262 108l-48 -80l-53 39l62 107q-35 81 -35 192v492q0 174 85.5 270t250.5 96q169 0 256 -104l53 88l55 -41l-67 -113q41 -80 41 -196zM604 348v506h-4l-362 -618q37 -123 176 -123q97 0 143.5 57.5t46.5 177.5z M225 840v-496h4l359 617q-40 112 -174 112q-96 0 -142.5 -57t-46.5 -176z" />
<glyph horiz-adv-x="860" d="M618 1190h148v-852q0 -170 -86.5 -263t-247.5 -93t-249.5 92.5t-88.5 259.5v856h150v-856q0 -219 188 -219q93 0 139.5 51.5t46.5 167.5v856zM262 1491h158l88 -217h-109z" />
<glyph horiz-adv-x="860" d="M618 1190h148v-852q0 -170 -86.5 -263t-247.5 -93t-249.5 92.5t-88.5 259.5v856h150v-856q0 -219 188 -219q93 0 139.5 51.5t46.5 167.5v856zM442 1499h156l-121 -225h-106z" />
<glyph horiz-adv-x="860" d="M618 1190h148v-852q0 -170 -86.5 -263t-247.5 -93t-249.5 92.5t-88.5 259.5v856h150v-856q0 -219 188 -219q93 0 139.5 51.5t46.5 167.5v856zM360 1274h-120l143 225h104l144 -225h-123l-72 135h-4z" />
<glyph horiz-adv-x="860" d="M618 1190h148v-852q0 -170 -86.5 -263t-247.5 -93t-249.5 92.5t-88.5 259.5v856h150v-856q0 -219 188 -219q93 0 139.5 51.5t46.5 167.5v856zM262 1499h113v-203h-113v203zM494 1499h112v-203h-112v203z" />
<glyph horiz-adv-x="778" d="M766 1190l-303 -793v-397h-150v397l-303 793h164l213 -637h4l215 637h160zM385 1499h156l-121 -225h-107z" />
<glyph horiz-adv-x="774" d="M434 975q142 0 218.5 -93.5t76.5 -267.5q0 -173 -74 -266.5t-213 -93.5h-186v-254h-150v1190h150v-215h178zM256 846v-471h174q79 0 114.5 56t35.5 181t-35 179.5t-115 54.5h-174z" />
<glyph horiz-adv-x="778" d="M766 1190l-303 -793v-397h-150v397l-303 793h164l213 -637h4l215 637h160zM217 1499h113v-203h-113v203zM449 1499h112v-203h-112v203z" />
<glyph horiz-adv-x="1218" d="M604 1190h549v-131h-401v-385h319v-117h-319v-428h422v-129h-570v88h-4q-65 -106 -219 -106q-142 0 -222.5 97.5t-80.5 268.5v492q0 172 80.5 269t222.5 97q154 0 219 -106h4v90zM604 352v484q0 122 -46.5 179.5t-143.5 57.5q-96 0 -142.5 -57.5t-46.5 -179.5v-484 q0 -122 46.5 -180.5t142.5 -58.5q97 0 143.5 58t46.5 181z" />
<glyph horiz-adv-x="430" d="M141 1274h-121l144 225h104l144 -225h-123l-72 135h-4z" />
<glyph horiz-adv-x="430" d="M365 1497l81 -14q-12 -112 -43 -162.5t-90 -50.5q-28 0 -53 14t-42.5 34t-33 39.5t-30.5 33.5t-29 14q-23 0 -36.5 -27t-20.5 -96l-82 12q10 114 41.5 163.5t91.5 49.5q33 0 63.5 -21t48.5 -45.5t39.5 -45.5t38.5 -21q25 0 37 25.5t19 97.5z" />
<glyph horiz-adv-x="1122" d="M106 1190h558v-133h-408v-395h352v-123h-352v-539h-150v1190zM842 1190h149v-1190h-149v1190z" />
<glyph horiz-adv-x="1378" d="M106 1190h558v-133h-408v-395h352v-123h-352v-539h-150v1190zM817 1190h146v-1057h385v-133h-531v1190z" />
<glyph horiz-adv-x="1832" d="M106 1190h558v-133h-408v-395h352v-123h-352v-539h-150v1190zM817 1190h557v-133h-407v-395h352v-123h-352v-539h-150v1190zM1552 1190h150v-1190h-150v1190z" />
<glyph horiz-adv-x="2088" d="M106 1190h558v-133h-408v-395h352v-123h-352v-539h-150v1190zM817 1190h557v-133h-407v-395h352v-123h-352v-539h-150v1190zM1528 1190h145v-1057h385v-133h-530v1190z" />
<glyph horiz-adv-x="442" d="M115 575v330q0 227 36 363.5t107.5 195t187.5 58.5h27v-109h-27q-70 0 -114.5 -43.5t-70 -157.5t-25.5 -307v-330q0 -191 26 -305.5t70.5 -158t113.5 -43.5h27v-107h-27q-116 0 -187.5 58.5t-107.5 194t-36 361.5z" />
<glyph horiz-adv-x="442" d="M330 905v-330q0 -226 -36.5 -361.5t-108.5 -194t-189 -58.5h-25v107h25q70 0 114.5 43.5t70.5 157.5t26 306v330q0 192 -26 306.5t-70.5 158t-114.5 43.5h-25v109h25q117 0 189 -58.5t108.5 -195t36.5 -363.5z" />
<glyph horiz-adv-x="452" d="M41 674v135h371v-135h-371z" />
<glyph horiz-adv-x="436" d="M131 -39v1561h340v-111h-213v-1339h213v-111h-340z" />
<glyph horiz-adv-x="440" d="M309 1522v-1561h-342v111h215v1339h-215v111h342z" />
<glyph horiz-adv-x="438" d="M-6 1559h188l113 -158h-129z" />
<glyph horiz-adv-x="450" d="M33 702v78q145 15 145 111q0 30 -31.5 148.5t-31.5 205.5q0 277 336 277h26v-109h-26q-109 0 -159 -49.5t-50 -151.5q0 -78 30.5 -187.5t30.5 -143.5q0 -54 -29 -88.5t-98 -51.5q69 -18 98 -52t29 -87q0 -33 -30.5 -141t-30.5 -187q0 -102 49.5 -153t157.5 -51h28v-109 h-28q-334 0 -334 283q0 88 31.5 203.5t31.5 144.5q0 47 -37.5 75.5t-107.5 34.5z" />
<glyph horiz-adv-x="450" d="M414 788v-79q-68 -6 -106 -34t-38 -73q0 -31 32 -146.5t32 -203.5q0 -283 -334 -283h-27v109h27q108 0 157.5 51.5t49.5 153.5q0 78 -30 185.5t-30 141.5q0 54 27.5 88t93.5 52q-66 17 -93.5 50.5t-27.5 88.5q0 34 30 144t30 188q0 101 -50 150.5t-157 49.5h-29v109h29 q334 0 334 -279q0 -87 -32 -205t-32 -149q0 -96 144 -109z" />
<glyph horiz-adv-x="438" d="M63 1559h109v-158h-109v158zM266 1559h109v-158h-109v158z" />
<glyph horiz-adv-x="520" d="M492 1028l-160 -287l160 -288h-109l-158 288l158 287h109zM295 1028l-160 -287l160 -288h-109l-157 288l157 287h109z" />
<glyph horiz-adv-x="452" d="M41 674v135h371v-135h-371z" />
<glyph horiz-adv-x="438" d="M406 1483v-78h-373v78h373z" />
<glyph horiz-adv-x="438" d="M207 1559h180l-172 -158h-121z" />
<glyph horiz-adv-x="520" d="M225 453l160 288l-160 287h109l158 -287l-158 -288h-109zM29 453l159 288l-159 287h108l158 -287l-158 -288h-108z" />
<glyph horiz-adv-x="438" d="M141 1401h-127l144 158h121l143 -158h-125l-78 90z" />
<glyph horiz-adv-x="438" d="M362 1559l76 -9q-13 -75 -42.5 -113t-88.5 -38q-35 0 -66.5 20.5t-56 41t-43.5 20.5q-21 0 -32.5 -17t-20.5 -57l-76 8q13 76 42 114t89 38q36 0 68 -20.5t56.5 -41t43.5 -20.5q21 0 32 16.5t19 57.5z" />
<glyph horiz-adv-x="684" d="M41 682v119h604v-119h-604z" />
<glyph horiz-adv-x="983" d="M41 680v121h903v-121h-903z" />
<glyph horiz-adv-x="323" d="M295 1028l-160 -287l160 -288h-109l-157 288l157 287h109z" />
<glyph horiz-adv-x="323" d="M29 453l159 288l-159 287h108l158 -287l-158 -288h-108z" />
<glyph horiz-adv-x="389" d="M117 1485h147v-649l-16 -418h-115l-16 413v654zM100 0v199h183v-199h-183z" />
<glyph horiz-adv-x="364" d="M92 0v190h182v-145q0 -127 -40 -199.5t-134 -83.5l-10 78q49 12 66.5 46.5t17.5 113.5h-82z" />
<glyph horiz-adv-x="362" d="M90 0v199h182v-199h-182z" />
<glyph horiz-adv-x="362" d="M90 793v198h182v-198h-182zM90 0v199h182v-199h-182z" />
<glyph horiz-adv-x="362" d="M90 793v198h182v-198h-182zM92 0v190h182v-145q0 -127 -40 -199.5t-134 -83.5l-10 78q49 12 66.5 46.5t17.5 113.5h-82z" />
<glyph horiz-adv-x="796" d="M37 1180q35 148 128.5 236.5t233.5 88.5q164 0 244 -96t80 -248q0 -155 -75.5 -291t-207.5 -221l-14 -231h-109l-10 305q266 172 266 428q0 99 -42.5 159t-137.5 60q-178 0 -235 -225zM283 0v199h182v-199h-182z" />
<glyph horiz-adv-x="690" d="M653 895l-215 -363l215 -364h-131l-211 364l211 363h131zM379 895l-215 -363l215 -364h-131l-211 364l211 363h131z" />
<glyph horiz-adv-x="690" d="M311 168l213 364l-213 363h131l209 -363l-209 -364h-131zM37 168l213 364l-213 363h131l209 -363l-209 -364h-131z" />
<glyph horiz-adv-x="321" d="M244 1423v-184h-166v143q0 167 90 301l57 -28q-47 -103 -47 -221z" />
<glyph horiz-adv-x="321" d="M80 1333v183h166v-142q0 -168 -92 -301l-58 29q49 107 49 219z" />
<glyph horiz-adv-x="321" d="M80 12v183h166v-142q0 -168 -92 -301l-58 29q49 107 49 219z" />
<glyph horiz-adv-x="581" d="M500 1423v-184h-166v143q0 167 90 301l57 -28q-47 -103 -47 -221zM244 1423v-184h-166v143q0 167 90 301l57 -28q-47 -103 -47 -221z" />
<glyph horiz-adv-x="581" d="M336 1333v183h166v-142q0 -168 -92 -301l-58 29q49 107 49 219zM80 1333v183h166v-142q0 -168 -92 -301l-58 29q49 107 49 219z" />
<glyph horiz-adv-x="577" d="M322 12v183h165v-142q0 -168 -92 -301l-57 29q49 107 49 219zM70 12v183h166v-142q0 -167 -93 -301l-57 29q49 107 49 219z" />
<glyph horiz-adv-x="1085" d="M90 0v199h182v-199h-182zM451 0v199h182v-199h-182zM813 0v199h182v-199h-182z" />
<glyph horiz-adv-x="415" d="M379 895l-215 -363l215 -364h-131l-211 364l211 363h131z" />
<glyph horiz-adv-x="415" d="M37 168l213 364l-213 363h131l209 -363l-209 -364h-131z" />
<glyph horiz-adv-x="1024" d="M883 1077v-678q0 -198 -97 -308.5t-274 -110.5q-179 0 -275 110.5t-96 308.5v678q0 202 96.5 315t274.5 113q177 0 274 -113.5t97 -314.5zM225 815v-434q0 -162 74.5 -246t212.5 -84t212.5 84t74.5 246v434q0 166 -73 253t-214 87t-214 -87t-73 -253zM326 754q0 29 19 50 t48 21q30 0 49 -21t19 -50q0 -32 -19 -54t-49 -22q-29 0 -48 22.5t-19 53.5zM567 754q0 29 19 50t49 21t50 -21t20 -50q0 -31 -20 -53.5t-50 -22.5q-29 0 -48.5 22.5t-19.5 53.5zM477 420v244h74v-244h-74zM365 287v71h311v-71h-311zM352 774q0 -10 7 -17t16 -7q11 0 17.5 7 t6.5 17q0 11 -7 18t-17 7q-9 0 -16 -7.5t-7 -17.5zM598 774q0 -10 7 -17t16 -7t16.5 7t7.5 17t-7.5 17.5t-16.5 7.5t-16 -7.5t-7 -17.5z" />
</font>
</defs>
</svg>
