<?xml version="1.0" encoding="utf-8"?>
<!-- Generator: Adobe Illustrator 18.1.1, SVG Export Plug-In . SVG Version: 6.00 Build 0)  -->
<!DOCTYPE svg PUBLIC "-//W3C//DTD SVG 1.1//EN" "http://www.w3.org/Graphics/SVG/1.1/DTD/svg11.dtd">
<svg version="1.1" id="Layer_1" xmlns="http://www.w3.org/2000/svg" xmlns:xlink="http://www.w3.org/1999/xlink" x="0px" y="0px"
	 viewBox="0 0 612 792" enable-background="new 0 0 612 792" xml:space="preserve">
<g>
	<path fill="#FFFFFF" d="M328.4,622.3c-27.9,0-53.2-6.5-57-7.5c-6.7-0.7-59.7-10.5-101.5-141.2c-19-59.5-5.8-104.9,8.7-132.5
		c13-24.7,28.9-39.7,34.6-44.6c-0.1-7.4,1.4-28.1,18.2-47c5-5.6,7.4-11.3,6.9-16.8c-0.6-8.4-7.6-14.3-7.6-14.3l-4.5-3.8l4.4-3.9
		c1.7-1.5,42.1-36,90.2-36c14.8,0,28.8,3.3,41.7,9.9c6.3-4.7,22.7-15,44.2-15c4.7,0,9.4,0.5,14,1.5l5.5,1.2l-1.8,5.3
		c-3.6,10.8-12.2,41.6-8.2,54.4c1.2,4,2.9,8.1,4.7,12.5c5.5,13.6,12.3,30.3,11.1,56.7c8.2,9.7,48.6,60.6,48.6,128.5
		c0,33.1-11.5,69.5-33.2,105.2c-16.4,27-38.9,53.5-60.1,70.9C374.1,616.8,354.2,622.3,328.4,622.3z M241.2,215.1
		c2.9,3.7,6.4,9.5,7,16.8c0.7,8.4-2.5,16.5-9.4,24.3c-17.5,19.6-15.6,41.9-15.6,42.2l0.3,2.7l-2.2,1.7c-0.2,0.1-19.4,15.2-34.1,43.4
		c-19.6,37.6-22.2,79.4-7.8,124.4c12.1,38,33.1,89.2,63.7,117.4c17.2,15.9,29.3,16.9,29.5,16.9l0.6,0l0.5,0.1
		c0.3,0.1,26.6,7.2,54.8,7.2c23.4,0,41.1-4.8,52.6-14.2c36-29.5,89.6-98.7,89.6-168.3c0-70.2-46.9-122.9-47.4-123.4l-1.4-1.6
		l0.1-2.1c1.5-25.3-4.8-40.8-10.3-54.4c-1.9-4.6-3.6-8.9-5-13.3c-4.5-14.8,2.8-42.8,6.5-55c-2.1-0.2-4.3-0.4-6.5-0.4
		c-23.2,0-40.2,14.6-40.4,14.7l-2.6,2.3l-3.1-1.7c-12.2-6.8-25.6-10.2-39.8-10.2C284.8,184.8,252.4,206.6,241.2,215.1z"/>
</g>
<g>
	<path fill="#FFFFFF" d="M162.9,442.1c-1.5-2.3-37.6-56.8-45.1-121.3c-4.5-39.1,5.3-76.5,26.3-100c14.4-16.1,32.8-24.7,53.3-24.7
		c21.6,0,34.2,9.8,41,18.1c7.4,8.9,9.6,17.9,9.7,18.3l-9.7,2.3l4.9-1.2l-4.9,1.2c-0.3-1.2-7.5-28.7-41-28.7
		c-17.6,0-33.5,7.4-45.9,21.3c-19.1,21.5-28,56-23.8,92.2c7.2,62.1,43.1,116.4,43.4,116.9L162.9,442.1z"/>
</g>
<g>
	<path fill="#FFFFFF" d="M363.3,579.6c-1.6,0-3.1-0.7-4.1-2.1c-1.6-2.2-1.1-5.4,1.2-7c0.5-0.4,52.8-38.5,72.4-114.8
		c8.7-33.9,3.6-66.9-15.1-98c-11.3-18.7-24.2-31-29-35.2c-98.3,26.1-143.8-2-145.7-3.2c-2.3-1.5-3-4.6-1.5-6.9
		c1.5-2.3,4.6-3,6.9-1.5l0,0c0.1,0.1,11.2,6.9,33.9,10.5c21,3.3,56.5,4.4,106.4-9.2c1.5-0.4,3.2-0.1,4.4,0.9
		c0.7,0.6,18.3,14.6,33.2,39.5c13.9,23.1,27.9,60.1,16.2,105.7c-20.5,79.9-74,118.8-76.3,120.4C365.3,579.3,364.3,579.6,363.3,579.6
		z"/>
</g>
</svg>
